<?xml version="1.0" encoding="UTF-8" standalone="no"?>
<!DOCTYPE svg PUBLIC "-//W3C//DTD SVG 1.1//EN" "http://www.w3.org/Graphics/SVG/1.1/DTD/svg11.dtd">
<svg>
<metadata>
Created by FontForge 20110222 at Mon Nov  5 14:22:57 2012
 By Orthosie Webmaster
Copyright 2006 - 2007, 2012 Monotype Imaging Inc. All rights reserved.
</metadata>
<defs>
<font id="SlatePro-Light" horiz-adv-x="1024">
  <font-face font-family="Slate Pro" font-weight="300" font-stretch="normal" units-per-em="2048" panose-1="2 0 3 6 4 0 0 2 0 4" ascent="1341" descent="-707" x-height="932" cap-height="1300" bbox="-381 -430 2315 1915" underline-thickness="102" underline-position="-103" unicode-range="U+0020-FEFF"/>
<missing-glyph d="M997 1362v-1362h-972v1362h972zM512 768l330 498h-662zM123 186l330 496l-330 496v-992zM901 1178l-332 -496l332 -498v994zM512 594l-332 -496h662z"/>
    <glyph glyph-name=".notdef" d="M997 1362v-1362h-972v1362h972zM512 768l330 498h-662zM123 186l330 496l-330 496v-992zM901 1178l-332 -496l332 -498v994zM512 594l-332 -496h662z"/>
    <glyph glyph-name="NULL" horiz-adv-x="0"/>
    <glyph glyph-name="nonmarkingreturn" horiz-adv-x="362"/>
    <glyph glyph-name="space" unicode=" " horiz-adv-x="512"/>
    <glyph glyph-name="exclam" unicode="!" horiz-adv-x="553" d="M317 358h-81l-27 942h135zM369 72q0 -39 -27 -65.5t-66 -26.5t-65.5 26.5t-26.5 65.5t26.5 65.5t65.5 26.5q38 0 65.5 -25.5t27.5 -66.5z"/>
    <glyph glyph-name="quotedbl" unicode="&quot;" horiz-adv-x="819" d="M594 891h-72l-30 440h133zM299 891h-74l-30 440h133z"/>
    <glyph glyph-name="numbersign" unicode="#" d="M762 829l-70 -358h219v-92h-237l-70 -369h-92l70 369h-246l-70 -369h-92l70 369h-213v92h231l70 358h-219v93h237l70 368h92l-70 -368h246l70 368h92l-70 -368h213v-93h-231zM424 829l-70 -358h246l70 358h-246z"/>
    <glyph glyph-name="dollar" unicode="$" d="M922 348q0 -86 -44.5 -161.5t-125.5 -122.5t-179 -54v-194h-92v192q-108 0 -215 53t-174 144l74 80q60 -79 141 -124t174 -50v514l-92 41q-73 31 -127.5 70t-88.5 98.5t-34 148.5q0 92 48.5 160.5t120 109t173.5 47.5v154h92v-151q116 -8 200.5 -51.5t129.5 -106.5 l-72 -72q-106 126 -258 133v-489l93 -41q134 -60 195 -139.5t61 -188.5zM481 1204q-56 0 -110.5 -27t-87.5 -75t-33 -113q0 -61 23 -103t51 -63t61.5 -38t95.5 -42v461zM809 338q0 162 -174 235l-62 27v-487q94 0 165 67t71 158zM76 657zM948 647z"/>
    <glyph glyph-name="percent" unicode="%" horiz-adv-x="1536" d="M1413 340q0 -161 -76 -259.5t-200 -98.5q-123 0 -200 98t-77 260t77 260t200 98q124 0 200 -99t76 -259zM434 -29l-76 41l744 1317l76 -41zM676 961q0 -161 -76.5 -260t-200.5 -99q-125 0 -200.5 99.5t-75.5 259.5q0 161 76 259.5t200 98.5q123 0 200 -98t77 -260z M1311 340q0 122 -47 197t-127 75t-127 -75t-47 -197t47 -197t127 -75t127 75t47 197zM573 961q0 122 -47 197t-127 75t-127 -75t-47 -197q0 -123 47 -198t127 -75t127 75t47 198z"/>
    <glyph glyph-name="ampersand" unicode="&amp;" horiz-adv-x="1249" d="M1085 0l-163 184l-18 -20q-89 -92 -190 -137t-222 -45q-116 0 -205 43.5t-137 121t-48 170.5q0 107 60 195t207 174l61 35l-17 18l-18 19q-67 67 -103 141.5t-36 144.5q0 120 87 197.5t220 77.5q134 0 220.5 -78t86.5 -197q0 -89 -53 -164t-194 -156l-29 -17l321 -361 q42 55 82 155t47 175l103 -25q-7 -81 -59 -201.5t-103 -181.5l244 -268h-144zM764 1034q0 88 -55.5 142.5t-145.5 54.5q-83 0 -138.5 -54.5t-55.5 -132.5q0 -116 106 -215l57 -61l52 31q180 106 180 235zM492 662l-39 -24q-125 -72 -179.5 -135.5t-54.5 -164.5 q0 -113 81 -182.5t212 -69.5q88 0 172.5 42t165.5 134z"/>
    <glyph glyph-name="quoteright" unicode="’" horiz-adv-x="512" d="M389 1290q0 -100 -62 -212.5t-153 -176.5l-61 51q153 142 153 369z"/>
    <glyph glyph-name="parenleft" unicode="(" horiz-adv-x="614" d="M492 -276q-120 93 -214 231.5t-140 293.5t-46 324q0 162 44.5 321t146 303t209.5 226l51 -51q-328 -323 -328 -799q0 -228 78.5 -428t249.5 -370z"/>
    <glyph glyph-name="parenright" unicode=")" horiz-adv-x="614" d="M522 573q0 -166 -45.5 -321.5t-138 -293t-215.5 -234.5l-51 51q158 158 242.5 356.5t84.5 441.5q0 472 -327 799l51 51q135 -110 221 -238.5t132 -280.5t46 -331z"/>
    <glyph glyph-name="asterisk" unicode="*" horiz-adv-x="860" d="M481 987l170 -207l-71 -53l-150 215l-147 -215l-74 53l170 207l-256 68l29 88l243 -88l-12 256h94l-12 -256l244 88l28 -88z"/>
    <glyph glyph-name="plus" unicode="+" d="M557 559v-364h-92v364h-363v92h363v365h92v-365h365v-92h-365z"/>
    <glyph glyph-name="comma" unicode="," horiz-adv-x="512" d="M354 164q0 -107 -65 -218.5t-150 -170.5l-63 51q153 149 153 369z"/>
    <glyph glyph-name="hyphen" unicode="-" horiz-adv-x="614" d="M92 420v102h430v-102h-430z"/>
    <glyph glyph-name="period" unicode="." horiz-adv-x="512" d="M348 82q0 -39 -26.5 -65.5t-65.5 -26.5t-65.5 26.5t-26.5 65.5t26.5 65.5t65.5 26.5t65.5 -26.5t26.5 -65.5z"/>
    <glyph glyph-name="slash" unicode="/" horiz-adv-x="768" d="M51 -195l-82 41l748 1577l82 -41z"/>
    <glyph glyph-name="zero" unicode="0" d="M948 651q0 -301 -116.5 -485t-319.5 -184q-134 0 -230.5 81.5t-151 235.5t-54.5 352q0 299 117.5 483.5t318.5 184.5t318.5 -184.5t117.5 -483.5zM825 653q0 261 -84.5 416.5t-228.5 155.5t-228.5 -155.5t-84.5 -416.5t84 -417t229 -156q144 0 228.5 155.5t84.5 417.5z "/>
    <glyph glyph-name="one" unicode="1" d="M508 0v1116q-37 -28 -104 -49.5t-111 -28.5l-17 88q41 3 101 26t98 61.5t51 93.5h99v-1307h-117z"/>
    <glyph glyph-name="two" unicode="2" d="M92 0q11 126 92 258t255 267q118 92 178.5 150t105.5 129t45 148q0 124 -77 197.5t-199 73.5q-178 0 -299 -166l-80 59q148 205 389 205q164 0 274.5 -100.5t110.5 -257.5q0 -97 -42.5 -174.5t-89.5 -128t-119 -107.5l-158 -128q-213 -171 -249 -327h703v-98h-840z M76 662zM948 657z"/>
    <glyph glyph-name="three" unicode="3" d="M881 358q0 -170 -118.5 -273t-311.5 -103q-120 0 -217.5 56t-151.5 146l82 62q118 -166 297 -166q140 0 221.5 74.5t81.5 203.5q0 126 -87.5 202.5t-225.5 76.5h-103v98h103q121 0 198.5 68.5t77.5 179.5q0 110 -72 177t-186 67q-167 0 -276 -146l-72 64q62 85 154 130.5 t196 45.5q102 0 188 -42t133.5 -116.5t47.5 -169.5q0 -82 -33.5 -143.5t-87 -101.5t-115.5 -52q76 -14 139 -59t100.5 -115.5t37.5 -163.5z"/>
    <glyph glyph-name="four" unicode="4" d="M788 317v-317h-116v317h-631v93l594 890h153v-888h205v-95h-205zM672 1188l-510 -776h510v776zM68 855zM948 892z"/>
    <glyph glyph-name="five" unicode="5" d="M911 410q0 -126 -57 -224.5t-161 -151t-232 -52.5q-117 0 -215.5 49t-155.5 131l76 71q117 -153 299 -153q152 0 241 88.5t89 234.5q0 148 -88 235t-240 87q-77 0 -133.5 -24.5t-87.5 -55.5l-84 41l114 614h625v-96h-536l-86 -436q79 51 213 51q119 0 215 -50t150 -143.5 t54 -215.5zM76 1052zM948 1065z"/>
    <glyph glyph-name="six" unicode="6" d="M952 410q0 -186 -112.5 -307t-296.5 -121q-245 0 -359 213q-82 148 -82 450q0 191 62 349.5t176.5 242.5t263.5 84q95 0 177.5 -31.5t129.5 -81.5l-63 -73q-96 88 -236 88q-148 0 -234.5 -86.5t-123.5 -209.5t-37 -292q82 96 168.5 135t187.5 39q112 0 198 -54.5 t133.5 -142t47.5 -202.5zM836 399q0 147 -77.5 229.5t-215.5 82.5q-96 0 -181 -59.5t-137 -149.5q0 -186 88.5 -306t229.5 -120q137 0 215 86t78 237z"/>
    <glyph glyph-name="seven" unicode="7" d="M369 0h-123l590 1204h-723v96h839v-92zM76 769zM948 787z"/>
    <glyph glyph-name="eight" unicode="8" d="M942 348q0 -169 -118 -267.5t-312 -98.5q-196 0 -313 99t-117 267q0 119 70 207.5t210 140.5q-111 42 -170 120.5t-59 180.5q0 141 108.5 232.5t270.5 91.5q167 0 273 -89t106 -233q0 -70 -27 -128.5t-83 -105.5t-122 -69q134 -49 208.5 -135t74.5 -213zM778 997 q0 106 -73.5 169t-192.5 63q-118 0 -192 -62.5t-74 -167.5q0 -98 87 -170t220 -92q113 29 169 95.5t56 164.5zM823 352q0 111 -95 192.5t-257 110.5q-135 -40 -202.5 -116.5t-67.5 -184.5q0 -127 85 -202.5t226 -75.5q140 0 225.5 74.5t85.5 201.5z"/>
    <glyph glyph-name="nine" unicode="9" d="M922 655q0 -185 -62.5 -346t-175 -244t-264.5 -83q-96 0 -180 31.5t-138 88.5l68 80q52 -52 112 -77t128 -25q149 0 237 86t124 212.5t36 289.5q-53 -67 -101 -101t-110.5 -56t-144.5 -22q-97 0 -175 39.5t-141 132t-63 232.5q0 120 51 218.5t144 154t214 55.5 q221 0 331 -167.5t110 -498.5zM481 588q186 0 318 211q0 186 -88 307t-230 121q-138 0 -215.5 -85.5t-77.5 -234.5q0 -148 77.5 -233.5t215.5 -85.5z"/>
    <glyph glyph-name="colon" unicode=":" horiz-adv-x="512" d="M348 82q0 -39 -26.5 -65.5t-65.5 -26.5t-65.5 26.5t-26.5 65.5t26.5 65.5t65.5 26.5t65.5 -26.5t26.5 -65.5zM348 840q0 -39 -26.5 -65.5t-65.5 -26.5t-65.5 26.5t-26.5 65.5t26.5 65.5t65.5 26.5t65.5 -26.5t26.5 -65.5z"/>
    <glyph glyph-name="semicolon" unicode=";" horiz-adv-x="512" d="M358 840q0 -39 -26.5 -65.5t-65.5 -26.5t-65.5 26.5t-26.5 65.5t26.5 65.5t65.5 26.5t65.5 -26.5t26.5 -65.5zM354 164q0 -107 -65 -218.5t-150 -170.5l-63 51q153 149 153 369z"/>
    <glyph glyph-name="less" unicode="&lt;" d="M922 911l-707 -305l707 -307v-106l-820 366v92l820 367v-107z"/>
    <glyph glyph-name="equal" unicode="=" d="M102 731v94h820v-94h-820zM102 385v94h820v-94h-820z"/>
    <glyph glyph-name="greater" unicode="&gt;" d="M102 1018l820 -367v-92l-820 -366v106l707 305l-707 307v107z"/>
    <glyph glyph-name="question" unicode="?" horiz-adv-x="860" d="M768 1022q0 -49 -11 -90t-33.5 -80t-46 -68.5t-59.5 -65.5l-60 -58q-109 -101 -114 -201l-4 -103h-92v92q0 83 23 134.5t77 107.5l95 95q112 108 112 216q0 95 -65.5 157.5t-169.5 62.5q-149 0 -256 -138l-72 62q55 86 144.5 130t197.5 44q141 0 237.5 -85.5t96.5 -211.5 zM487 72q0 -39 -26.5 -65.5t-65.5 -26.5t-66.5 27t-27.5 65q0 39 26.5 65.5t65.5 26.5t66.5 -27t27.5 -65z"/>
    <glyph glyph-name="at" unicode="@" horiz-adv-x="1659" d="M1536 604q0 -143 -49.5 -260.5t-145.5 -194.5t-194 -77q-90 0 -140.5 40t-50.5 109q-39 -60 -81.5 -90t-79 -44.5t-88.5 -14.5q-121 0 -188.5 78t-67.5 219q0 132 54.5 256t149 200t226.5 76q65 0 118.5 -25.5t75.5 -66.5l31 72h92l-133 -533q-12 -47 -12 -82 q0 -102 104 -102q63 0 132 60t112 159t43 221q0 146 -73 266.5t-205 188t-296 67.5q-174 0 -323 -86.5t-235.5 -240t-86.5 -338.5q0 -184 75 -323t213 -213.5t316 -74.5q158 0 290 36t202 94l41 -72q-80 -69 -224.5 -109.5t-318.5 -40.5q-204 0 -362.5 86t-246 247 t-87.5 374q0 208 97.5 379t272.5 273t377 102q186 0 338.5 -78.5t240 -221t87.5 -315.5zM1038 676q-4 58 -48 95.5t-109 37.5q-80 0 -142.5 -41.5t-119 -149t-56.5 -239.5q0 -211 164 -211q71 0 145 65.5t95 155.5z"/>
    <glyph glyph-name="A" unicode="A" horiz-adv-x="1126" d="M993 0l-133 365h-604l-133 -365h-123l496 1300h133l497 -1300h-133zM559 1188l-266 -721h530z"/>
    <glyph glyph-name="B" unicode="B" horiz-adv-x="1137" d="M1044 369q0 -167 -116.5 -268t-342.5 -101h-401v1300h358q135 0 214.5 -23.5t140.5 -98t61 -185.5q0 -102 -62.5 -180.5t-168.5 -105.5v-5q146 -20 231.5 -107.5t85.5 -225.5zM834 973q0 70 -29 122.5t-83.5 77.5t-173.5 25h-241v-461h209q123 0 182 24t97.5 80.5 t38.5 131.5zM918 369q0 117 -79.5 191.5t-254.5 74.5h-277v-533h277q82 0 154.5 19.5t126 83t53.5 164.5z"/>
    <glyph glyph-name="C" unicode="C" horiz-adv-x="1229" d="M1067 993q-51 97 -148.5 156t-224.5 59q-204 0 -334.5 -154t-130.5 -403q0 -247 125 -402t332 -155q129 0 232 60.5t163 162.5l86 -71q-68 -120 -194.5 -192t-286.5 -72q-173 0 -306 82t-205.5 235.5t-72.5 351.5q0 192 77 345.5t213 238t304 84.5q109 0 203.5 -35 t162 -97.5t97.5 -121.5z"/>
    <glyph glyph-name="D" unicode="D" horiz-adv-x="1311" d="M1208 651q0 -184 -75 -334t-210 -233.5t-329 -83.5h-410v1300h410q290 0 452 -187t162 -462zM1081 649q0 154 -57.5 280t-167.5 197.5t-262 71.5h-287v-1096h287q153 0 263 72t167 198t57 277z"/>
    <glyph glyph-name="E" unicode="E" horiz-adv-x="1044" d="M184 0v1300h748v-100h-625v-452h584v-103h-584v-541h645v-104h-768z"/>
    <glyph glyph-name="F" unicode="F" horiz-adv-x="952" d="M307 1200v-483h533v-103h-533v-614h-123v1300h707v-100h-584z"/>
    <glyph glyph-name="G" unicode="G" horiz-adv-x="1341" d="M1110 0l-16 164q-62 -79 -171.5 -130.5t-246.5 -51.5q-169 0 -300.5 83t-202.5 236t-71 350q0 192 77 345.5t213 238t304 84.5q123 0 217.5 -40.5t150.5 -92.5t93 -111l-92 -71l-7 11q-27 45 -70.5 86.5t-116.5 74t-177 32.5q-134 0 -240.5 -70t-165.5 -197.5t-59 -289.5 q0 -247 125 -402t332 -155q132 0 233.5 53.5t157.5 139.5v256h-360v102h481v-645h-88z"/>
    <glyph glyph-name="H" unicode="H" horiz-adv-x="1362" d="M1055 0v645h-748v-645h-123v1300h123v-552h748v552h123v-1300h-123z"/>
    <glyph glyph-name="I" unicode="I" horiz-adv-x="492" d="M184 0v1300h123v-1300h-123z"/>
    <glyph glyph-name="J" unicode="J" horiz-adv-x="594" d="M287 1300h123v-1121q0 -142 -72.5 -230.5t-194.5 -88.5q-78 0 -133 24l21 99q36 -21 112 -21q69 0 106.5 55t37.5 150v1133z"/>
    <glyph glyph-name="K" unicode="K" horiz-adv-x="1096" d="M928 0l-453 682l-168 -180v-502h-123v1300h123v-655l598 655h150l-500 -534l520 -766h-147z"/>
    <glyph glyph-name="L" unicode="L" horiz-adv-x="870" d="M184 0v1300h123v-1196h543v-104h-666z"/>
    <glyph glyph-name="M" unicode="M" horiz-adv-x="1620" d="M1313 0v1145l-457 -1145h-102l-457 1145v-1145h-113v1300h174l451 -1136l453 1136h174v-1300h-123z"/>
    <glyph glyph-name="N" unicode="N" horiz-adv-x="1352" d="M1055 0l-758 1147v-1147h-113v1300h148l723 -1095v1095h112v-1300h-112z"/>
    <glyph glyph-name="O" unicode="O" horiz-adv-x="1423" d="M1321 651q0 -191 -76 -344.5t-215.5 -239t-316.5 -85.5t-317.5 85t-217 238t-76.5 344q0 192 77 346.5t216.5 239t315.5 84.5t315.5 -85t217 -238t77.5 -345zM1194 651q0 246 -133.5 402.5t-347.5 156.5q-218 0 -351 -156t-133 -403q0 -249 135 -404t347 -155 q216 0 349.5 155.5t133.5 403.5z"/>
    <glyph glyph-name="P" unicode="P" horiz-adv-x="1065" d="M973 907q0 -197 -121.5 -296t-308.5 -99h-236v-512h-123v1300h359q122 0 218.5 -41.5t154 -128.5t57.5 -223zM850 907q0 95 -36 156.5t-106 98t-196 36.5h-205v-584h205q126 0 195.5 37.5t106 98.5t36.5 157z"/>
    <glyph glyph-name="Q" unicode="Q" horiz-adv-x="1423" d="M1321 651q0 -156 -47.5 -278.5t-131 -210.5t-181.5 -130q7 -64 56.5 -128.5t119.5 -98.5l-80 -84q-79 33 -136 105t-77 170q-70 -14 -131 -14q-177 0 -317.5 85t-217 238t-76.5 344q0 192 77 346.5t216.5 239t315.5 84.5t315.5 -85t217 -238t77.5 -345zM1194 651 q0 246 -133.5 402.5t-347.5 156.5q-218 0 -351 -156t-133 -403q0 -249 135 -404t347 -155q216 0 349.5 155.5t133.5 403.5z"/>
    <glyph glyph-name="R" unicode="R" horiz-adv-x="1116" d="M907 0l-375 563h-225v-563h-123v1300h379q181 0 298.5 -102t117.5 -266q0 -129 -81 -227.5t-228 -131.5l385 -573h-148zM856 932q0 79 -42.5 145t-109 93.5t-162.5 27.5h-235v-532h215q111 0 179.5 26.5t111.5 92t43 147.5z"/>
    <glyph glyph-name="S" unicode="S" horiz-adv-x="995" d="M911 348q0 -163 -120.5 -264.5t-315.5 -101.5q-123 0 -233 54.5t-183 160.5l84 75q44 -68 134.5 -127t201.5 -59q142 0 228 67.5t86 184.5q0 63 -32.5 111.5t-86.5 79.5t-123 57l-202 81q-234 97 -234 316q0 151 111 243.5t288 92.5q115 0 219.5 -52t161.5 -134l-76 -80 q-49 72 -134 118t-171 46q-127 0 -205 -60t-78 -164q0 -63 32 -111t89 -80.5t104 -49.5l204 -81q251 -104 251 -323z"/>
    <glyph glyph-name="T" unicode="T" horiz-adv-x="983" d="M553 1198v-1198h-123v1198h-410v102h943v-102h-410z"/>
    <glyph glyph-name="U" unicode="U" horiz-adv-x="1260" d="M973 1300h123v-788q0 -210 -47 -307.5t-146 -160t-272 -62.5q-119 0 -204.5 30.5t-147 94.5t-88.5 152t-27 253v788h123v-798q0 -140 18 -201t62 -110t106 -73t156 -24q86 0 152 23t111 74t63 110t18 201v798z"/>
    <glyph glyph-name="V" unicode="V" horiz-adv-x="1106" d="M614 0h-122l-472 1300h134l403 -1167l406 1167h122z"/>
    <glyph glyph-name="W" unicode="W" horiz-adv-x="1720" d="M1331 0h-143l-328 1157l-328 -1157h-143l-338 1300h127l287 -1157l328 1157h143l328 -1157l286 1157h119z"/>
    <glyph glyph-name="X" unicode="X" horiz-adv-x="1065" d="M891 0l-359 584l-358 -584h-143l430 666l-400 634h144l327 -552l328 552h144l-400 -634l430 -666h-143z"/>
    <glyph glyph-name="Y" unicode="Y" horiz-adv-x="1055" d="M590 543v-543h-123v543l-447 757h138l374 -655l373 655h129z"/>
    <glyph glyph-name="Z" unicode="Z" horiz-adv-x="1075" d="M72 0v94l768 1106h-748v100h891v-92l-768 -1104h789v-104h-932z"/>
    <glyph glyph-name="bracketleft" unicode="[" horiz-adv-x="614" d="M174 -276v1669h358v-82h-249v-1506h249v-81h-358z"/>
    <glyph glyph-name="backslash" unicode="\" horiz-adv-x="768" d="M717 -195l-748 1577l82 41l748 -1577z"/>
    <glyph glyph-name="bracketright" unicode="]" horiz-adv-x="614" d="M82 -276v81h250v1506h-250v82h358v-1669h-358z"/>
    <glyph glyph-name="asciicircum" unicode="^" d="M819 645l-307 574l-307 -574h-103l359 655h102l359 -655h-103z"/>
    <glyph glyph-name="underscore" unicode="_" d="M0 -266v92h1024v-92h-1024z"/>
    <glyph glyph-name="quoteleft" unicode="‘" horiz-adv-x="512" d="M399 1280q-153 -148 -153 -369l-123 31q0 105 63 215.5t152 173.5z"/>
    <glyph glyph-name="a" unicode="a" horiz-adv-x="922" d="M696 0q-20 60 -20 123q-113 -141 -307 -141q-130 0 -208.5 75t-78.5 205q0 74 32.5 132.5t100.5 98t165 58t292 22.5v72q0 100 -61 154.5t-171 54.5q-76 0 -149.5 -22t-126.5 -62l-47 90q69 42 151 66t166 24q113 0 194.5 -38t120.5 -109.5t39 -188.5v-430q0 -99 41 -184 h-133zM672 483q-62 0 -172 -11t-167.5 -35t-92.5 -66t-35 -105q0 -88 51 -140t143 -52q80 0 158 48t115 124v237z"/>
    <glyph glyph-name="b" unicode="b" horiz-adv-x="1085" d="M1004 467q0 -133 -49 -239.5t-145.5 -176t-225.5 -69.5q-97 0 -179 47t-124 125l-21 -154h-96v1341h117v-573q6 14 25 39t60 60t105 59t133 24q180 0 290 -135.5t110 -347.5zM881 467q0 167 -83.5 277t-213.5 110q-131 0 -219.5 -110.5t-88.5 -276.5q0 -167 83.5 -277 t213.5 -110q131 0 219.5 109.5t88.5 277.5z"/>
    <glyph glyph-name="c" unicode="c" horiz-adv-x="895" d="M764 705q-40 67 -106 106t-142 39q-141 0 -227 -104t-86 -279q0 -171 83.5 -277t219.5 -106q66 0 116 22.5t84.5 54t63.5 72.5l78 -67l-8 -11q-27 -40 -69.5 -76.5t-112 -67.5t-166.5 -31q-183 0 -296.5 137.5t-113.5 347.5q0 139 55.5 250.5t155 173t219.5 61.5 q58 0 110.5 -13t106.5 -47.5t83.5 -73.5t33.5 -50z"/>
    <glyph glyph-name="d" unicode="d" horiz-adv-x="1085" d="M825 0l-20 154q-46 -77 -131 -124.5t-195 -47.5q-178 0 -287.5 135t-109.5 350q0 206 118 344.5t302 138.5q89 0 168 -40.5t135 -141.5v573h117v-1341h-97zM809 467q0 167 -83.5 277t-213.5 110q-131 0 -219 -110.5t-88 -276.5t82.5 -276.5t214.5 -110.5q131 0 219 110.5 t88 276.5z"/>
    <glyph glyph-name="e" unicode="e" horiz-adv-x="958" d="M205 451q0 -166 82 -266.5t225 -100.5q88 0 167.5 30t129.5 81l57 -80q-59 -61 -156 -97t-208 -36q-191 0 -305.5 132t-114.5 351q0 155 57.5 263.5t148.5 165t214 56.5q171 0 278 -120.5t107 -317.5v-61h-682zM768 543q0 142 -71.5 226.5t-198.5 84.5q-129 0 -208 -94 t-85 -217h563z"/>
    <glyph glyph-name="f" unicode="f" horiz-adv-x="526" d="M586 1229l-13 6q-47 20 -104 20q-58 0 -93.5 -23.5t-52 -67.5t-16.5 -130v-102h258v-92h-258v-840h-117v840h-147v92h147v123q0 97 32 160t91.5 99t137.5 36q38 0 69.5 -5t89.5 -26z"/>
    <glyph glyph-name="g" unicode="g" horiz-adv-x="1075" d="M795 195q-74 -116 -158 -150.5t-166 -34.5q-172 0 -280.5 129.5t-108.5 341.5q0 131 54 239.5t149 169t207 60.5q61 0 113 -14.5t103.5 -53.5t86.5 -114l20 164h96v-768q0 -217 -51.5 -318t-153 -152.5t-235.5 -51.5q-102 0 -189 29t-153 79l57 88q44 -36 123 -65 t162 -29q154 0 239 80t85 289v82zM799 481q0 162 -82 267.5t-209 105.5q-130 0 -216.5 -106.5t-86.5 -266.5t81 -266t210 -106q130 0 216.5 106.5t86.5 265.5z"/>
    <glyph glyph-name="h" unicode="h" horiz-adv-x="1055" d="M784 0v571q0 143 -51.5 208t-159.5 65q-68 0 -130 -41t-106.5 -109.5t-55.5 -130.5v-563h-117v1341h117v-593q52 97 136.5 149.5t186.5 52.5q145 0 221 -88.5t76 -249.5v-612h-117z"/>
    <glyph glyph-name="i" unicode="i" horiz-adv-x="444" d="M315 1255q0 -39 -27 -66.5t-65 -27.5q-39 0 -66.5 27t-27.5 65q0 40 27 67.5t65 27.5q40 0 67 -28t27 -65zM164 0v932h117v-932h-117z"/>
    <glyph glyph-name="j" unicode="j" horiz-adv-x="455" d="M326 1255q0 -40 -28 -67t-65 -27q-39 0 -66.5 27t-27.5 65t27 66.5t65 28.5q41 0 68 -28t27 -65zM291 -31q0 -123 -27 -189.5t-82 -102t-129 -35.5q-61 0 -114 20l10 92q42 -14 96 -14q68 0 98.5 42t30.5 167v983h117v-963z"/>
    <glyph glyph-name="k" unicode="k" horiz-adv-x="932" d="M768 0l-354 481l-133 -127v-354h-117v1341h117v-860l446 451h154l-389 -375l419 -557h-143z"/>
    <glyph glyph-name="l" unicode="l" horiz-adv-x="444" d="M164 0v1341h117v-1341h-117z"/>
    <glyph glyph-name="m" unicode="m" horiz-adv-x="1593" d="M1323 0v604q0 133 -45.5 186.5t-138.5 53.5q-58 0 -115.5 -38t-105.5 -111.5t-58 -131.5v-563h-117v604q0 134 -45 187t-139 53q-58 0 -115.5 -38t-107.5 -115t-55 -128v-563h-117v932h106l11 -184q43 88 129 145t178 57q110 0 175 -54t87 -161q48 97 137 156t180 59 q131 0 202 -82.5t71 -232.5v-635h-117z"/>
    <glyph glyph-name="n" unicode="n" horiz-adv-x="1055" d="M784 0v571q0 143 -51.5 208t-159.5 65q-68 0 -130 -41t-106.5 -109.5t-55.5 -130.5v-563h-117v932h106l11 -184q52 97 136.5 149.5t186.5 52.5q145 0 221 -88.5t76 -249.5v-612h-117z"/>
    <glyph glyph-name="o" unicode="o" d="M942 467q0 -220 -119 -352.5t-311 -132.5t-311 133t-119 350q0 220 119 352.5t311 132.5t311 -133t119 -350zM819 467q0 179 -83.5 282t-223.5 103q-141 0 -224 -103.5t-83 -281.5t82.5 -282.5t224.5 -104.5t224.5 104t82.5 283z"/>
    <glyph glyph-name="p" unicode="p" horiz-adv-x="1085" d="M1004 467q0 -164 -69 -276.5t-157 -160.5t-194 -48q-97 0 -179 47t-124 125v-502h-117v1280h106l11 -164q15 34 55 71.5t74 58t80.5 36.5t113.5 16q180 0 290 -135.5t110 -347.5zM881 467q0 167 -83.5 277t-213.5 110q-133 0 -220.5 -111.5t-87.5 -275.5 q0 -167 83.5 -277t213.5 -110q132 0 220 110.5t88 276.5z"/>
    <glyph glyph-name="q" unicode="q" horiz-adv-x="1085" d="M805 -348v502q-46 -77 -131 -124.5t-195 -47.5q-178 0 -287.5 135t-109.5 350q0 209 118.5 346t301.5 137q89 0 166.5 -39.5t136.5 -142.5l20 164h97v-1280h-117zM809 467q0 167 -83.5 277t-213.5 110q-131 0 -219 -110.5t-88 -276.5t82.5 -276.5t214.5 -110.5 q131 0 219 110.5t88 276.5z"/>
    <glyph glyph-name="r" unicode="r" horiz-adv-x="666" d="M625 823q-30 13 -62 13q-103 0 -183 -82.5t-99 -200.5v-553h-117v932h106l11 -195q43 95 121.5 155t170.5 60q35 0 72 -10z"/>
    <glyph glyph-name="s" unicode="s" horiz-adv-x="799" d="M727 254q0 -122 -92 -197t-238 -75q-108 0 -204.5 51t-141.5 117l76 71q50 -64 124 -102.5t148 -38.5q100 0 157.5 42t57.5 118q0 61 -42.5 98t-143.5 72l-152 55q-94 34 -137 96.5t-43 132.5q0 115 89.5 185.5t228.5 70.5q90 0 172.5 -35t130.5 -88l-62 -82 q-46 49 -112 79t-133 30q-94 0 -149.5 -39t-55.5 -108q0 -55 33.5 -90t119.5 -64l149 -52q52 -18 101 -46.5t84 -78t35 -122.5z"/>
    <glyph glyph-name="t" unicode="t" horiz-adv-x="614" d="M309 840v-543q0 -84 12.5 -128t47.5 -67.5t98 -23.5q38 0 90 14l16 -92q-68 -20 -143 -20q-81 0 -135.5 34.5t-78 93t-23.5 189.5v543h-142v92h142l16 266h100v-266h275v-92h-275z"/>
    <glyph glyph-name="u" unicode="u" horiz-adv-x="1044" d="M774 0l-10 184q-49 -93 -132.5 -147.5t-180.5 -54.5q-144 0 -220.5 86t-76.5 249v615h116v-584q0 -123 47.5 -191.5t157.5 -68.5q65 0 126.5 38.5t106 104t56.5 131.5v570h117v-932h-107z"/>
    <glyph glyph-name="v" unicode="v" horiz-adv-x="881" d="M502 0h-123l-359 932h123l297 -819l297 819h123z"/>
    <glyph glyph-name="w" unicode="w" horiz-adv-x="1352" d="M1040 0h-122l-242 799l-240 -799h-123l-272 932h117l221 -789l229 789h135l230 -789l219 789h119z"/>
    <glyph glyph-name="x" unicode="x" horiz-adv-x="850" d="M702 0l-282 410l-281 -410h-129l348 481l-327 451h139l260 -379l260 379h129l-327 -451l348 -481h-138z"/>
    <glyph glyph-name="y" unicode="y" horiz-adv-x="891" d="M236 -358q-86 0 -144 36l31 93q26 -14 51.5 -20.5t50.5 -6.5q40 0 62.5 22.5t50.5 90.5l57 143l-364 932h123l297 -819l297 819h122l-440 -1127q-32 -86 -81.5 -124.5t-112.5 -38.5z"/>
    <glyph glyph-name="z" unicode="z" horiz-adv-x="829" d="M51 0v82l570 758h-549v92h686v-76l-570 -758h590v-98h-727z"/>
    <glyph glyph-name="braceleft" unicode="{" horiz-adv-x="614" d="M530 -283l-120 21q-102 18 -144 71t-47 185l-10 287q-4 103 -18.5 147.5t-45 66t-84.5 21.5h-30v88h30q54 0 84.5 21t45 66t18.5 149l10 286q5 132 47 185t144 71l120 21l13 -82l-113 -21q-50 -9 -75 -40.5t-27 -122.5l-11 -318q-3 -125 -50.5 -187t-133.5 -69v-6 q88 -7 134.5 -70t49.5 -184l11 -317q2 -95 25 -127t77 -39l113 -21z"/>
    <glyph glyph-name="bar" unicode="|" horiz-adv-x="512" d="M209 -276v1669h94v-1669h-94z"/>
    <glyph glyph-name="braceright" unicode="}" horiz-adv-x="614" d="M553 516q-77 0 -109.5 -46.5t-37.5 -188.5l-11 -287q-5 -132 -47 -185t-143 -71l-121 -21l-12 82l112 21q37 7 59 22.5t32 42.5t12 99l10 317q3 124 50 186.5t134 69.5v6q-83 7 -132 66.5t-52 187.5l-10 318q-2 71 -12.5 99t-32.5 44t-58 22l-112 21l12 82l121 -21 q101 -18 143.5 -71t46.5 -185l11 -286q5 -142 37 -189t110 -47h31v-88h-31z"/>
    <glyph glyph-name="asciitilde" unicode="~" d="M963 713q-26 -118 -94.5 -187t-161.5 -69q-55 0 -99.5 19.5t-109.5 76.5l-48 44q-66 65 -137 65q-53 0 -100 -47.5t-70 -147.5l-82 31q25 116 94 186t162 70q61 0 109.5 -24.5t116.5 -88.5q57 -52 77.5 -66t42.5 -20t48 -6q53 0 100 47t70 147z"/>
    <glyph glyph-name="exclamdown" unicode="¡" horiz-adv-x="553" d="M369 860q0 -40 -27.5 -66t-65.5 -26q-39 0 -65.5 26.5t-26.5 65.5t26.5 65.5t65.5 26.5q38 0 65.5 -25.5t27.5 -66.5zM209 -369l27 942h81l27 -942h-135z"/>
    <glyph glyph-name="cent" unicode="¢" d="M911 338q-23 -34 -50 -58t-73 -49t-91 -38t-93 -17v-199h-92v199q-179 17 -284 143t-105 330q0 138 48.5 235.5t132 160.5t208.5 77v199h92v-199q103 -8 178 -49.5t118 -94.5l11 -15l-71 -72l-13 17q-41 48 -97 81t-126 37v-750q72 5 134 40.5t102 93.5zM512 1026 q-129 -17 -200.5 -117t-71.5 -258q0 -162 72 -261t200 -114v750z"/>
    <glyph glyph-name="sterling" unicode="£" d="M123 0v72l153 26q40 40 74.5 129.5t34.5 171.5q0 45 -9.5 98t-31.5 117h-201v82h172l-16 46q-27 81 -35 126t-8 105q0 98 49 179.5t136.5 125t193.5 43.5q98 0 183 -46.5t134 -127.5l-82 -62q-38 65 -104 103.5t-141 38.5q-118 0 -185 -72.5t-67 -171.5q0 -124 41 -231 l18 -56h367v-82h-338q39 -112 39 -215q0 -74 -32.5 -159.5t-78.5 -141.5h574v-98h-840z"/>
    <glyph glyph-name="fraction" unicode="⁄" horiz-adv-x="229" d="M-219 -31l-76 41l744 1319l75 -41z"/>
    <glyph glyph-name="yen" unicode="¥" d="M637 696h270v-82h-309l-31 -55v-119h340v-82h-338v-358h-112v358h-340v82h340v117l-29 57h-311v82h270l-321 604h129l317 -634l317 634h129z"/>
    <glyph glyph-name="florin" unicode="ƒ" d="M948 1221q-61 36 -141 36q-78 0 -122 -49t-64 -161l-48 -269h246v-82h-260l-129 -737q-22 -125 -63.5 -192.5t-97 -96t-119.5 -28.5q-39 0 -76 10.5t-70 30.5l39 90q41 -31 115 -31q122 0 159 207l129 747h-200v82h215l45 258q20 114 59 183t103 102t141 33q93 0 170 -41 z"/>
    <glyph glyph-name="section" unicode="§" d="M928 512q0 -49 -12 -90t-39.5 -81t-77.5 -79q30 -30 48.5 -76t18.5 -94q0 -94 -47 -166.5t-131.5 -114.5t-206.5 -42q-99 0 -202.5 38t-186.5 132l72 81q138 -153 317 -153q120 0 198.5 57.5t78.5 151.5q0 120 -164 174l-266 92q-55 17 -120 77q-81 77 -81 185 q0 78 35.5 145.5t93.5 104.5q-68 61 -68 170q0 131 101 213t264 82q112 0 199.5 -34t154.5 -97l-61 -82q-51 51 -131 84t-162 33q-114 0 -185 -51.5t-71 -137.5q0 -36 14 -65.5t41.5 -53t69.5 -36.5l305 -105q100 -43 150.5 -112t50.5 -150zM819 485q0 141 -184 201l-170 59 q-105 36 -137 54q-40 -22 -66 -67t-26 -101q0 -68 42.5 -117t141.5 -84q133 -46 214.5 -74.5t92.5 -38.5q40 22 66 67.5t26 100.5z"/>
    <glyph glyph-name="currency" unicode="¤" d="M881 215l-166 168q-25 -25 -85 -47.5t-118 -22.5q-60 0 -120.5 22.5t-82.5 47.5l-166 -168l-67 68l168 166q-28 28 -49 87.5t-21 114.5q0 60 21.5 120t48.5 83l-168 166l67 67l166 -167q25 25 85 47t118 22t117 -21t86 -48l166 167l67 -67l-168 -166q28 -28 49 -87.5 t21 -115.5q0 -58 -21.5 -118t-48.5 -84l168 -166zM758 651q0 101 -72.5 173.5t-173.5 72.5t-173.5 -72.5t-72.5 -173.5q0 -102 73 -173.5t173 -71.5t173 71.5t73 173.5z"/>
    <glyph glyph-name="quotesingle" unicode="'" horiz-adv-x="512" d="M293 891h-72l-33 440h136z"/>
    <glyph glyph-name="quotedblleft" unicode="“" horiz-adv-x="819" d="M707 1280q-154 -143 -154 -369l-123 31q0 105 63 215.5t152 173.5zM399 1280q-153 -143 -153 -369l-123 31q0 105 63 215.5t152 173.5z"/>
    <glyph glyph-name="guillemotleft" unicode="«" horiz-adv-x="922" d="M737 117l-276 344v71l276 345l74 -60l-258 -319l258 -320zM102 532l277 345l74 -60l-258 -319l258 -320l-74 -61l-277 344v71z"/>
    <glyph glyph-name="guilsinglleft" unicode="‹" horiz-adv-x="563" d="M379 117l-277 344v71l277 345l74 -60l-258 -319l258 -320z"/>
    <glyph glyph-name="guilsinglright" unicode="›" horiz-adv-x="563" d="M184 117l-73 59l258 320l-258 319l73 62l277 -345v-71z"/>
    <glyph glyph-name="fi" unicode="ﬁ" horiz-adv-x="971" d="M586 1229l-13 6q-47 20 -104 20q-58 0 -93.5 -23.5t-52 -67.5t-16.5 -130v-102h258v-92h-258v-840h-117v840h-147v92h147v123q0 97 32 160t91.5 99t137.5 36q38 0 69.5 -5t89.5 -26zM841 1255q0 -39 -27 -66.5t-65 -27.5q-39 0 -66.5 27t-27.5 65q0 40 27 67.5t65 27.5 q40 0 67 -28t27 -65zM690 0v932h117v-932h-117z"/>
    <glyph glyph-name="fl" unicode="ﬂ" horiz-adv-x="971" d="M586 1229l-13 6q-47 20 -104 20q-58 0 -93.5 -23.5t-52 -67.5t-16.5 -130v-102h258v-92h-258v-840h-117v840h-147v92h147v123q0 97 32 160t91.5 99t137.5 36q38 0 69.5 -5t89.5 -26zM690 0v1341h117v-1341h-117z"/>
    <glyph glyph-name="endash" unicode="–" horiz-adv-x="993" d="M76 424v94h842v-94h-842z"/>
    <glyph glyph-name="dagger" unicode="†" d="M547 856l22 -446l-30 -666h-62l-22 666l22 446l-385 -22v104l385 -23l-22 457h114l-22 -457l385 23v-102z"/>
    <glyph glyph-name="daggerdbl" unicode="‡" d="M547 180l22 -456h-114l22 456l-385 -22v104l385 -22l-16 307l16 309l-385 -22v104l385 -23l-22 457h114l-22 -457l385 23v-104l-385 22l16 -307l-16 -309l385 22v-102z"/>
    <glyph glyph-name="periodcentered" unicode="·" horiz-adv-x="512" d="M348 573q0 -39 -26.5 -65.5t-65.5 -26.5t-65.5 26.5t-26.5 65.5q0 38 25.5 65.5t66.5 27.5q40 0 66 -27.5t26 -65.5z"/>
    <glyph glyph-name="paragraph" unicode="¶" d="M829 1219v-1495h-92v1495h-133v-830h-31q-223 0 -352 122t-129 333t129.5 333.5t351.5 122.5h369v-81h-113z"/>
    <glyph glyph-name="bullet" unicode="•" d="M743 645q0 -95 -66 -163t-163 -68q-96 0 -164.5 67t-68.5 164q0 96 67 164t162 68q97 0 165 -68t68 -164z"/>
    <glyph glyph-name="quotesinglbase" unicode="‚" horiz-adv-x="512" d="M358 164q0 -107 -65 -218.5t-150 -170.5l-63 51q153 147 153 369z"/>
    <glyph glyph-name="quotedblbase" unicode="„" horiz-adv-x="819" d="M666 164q0 -102 -62.5 -213.5t-152.5 -175.5l-64 51q154 147 154 369zM358 164q0 -107 -65 -218.5t-150 -170.5l-63 51q153 147 153 369z"/>
    <glyph glyph-name="quotedblright" unicode="”" horiz-adv-x="819" d="M696 1290q0 -105 -64.5 -217.5t-150.5 -171.5l-61 51q153 152 153 369zM389 1290q0 -100 -62 -212.5t-153 -176.5l-61 51q153 152 153 369z"/>
    <glyph glyph-name="guillemotright" unicode="»" horiz-adv-x="922" d="M543 117l-74 59l258 320l-258 319l74 62l276 -345v-71zM184 117l-73 59l258 320l-258 319l73 62l277 -345v-71z"/>
    <glyph glyph-name="ellipsis" unicode="…" horiz-adv-x="1536" d="M1372 82q0 -39 -26.5 -65.5t-65.5 -26.5t-65.5 26.5t-26.5 65.5t26.5 65.5t65.5 26.5t65.5 -26.5t26.5 -65.5zM860 82q0 -39 -26.5 -65.5t-65.5 -26.5t-65.5 26.5t-26.5 65.5t26.5 65.5t65.5 26.5t65.5 -26.5t26.5 -65.5zM348 82q0 -39 -26.5 -65.5t-65.5 -26.5 t-65.5 26.5t-26.5 65.5t26.5 65.5t65.5 26.5t65.5 -26.5t26.5 -65.5z"/>
    <glyph glyph-name="perthousand" unicode="‰" horiz-adv-x="2150" d="M2028 340q0 -162 -77 -260t-200 -98q-124 0 -200 99t-76 259q0 161 76 259.5t200 98.5q123 0 200 -98t77 -260zM1393 340q0 -162 -77 -260t-200 -98q-124 0 -200 99t-76 259q0 161 76 259.5t200 98.5q123 0 200 -98t77 -260zM424 -29l-76 41l744 1317l75 -41zM676 961 q0 -161 -76.5 -260t-200.5 -99q-125 0 -200.5 99.5t-75.5 259.5q0 161 76 259.5t200 98.5q123 0 200 -98t77 -260zM1925 340q0 122 -47 197t-127 75t-127 -75t-47 -197t47 -197t127 -75t127 75t47 197zM1290 340q0 122 -47 197t-127 75t-127 -75t-47 -197t47 -197t127 -75 t127 75t47 197zM573 961q0 122 -47 197t-127 75t-127 -75t-47 -197q0 -123 47 -198t127 -75t127 75t47 198z"/>
    <glyph glyph-name="questiondown" unicode="¿" horiz-adv-x="860" d="M559 860q0 -37 -27 -64.5t-65 -27.5q-39 0 -66.5 27t-27.5 65q0 39 26.5 65.5t65.5 26.5t66.5 -27t27.5 -65zM768 -215q-55 -86 -144.5 -130t-197.5 -44q-93 0 -167.5 37t-120.5 105.5t-46 154.5q0 73 31 142.5t70.5 110.5t60.5 62l48 46q109 101 114 202l4 102h92v-34 v-42q0 -96 -22 -147t-73 -105l-59 -61l-41 -40q-112 -108 -112 -216q0 -97 66.5 -158t168.5 -61q74 0 140 34.5t116 102.5z"/>
    <glyph glyph-name="grave" unicode="`" horiz-adv-x="768" d="M430 1044l-184 256h143l133 -256h-92z"/>
    <glyph glyph-name="acute" unicode="´" horiz-adv-x="768" d="M338 1044h-92l133 256h143z"/>
    <glyph glyph-name="circumflex" unicode="ˆ" horiz-adv-x="768" d="M522 1044l-137 185l-139 -185h-92l163 256h134l163 -256h-92z"/>
    <glyph glyph-name="tilde" unicode="˜" horiz-adv-x="768" d="M659 1260q0 -76 -45.5 -130.5t-107.5 -54.5q-67 0 -133 48l-25 18q-27 21 -48 32t-40 11q-28 0 -50 -24t-32 -85l-72 10q0 76 45.5 130.5t113.5 54.5q58 0 122 -46q36 -26 66 -44.5t53 -18.5q31 0 53.5 29t28.5 80z"/>
    <glyph glyph-name="macron" unicode="¯" horiz-adv-x="768" d="M123 1126v93h522v-93h-522z"/>
    <glyph glyph-name="breve" unicode="˘" horiz-adv-x="768" d="M645 1280q-27 -121 -94.5 -178.5t-165.5 -57.5q-105 0 -170.5 59t-91.5 177l72 20q47 -163 188 -163t190 163z"/>
    <glyph glyph-name="dotaccent" unicode="˙" horiz-adv-x="768" d="M487 1174q0 -43 -29.5 -74t-72.5 -31q-42 0 -73 30t-31 72q0 45 31 75t71 30q42 0 73 -30t31 -72z"/>
    <glyph glyph-name="dieresis" unicode="¨" horiz-adv-x="768" d="M621 1174q0 -36 -25 -62.5t-64 -26.5q-36 0 -62 25.5t-26 60.5q0 36 25 62.5t63 26.5q39 0 64 -26t25 -60zM324 1174q0 -36 -25 -62.5t-63 -26.5q-39 0 -64 26t-25 60q0 36 25 62.5t64 26.5q36 0 62 -25.5t26 -60.5z"/>
    <glyph glyph-name="ring" unicode="˚" horiz-adv-x="768" d="M543 1174q0 -67 -46 -113.5t-114 -46.5q-67 0 -113.5 45t-46.5 112q0 68 46 114t114 46t114 -45t46 -112zM475 1174q0 39 -27.5 65.5t-64.5 26.5q-39 0 -65.5 -26.5t-26.5 -65.5q0 -40 27 -67.5t65 -27.5q40 0 66 28t26 67z"/>
    <glyph glyph-name="cedilla" unicode="¸" horiz-adv-x="768" d="M348 -256h-133l164 256h92z"/>
    <glyph glyph-name="hungarumlaut" unicode="˝" horiz-adv-x="768" d="M549 1044h-94l133 256h145zM293 1044h-94l133 256h143z"/>
    <glyph glyph-name="ogonek" unicode="˛" horiz-adv-x="768" d="M762 -297q-37 -38 -85.5 -60t-98.5 -22q-91 0 -143 48.5t-52 135.5q0 54 30 106t83 89h82q-93 -85 -93 -174q0 -55 30 -84t83 -29q76 0 133 41z"/>
    <glyph glyph-name="caron" unicode="ˇ" horiz-adv-x="768" d="M451 1044h-134l-163 256h92l137 -184l139 184h92z"/>
    <glyph glyph-name="emdash" unicode="—" horiz-adv-x="1587" d="M82 424v94h1423v-94h-1423z"/>
    <glyph glyph-name="AE" unicode="Æ" horiz-adv-x="1638" d="M819 0v410h-522l-246 -410h-133l803 1300h805v-100h-584v-452h543v-103h-543v-541h604v-104h-727zM819 1200h-47l-414 -688h461v688z"/>
    <glyph glyph-name="ordfeminine" unicode="ª" horiz-adv-x="717" d="M522 629l-4 11q-16 41 -16 77q-32 -47 -90 -75t-125 -28q-97 0 -156 54t-59 151q0 75 39.5 118t86.5 63t127 35t177 16v42q0 146 -174 146q-104 0 -197 -59l-35 73q28 23 97 44.5t141 21.5q138 0 204 -64t66 -190v-293q0 -85 31 -143h-113zM502 979q-77 0 -162 -15.5 t-123.5 -51.5t-38.5 -87q0 -129 150 -129q52 0 106 37t68 86v160z"/>
    <glyph glyph-name="Lslash" unicode="Ł" horiz-adv-x="870" d="M184 0v539l-123 -68v102l123 66v661h123v-593l246 133v-103l-246 -133v-500h543v-104h-666z"/>
    <glyph glyph-name="Oslash" unicode="Ø" horiz-adv-x="1423" d="M1321 651q0 -191 -76 -344.5t-215.5 -239t-316.5 -85.5q-216 0 -369 118l-139 -178l-72 58l143 182q-83 91 -128.5 215t-45.5 272q0 192 77 346.5t216.5 239t315.5 84.5q219 0 376 -127l132 166l71 -58l-135 -172q166 -193 166 -477zM1016 1100q-127 110 -303 110 q-221 0 -352.5 -157.5t-131.5 -401.5q0 -239 125 -393zM1194 651q0 233 -115 381l-661 -839q124 -101 293 -101q216 0 349.5 155.5t133.5 403.5z"/>
    <glyph glyph-name="OE" unicode="Œ" horiz-adv-x="1853" d="M1034 0v82q-45 -40 -107.5 -62.5t-111.5 -30t-108 -7.5q-174 0 -313 86t-215.5 239.5t-76.5 341.5q0 190 76.5 343.5t215.5 240t313 86.5q50 0 101.5 -7t114.5 -29.5t111 -63.5v81h707v-100h-584v-452h543v-103h-543v-541h604v-104h-727zM1034 1085q-48 54 -137.5 89.5 t-189.5 35.5q-138 0 -248.5 -71t-170 -198.5t-59.5 -289.5q0 -163 60 -290t170.5 -198t247.5 -71q101 0 190 34.5t137 88.5v870z"/>
    <glyph glyph-name="ordmasculine" unicode="º" horiz-adv-x="788" d="M717 967q0 -156 -89.5 -254.5t-232.5 -98.5t-233 98t-90 255t89.5 254.5t231.5 97.5t233 -97t91 -255zM610 967q0 121 -57 194.5t-158 73.5q-98 0 -157.5 -72t-59.5 -196q0 -123 57.5 -196t157.5 -73q98 0 157.5 72t59.5 197z"/>
    <glyph glyph-name="ae" unicode="æ" horiz-adv-x="1542" d="M788 469v-18q0 -167 83 -267t225 -100q86 0 164.5 29.5t132.5 81.5l57 -80q-59 -61 -157.5 -97t-207.5 -36q-113 0 -202.5 49.5t-145.5 142.5q-69 -100 -156 -146t-202 -46q-132 0 -214.5 71.5t-82.5 196.5q0 153 142 230t448 77v88q0 100 -61 154.5t-171 54.5 q-76 0 -149.5 -22t-126.5 -62l-47 90q69 42 151 66t166 24q260 0 324 -182q104 182 327 182q171 0 278 -119t107 -309v-53h-682zM1352 557q0 124 -72 210.5t-199 86.5q-126 0 -206 -90t-87 -207h564zM696 266q-24 68 -24 203q-147 -4 -269 -27q-198 -41 -198 -186 q0 -85 54.5 -133.5t150.5 -48.5q88 0 163.5 51.5t122.5 140.5z"/>
    <glyph glyph-name="dotlessi" unicode="ı" horiz-adv-x="444" d="M164 0v932h117v-932h-117z"/>
    <glyph glyph-name="lslash" unicode="ł" horiz-adv-x="444" d="M281 672v-672h-117v598l-133 -86v102l133 86v641h117v-567l133 86v-102z"/>
    <glyph glyph-name="oslash" unicode="ø" d="M942 467q0 -220 -119 -352.5t-311 -132.5q-153 0 -260 86l-100 -125l-62 57l100 125q-108 131 -108 340q0 220 119 352.5t311 132.5q160 0 270 -92l97 121l61 -57l-100 -125q102 -129 102 -330zM713 774q-78 78 -201 78q-141 0 -224 -103.5t-83 -281.5q0 -150 59 -250z M819 465q0 143 -53 240l-449 -553q78 -72 195 -72q141 0 224 103.5t83 281.5z"/>
    <glyph glyph-name="oe" unicode="œ" horiz-adv-x="1690" d="M936 451q0 -166 82 -266.5t225 -100.5q88 0 167.5 30t129.5 81l57 -80q-59 -61 -156 -97t-208 -36q-126 0 -222 62t-134 167l-22 -42q-47 -81 -133.5 -134t-209.5 -53q-192 0 -311 133t-119 350q0 220 119 352.5t311 132.5q74 0 144 -23.5t129 -74.5t94 -135 q103 233 362 233q163 0 270 -120.5t107 -317.5v-61h-682zM1499 543q0 142 -71.5 226.5t-198.5 84.5q-129 0 -207.5 -92t-85.5 -219h563zM819 465q0 178 -82.5 282.5t-224.5 104.5q-141 0 -224 -103.5t-83 -281.5t82.5 -282.5t224.5 -104.5q141 0 224 103.5t83 281.5z"/>
    <glyph glyph-name="germandbls" unicode="ß" horiz-adv-x="1044" d="M952 399q0 -172 -108 -294.5t-271 -122.5q-68 0 -106.5 8t-58.5 20l28 96q20 -10 55.5 -17t92.5 -7q68 0 124.5 39.5t88.5 111.5t32 168q0 99 -43.5 172t-119.5 112.5t-164 39.5h-62v96h52q109 0 172 62t63 168q0 90 -60.5 146t-144.5 56q-112 0 -176.5 -70t-64.5 -194 v-989h-117v961q0 187 101.5 288t266.5 101q82 0 153 -36t113 -101.5t42 -153.5q0 -56 -17 -103t-47 -84.5t-72 -63.5t-59 -26q141 -28 224 -132t83 -251z"/>
    <glyph glyph-name="one.superior" unicode="¹" horiz-adv-x="768" d="M354 782v653q-22 -15 -70 -31t-69 -16l-16 72q55 9 94.5 33t57.5 45.5t22 40.5h88v-797h-107z"/>
    <glyph glyph-name="logicalnot" unicode="¬" d="M809 385v346h-727v94h819v-440h-92z"/>
    <glyph glyph-name="mu" unicode="µ" d="M754 0l-11 184q-40 -87 -118.5 -144.5t-163.5 -57.5q-61 0 -109 19t-71 50v-399h-117v1280h117v-574q0 -143 46 -206.5t144 -63.5q62 0 123 43t102 108.5t47 122.5v570h117v-932h-106z"/>
    <glyph glyph-name="trademark" unicode="™" horiz-adv-x="1382" d="M1208 625l-24 594l-180 -594h-86l-181 594l-24 -594h-88l34 675h144l160 -552l157 552h144l36 -673zM358 1225v-600h-92v600h-194v75h481v-75h-195z"/>
    <glyph glyph-name="Eth" unicode="Ð" horiz-adv-x="1311" d="M1208 651q0 -184 -75 -334t-210 -233.5t-329 -83.5h-410v631h-123v96h123v573h410q290 0 452 -187t162 -462zM1081 649q0 154 -57.5 280t-167.5 197.5t-262 71.5h-287v-471h318v-96h-318v-529h287q153 0 263 72t167 198t57 277z"/>
    <glyph glyph-name="onehalf" unicode="½" horiz-adv-x="1536" d="M223 518v653q-22 -15 -70 -31t-69 -16l-16 72q55 9 94.5 33t57.5 45.5t22 40.5h88v-797h-107zM330 -31l-76 41l744 1319l75 -41zM922 0q7 70 34 126t64.5 103t183.5 169q113 94 113 171q0 66 -40 105t-110 39q-51 0 -100.5 -23.5t-89.5 -73.5l-55 66q45 57 108.5 88 t147.5 31q111 0 178 -61.5t67 -164.5q0 -62 -37 -122.5t-97 -107.5l-104 -85q-111 -92 -126 -168h395v-92h-532z"/>
    <glyph glyph-name="plusminus" unicode="±" d="M557 559v-364h-92v364h-363v92h363v365h92v-365h365v-92h-365zM102 0v92h820v-92h-820z"/>
    <glyph glyph-name="Thorn" unicode="Þ" horiz-adv-x="1065" d="M963 686q0 -191 -121.5 -290t-309.5 -99h-225v-297h-123v1300h123v-225h225q193 0 312 -101t119 -288zM840 686q0 127 -80 207t-258 80h-195v-574h195q124 0 194 36.5t107 97.5t37 153z"/>
    <glyph glyph-name="onequarter" unicode="¼" horiz-adv-x="1536" d="M223 518v653q-22 -15 -70 -31t-69 -16l-16 72q55 9 94.5 33t57.5 45.5t22 40.5h88v-797h-107zM330 -31l-76 41l744 1319l75 -41zM1257 168v-168h-104v168h-402v90l373 526h133v-522h121v-94h-121zM1153 682l-295 -420h295v420z"/>
    <glyph glyph-name="divide" unicode="÷" d="M604 928q0 -39 -26.5 -65.5t-65.5 -26.5t-65.5 26.5t-26.5 65.5t26.5 65.5t65.5 26.5t65.5 -26.5t26.5 -65.5zM102 559v92h820v-92h-820zM604 283q0 -38 -26 -65.5t-66 -27.5t-66 27.5t-26 65.5q0 39 26.5 65.5t65.5 26.5t65.5 -26.5t26.5 -65.5z"/>
    <glyph glyph-name="brokenbar" unicode="¦" horiz-adv-x="512" d="M209 727v666h94v-666h-94zM209 -276v665h94v-665h-94z"/>
    <glyph glyph-name="degree" unicode="°" horiz-adv-x="768" d="M655 1051q0 -117 -77.5 -195t-192.5 -78q-117 0 -194.5 78.5t-77.5 192.5q0 116 77.5 194t192.5 78q117 0 194.5 -78.5t77.5 -191.5zM563 1051q0 79 -50.5 129.5t-127.5 50.5q-79 0 -129.5 -52t-50.5 -128q0 -81 50.5 -132t127.5 -51q78 0 129 52t51 131z"/>
    <glyph glyph-name="thorn" unicode="þ" horiz-adv-x="1085" d="M1004 467q0 -139 -51 -243.5t-144.5 -173t-224.5 -68.5q-97 0 -179 47t-124 125v-502h-117v1689h117v-573q5 13 27 40.5t62.5 61.5t102.5 57t131 23q180 0 290 -135.5t110 -347.5zM881 467q0 167 -83.5 277t-213.5 110q-133 0 -220.5 -111.5t-87.5 -275.5 q0 -167 83.5 -277t213.5 -110q131 0 219.5 109.5t88.5 277.5z"/>
    <glyph glyph-name="threequarters" unicode="¾" horiz-adv-x="1536" d="M568 731q0 -101 -79.5 -166t-193.5 -65q-67 0 -128.5 30.5t-116.5 98.5l61 61q87 -102 184 -102q78 0 121 39t43 108q0 65 -44 107.5t-109 42.5h-82v86h71q66 0 108 38t42 95t-41.5 93t-108.5 36q-107 0 -174 -78l-51 61q39 48 97.5 75.5t131.5 27.5q107 0 177.5 -54.5 t70.5 -140.5q0 -74 -43.5 -123.5t-105.5 -64.5q72 -13 121 -70t49 -135zM467 -31l-76 41l744 1319l75 -41zM1384 168v-168h-104v168h-402v90l373 526h133v-522h121v-94h-121zM1280 682l-295 -420h295v420z"/>
    <glyph glyph-name="two.superior" unicode="²" horiz-adv-x="768" d="M115 782q7 70 34 126t64.5 103t183.5 169q113 94 113 171q0 66 -40 105t-110 39q-51 0 -100.5 -23.5t-89.5 -73.5l-55 66q45 57 108.5 88t147.5 31q111 0 178 -61.5t67 -164.5q0 -62 -37 -122.5t-97 -107.5l-104 -85q-111 -92 -126 -168h395v-92h-532z"/>
    <glyph glyph-name="registered" unicode="®" horiz-adv-x="1280" d="M1239 963q0 -157 -77.5 -291.5t-212 -211.5t-287.5 -77q-158 0 -292.5 77.5t-211 212t-76.5 290.5q0 155 77 289.5t211 212t289 77.5q157 0 291.5 -77t211.5 -211.5t77 -290.5zM1163 963q0 136 -66.5 252t-182.5 182.5t-252 66.5q-138 0 -254.5 -66t-183 -182.5 t-66.5 -252.5t66.5 -252.5t183 -183t251.5 -66.5q138 0 254.5 66t183 182.5t66.5 253.5zM825 627l-170 276h-102v-276h-92v676h205q104 0 167.5 -53.5t63.5 -145.5q0 -57 -24.5 -99t-56.5 -62.5t-64 -29.5l180 -286h-107zM799 1104q0 63 -35.5 95t-101.5 32h-109v-256h106 q74 0 107 34.5t33 94.5z"/>
    <glyph glyph-name="minus" unicode="−" d="M102 559v92h820v-92h-820z"/>
    <glyph glyph-name="eth" unicode="ð" d="M942 481q0 -223 -119 -361t-311 -138q-122 0 -221 59.5t-154 163.5t-55 229q0 128 53 233t150 164.5t217 59.5q90 0 168.5 -37t128.5 -106q-68 206 -264 387l-218 -138l-38 60l200 127q-46 38 -100.5 70t-116.5 57l35 71q59 -21 133.5 -62t128.5 -85l219 137l39 -59 l-203 -127q109 -95 182 -203t109.5 -240.5t36.5 -261.5zM819 440q0 162 -83.5 261.5t-223.5 99.5q-139 0 -223 -99.5t-84 -261.5t84 -261t223 -99t223 99.5t84 260.5z"/>
    <glyph glyph-name="multiply" unicode="×" d="M512 672l256 256l68 -66l-258 -256l258 -256l-68 -67l-256 256l-256 -256l-68 65l258 256l-258 256l68 68z"/>
    <glyph glyph-name="three.superior" unicode="³" horiz-adv-x="768" d="M627 997q0 -101 -79.5 -166t-193.5 -65q-67 0 -128.5 30.5t-116.5 98.5l61 61q87 -102 184 -102q78 0 121 39t43 108q0 65 -44 107.5t-109 42.5h-82v86h71q66 0 108 38t42 95t-41.5 93t-108.5 36q-107 0 -174 -78l-51 61q39 48 97.5 75.5t131.5 27.5q107 0 177.5 -54.5 t70.5 -140.5q0 -74 -43.5 -123.5t-105.5 -64.5q72 -13 121 -70t49 -135z"/>
    <glyph glyph-name="copyright" unicode="©" horiz-adv-x="1526" d="M1434 651q0 -187 -87.5 -342.5t-241.5 -242t-341 -86.5q-190 0 -345.5 88.5t-241 242t-85.5 338.5q0 186 87 341.5t241 243t342 87.5q186 0 341.5 -87t243 -241t87.5 -342zM1352 651q0 153 -78 289.5t-214 217.5t-296 81q-158 0 -295.5 -80t-216 -216.5t-78.5 -291.5 q0 -159 80 -295.5t217.5 -215.5t290.5 -79q156 0 293 79.5t217 216.5t80 294zM1055 401q-43 -59 -120 -95t-167 -36q-96 0 -179.5 49.5t-131 137t-47.5 198.5t47 198.5t130 137t181 49.5q175 0 287 -129l-62 -71q-33 44 -93 73t-122 29q-117 0 -186.5 -77.5t-69.5 -207.5 q0 -131 70.5 -208.5t185.5 -77.5q72 0 124 28t91 74z"/>
    <glyph glyph-name="Aacute" unicode="Á" horiz-adv-x="1126" d="M993 0l-133 365h-604l-133 -365h-123l496 1300h133l497 -1300h-133zM559 1188l-266 -721h530zM600 1413h-92l133 256h143z"/>
    <glyph glyph-name="Acircumflex" unicode="Â" horiz-adv-x="1126" d="M993 0l-133 365h-604l-133 -365h-123l496 1300h133l497 -1300h-133zM559 1188l-266 -721h530zM702 1413l-137 185l-139 -185h-92l163 256h134l163 -256h-92z"/>
    <glyph glyph-name="Adieresis" unicode="Ä" horiz-adv-x="1126" d="M993 0l-133 365h-604l-133 -365h-123l496 1300h133l497 -1300h-133zM559 1188l-266 -721h530zM799 1543q0 -36 -25 -62.5t-64 -26.5q-36 0 -62 25.5t-26 60.5q0 36 25 62.5t63 26.5q39 0 64 -26t25 -60zM502 1543q0 -36 -25 -62.5t-63 -26.5q-39 0 -64 26t-25 60 q0 36 25 62.5t64 26.5q36 0 62 -25.5t26 -60.5z"/>
    <glyph glyph-name="Agrave" unicode="À" horiz-adv-x="1126" d="M993 0l-133 365h-604l-133 -365h-123l496 1300h133l497 -1300h-133zM559 1188l-266 -721h530zM528 1413l-184 256h143l133 -256h-92z"/>
    <glyph glyph-name="Aring" unicode="Å" horiz-adv-x="1126" d="M993 0l-133 365h-604l-133 -365h-123l496 1300h133l497 -1300h-133zM559 1188l-266 -721h530zM723 1543q0 -67 -46 -113.5t-114 -46.5q-67 0 -113.5 45t-46.5 112q0 68 46 114t114 46t114 -45t46 -112zM655 1543q0 39 -27.5 65.5t-64.5 26.5q-39 0 -65.5 -26.5 t-26.5 -65.5q0 -40 27 -67.5t65 -27.5q40 0 66 28t26 67z"/>
    <glyph glyph-name="Atilde" unicode="Ã" horiz-adv-x="1126" d="M993 0l-133 365h-604l-133 -365h-123l496 1300h133l497 -1300h-133zM559 1188l-266 -721h530zM839 1629q0 -76 -45.5 -130.5t-107.5 -54.5q-67 0 -133 48l-25 18q-27 21 -48 32t-40 11q-28 0 -50 -24t-32 -85l-72 10q0 76 45.5 130.5t113.5 54.5q58 0 122 -46 q36 -26 66 -44.5t53 -18.5q31 0 53.5 29t28.5 80z"/>
    <glyph glyph-name="Ccedilla" unicode="Ç" horiz-adv-x="1229" d="M1067 993q-51 97 -148.5 156t-224.5 59q-205 0 -335 -156t-130 -401q0 -247 125 -402t332 -155q129 0 232 60.5t163 162.5l86 -71q-64 -110 -175 -180t-242 -80l-129 -252h-136l160 250q-161 8 -285.5 93.5t-191 234.5t-66.5 339q0 192 77 345.5t213 238t304 84.5 q121 0 216 -39.5t153.5 -95.5t93.5 -119z"/>
    <glyph glyph-name="Eacute" unicode="É" horiz-adv-x="1044" d="M184 0v1300h748v-100h-625v-452h584v-103h-584v-541h645v-104h-768zM563 1413h-92l133 256h143z"/>
    <glyph glyph-name="Ecircumflex" unicode="Ê" horiz-adv-x="1044" d="M184 0v1300h748v-100h-625v-452h584v-103h-584v-541h645v-104h-768zM696 1413l-137 185l-139 -185h-92l163 256h134l163 -256h-92z"/>
    <glyph glyph-name="Edieresis" unicode="Ë" horiz-adv-x="1044" d="M184 0v1300h748v-100h-625v-452h584v-103h-584v-541h645v-104h-768zM795 1543q0 -36 -25 -62.5t-64 -26.5q-36 0 -62 25.5t-26 60.5q0 36 25 62.5t63 26.5q39 0 64 -26t25 -60zM498 1543q0 -36 -25 -62.5t-63 -26.5q-39 0 -64 26t-25 60q0 36 25 62.5t64 26.5 q36 0 62 -25.5t26 -60.5z"/>
    <glyph glyph-name="Egrave" unicode="È" horiz-adv-x="1044" d="M184 0v1300h748v-100h-625v-452h584v-103h-584v-541h645v-104h-768zM553 1413l-184 256h143l133 -256h-92z"/>
    <glyph glyph-name="Iacute" unicode="Í" horiz-adv-x="492" d="M184 0v1300h123v-1300h-123zM279 1413h-92l133 256h143z"/>
    <glyph glyph-name="Icircumflex" unicode="Î" horiz-adv-x="492" d="M184 0v1300h123v-1300h-123zM387 1413l-137 185l-139 -185h-92l163 256h134l163 -256h-92z"/>
    <glyph glyph-name="Idieresis" unicode="Ï" horiz-adv-x="492" d="M184 0v1300h123v-1300h-123zM484 1543q0 -36 -25 -62.5t-64 -26.5q-36 0 -62 25.5t-26 60.5q0 36 25 62.5t63 26.5q39 0 64 -26t25 -60zM187 1543q0 -36 -25 -62.5t-63 -26.5q-39 0 -64 26t-25 60q0 36 25 62.5t64 26.5q36 0 62 -25.5t26 -60.5z"/>
    <glyph glyph-name="Igrave" unicode="Ì" horiz-adv-x="492" d="M184 0v1300h123v-1300h-123zM227 1413l-184 256h143l133 -256h-92z"/>
    <glyph glyph-name="Ntilde" unicode="Ñ" horiz-adv-x="1352" d="M1055 0l-758 1147v-1147h-113v1300h148l723 -1095v1095h112v-1300h-112zM952 1629q0 -76 -45.5 -130.5t-107.5 -54.5q-67 0 -133 48l-25 18q-27 21 -48 32t-40 11q-28 0 -50 -24t-32 -85l-72 10q0 76 45.5 130.5t113.5 54.5q58 0 122 -46q36 -26 66 -44.5t53 -18.5 q31 0 53.5 29t28.5 80z"/>
    <glyph glyph-name="Oacute" unicode="Ó" horiz-adv-x="1423" d="M1321 651q0 -191 -76 -344.5t-215.5 -239t-316.5 -85.5t-317.5 85t-217 238t-76.5 344q0 192 77 346.5t216.5 239t315.5 84.5t315.5 -85t217 -238t77.5 -345zM1194 651q0 246 -133.5 402.5t-347.5 156.5q-218 0 -351 -156t-133 -403q0 -249 135 -404t347 -155 q216 0 349.5 155.5t133.5 403.5zM758 1413h-92l133 256h143z"/>
    <glyph glyph-name="Ocircumflex" unicode="Ô" horiz-adv-x="1423" d="M1321 651q0 -191 -76 -344.5t-215.5 -239t-316.5 -85.5t-317.5 85t-217 238t-76.5 344q0 192 77 346.5t216.5 239t315.5 84.5t315.5 -85t217 -238t77.5 -345zM1194 651q0 246 -133.5 402.5t-347.5 156.5q-218 0 -351 -156t-133 -403q0 -249 135 -404t347 -155 q216 0 349.5 155.5t133.5 403.5zM850 1413l-137 185l-139 -185h-92l163 256h134l163 -256h-92z"/>
    <glyph glyph-name="Odieresis" unicode="Ö" horiz-adv-x="1423" d="M1321 651q0 -191 -76 -344.5t-215.5 -239t-316.5 -85.5t-317.5 85t-217 238t-76.5 344q0 192 77 346.5t216.5 239t315.5 84.5t315.5 -85t217 -238t77.5 -345zM1194 651q0 246 -133.5 402.5t-347.5 156.5q-218 0 -351 -156t-133 -403q0 -249 135 -404t347 -155 q216 0 349.5 155.5t133.5 403.5zM949 1543q0 -36 -25 -62.5t-64 -26.5q-36 0 -62 25.5t-26 60.5q0 36 25 62.5t63 26.5q39 0 64 -26t25 -60zM652 1543q0 -36 -25 -62.5t-63 -26.5q-39 0 -64 26t-25 60q0 36 25 62.5t64 26.5q36 0 62 -25.5t26 -60.5z"/>
    <glyph glyph-name="Ograve" unicode="Ò" horiz-adv-x="1423" d="M1321 651q0 -191 -76 -344.5t-215.5 -239t-316.5 -85.5t-317.5 85t-217 238t-76.5 344q0 192 77 346.5t216.5 239t315.5 84.5t315.5 -85t217 -238t77.5 -345zM1194 651q0 246 -133.5 402.5t-347.5 156.5q-218 0 -351 -156t-133 -403q0 -249 135 -404t347 -155 q216 0 349.5 155.5t133.5 403.5zM666 1413l-184 256h143l133 -256h-92z"/>
    <glyph glyph-name="Otilde" unicode="Õ" horiz-adv-x="1423" d="M1321 651q0 -191 -76 -344.5t-215.5 -239t-316.5 -85.5t-317.5 85t-217 238t-76.5 344q0 192 77 346.5t216.5 239t315.5 84.5t315.5 -85t217 -238t77.5 -345zM1194 651q0 246 -133.5 402.5t-347.5 156.5q-218 0 -351 -156t-133 -403q0 -249 135 -404t347 -155 q216 0 349.5 155.5t133.5 403.5zM989 1629q0 -76 -45.5 -130.5t-107.5 -54.5q-67 0 -133 48l-25 18q-27 21 -48 32t-40 11q-28 0 -50 -24t-32 -85l-72 10q0 76 45.5 130.5t113.5 54.5q58 0 122 -46q36 -26 66 -44.5t53 -18.5q31 0 53.5 29t28.5 80z"/>
    <glyph glyph-name="Scaron" unicode="Š" horiz-adv-x="995" d="M911 348q0 -163 -120.5 -264.5t-315.5 -101.5q-123 0 -233 54.5t-183 160.5l84 75q44 -68 134.5 -127t201.5 -59q142 0 228 67.5t86 184.5q0 63 -32.5 111.5t-86.5 79.5t-123 57l-202 81q-234 97 -234 316q0 151 111 243.5t288 92.5q115 0 219.5 -52t161.5 -134l-76 -80 q-49 72 -134 118t-171 46q-127 0 -205 -60t-78 -164q0 -63 32 -111t89 -80.5t104 -49.5l204 -81q251 -104 251 -323zM582 1413h-134l-163 256h92l137 -184l139 184h92z"/>
    <glyph glyph-name="Uacute" unicode="Ú" horiz-adv-x="1260" d="M973 1300h123v-788q0 -210 -47 -307.5t-146 -160t-272 -62.5q-119 0 -204.5 30.5t-147 94.5t-88.5 152t-27 253v788h123v-798q0 -140 18 -201t62 -110t106 -73t156 -24q86 0 152 23t111 74t63 110t18 201v798zM655 1413h-92l133 256h143z"/>
    <glyph glyph-name="Ucircumflex" unicode="Û" horiz-adv-x="1260" d="M973 1300h123v-788q0 -210 -47 -307.5t-146 -160t-272 -62.5q-119 0 -204.5 30.5t-147 94.5t-88.5 152t-27 253v788h123v-798q0 -140 18 -201t62 -110t106 -73t156 -24q86 0 152 23t111 74t63 110t18 201v798zM768 1413l-137 185l-139 -185h-92l163 256h134l163 -256h-92 z"/>
    <glyph glyph-name="Udieresis" unicode="Ü" horiz-adv-x="1260" d="M973 1300h123v-788q0 -210 -47 -307.5t-146 -160t-272 -62.5q-119 0 -204.5 30.5t-147 94.5t-88.5 152t-27 253v788h123v-798q0 -140 18 -201t62 -110t106 -73t156 -24q86 0 152 23t111 74t63 110t18 201v798zM867 1543q0 -36 -25 -62.5t-64 -26.5q-36 0 -62 25.5 t-26 60.5q0 36 25 62.5t63 26.5q39 0 64 -26t25 -60zM570 1543q0 -36 -25 -62.5t-63 -26.5q-39 0 -64 26t-25 60q0 36 25 62.5t64 26.5q36 0 62 -25.5t26 -60.5z"/>
    <glyph glyph-name="Ugrave" unicode="Ù" horiz-adv-x="1260" d="M973 1300h123v-788q0 -210 -47 -307.5t-146 -160t-272 -62.5q-119 0 -204.5 30.5t-147 94.5t-88.5 152t-27 253v788h123v-798q0 -140 18 -201t62 -110t106 -73t156 -24q86 0 152 23t111 74t63 110t18 201v798zM604 1413l-184 256h143l133 -256h-92z"/>
    <glyph glyph-name="Yacute" unicode="Ý" horiz-adv-x="1055" d="M590 543v-543h-123v543l-447 757h138l374 -655l373 655h129zM549 1413h-92l133 256h143z"/>
    <glyph glyph-name="Ydieresis" unicode="Ÿ" horiz-adv-x="1055" d="M590 543v-543h-123v543l-447 757h138l374 -655l373 655h129zM764 1543q0 -36 -25 -62.5t-64 -26.5q-36 0 -62 25.5t-26 60.5q0 36 25 62.5t63 26.5q39 0 64 -26t25 -60zM467 1543q0 -36 -25 -62.5t-63 -26.5q-39 0 -64 26t-25 60q0 36 25 62.5t64 26.5q36 0 62 -25.5 t26 -60.5z"/>
    <glyph glyph-name="Zcaron" unicode="Ž" horiz-adv-x="1075" d="M72 0v94l768 1106h-748v100h891v-92l-768 -1104h789v-104h-932zM605 1413h-134l-163 256h92l137 -184l139 184h92z"/>
    <glyph glyph-name="aacute" unicode="á" horiz-adv-x="922" d="M696 0q-20 60 -20 123q-113 -141 -307 -141q-130 0 -208.5 75t-78.5 205q0 74 32.5 132.5t100.5 98t165 58t292 22.5v72q0 100 -61 154.5t-171 54.5q-76 0 -149.5 -22t-126.5 -62l-47 90q69 42 151 66t166 24q113 0 194.5 -38t120.5 -109.5t39 -188.5v-430q0 -99 41 -184 h-133zM672 483q-62 0 -172 -11t-167.5 -35t-92.5 -66t-35 -105q0 -88 51 -140t143 -52q80 0 158 48t115 124v237zM461 1044h-92l133 256h143z"/>
    <glyph glyph-name="acircumflex" unicode="â" horiz-adv-x="922" d="M696 0q-20 60 -20 123q-113 -141 -307 -141q-130 0 -208.5 75t-78.5 205q0 74 32.5 132.5t100.5 98t165 58t292 22.5v72q0 100 -61 154.5t-171 54.5q-76 0 -149.5 -22t-126.5 -62l-47 90q69 42 151 66t166 24q113 0 194.5 -38t120.5 -109.5t39 -188.5v-430q0 -99 41 -184 h-133zM672 483q-62 0 -172 -11t-167.5 -35t-92.5 -66t-35 -105q0 -88 51 -140t143 -52q80 0 158 48t115 124v237zM590 1044l-137 185l-139 -185h-92l163 256h134l163 -256h-92z"/>
    <glyph glyph-name="adieresis" unicode="ä" horiz-adv-x="922" d="M696 0q-20 60 -20 123q-113 -141 -307 -141q-130 0 -208.5 75t-78.5 205q0 74 32.5 132.5t100.5 98t165 58t292 22.5v72q0 100 -61 154.5t-171 54.5q-76 0 -149.5 -22t-126.5 -62l-47 90q69 42 151 66t166 24q113 0 194.5 -38t120.5 -109.5t39 -188.5v-430q0 -99 41 -184 h-133zM672 483q-62 0 -172 -11t-167.5 -35t-92.5 -66t-35 -105q0 -88 51 -140t143 -52q80 0 158 48t115 124v237zM687 1174q0 -36 -25 -62.5t-64 -26.5q-36 0 -62 25.5t-26 60.5q0 36 25 62.5t63 26.5q39 0 64 -26t25 -60zM390 1174q0 -36 -25 -62.5t-63 -26.5q-39 0 -64 26 t-25 60q0 36 25 62.5t64 26.5q36 0 62 -25.5t26 -60.5z"/>
    <glyph glyph-name="agrave" unicode="à" horiz-adv-x="922" d="M696 0q-20 60 -20 123q-113 -141 -307 -141q-130 0 -208.5 75t-78.5 205q0 74 32.5 132.5t100.5 98t165 58t292 22.5v72q0 100 -61 154.5t-171 54.5q-76 0 -149.5 -22t-126.5 -62l-47 90q69 42 151 66t166 24q113 0 194.5 -38t120.5 -109.5t39 -188.5v-430q0 -99 41 -184 h-133zM672 483q-62 0 -172 -11t-167.5 -35t-92.5 -66t-35 -105q0 -88 51 -140t143 -52q80 0 158 48t115 124v237zM430 1044l-184 256h143l133 -256h-92z"/>
    <glyph glyph-name="aring" unicode="å" horiz-adv-x="922" d="M696 0q-20 60 -20 123q-113 -141 -307 -141q-130 0 -208.5 75t-78.5 205q0 74 32.5 132.5t100.5 98t165 58t292 22.5v72q0 100 -61 154.5t-171 54.5q-76 0 -149.5 -22t-126.5 -62l-47 90q69 42 151 66t166 24q113 0 194.5 -38t120.5 -109.5t39 -188.5v-430q0 -99 41 -184 h-133zM672 483q-62 0 -172 -11t-167.5 -35t-92.5 -66t-35 -105q0 -88 51 -140t143 -52q80 0 158 48t115 124v237zM621 1174q0 -67 -46 -113.5t-114 -46.5q-67 0 -113.5 45t-46.5 112q0 68 46 114t114 46t114 -45t46 -112zM553 1174q0 39 -27.5 65.5t-64.5 26.5 q-39 0 -65.5 -26.5t-26.5 -65.5q0 -40 27 -67.5t65 -27.5q40 0 66 28t26 67z"/>
    <glyph glyph-name="atilde" unicode="ã" horiz-adv-x="922" d="M696 0q-20 60 -20 123q-113 -141 -307 -141q-130 0 -208.5 75t-78.5 205q0 74 32.5 132.5t100.5 98t165 58t292 22.5v72q0 100 -61 154.5t-171 54.5q-76 0 -149.5 -22t-126.5 -62l-47 90q69 42 151 66t166 24q113 0 194.5 -38t120.5 -109.5t39 -188.5v-430q0 -99 41 -184 h-133zM672 483q-62 0 -172 -11t-167.5 -35t-92.5 -66t-35 -105q0 -88 51 -140t143 -52q80 0 158 48t115 124v237zM737 1260q0 -76 -45.5 -130.5t-107.5 -54.5q-67 0 -133 48l-25 18q-27 21 -48 32t-40 11q-28 0 -50 -24t-32 -85l-72 10q0 76 45.5 130.5t113.5 54.5 q58 0 122 -46q36 -26 66 -44.5t53 -18.5q31 0 53.5 29t28.5 80z"/>
    <glyph glyph-name="ccedilla" unicode="ç" horiz-adv-x="895" d="M764 705q-40 67 -106 106t-142 39q-141 0 -227 -104t-86 -279q0 -171 83.5 -277t219.5 -106q66 0 116 22.5t84.5 54t63.5 72.5l78 -67l-17 -24q-60 -72 -127.5 -110t-169.5 -50l-114 -238h-133l153 239q-125 14 -206 92t-116.5 178.5t-35.5 211.5q0 139 55.5 250.5 t155 173t219.5 61.5q58 0 110.5 -13t106.5 -47.5t83.5 -73.5t33.5 -50z"/>
    <glyph glyph-name="eacute" unicode="é" horiz-adv-x="958" d="M205 451q0 -166 82 -266.5t225 -100.5q88 0 167.5 30t129.5 81l57 -80q-59 -61 -156 -97t-208 -36q-191 0 -305.5 132t-114.5 351q0 155 57.5 263.5t148.5 165t214 56.5q171 0 278 -120.5t107 -317.5v-61h-682zM768 543q0 142 -71.5 226.5t-198.5 84.5q-129 0 -208 -94 t-85 -217h563zM502 1044h-92l133 256h143z"/>
    <glyph glyph-name="ecircumflex" unicode="ê" horiz-adv-x="958" d="M205 451q0 -166 82 -266.5t225 -100.5q88 0 167.5 30t129.5 81l57 -80q-59 -61 -156 -97t-208 -36q-191 0 -305.5 132t-114.5 351q0 155 57.5 263.5t148.5 165t214 56.5q171 0 278 -120.5t107 -317.5v-61h-682zM768 543q0 142 -71.5 226.5t-198.5 84.5q-129 0 -208 -94 t-85 -217h563zM645 1044l-137 185l-139 -185h-92l163 256h134l163 -256h-92z"/>
    <glyph glyph-name="edieresis" unicode="ë" horiz-adv-x="958" d="M205 451q0 -166 82 -266.5t225 -100.5q88 0 167.5 30t129.5 81l57 -80q-59 -61 -156 -97t-208 -36q-191 0 -305.5 132t-114.5 351q0 155 57.5 263.5t148.5 165t214 56.5q171 0 278 -120.5t107 -317.5v-61h-682zM768 543q0 142 -71.5 226.5t-198.5 84.5q-129 0 -208 -94 t-85 -217h563zM738 1174q0 -36 -25 -62.5t-64 -26.5q-36 0 -62 25.5t-26 60.5q0 36 25 62.5t63 26.5q39 0 64 -26t25 -60zM441 1174q0 -36 -25 -62.5t-63 -26.5q-39 0 -64 26t-25 60q0 36 25 62.5t64 26.5q36 0 62 -25.5t26 -60.5z"/>
    <glyph glyph-name="egrave" unicode="è" horiz-adv-x="958" d="M205 451q0 -166 82 -266.5t225 -100.5q88 0 167.5 30t129.5 81l57 -80q-59 -61 -156 -97t-208 -36q-191 0 -305.5 132t-114.5 351q0 155 57.5 263.5t148.5 165t214 56.5q171 0 278 -120.5t107 -317.5v-61h-682zM768 543q0 142 -71.5 226.5t-198.5 84.5q-129 0 -208 -94 t-85 -217h563zM481 1044l-184 256h143l133 -256h-92z"/>
    <glyph glyph-name="iacute" unicode="í" horiz-adv-x="444" d="M164 0v932h117v-932h-117zM258 1044h-92l133 256h143z"/>
    <glyph glyph-name="icircumflex" unicode="î" horiz-adv-x="444" d="M164 0v932h117v-932h-117zM362 1044l-137 185l-139 -185h-92l163 256h134l163 -256h-92z"/>
    <glyph glyph-name="idieresis" unicode="ï" horiz-adv-x="444" d="M164 0v932h117v-932h-117zM461 1174q0 -36 -25 -62.5t-64 -26.5q-36 0 -62 25.5t-26 60.5q0 36 25 62.5t63 26.5q39 0 64 -26t25 -60zM164 1174q0 -36 -25 -62.5t-63 -26.5q-39 0 -64 26t-25 60q0 36 25 62.5t64 26.5q36 0 62 -25.5t26 -60.5z"/>
    <glyph glyph-name="igrave" unicode="ì" horiz-adv-x="444" d="M164 0v932h117v-932h-117zM196 1044l-184 256h143l133 -256h-92z"/>
    <glyph glyph-name="ntilde" unicode="ñ" horiz-adv-x="1055" d="M784 0v571q0 143 -51.5 208t-159.5 65q-68 0 -130 -41t-106.5 -109.5t-55.5 -130.5v-563h-117v932h106l11 -184q52 97 136.5 149.5t186.5 52.5q145 0 221 -88.5t76 -249.5v-612h-117zM809 1260q0 -76 -45.5 -130.5t-107.5 -54.5q-67 0 -133 48l-25 18q-27 21 -48 32 t-40 11q-28 0 -50 -24t-32 -85l-72 10q0 76 45.5 130.5t113.5 54.5q58 0 122 -46q36 -26 66 -44.5t53 -18.5q31 0 53.5 29t28.5 80z"/>
    <glyph glyph-name="oacute" unicode="ó" d="M942 467q0 -220 -119 -352.5t-311 -132.5t-311 133t-119 350q0 220 119 352.5t311 132.5t311 -133t119 -350zM819 467q0 179 -83.5 282t-223.5 103q-141 0 -224 -103.5t-83 -281.5t82.5 -282.5t224.5 -104.5t224.5 104t82.5 283zM533 1044h-92l133 256h143z"/>
    <glyph glyph-name="ocircumflex" unicode="ô" d="M942 467q0 -220 -119 -352.5t-311 -132.5t-311 133t-119 350q0 220 119 352.5t311 132.5t311 -133t119 -350zM819 467q0 179 -83.5 282t-223.5 103q-141 0 -224 -103.5t-83 -281.5t82.5 -282.5t224.5 -104.5t224.5 104t82.5 283zM651 1044l-137 185l-139 -185h-92 l163 256h134l163 -256h-92z"/>
    <glyph glyph-name="odieresis" unicode="ö" d="M942 467q0 -220 -119 -352.5t-311 -132.5t-311 133t-119 350q0 220 119 352.5t311 132.5t311 -133t119 -350zM819 467q0 179 -83.5 282t-223.5 103q-141 0 -224 -103.5t-83 -281.5t82.5 -282.5t224.5 -104.5t224.5 104t82.5 283zM748 1174q0 -36 -25 -62.5t-64 -26.5 q-36 0 -62 25.5t-26 60.5q0 36 25 62.5t63 26.5q39 0 64 -26t25 -60zM451 1174q0 -36 -25 -62.5t-63 -26.5q-39 0 -64 26t-25 60q0 36 25 62.5t64 26.5q36 0 62 -25.5t26 -60.5z"/>
    <glyph glyph-name="ograve" unicode="ò" d="M942 467q0 -220 -119 -352.5t-311 -132.5t-311 133t-119 350q0 220 119 352.5t311 132.5t311 -133t119 -350zM819 467q0 179 -83.5 282t-223.5 103q-141 0 -224 -103.5t-83 -281.5t82.5 -282.5t224.5 -104.5t224.5 104t82.5 283zM491 1044l-184 256h143l133 -256h-92z "/>
    <glyph glyph-name="otilde" unicode="õ" d="M942 467q0 -220 -119 -352.5t-311 -132.5t-311 133t-119 350q0 220 119 352.5t311 132.5t311 -133t119 -350zM819 467q0 179 -83.5 282t-223.5 103q-141 0 -224 -103.5t-83 -281.5t82.5 -282.5t224.5 -104.5t224.5 104t82.5 283zM792 1260q0 -76 -45.5 -130.5 t-107.5 -54.5q-67 0 -133 48l-25 18q-27 21 -48 32t-40 11q-28 0 -50 -24t-32 -85l-72 10q0 76 45.5 130.5t113.5 54.5q58 0 122 -46q36 -26 66 -44.5t53 -18.5q31 0 53.5 29t28.5 80z"/>
    <glyph glyph-name="scaron" unicode="š" horiz-adv-x="799" d="M727 254q0 -122 -92 -197t-238 -75q-108 0 -204.5 51t-141.5 117l76 71q50 -64 124 -102.5t148 -38.5q100 0 157.5 42t57.5 118q0 61 -42.5 98t-143.5 72l-152 55q-94 34 -137 96.5t-43 132.5q0 115 89.5 185.5t228.5 70.5q90 0 172.5 -35t130.5 -88l-62 -82 q-46 49 -112 79t-133 30q-94 0 -149.5 -39t-55.5 -108q0 -55 33.5 -90t119.5 -64l149 -52q52 -18 101 -46.5t84 -78t35 -122.5zM480 1044h-134l-163 256h92l137 -184l139 184h92z"/>
    <glyph glyph-name="uacute" unicode="ú" horiz-adv-x="1044" d="M774 0l-10 184q-49 -93 -132.5 -147.5t-180.5 -54.5q-144 0 -220.5 86t-76.5 249v615h116v-584q0 -123 47.5 -191.5t157.5 -68.5q65 0 126.5 38.5t106 104t56.5 131.5v570h117v-932h-107zM543 1044h-92l133 256h143z"/>
    <glyph glyph-name="ucircumflex" unicode="û" horiz-adv-x="1044" d="M774 0l-10 184q-49 -93 -132.5 -147.5t-180.5 -54.5q-144 0 -220.5 86t-76.5 249v615h116v-584q0 -123 47.5 -191.5t157.5 -68.5q65 0 126.5 38.5t106 104t56.5 131.5v570h117v-932h-107zM655 1044l-137 185l-139 -185h-92l163 256h134l163 -256h-92z"/>
    <glyph glyph-name="udieresis" unicode="ü" horiz-adv-x="1044" d="M774 0l-10 184q-49 -93 -132.5 -147.5t-180.5 -54.5q-144 0 -220.5 86t-76.5 249v615h116v-584q0 -123 47.5 -191.5t157.5 -68.5q65 0 126.5 38.5t106 104t56.5 131.5v570h117v-932h-107zM754 1174q0 -36 -25 -62.5t-64 -26.5q-36 0 -62 25.5t-26 60.5q0 36 25 62.5 t63 26.5q39 0 64 -26t25 -60zM457 1174q0 -36 -25 -62.5t-63 -26.5q-39 0 -64 26t-25 60q0 36 25 62.5t64 26.5q36 0 62 -25.5t26 -60.5z"/>
    <glyph glyph-name="ugrave" unicode="ù" horiz-adv-x="1044" d="M774 0l-10 184q-49 -93 -132.5 -147.5t-180.5 -54.5q-144 0 -220.5 86t-76.5 249v615h116v-584q0 -123 47.5 -191.5t157.5 -68.5q65 0 126.5 38.5t106 104t56.5 131.5v570h117v-932h-107zM491 1044l-184 256h143l133 -256h-92z"/>
    <glyph glyph-name="yacute" unicode="ý" horiz-adv-x="891" d="M236 -358q-86 0 -144 36l31 93q26 -14 51.5 -20.5t50.5 -6.5q40 0 62.5 22.5t50.5 90.5l57 143l-364 932h123l297 -819l297 819h122l-440 -1127q-32 -86 -81.5 -124.5t-112.5 -38.5zM481 1044h-92l133 256h143z"/>
    <glyph glyph-name="ydieresis" unicode="ÿ" horiz-adv-x="891" d="M236 -358q-86 0 -144 36l31 93q26 -14 51.5 -20.5t50.5 -6.5q40 0 62.5 22.5t50.5 90.5l57 143l-364 932h123l297 -819l297 819h122l-440 -1127q-32 -86 -81.5 -124.5t-112.5 -38.5zM693 1174q0 -36 -25 -62.5t-64 -26.5q-36 0 -62 25.5t-26 60.5q0 36 25 62.5t63 26.5 q39 0 64 -26t25 -60zM396 1174q0 -36 -25 -62.5t-63 -26.5q-39 0 -64 26t-25 60q0 36 25 62.5t64 26.5q36 0 62 -25.5t26 -60.5z"/>
    <glyph glyph-name="zcaron" unicode="ž" horiz-adv-x="829" d="M51 0v82l570 758h-549v92h686v-76l-570 -758h590v-98h-727zM482 1044h-134l-163 256h92l137 -184l139 184h92z"/>
    <glyph glyph-name="f_f" unicode="ﬀ" horiz-adv-x="1053" d="M1112 1229l-16 7q-46 19 -101 19q-57 0 -92 -23t-52 -65t-17 -133v-102h258v-92h-258v-840h-117v840h-410v-840h-117v840h-147v92h147v123q0 97 32 160t91.5 99t137.5 36q50 0 91.5 -10t67.5 -21l-24 -90l-13 6q-47 20 -104 20q-58 0 -93.5 -23.5t-52 -67.5t-16.5 -130 v-102h410v123q0 92 28.5 155t90.5 101.5t141 38.5q64 0 102.5 -11.5t57.5 -19.5z"/>
    <glyph glyph-name="f_f_i" unicode="ﬃ" horiz-adv-x="1497" d="M1112 1229l-16 7q-46 19 -101 19q-57 0 -92 -23t-52 -65t-17 -133v-102h258v-92h-258v-840h-117v840h-410v-840h-117v840h-147v92h147v123q0 97 32 160t91.5 99t137.5 36q50 0 91.5 -10t67.5 -21l-24 -90l-13 6q-47 20 -104 20q-58 0 -93.5 -23.5t-52 -67.5t-16.5 -130 v-102h410v123q0 92 28.5 155t90.5 101.5t141 38.5q64 0 102.5 -11.5t57.5 -19.5zM1368 1255q0 -39 -27 -66.5t-65 -27.5q-39 0 -66.5 27t-27.5 65q0 40 27 67.5t65 27.5q40 0 67 -28t27 -65zM1217 0v932h117v-932h-117z"/>
    <glyph glyph-name="f_f_l" unicode="ﬄ" horiz-adv-x="1497" d="M1112 1229l-16 7q-46 19 -101 19q-57 0 -92 -23t-52 -65t-17 -133v-102h258v-92h-258v-840h-117v840h-410v-840h-117v840h-147v92h147v123q0 97 32 160t91.5 99t137.5 36q50 0 91.5 -10t67.5 -21l-24 -90l-13 6q-47 20 -104 20q-58 0 -93.5 -23.5t-52 -67.5t-16.5 -130 v-102h410v123q0 92 28.5 155t90.5 101.5t141 38.5q64 0 102.5 -11.5t57.5 -19.5zM1217 0v1341h117v-1341h-117z"/>
    <glyph glyph-name="oneeighth" unicode="⅛" horiz-adv-x="1616" d="M223 518v653q-22 -15 -70 -31t-69 -16l-16 72q55 9 94.5 33t57.5 45.5t22 40.5h88v-797h-107zM330 -31l-76 41l744 1319l75 -41zM1456 209q0 -103 -78 -163t-209 -60q-130 0 -208.5 60t-78.5 163q0 72 42.5 126t123.5 81q-135 57 -135 180q0 91 74 147t182 56 q110 0 182 -57t72 -146q0 -61 -32.5 -105t-100.5 -71q84 -31 125 -84t41 -127zM1325 596q0 52 -44 85.5t-112 33.5q-67 0 -111.5 -32.5t-44.5 -86.5q0 -50 38 -81.5t88 -43.5l52 -12l53 21q81 38 81 116zM1353 215q0 56 -49 94.5t-125 57.5l-33 8l-24 -7 q-60 -20 -98.5 -58.5t-38.5 -94.5q0 -65 51 -104t133 -39q81 0 132.5 40t51.5 103z"/>
    <glyph glyph-name="threeeighths" unicode="⅜" horiz-adv-x="1616" d="M547 733q0 -101 -79.5 -166t-193.5 -65q-67 0 -128.5 30.5t-116.5 98.5l61 61q87 -102 184 -102q78 0 121 39t43 108q0 65 -44 107.5t-109 42.5h-82v86h71q66 0 108 38t42 95t-41.5 93t-108.5 36q-107 0 -174 -78l-51 61q39 48 97.5 75.5t131.5 27.5q107 0 177.5 -54.5 t70.5 -140.5q0 -74 -43.5 -123.5t-105.5 -64.5q72 -13 121 -70t49 -135zM422 -31l-76 41l744 1319l75 -41zM1518 209q0 -103 -78 -163t-209 -60q-130 0 -208.5 60t-78.5 163q0 72 42.5 126t123.5 81q-135 57 -135 180q0 91 74 147t182 56q110 0 182 -57t72 -146 q0 -61 -32.5 -105t-100.5 -71q84 -31 125 -84t41 -127zM1387 596q0 52 -44 85.5t-112 33.5q-67 0 -111.5 -32.5t-44.5 -86.5q0 -50 38 -81.5t88 -43.5l52 -12l53 21q81 38 81 116zM1415 215q0 56 -49 94.5t-125 57.5l-33 8l-24 -7q-60 -20 -98.5 -58.5t-38.5 -94.5 q0 -65 51 -104t133 -39q81 0 132.5 40t51.5 103z"/>
    <glyph glyph-name="fiveeighths" unicode="⅝" horiz-adv-x="1616" d="M580 764q0 -118 -79.5 -189t-209.5 -71q-92 0 -160.5 38t-93.5 80l62 66q80 -96 194 -96q84 0 134.5 43.5t50.5 128.5q0 75 -49.5 123.5t-118.5 48.5q-48 0 -89 -13t-63 -36l-78 32l74 381h422v-94h-348l-43 -215q27 13 61.5 21t79.5 8q110 0 182 -73t72 -183zM473 -31 l-76 41l744 1319l75 -41zM1600 209q0 -103 -78 -163t-209 -60q-130 0 -208.5 60t-78.5 163q0 72 42.5 126t123.5 81q-135 57 -135 180q0 91 74 147t182 56q110 0 182 -57t72 -146q0 -61 -32.5 -105t-100.5 -71q84 -31 125 -84t41 -127zM1469 596q0 52 -44 85.5t-112 33.5 q-67 0 -111.5 -32.5t-44.5 -86.5q0 -50 38 -81.5t88 -43.5l52 -12l53 21q81 38 81 116zM1497 215q0 56 -49 94.5t-125 57.5l-33 8l-24 -7q-60 -20 -98.5 -58.5t-38.5 -94.5q0 -65 51 -104t133 -39q81 0 132.5 40t51.5 103z"/>
    <glyph glyph-name="seveneighths" unicode="⅞" horiz-adv-x="1616" d="M285 518h-111l365 686h-441v96h551v-90zM371 -31l-76 41l744 1319l75 -41zM1497 209q0 -103 -78 -163t-209 -60q-130 0 -208.5 60t-78.5 163q0 72 42.5 126t123.5 81q-135 57 -135 180q0 91 74 147t182 56q110 0 182 -57t72 -146q0 -61 -32.5 -105t-100.5 -71 q84 -31 125 -84t41 -127zM1366 596q0 52 -44 85.5t-112 33.5q-67 0 -111.5 -32.5t-44.5 -86.5q0 -50 38 -81.5t88 -43.5l52 -12l53 21q81 38 81 116zM1394 215q0 56 -49 94.5t-125 57.5l-33 8l-24 -7q-60 -20 -98.5 -58.5t-38.5 -94.5q0 -65 51 -104t133 -39q81 0 132.5 40 t51.5 103z"/>
    <glyph glyph-name="onethird" unicode="⅓" horiz-adv-x="1616" d="M223 518v653q-22 -15 -70 -31t-69 -16l-16 72q55 9 94.5 33t57.5 45.5t22 40.5h88v-797h-107zM330 -31l-76 41l744 1319l75 -41zM1436 215q0 -101 -79.5 -166t-193.5 -65q-67 0 -128.5 30.5t-116.5 98.5l61 61q87 -102 184 -102q78 0 121 39t43 108q0 65 -44 107.5 t-109 42.5h-82v86h71q66 0 108 38t42 95t-41.5 93t-108.5 36q-107 0 -174 -78l-51 61q39 48 97.5 75.5t131.5 27.5q107 0 177.5 -54.5t70.5 -140.5q0 -74 -43.5 -123.5t-105.5 -64.5q72 -13 121 -70t49 -135z"/>
    <glyph glyph-name="twothirds" unicode="⅔" horiz-adv-x="1616" d="M56 518q7 70 34 126t64.5 103t183.5 169q113 94 113 171q0 66 -40 105t-110 39q-51 0 -100.5 -23.5t-89.5 -73.5l-55 66q45 57 108.5 88t147.5 31q111 0 178 -61.5t67 -164.5q0 -62 -37 -122.5t-97 -107.5l-104 -85q-111 -92 -126 -168h395v-92h-532zM494 -31l-76 41 l744 1319l75 -41zM1518 215q0 -101 -79.5 -166t-193.5 -65q-67 0 -128.5 30.5t-116.5 98.5l61 61q87 -102 184 -102q78 0 121 39t43 108q0 65 -44 107.5t-109 42.5h-82v86h71q66 0 108 38t42 95t-41.5 93t-108.5 36q-107 0 -174 -78l-51 61q39 48 97.5 75.5t131.5 27.5 q107 0 177.5 -54.5t70.5 -140.5q0 -74 -43.5 -123.5t-105.5 -64.5q72 -13 121 -70t49 -135z"/>
    <glyph glyph-name="zero.superior" unicode="⁰" horiz-adv-x="768" d="M676 1173q0 -181 -80.5 -294t-214.5 -113q-135 0 -215 112t-80 295t80 295.5t215 112.5t215 -114t80 -294zM569 1173q0 148 -51 234t-137 86t-137 -86.5t-51 -233.5t51 -233t137 -86t137 86.5t51 232.5z"/>
    <glyph glyph-name="four.superior" unicode="⁴" horiz-adv-x="768" d="M565 950v-168h-104v168h-402v90l373 526h133v-522h121v-94h-121zM461 1464l-295 -420h295v420z"/>
    <glyph glyph-name="five.superior" unicode="⁵" horiz-adv-x="768" d="M639 1028q0 -118 -79.5 -189t-209.5 -71q-92 0 -160.5 38t-93.5 80l62 66q80 -96 194 -96q84 0 134.5 43.5t50.5 128.5q0 75 -49.5 123.5t-118.5 48.5q-48 0 -89 -13t-63 -36l-78 32l74 381h422v-94h-348l-43 -215q27 13 61.5 21t79.5 8q110 0 182 -73t72 -183z"/>
    <glyph glyph-name="six.superior" unicode="⁶" horiz-adv-x="768" d="M670 1038q0 -115 -78.5 -192.5t-198.5 -77.5q-81 0 -146.5 40t-105 122t-39.5 239q0 115 41 211t114 148.5t173 52.5q61 0 119.5 -22t91.5 -58l-53 -68q-29 29 -71.5 45.5t-86.5 16.5q-89 0 -136.5 -49t-67.5 -113.5t-23 -142.5q41 41 100 65.5t121 24.5 q105 0 175.5 -67.5t70.5 -174.5zM569 1030q0 76 -46 122t-124 46q-54 0 -107 -32.5t-85 -80.5q2 -99 52 -165t134 -66q81 0 128.5 48t47.5 128z"/>
    <glyph glyph-name="seven.superior" unicode="⁷" horiz-adv-x="768" d="M285 782h-111l365 686h-441v96h551v-90z"/>
    <glyph glyph-name="eight.superior" unicode="⁸" horiz-adv-x="768" d="M668 991q0 -103 -78 -163t-209 -60q-130 0 -208.5 60t-78.5 163q0 72 42.5 126t123.5 81q-135 57 -135 180q0 91 74 147t182 56q110 0 182 -57t72 -146q0 -61 -32.5 -105t-100.5 -71q84 -31 125 -84t41 -127zM537 1378q0 52 -44 85.5t-112 33.5q-67 0 -111.5 -32.5 t-44.5 -86.5q0 -50 38 -81.5t88 -43.5l52 -12l53 21q81 38 81 116zM565 997q0 56 -49 94.5t-125 57.5l-33 8l-24 -7q-60 -20 -98.5 -58.5t-38.5 -94.5q0 -65 51 -104t133 -39q81 0 132.5 40t51.5 103z"/>
    <glyph glyph-name="nine.superior" unicode="⁹" horiz-adv-x="768" d="M659 1187q0 -117 -37 -211.5t-106.5 -151t-185.5 -56.5q-70 0 -124 22.5t-93 65.5l59 65q60 -67 158 -67q88 0 139 50t70 115.5t20 135.5l-16 -16q-35 -35 -87.5 -54.5t-117.5 -19.5q-104 0 -175 70.5t-71 178.5q0 114 78 190.5t199 76.5q131 0 210.5 -99.5t79.5 -294.5z M555 1261q0 105 -51.5 169.5t-134.5 64.5q-85 0 -130.5 -47.5t-45.5 -126.5q0 -76 46 -122t123 -46q106 0 193 108z"/>
    <glyph glyph-name="zero.inferior" unicode="₀" horiz-adv-x="768" d="M676 147q0 -181 -80.5 -294t-214.5 -113q-135 0 -215 112t-80 295t80 295.5t215 112.5t215 -114t80 -294zM569 147q0 148 -51 234t-137 86t-137 -86.5t-51 -233.5t51 -233t137 -86t137 86.5t51 232.5z"/>
    <glyph glyph-name="one.inferior" unicode="₁" horiz-adv-x="768" d="M354 -244v653q-22 -15 -70 -31t-69 -16l-16 72q55 9 94.5 33t57.5 45.5t22 40.5h88v-797h-107z"/>
    <glyph glyph-name="two.inferior" unicode="₂" horiz-adv-x="768" d="M115 -244q7 70 34 126t64.5 103t183.5 169q113 94 113 171q0 66 -40 105t-110 39q-51 0 -100.5 -23.5t-89.5 -73.5l-55 66q45 57 108.5 88t147.5 31q111 0 178 -61.5t67 -164.5q0 -62 -37 -122.5t-97 -107.5l-104 -85q-111 -92 -126 -168h395v-92h-532z"/>
    <glyph glyph-name="three.inferior" unicode="₃" horiz-adv-x="768" d="M627 -29q0 -101 -79.5 -166t-193.5 -65q-67 0 -128.5 30.5t-116.5 98.5l61 61q87 -102 184 -102q78 0 121 39t43 108q0 65 -44 107.5t-109 42.5h-82v86h71q66 0 108 38t42 95t-41.5 93t-108.5 36q-107 0 -174 -78l-51 61q39 48 97.5 75.5t131.5 27.5q107 0 177.5 -54.5 t70.5 -140.5q0 -74 -43.5 -123.5t-105.5 -64.5q72 -13 121 -70t49 -135z"/>
    <glyph glyph-name="four.inferior" unicode="₄" horiz-adv-x="768" d="M565 -76v-168h-104v168h-402v90l373 526h133v-522h121v-94h-121zM461 438l-295 -420h295v420z"/>
    <glyph glyph-name="five.inferior" unicode="₅" horiz-adv-x="768" d="M639 2q0 -118 -79.5 -189t-209.5 -71q-92 0 -160.5 38t-93.5 80l62 66q80 -96 194 -96q84 0 134.5 43.5t50.5 128.5q0 75 -49.5 123.5t-118.5 48.5q-48 0 -89 -13t-63 -36l-78 32l74 381h422v-94h-348l-43 -215q27 13 61.5 21t79.5 8q110 0 182 -73t72 -183z"/>
    <glyph glyph-name="six.inferior" unicode="₆" horiz-adv-x="768" d="M670 12q0 -115 -78.5 -192.5t-198.5 -77.5q-81 0 -146.5 40t-105 122t-39.5 239q0 115 41 211t114 148.5t173 52.5q61 0 119.5 -22t91.5 -58l-53 -68q-29 29 -71.5 45.5t-86.5 16.5q-89 0 -136.5 -49t-67.5 -113.5t-23 -142.5q41 41 100 65.5t121 24.5q105 0 175.5 -67.5 t70.5 -174.5zM569 4q0 76 -46 122t-124 46q-54 0 -107 -32.5t-85 -80.5q2 -99 52 -165t134 -66q81 0 128.5 48t47.5 128z"/>
    <glyph glyph-name="seven.inferior" unicode="₇" horiz-adv-x="768" d="M285 -244h-111l365 686h-441v96h551v-90z"/>
    <glyph glyph-name="eight.inferior" unicode="₈" horiz-adv-x="768" d="M668 -35q0 -103 -78 -163t-209 -60q-130 0 -208.5 60t-78.5 163q0 72 42.5 126t123.5 81q-135 57 -135 180q0 91 74 147t182 56q110 0 182 -57t72 -146q0 -61 -32.5 -105t-100.5 -71q84 -31 125 -84t41 -127zM537 352q0 52 -44 85.5t-112 33.5q-67 0 -111.5 -32.5 t-44.5 -86.5q0 -50 38 -81.5t88 -43.5l52 -12l53 21q81 38 81 116zM565 -29q0 56 -49 94.5t-125 57.5l-33 8l-24 -7q-60 -20 -98.5 -58.5t-38.5 -94.5q0 -65 51 -104t133 -39q81 0 132.5 40t51.5 103z"/>
    <glyph glyph-name="nine.inferior" unicode="₉" horiz-adv-x="768" d="M659 161q0 -117 -37 -211.5t-106.5 -151t-185.5 -56.5q-70 0 -124 22.5t-93 65.5l59 65q60 -67 158 -67q88 0 139 50t70 115.5t20 135.5l-16 -16q-35 -35 -87.5 -54.5t-117.5 -19.5q-104 0 -175 70.5t-71 178.5q0 114 78 190.5t199 76.5q131 0 210.5 -99.5t79.5 -294.5z M555 235q0 105 -51.5 169.5t-134.5 64.5q-85 0 -130.5 -47.5t-45.5 -126.5q0 -76 46 -122t123 -46q106 0 193 108z"/>
    <glyph glyph-name="commaaccent" horiz-adv-x="768" d="M481 -102q-11 -81 -56.5 -157.5t-117.5 -133.5l-71 41q115 129 129 254z"/>
    <glyph glyph-name="Abreve" unicode="Ă" horiz-adv-x="1126" d="M993 0l-133 365h-604l-133 -365h-123l496 1300h133l497 -1300h-133zM559 1188l-266 -721h530zM825 1649q-27 -121 -94.5 -178.5t-165.5 -57.5q-105 0 -170.5 59t-91.5 177l72 20q47 -163 188 -163t190 163z"/>
    <glyph glyph-name="Amacron" unicode="Ā" horiz-adv-x="1126" d="M993 0l-133 365h-604l-133 -365h-123l496 1300h133l497 -1300h-133zM559 1188l-266 -721h530zM303 1495v93h522v-93h-522z"/>
    <glyph glyph-name="Aogonek" unicode="Ą" horiz-adv-x="1126" d="M1139 -297q-37 -38 -85 -60t-100 -22q-89 0 -141.5 48.5t-52.5 135.5q0 72 47.5 136.5t165.5 113.5l-113 310h-604l-133 -365h-123l496 1300h133l497 -1300h-133q-131 -75 -131 -174q0 -55 30 -84t83 -29q76 0 133 41zM559 1188l-266 -721h530z"/>
    <glyph glyph-name="AEacute" unicode="Ǽ" horiz-adv-x="1638" d="M819 0v410h-522l-246 -410h-133l803 1300h805v-100h-584v-452h543v-103h-543v-541h604v-104h-727zM819 1200h-47l-414 -688h461v688zM916 1413h-92l133 256h143z"/>
    <glyph glyph-name="Cacute" unicode="Ć" horiz-adv-x="1229" d="M1067 993q-51 97 -148.5 156t-224.5 59q-204 0 -334.5 -154t-130.5 -403q0 -247 125 -402t332 -155q129 0 232 60.5t163 162.5l86 -71q-68 -120 -194.5 -192t-286.5 -72q-173 0 -306 82t-205.5 235.5t-72.5 351.5q0 192 77 345.5t213 238t304 84.5q109 0 203.5 -35 t162 -97.5t97.5 -121.5zM705 1413h-92l133 256h143z"/>
    <glyph glyph-name="Ccaron" unicode="Č" horiz-adv-x="1229" d="M1067 993q-51 97 -148.5 156t-224.5 59q-204 0 -334.5 -154t-130.5 -403q0 -247 125 -402t332 -155q129 0 232 60.5t163 162.5l86 -71q-68 -120 -194.5 -192t-286.5 -72q-173 0 -306 82t-205.5 235.5t-72.5 351.5q0 192 77 345.5t213 238t304 84.5q109 0 203.5 -35 t162 -97.5t97.5 -121.5zM756 1413h-134l-163 256h92l137 -184l139 184h92z"/>
    <glyph glyph-name="Ccircumflex" unicode="Ĉ" horiz-adv-x="1229" d="M1067 993q-51 97 -148.5 156t-224.5 59q-204 0 -334.5 -154t-130.5 -403q0 -247 125 -402t332 -155q129 0 232 60.5t163 162.5l86 -71q-68 -120 -194.5 -192t-286.5 -72q-173 0 -306 82t-205.5 235.5t-72.5 351.5q0 192 77 345.5t213 238t304 84.5q109 0 203.5 -35 t162 -97.5t97.5 -121.5zM827 1413l-137 185l-139 -185h-92l163 256h134l163 -256h-92z"/>
    <glyph glyph-name="Cdotaccent" unicode="Ċ" horiz-adv-x="1229" d="M1067 993q-51 97 -148.5 156t-224.5 59q-204 0 -334.5 -154t-130.5 -403q0 -247 125 -402t332 -155q129 0 232 60.5t163 162.5l86 -71q-68 -120 -194.5 -192t-286.5 -72q-173 0 -306 82t-205.5 235.5t-72.5 351.5q0 192 77 345.5t213 238t304 84.5q109 0 203.5 -35 t162 -97.5t97.5 -121.5zM792 1543q0 -43 -29.5 -74t-72.5 -31q-42 0 -73 30t-31 72q0 45 31 75t71 30q42 0 73 -30t31 -72z"/>
    <glyph glyph-name="Dcaron" unicode="Ď" horiz-adv-x="1311" d="M1208 651q0 -184 -75 -334t-210 -233.5t-329 -83.5h-410v1300h410q290 0 452 -187t162 -462zM1081 649q0 154 -57.5 280t-167.5 197.5t-262 71.5h-287v-1096h287q153 0 263 72t167 198t57 277zM697 1413h-134l-163 256h92l137 -184l139 184h92z"/>
    <glyph glyph-name="Dcroat" unicode="Đ" horiz-adv-x="1311" d="M1208 651q0 -184 -75 -334t-210 -233.5t-329 -83.5h-410v631h-123v96h123v573h410q290 0 452 -187t162 -462zM1081 649q0 154 -57.5 280t-167.5 197.5t-262 71.5h-287v-471h318v-96h-318v-529h287q153 0 263 72t167 198t57 277z"/>
    <glyph glyph-name="Ebreve" unicode="Ĕ" horiz-adv-x="1044" d="M184 0v1300h748v-100h-625v-452h584v-103h-584v-541h645v-104h-768zM840 1649q-27 -121 -94.5 -178.5t-165.5 -57.5q-105 0 -170.5 59t-91.5 177l72 20q47 -163 188 -163t190 163z"/>
    <glyph glyph-name="Ecaron" unicode="Ě" horiz-adv-x="1044" d="M184 0v1300h748v-100h-625v-452h584v-103h-584v-541h645v-104h-768zM646 1413h-134l-163 256h92l137 -184l139 184h92z"/>
    <glyph glyph-name="Edotaccent" unicode="Ė" horiz-adv-x="1044" d="M184 0v1300h748v-100h-625v-452h584v-103h-584v-541h645v-104h-768zM682 1543q0 -43 -29.5 -74t-72.5 -31q-42 0 -73 30t-31 72q0 45 31 75t71 30q42 0 73 -30t31 -72z"/>
    <glyph glyph-name="Emacron" unicode="Ē" horiz-adv-x="1044" d="M184 0v1300h748v-100h-625v-452h584v-103h-584v-541h645v-104h-768zM318 1495v93h522v-93h-522z"/>
    <glyph glyph-name="Eng" unicode="Ŋ" horiz-adv-x="1352" d="M1055 0l-758 1147v-1147h-113v1300h148l723 -1095v1095h112v-1320q0 -125 -36.5 -198t-97 -105.5t-136.5 -32.5q-45 0 -76.5 6t-52.5 16l20 98q37 -20 109 -20q77 0 117.5 53.5t40.5 151.5v51z"/>
    <glyph glyph-name="Eogonek" unicode="Ę" horiz-adv-x="1044" d="M950 -297q-37 -38 -85.5 -60t-98.5 -22q-91 0 -143 48.5t-52 135.5q0 54 30 106t83 89h-500v1300h748v-100h-625v-452h584v-103h-584v-541h645v-104h-186q-92 -84 -92 -174q0 -53 28 -83t84 -30q47 0 82 13.5t52 27.5z"/>
    <glyph glyph-name="Gbreve" unicode="Ğ" horiz-adv-x="1341" d="M1110 0l-16 164q-62 -79 -171.5 -130.5t-246.5 -51.5q-169 0 -300.5 83t-202.5 236t-71 350q0 192 77 345.5t213 238t304 84.5q123 0 217.5 -40.5t150.5 -92.5t93 -111l-92 -71l-7 11q-27 45 -70.5 86.5t-116.5 74t-177 32.5q-134 0 -240.5 -70t-165.5 -197.5t-59 -289.5 q0 -247 125 -402t332 -155q132 0 233.5 53.5t157.5 139.5v256h-360v102h481v-645h-88zM948 1649q-27 -121 -94.5 -178.5t-165.5 -57.5q-105 0 -170.5 59t-91.5 177l72 20q47 -163 188 -163t190 163z"/>
    <glyph glyph-name="Gcircumflex" unicode="Ĝ" horiz-adv-x="1341" d="M1110 0l-16 164q-62 -79 -171.5 -130.5t-246.5 -51.5q-169 0 -300.5 83t-202.5 236t-71 350q0 192 77 345.5t213 238t304 84.5q123 0 217.5 -40.5t150.5 -92.5t93 -111l-92 -71l-7 11q-27 45 -70.5 86.5t-116.5 74t-177 32.5q-134 0 -240.5 -70t-165.5 -197.5t-59 -289.5 q0 -247 125 -402t332 -155q132 0 233.5 53.5t157.5 139.5v256h-360v102h481v-645h-88zM825 1413l-137 185l-139 -185h-92l163 256h134l163 -256h-92z"/>
    <glyph glyph-name="Gcommaaccent" unicode="Ģ" horiz-adv-x="1341" d="M1110 0l-16 164q-62 -79 -171.5 -130.5t-246.5 -51.5q-169 0 -300.5 83t-202.5 236t-71 350q0 192 77 345.5t213 238t304 84.5q123 0 217.5 -40.5t150.5 -92.5t93 -111l-92 -71l-7 11q-27 45 -70.5 86.5t-116.5 74t-177 32.5q-134 0 -240.5 -70t-165.5 -197.5t-59 -289.5 q0 -247 125 -402t332 -155q132 0 233.5 53.5t157.5 139.5v256h-360v102h481v-645h-88zM768 -102q-11 -81 -56.5 -157.5t-117.5 -133.5l-71 41q115 129 129 254z"/>
    <glyph glyph-name="Gdotaccent" unicode="Ġ" horiz-adv-x="1341" d="M1110 0l-16 164q-62 -79 -171.5 -130.5t-246.5 -51.5q-169 0 -300.5 83t-202.5 236t-71 350q0 192 77 345.5t213 238t304 84.5q123 0 217.5 -40.5t150.5 -92.5t93 -111l-92 -71l-7 11q-27 45 -70.5 86.5t-116.5 74t-177 32.5q-134 0 -240.5 -70t-165.5 -197.5t-59 -289.5 q0 -247 125 -402t332 -155q132 0 233.5 53.5t157.5 139.5v256h-360v102h481v-645h-88zM790 1543q0 -43 -29.5 -74t-72.5 -31q-42 0 -73 30t-31 72q0 45 31 75t71 30q42 0 73 -30t31 -72z"/>
    <glyph glyph-name="Hbar" unicode="Ħ" horiz-adv-x="1362" d="M1055 0v629h-748v-629h-123v963h-161v94h161v243h123v-243h748v243h123v-243h180v-94h-180v-963h-123zM1055 731v232h-748v-232h748z"/>
    <glyph glyph-name="Hcircumflex" unicode="Ĥ" horiz-adv-x="1362" d="M1055 0v645h-748v-645h-123v1300h123v-552h748v552h123v-1300h-123zM819 1413l-137 185l-139 -185h-92l163 256h134l163 -256h-92z"/>
    <glyph glyph-name="Ibreve" unicode="Ĭ" horiz-adv-x="492" d="M184 0v1300h123v-1300h-123zM510 1649q-27 -121 -94.5 -178.5t-165.5 -57.5q-105 0 -170.5 59t-91.5 177l72 20q47 -163 188 -163t190 163z"/>
    <glyph glyph-name="IJ" unicode="Ĳ" horiz-adv-x="993" d="M184 0v1300h123v-1300h-123zM686 1300h123v-1121q0 -142 -72.5 -230.5t-194.5 -88.5q-78 0 -133 24l21 99q36 -21 112 -21q69 0 106.5 55t37.5 150v1133z"/>
    <glyph glyph-name="Imacron" unicode="Ī" horiz-adv-x="492" d="M184 0v1300h123v-1300h-123zM-12 1495v93h522v-93h-522z"/>
    <glyph glyph-name="Iogonek" unicode="Į" horiz-adv-x="492" d="M258 0q-100 -82 -100 -174q0 -56 31 -84.5t77 -28.5q76 0 127 41l31 -51q-35 -39 -79.5 -60.5t-98.5 -21.5q-89 0 -140 48t-51 136q0 61 36 117.5t93 91.5v1286h123v-1300h-49z"/>
    <glyph glyph-name="Itilde" unicode="Ĩ" horiz-adv-x="492" d="M184 0v1300h123v-1300h-123zM524 1629q0 -76 -45.5 -130.5t-107.5 -54.5q-67 0 -133 48l-25 18q-27 21 -48 32t-40 11q-28 0 -50 -24t-32 -85l-72 10q0 76 45.5 130.5t113.5 54.5q58 0 122 -46q36 -26 66 -44.5t53 -18.5q31 0 53.5 29t28.5 80z"/>
    <glyph glyph-name="Jcircumflex" unicode="Ĵ" horiz-adv-x="594" d="M287 1300h123v-1121q0 -142 -72.5 -230.5t-194.5 -88.5q-78 0 -133 24l21 99q36 -21 112 -21q69 0 106.5 55t37.5 150v1133zM483 1413l-137 185l-139 -185h-92l163 256h134l163 -256h-92z"/>
    <glyph glyph-name="Kcommaaccent" unicode="Ķ" horiz-adv-x="1096" d="M928 0l-453 682l-168 -180v-502h-123v1300h123v-655l598 655h150l-500 -534l520 -766h-147zM671 -102q-11 -81 -56.5 -157.5t-117.5 -133.5l-71 41q115 129 129 254z"/>
    <glyph glyph-name="Lacute" unicode="Ĺ" horiz-adv-x="870" d="M184 0v1300h123v-1196h543v-104h-666zM264 1413h-92l133 256h143z"/>
    <glyph glyph-name="Lcaron" unicode="Ľ" horiz-adv-x="870" d="M184 0v1300h123v-1196h543v-104h-666zM733 1339q-4 -93 -33 -190t-69 -156l-86 8q66 159 67 342z"/>
    <glyph glyph-name="Lcommaaccent" unicode="Ļ" horiz-adv-x="870" d="M184 0v1300h123v-1196h543v-104h-666zM604 -102q-11 -81 -56.5 -157.5t-117.5 -133.5l-71 41q115 129 129 254z"/>
    <glyph glyph-name="Ldot" unicode="Ŀ" horiz-adv-x="870" d="M184 0v1300h123v-1196h543v-104h-666zM776 703q0 -43 -29.5 -74t-72.5 -31q-42 0 -73 30t-31 72q0 45 31 75t71 30q42 0 73 -30t31 -72z"/>
    <glyph glyph-name="Nacute" unicode="Ń" horiz-adv-x="1352" d="M1055 0l-758 1147v-1147h-113v1300h148l723 -1095v1095h112v-1300h-112zM690 1413h-92l133 256h143z"/>
    <glyph glyph-name="Ncaron" unicode="Ň" horiz-adv-x="1352" d="M1055 0l-758 1147v-1147h-113v1300h148l723 -1095v1095h112v-1300h-112zM756 1413h-134l-163 256h92l137 -184l139 184h92z"/>
    <glyph glyph-name="Ncommaaccent" unicode="Ņ" horiz-adv-x="1352" d="M1055 0l-758 1147v-1147h-113v1300h148l723 -1095v1095h112v-1300h-112zM747 -102q-11 -81 -56.5 -157.5t-117.5 -133.5l-71 41q115 129 129 254z"/>
    <glyph glyph-name="Obreve" unicode="Ŏ" horiz-adv-x="1423" d="M1321 651q0 -191 -76 -344.5t-215.5 -239t-316.5 -85.5t-317.5 85t-217 238t-76.5 344q0 192 77 346.5t216.5 239t315.5 84.5t315.5 -85t217 -238t77.5 -345zM1194 651q0 246 -133.5 402.5t-347.5 156.5q-218 0 -351 -156t-133 -403q0 -249 135 -404t347 -155 q216 0 349.5 155.5t133.5 403.5zM973 1649q-27 -121 -94.5 -178.5t-165.5 -57.5q-105 0 -170.5 59t-91.5 177l72 20q47 -163 188 -163t190 163z"/>
    <glyph glyph-name="Ohungarumlaut" unicode="Ő" horiz-adv-x="1423" d="M1321 651q0 -191 -76 -344.5t-215.5 -239t-316.5 -85.5t-317.5 85t-217 238t-76.5 344q0 192 77 346.5t216.5 239t315.5 84.5t315.5 -85t217 -238t77.5 -345zM1194 651q0 246 -133.5 402.5t-347.5 156.5q-218 0 -351 -156t-133 -403q0 -249 135 -404t347 -155 q216 0 349.5 155.5t133.5 403.5zM877 1413h-94l133 256h145zM621 1413h-94l133 256h143z"/>
    <glyph glyph-name="Omacron" unicode="Ō" horiz-adv-x="1423" d="M1321 651q0 -191 -76 -344.5t-215.5 -239t-316.5 -85.5t-317.5 85t-217 238t-76.5 344q0 192 77 346.5t216.5 239t315.5 84.5t315.5 -85t217 -238t77.5 -345zM1194 651q0 246 -133.5 402.5t-347.5 156.5q-218 0 -351 -156t-133 -403q0 -249 135 -404t347 -155 q216 0 349.5 155.5t133.5 403.5zM451 1495v93h522v-93h-522z"/>
    <glyph glyph-name="Oslashacute" unicode="Ǿ" horiz-adv-x="1423" d="M1321 651q0 -191 -76 -344.5t-215.5 -239t-316.5 -85.5q-216 0 -369 118l-139 -178l-72 58l143 182q-83 91 -128.5 215t-45.5 272q0 192 77 346.5t216.5 239t315.5 84.5q219 0 376 -127l132 166l71 -58l-135 -172q166 -193 166 -477zM1016 1100q-127 110 -303 110 q-221 0 -352.5 -157.5t-131.5 -401.5q0 -239 125 -393zM1194 651q0 233 -115 381l-661 -839q124 -101 293 -101q216 0 349.5 155.5t133.5 403.5zM758 1413h-92l133 256h143z"/>
    <glyph glyph-name="Racute" unicode="Ŕ" horiz-adv-x="1116" d="M907 0l-375 563h-225v-563h-123v1300h379q181 0 298.5 -102t117.5 -266q0 -129 -81 -227.5t-228 -131.5l385 -573h-148zM856 932q0 79 -42.5 145t-109 93.5t-162.5 27.5h-235v-532h215q111 0 179.5 26.5t111.5 92t43 147.5zM580 1413h-92l133 256h143z"/>
    <glyph glyph-name="Rcaron" unicode="Ř" horiz-adv-x="1116" d="M907 0l-375 563h-225v-563h-123v1300h379q181 0 298.5 -102t117.5 -266q0 -129 -81 -227.5t-228 -131.5l385 -573h-148zM856 932q0 79 -42.5 145t-109 93.5t-162.5 27.5h-235v-532h215q111 0 179.5 26.5t111.5 92t43 147.5zM644 1413h-134l-163 256h92l137 -184l139 184 h92z"/>
    <glyph glyph-name="Rcommaaccent" unicode="Ŗ" horiz-adv-x="1116" d="M907 0l-375 563h-225v-563h-123v1300h379q181 0 298.5 -102t117.5 -266q0 -129 -81 -227.5t-228 -131.5l385 -573h-148zM856 932q0 79 -42.5 145t-109 93.5t-162.5 27.5h-235v-532h215q111 0 179.5 26.5t111.5 92t43 147.5zM663 -102q-11 -81 -56.5 -157.5t-117.5 -133.5 l-71 41q115 129 129 254z"/>
    <glyph glyph-name="Sacute" unicode="Ś" horiz-adv-x="995" d="M911 348q0 -163 -120.5 -264.5t-315.5 -101.5q-123 0 -233 54.5t-183 160.5l84 75q44 -68 134.5 -127t201.5 -59q142 0 228 67.5t86 184.5q0 63 -32.5 111.5t-86.5 79.5t-123 57l-202 81q-234 97 -234 316q0 151 111 243.5t288 92.5q115 0 219.5 -52t161.5 -134l-76 -80 q-49 72 -134 118t-171 46q-127 0 -205 -60t-78 -164q0 -63 32 -111t89 -80.5t104 -49.5l204 -81q251 -104 251 -323zM535 1413h-92l133 256h143z"/>
    <glyph glyph-name="Scedilla" unicode="Ş" horiz-adv-x="995" d="M911 348q0 -141 -95 -240.5t-261 -119.5l-117 -244h-133l152 238q-133 7 -241.5 70t-156.5 145l84 75q49 -70 137 -128t199 -58q142 0 228 67.5t86 184.5q0 63 -32.5 111.5t-85 79.5t-139.5 64l-200 80q-58 23 -96 54t-62.5 63.5t-43.5 80.5t-19 112q0 153 113 245.5 t286 92.5q115 0 219.5 -52t161.5 -134l-76 -80q-49 72 -134 118t-171 46q-128 0 -205.5 -61t-77.5 -165q0 -68 42 -125.5t170 -109.5l202 -81q80 -31 130 -68t77 -75q59 -85 59 -186z"/>
    <glyph glyph-name="Scircumflex" unicode="Ŝ" horiz-adv-x="995" d="M911 348q0 -163 -120.5 -264.5t-315.5 -101.5q-123 0 -233 54.5t-183 160.5l84 75q44 -68 134.5 -127t201.5 -59q142 0 228 67.5t86 184.5q0 63 -32.5 111.5t-86.5 79.5t-123 57l-202 81q-234 97 -234 316q0 151 111 243.5t288 92.5q115 0 219.5 -52t161.5 -134l-76 -80 q-49 72 -134 118t-171 46q-127 0 -205 -60t-78 -164q0 -63 32 -111t89 -80.5t104 -49.5l204 -81q251 -104 251 -323zM657 1413l-137 185l-139 -185h-92l163 256h134l163 -256h-92z"/>
    <glyph glyph-name="Scommaaccent" unicode="Ș" horiz-adv-x="995" d="M911 348q0 -163 -120.5 -264.5t-315.5 -101.5q-123 0 -233 54.5t-183 160.5l84 75q44 -68 134.5 -127t201.5 -59q142 0 228 67.5t86 184.5q0 63 -32.5 111.5t-86.5 79.5t-123 57l-202 81q-234 97 -234 316q0 151 111 243.5t288 92.5q115 0 219.5 -52t161.5 -134l-76 -80 q-49 72 -134 118t-171 46q-127 0 -205 -60t-78 -164q0 -63 32 -111t89 -80.5t104 -49.5l204 -81q251 -104 251 -323zM571 -102q-11 -81 -56.5 -157.5t-117.5 -133.5l-71 41q115 129 129 254z"/>
    <glyph glyph-name="Tbar" unicode="Ŧ" horiz-adv-x="983" d="M553 539v-539h-123v539h-311v94h311v565h-410v102h943v-102h-410v-565h313v-94h-313z"/>
    <glyph glyph-name="Tcaron" unicode="Ť" horiz-adv-x="983" d="M553 1198v-1198h-123v1198h-410v102h943v-102h-410zM560 1413h-134l-163 256h92l137 -184l139 184h92z"/>
    <glyph glyph-name="Tcedilla" unicode="Ţ" horiz-adv-x="983" d="M553 1198v-1198h-123v1198h-410v102h943v-102h-410zM440 -371h-133l164 256h92z"/>
    <glyph glyph-name="Tcommaaccent" unicode="Ț" horiz-adv-x="983" d="M553 1198v-1198h-123v1198h-410v102h943v-102h-410zM583 -102q-11 -81 -56.5 -157.5t-117.5 -133.5l-71 41q115 129 129 254z"/>
    <glyph glyph-name="Ubreve" unicode="Ŭ" horiz-adv-x="1260" d="M973 1300h123v-788q0 -210 -47 -307.5t-146 -160t-272 -62.5q-119 0 -204.5 30.5t-147 94.5t-88.5 152t-27 253v788h123v-798q0 -140 18 -201t62 -110t106 -73t156 -24q86 0 152 23t111 74t63 110t18 201v798zM891 1649q-27 -121 -94.5 -178.5t-165.5 -57.5 q-105 0 -170.5 59t-91.5 177l72 20q47 -163 188 -163t190 163z"/>
    <glyph glyph-name="Uhungarumlaut" unicode="Ű" horiz-adv-x="1260" d="M973 1300h123v-788q0 -210 -47 -307.5t-146 -160t-272 -62.5q-119 0 -204.5 30.5t-147 94.5t-88.5 152t-27 253v788h123v-798q0 -140 18 -201t62 -110t106 -73t156 -24q86 0 152 23t111 74t63 110t18 201v798zM795 1413h-94l133 256h145zM539 1413h-94l133 256h143z"/>
    <glyph glyph-name="Umacron" unicode="Ū" horiz-adv-x="1260" d="M973 1300h123v-788q0 -210 -47 -307.5t-146 -160t-272 -62.5q-119 0 -204.5 30.5t-147 94.5t-88.5 152t-27 253v788h123v-798q0 -140 18 -201t62 -110t106 -73t156 -24q86 0 152 23t111 74t63 110t18 201v798zM369 1495v93h522v-93h-522z"/>
    <glyph glyph-name="Uogonek" unicode="Ų" horiz-adv-x="1260" d="M993 -297q-37 -38 -85.5 -60t-98.5 -22q-91 0 -143 48.5t-52 135.5q0 98 93 181l-43 -4h-33q-119 0 -204.5 30.5t-147 94.5t-88.5 152t-27 253v788h123v-798q0 -140 18 -201t62 -110t106 -73t156 -24q86 0 152 23t111 74t63 110t18 201v798h123v-788q0 -173 -29.5 -261.5 t-93.5 -151.5t-154 -93q-102 -76 -102 -180q0 -53 28 -83t84 -30q47 0 82 13.5t52 27.5z"/>
    <glyph glyph-name="Uring" unicode="Ů" horiz-adv-x="1260" d="M973 1300h123v-788q0 -210 -47 -307.5t-146 -160t-272 -62.5q-119 0 -204.5 30.5t-147 94.5t-88.5 152t-27 253v788h123v-798q0 -140 18 -201t62 -110t106 -73t156 -24q86 0 152 23t111 74t63 110t18 201v798zM789 1543q0 -67 -46 -113.5t-114 -46.5q-67 0 -113.5 45 t-46.5 112q0 68 46 114t114 46t114 -45t46 -112zM721 1543q0 39 -27.5 65.5t-64.5 26.5q-39 0 -65.5 -26.5t-26.5 -65.5q0 -40 27 -67.5t65 -27.5q40 0 66 28t26 67z"/>
    <glyph glyph-name="Utilde" unicode="Ũ" horiz-adv-x="1260" d="M973 1300h123v-788q0 -210 -47 -307.5t-146 -160t-272 -62.5q-119 0 -204.5 30.5t-147 94.5t-88.5 152t-27 253v788h123v-798q0 -140 18 -201t62 -110t106 -73t156 -24q86 0 152 23t111 74t63 110t18 201v798zM905 1629q0 -76 -45.5 -130.5t-107.5 -54.5q-67 0 -133 48 l-25 18q-27 21 -48 32t-40 11q-28 0 -50 -24t-32 -85l-72 10q0 76 45.5 130.5t113.5 54.5q58 0 122 -46q36 -26 66 -44.5t53 -18.5q31 0 53.5 29t28.5 80z"/>
    <glyph glyph-name="Wacute" unicode="Ẃ" horiz-adv-x="1720" d="M1331 0h-143l-328 1157l-328 -1157h-143l-338 1300h127l287 -1157l328 1157h143l328 -1157l286 1157h119zM856 1413h-92l133 256h143z"/>
    <glyph glyph-name="Wcircumflex" unicode="Ŵ" horiz-adv-x="1720" d="M1331 0h-143l-328 1157l-328 -1157h-143l-338 1300h127l287 -1157l328 1157h143l328 -1157l286 1157h119zM999 1413l-137 185l-139 -185h-92l163 256h134l163 -256h-92z"/>
    <glyph glyph-name="Wdieresis" unicode="Ẅ" horiz-adv-x="1720" d="M1331 0h-143l-328 1157l-328 -1157h-143l-338 1300h127l287 -1157l328 1157h143l328 -1157l286 1157h119zM1098 1543q0 -36 -25 -62.5t-64 -26.5q-36 0 -62 25.5t-26 60.5q0 36 25 62.5t63 26.5q39 0 64 -26t25 -60zM801 1543q0 -36 -25 -62.5t-63 -26.5q-39 0 -64 26 t-25 60q0 36 25 62.5t64 26.5q36 0 62 -25.5t26 -60.5z"/>
    <glyph glyph-name="Wgrave" unicode="Ẁ" horiz-adv-x="1720" d="M1331 0h-143l-328 1157l-328 -1157h-143l-338 1300h127l287 -1157l328 1157h143l328 -1157l286 1157h119zM866 1413l-184 256h143l133 -256h-92z"/>
    <glyph glyph-name="Ycircumflex" unicode="Ŷ" horiz-adv-x="1055" d="M590 543v-543h-123v543l-447 757h138l374 -655l373 655h129zM665 1413l-137 185l-139 -185h-92l163 256h134l163 -256h-92z"/>
    <glyph glyph-name="Ygrave" unicode="Ỳ" horiz-adv-x="1055" d="M590 543v-543h-123v543l-447 757h138l374 -655l373 655h129zM543 1413l-184 256h143l133 -256h-92z"/>
    <glyph glyph-name="Zacute" unicode="Ź" horiz-adv-x="1075" d="M72 0v94l768 1106h-748v100h891v-92l-768 -1104h789v-104h-932zM553 1413h-92l133 256h143z"/>
    <glyph glyph-name="Zdotaccent" unicode="Ż" horiz-adv-x="1075" d="M72 0v94l768 1106h-748v100h891v-92l-768 -1104h789v-104h-932zM641 1543q0 -43 -29.5 -74t-72.5 -31q-42 0 -73 30t-31 72q0 45 31 75t71 30q42 0 73 -30t31 -72z"/>
    <glyph glyph-name="Idotaccent" unicode="İ" horiz-adv-x="492" d="M184 0v1300h123v-1300h-123zM352 1543q0 -43 -29.5 -74t-72.5 -31q-42 0 -73 30t-31 72q0 45 31 75t71 30q42 0 73 -30t31 -72z"/>
    <glyph glyph-name="abreve" unicode="ă" horiz-adv-x="922" d="M696 0q-20 60 -20 123q-113 -141 -307 -141q-130 0 -208.5 75t-78.5 205q0 74 32.5 132.5t100.5 98t165 58t292 22.5v72q0 100 -61 154.5t-171 54.5q-76 0 -149.5 -22t-126.5 -62l-47 90q69 42 151 66t166 24q113 0 194.5 -38t120.5 -109.5t39 -188.5v-430q0 -99 41 -184 h-133zM672 483q-62 0 -172 -11t-167.5 -35t-92.5 -66t-35 -105q0 -88 51 -140t143 -52q80 0 158 48t115 124v237zM723 1280q-27 -121 -94.5 -178.5t-165.5 -57.5q-105 0 -170.5 59t-91.5 177l72 20q47 -163 188 -163t190 163z"/>
    <glyph glyph-name="amacron" unicode="ā" horiz-adv-x="922" d="M696 0q-20 60 -20 123q-113 -141 -307 -141q-130 0 -208.5 75t-78.5 205q0 74 32.5 132.5t100.5 98t165 58t292 22.5v72q0 100 -61 154.5t-171 54.5q-76 0 -149.5 -22t-126.5 -62l-47 90q69 42 151 66t166 24q113 0 194.5 -38t120.5 -109.5t39 -188.5v-430q0 -99 41 -184 h-133zM672 483q-62 0 -172 -11t-167.5 -35t-92.5 -66t-35 -105q0 -88 51 -140t143 -52q80 0 158 48t115 124v237zM201 1126v93h522v-93h-522z"/>
    <glyph glyph-name="aogonek" unicode="ą" horiz-adv-x="922" d="M739 0q-127 -112 -127 -199q0 -43 23.5 -65.5t66.5 -22.5q64 0 115 37l31 -51q-74 -78 -178 -78q-71 0 -115.5 40t-44.5 108q0 64 34.5 120.5t143.5 147.5q-12 43 -12 86q-106 -92 -173 -116.5t-134 -24.5q-130 0 -208.5 75t-78.5 205q0 73 33 132t102.5 99t184 60 t270.5 20v72q0 100 -61 154.5t-171 54.5q-76 0 -149.5 -22t-126.5 -62l-47 90q69 42 151 66t166 24q113 0 194.5 -38t120.5 -109.5t39 -188.5v-430q0 -99 41 -184h-90zM672 483q-62 0 -173 -11t-167.5 -35.5t-91.5 -67.5t-35 -107q0 -83 49 -135.5t131 -52.5 q71 0 140.5 37.5t146.5 128.5v243z"/>
    <glyph glyph-name="aeacute" unicode="ǽ" horiz-adv-x="1542" d="M788 469v-18q0 -167 83 -267t225 -100q86 0 164.5 29.5t132.5 81.5l57 -80q-59 -61 -157.5 -97t-207.5 -36q-113 0 -202.5 49.5t-145.5 142.5q-69 -100 -156 -146t-202 -46q-132 0 -214.5 71.5t-82.5 196.5q0 153 142 230t448 77v88q0 100 -61 154.5t-171 54.5 q-76 0 -149.5 -22t-126.5 -62l-47 90q69 42 151 66t166 24q260 0 324 -182q104 182 327 182q171 0 278 -119t107 -309v-53h-682zM1352 557q0 124 -72 210.5t-199 86.5q-126 0 -206 -90t-87 -207h564zM696 266q-24 68 -24 203q-147 -4 -269 -27q-198 -41 -198 -186 q0 -85 54.5 -133.5t150.5 -48.5q88 0 163.5 51.5t122.5 140.5zM807 1044h-92l133 256h143z"/>
    <glyph glyph-name="cacute" unicode="ć" horiz-adv-x="895" d="M764 705q-40 67 -106 106t-142 39q-141 0 -227 -104t-86 -279q0 -171 83.5 -277t219.5 -106q66 0 116 22.5t84.5 54t63.5 72.5l78 -67l-8 -11q-27 -40 -69.5 -76.5t-112 -67.5t-166.5 -31q-183 0 -296.5 137.5t-113.5 347.5q0 139 55.5 250.5t155 173t219.5 61.5 q58 0 110.5 -13t106.5 -47.5t83.5 -73.5t33.5 -50zM506 1044h-92l133 256h143z"/>
    <glyph glyph-name="ccaron" unicode="č" horiz-adv-x="895" d="M764 705q-40 67 -106 106t-142 39q-141 0 -227 -104t-86 -279q0 -171 83.5 -277t219.5 -106q66 0 116 22.5t84.5 54t63.5 72.5l78 -67l-8 -11q-27 -40 -69.5 -76.5t-112 -67.5t-166.5 -31q-183 0 -296.5 137.5t-113.5 347.5q0 139 55.5 250.5t155 173t219.5 61.5 q58 0 110.5 -13t106.5 -47.5t83.5 -73.5t33.5 -50zM576 1044h-134l-163 256h92l137 -184l139 184h92z"/>
    <glyph glyph-name="ccircumflex" unicode="ĉ" horiz-adv-x="895" d="M764 705q-40 67 -106 106t-142 39q-141 0 -227 -104t-86 -279q0 -171 83.5 -277t219.5 -106q66 0 116 22.5t84.5 54t63.5 72.5l78 -67l-8 -11q-27 -40 -69.5 -76.5t-112 -67.5t-166.5 -31q-183 0 -296.5 137.5t-113.5 347.5q0 139 55.5 250.5t155 173t219.5 61.5 q58 0 110.5 -13t106.5 -47.5t83.5 -73.5t33.5 -50zM647 1044l-137 185l-139 -185h-92l163 256h134l163 -256h-92z"/>
    <glyph glyph-name="cdotaccent" unicode="ċ" horiz-adv-x="895" d="M764 705q-40 67 -106 106t-142 39q-141 0 -227 -104t-86 -279q0 -171 83.5 -277t219.5 -106q66 0 116 22.5t84.5 54t63.5 72.5l78 -67l-8 -11q-27 -40 -69.5 -76.5t-112 -67.5t-166.5 -31q-183 0 -296.5 137.5t-113.5 347.5q0 139 55.5 250.5t155 173t219.5 61.5 q58 0 110.5 -13t106.5 -47.5t83.5 -73.5t33.5 -50zM612 1174q0 -43 -29.5 -74t-72.5 -31q-42 0 -73 30t-31 72q0 45 31 75t71 30q42 0 73 -30t31 -72z"/>
    <glyph glyph-name="dcaron" unicode="ď" horiz-adv-x="1085" d="M825 0l-20 154q-46 -77 -131 -124.5t-195 -47.5q-178 0 -287.5 135t-109.5 350q0 206 118 344.5t302 138.5q89 0 168 -40.5t135 -141.5v573h117v-1341h-97zM809 467q0 167 -83.5 277t-213.5 110q-131 0 -219 -110.5t-88 -276.5t82.5 -276.5t214.5 -110.5q131 0 219 110.5 t88 276.5zM1190 1339q-4 -93 -33 -190t-69 -156l-86 8q66 159 67 342z"/>
    <glyph glyph-name="dcroat" unicode="đ" horiz-adv-x="1085" d="M825 0l-20 154q-46 -77 -131 -124.5t-195 -47.5q-178 0 -287.5 135t-109.5 350q0 209 118.5 346t301.5 137q111 0 188.5 -53t114.5 -129v336h-367v94h367v143h117v-143h174v-94h-174v-1104h-97zM809 467q0 167 -83.5 277t-213.5 110q-131 0 -219 -110.5t-88 -276.5 t82.5 -276.5t214.5 -110.5q131 0 219 110.5t88 276.5z"/>
    <glyph glyph-name="ebreve" unicode="ĕ" horiz-adv-x="958" d="M205 451q0 -166 82 -266.5t225 -100.5q88 0 167.5 30t129.5 81l57 -80q-59 -61 -156 -97t-208 -36q-191 0 -305.5 132t-114.5 351q0 155 57.5 263.5t148.5 165t214 56.5q171 0 278 -120.5t107 -317.5v-61h-682zM768 543q0 142 -71.5 226.5t-198.5 84.5q-129 0 -208 -94 t-85 -217h563zM770 1280q-27 -121 -94.5 -178.5t-165.5 -57.5q-105 0 -170.5 59t-91.5 177l72 20q47 -163 188 -163t190 163z"/>
    <glyph glyph-name="ecaron" unicode="ě" horiz-adv-x="958" d="M205 451q0 -166 82 -266.5t225 -100.5q88 0 167.5 30t129.5 81l57 -80q-59 -61 -156 -97t-208 -36q-191 0 -305.5 132t-114.5 351q0 155 57.5 263.5t148.5 165t214 56.5q171 0 278 -120.5t107 -317.5v-61h-682zM768 543q0 142 -71.5 226.5t-198.5 84.5q-129 0 -208 -94 t-85 -217h563zM576 1044h-134l-163 256h92l137 -184l139 184h92z"/>
    <glyph glyph-name="edotaccent" unicode="ė" horiz-adv-x="958" d="M205 451q0 -166 82 -266.5t225 -100.5q88 0 167.5 30t129.5 81l57 -80q-59 -61 -156 -97t-208 -36q-191 0 -305.5 132t-114.5 351q0 155 57.5 263.5t148.5 165t214 56.5q171 0 278 -120.5t107 -317.5v-61h-682zM768 543q0 142 -71.5 226.5t-198.5 84.5q-129 0 -208 -94 t-85 -217h563zM612 1174q0 -43 -29.5 -74t-72.5 -31q-42 0 -73 30t-31 72q0 45 31 75t71 30q42 0 73 -30t31 -72z"/>
    <glyph glyph-name="emacron" unicode="ē" horiz-adv-x="958" d="M205 451q0 -166 82 -266.5t225 -100.5q88 0 167.5 30t129.5 81l57 -80q-59 -61 -156 -97t-208 -36q-191 0 -305.5 132t-114.5 351q0 155 57.5 263.5t148.5 165t214 56.5q171 0 278 -120.5t107 -317.5v-61h-682zM768 543q0 142 -71.5 226.5t-198.5 84.5q-129 0 -208 -94 t-85 -217h563zM248 1126v93h522v-93h-522z"/>
    <glyph glyph-name="eng" unicode="ŋ" horiz-adv-x="1055" d="M901 -31q0 -126 -28.5 -193t-81 -100.5t-132.5 -33.5q-70 0 -110 20l10 92q40 -14 92 -14q70 0 101.5 44t31.5 187v600q0 143 -51.5 208t-159.5 65q-68 0 -130 -41t-106.5 -109.5t-55.5 -130.5v-563h-117v932h106l11 -184q52 97 136.5 149.5t186.5 52.5q145 0 221 -88.5 t76 -249.5v-643z"/>
    <glyph glyph-name="eogonek" unicode="ę" horiz-adv-x="958" d="M868 -297q-37 -38 -85.5 -60t-98.5 -22q-91 0 -143 48.5t-52 135.5q0 52 27.5 102t65.5 79l-80 -4q-191 0 -305.5 132t-114.5 351q0 155 56 261.5t147.5 165t216.5 58.5q171 0 278 -120.5t107 -317.5v-61h-682q0 -166 82 -266.5t225 -100.5q88 0 167.5 30t129.5 81 l57 -80q-26 -26 -69.5 -54t-85.5 -43q-119 -82 -119 -192q0 -55 30 -84t83 -29q46 0 81 13.5t52 27.5zM768 543q0 142 -71.5 226.5t-198.5 84.5q-130 0 -207.5 -94t-85.5 -217h563z"/>
    <glyph glyph-name="gbreve" unicode="ğ" horiz-adv-x="1075" d="M795 195q-74 -116 -158 -150.5t-166 -34.5q-172 0 -280.5 129.5t-108.5 341.5q0 131 54 239.5t149 169t207 60.5q61 0 113 -14.5t103.5 -53.5t86.5 -114l20 164h96v-768q0 -217 -51.5 -318t-153 -152.5t-235.5 -51.5q-102 0 -189 29t-153 79l57 88q44 -36 123 -65 t162 -29q154 0 239 80t85 289v82zM799 481q0 162 -82 267.5t-209 105.5q-130 0 -216.5 -106.5t-86.5 -266.5t81 -266t210 -106q130 0 216.5 106.5t86.5 265.5zM782 1280q-27 -121 -94.5 -178.5t-165.5 -57.5q-105 0 -170.5 59t-91.5 177l72 20q47 -163 188 -163t190 163z "/>
    <glyph glyph-name="gcircumflex" unicode="ĝ" horiz-adv-x="1075" d="M795 195q-74 -116 -158 -150.5t-166 -34.5q-172 0 -280.5 129.5t-108.5 341.5q0 131 54 239.5t149 169t207 60.5q61 0 113 -14.5t103.5 -53.5t86.5 -114l20 164h96v-768q0 -217 -51.5 -318t-153 -152.5t-235.5 -51.5q-102 0 -189 29t-153 79l57 88q44 -36 123 -65 t162 -29q154 0 239 80t85 289v82zM799 481q0 162 -82 267.5t-209 105.5q-130 0 -216.5 -106.5t-86.5 -266.5t81 -266t210 -106q130 0 216.5 106.5t86.5 265.5zM659 1044l-137 185l-139 -185h-92l163 256h134l163 -256h-92z"/>
    <glyph glyph-name="gcommaaccent" unicode="ģ" horiz-adv-x="1075" d="M795 195q-74 -116 -158 -150.5t-166 -34.5q-172 0 -280.5 129.5t-108.5 341.5q0 131 54 239.5t149 169t207 60.5q61 0 113 -14.5t103.5 -53.5t86.5 -114l20 164h96v-768q0 -217 -51.5 -318t-153 -152.5t-235.5 -51.5q-102 0 -189 29t-153 79l57 88q44 -36 123 -65 t162 -29q154 0 239 80t85 289v82zM799 481q0 162 -82 267.5t-209 105.5q-130 0 -216.5 -106.5t-86.5 -266.5t81 -266t210 -106q130 0 216.5 106.5t86.5 265.5zM439.059 1055.99q10.999 80.9902 56.4932 157.481q45.4941 76.4902 117.485 133.483l70.9922 -40.9951 q-114.986 -128.984 -128.984 -253.969z"/>
    <glyph glyph-name="gdotaccent" unicode="ġ" horiz-adv-x="1075" d="M795 195q-74 -116 -158 -150.5t-166 -34.5q-172 0 -280.5 129.5t-108.5 341.5q0 131 54 239.5t149 169t207 60.5q61 0 113 -14.5t103.5 -53.5t86.5 -114l20 164h96v-768q0 -217 -51.5 -318t-153 -152.5t-235.5 -51.5q-102 0 -189 29t-153 79l57 88q44 -36 123 -65 t162 -29q154 0 239 80t85 289v82zM799 481q0 162 -82 267.5t-209 105.5q-130 0 -216.5 -106.5t-86.5 -266.5t81 -266t210 -106q130 0 216.5 106.5t86.5 265.5zM624 1174q0 -43 -29.5 -74t-72.5 -31q-42 0 -73 30t-31 72q0 45 31 75t71 30q42 0 73 -30t31 -72z"/>
    <glyph glyph-name="hbar" unicode="ħ" horiz-adv-x="1055" d="M784 0v571q0 143 -51.5 208t-159.5 65q-68 0 -130 -41t-106.5 -109.5t-55.5 -130.5v-563h-117v1104h-152v94h152v143h117v-143h389v-94h-389v-356q52 97 136.5 149.5t186.5 52.5q145 0 221 -88.5t76 -249.5v-612h-117z"/>
    <glyph glyph-name="hcircumflex" unicode="ĥ" horiz-adv-x="1055" d="M784 0v571q0 143 -51.5 208t-159.5 65q-68 0 -130 -41t-106.5 -109.5t-55.5 -130.5v-563h-117v1341h117v-593q52 97 136.5 149.5t186.5 52.5q145 0 221 -88.5t76 -249.5v-612h-117zM362 1454l-137 185l-139 -185h-92l163 256h134l163 -256h-92z"/>
    <glyph glyph-name="ibreve" unicode="ĭ" horiz-adv-x="444" d="M164 0v932h117v-932h-117zM485 1280q-27 -121 -94.5 -178.5t-165.5 -57.5q-105 0 -170.5 59t-91.5 177l72 20q47 -163 188 -163t190 163z"/>
    <glyph glyph-name="ij" unicode="ĳ" horiz-adv-x="889" d="M315 1255q0 -39 -27 -66.5t-65 -27.5q-39 0 -66.5 27t-27.5 65q0 40 27 67.5t65 27.5q40 0 67 -28t27 -65zM164 0v932h117v-932h-117zM760 1255q0 -40 -28 -67t-65 -27q-39 0 -66.5 27t-27.5 65t27 66.5t65 28.5q41 0 68 -28t27 -65zM725 -31q0 -123 -27 -189.5t-82 -102 t-129 -35.5q-61 0 -114 20l10 92q42 -14 96 -14q68 0 98.5 42t30.5 167v983h117v-963z"/>
    <glyph glyph-name="imacron" unicode="ī" horiz-adv-x="444" d="M164 0v932h117v-932h-117zM-37 1126v93h522v-93h-522z"/>
    <glyph glyph-name="iogonek" unicode="į" horiz-adv-x="444" d="M244 0q-101 -83 -101 -174q0 -56 31 -84.5t78 -28.5q77 0 127 41l31 -51q-33 -38 -80.5 -60t-98.5 -22q-88 0 -139 48t-51 136q0 116 123 205v922h117v-932h-37zM315 1255q0 -39 -27 -66.5t-65 -27.5q-39 0 -66.5 27t-27.5 65q0 40 27 67.5t65 27.5q40 0 67 -28t27 -65z "/>
    <glyph glyph-name="itilde" unicode="ĩ" horiz-adv-x="444" d="M164 0v932h117v-932h-117zM499 1260q0 -76 -45.5 -130.5t-107.5 -54.5q-67 0 -133 48l-25 18q-27 21 -48 32t-40 11q-28 0 -50 -24t-32 -85l-72 10q0 76 45.5 130.5t113.5 54.5q58 0 122 -46q36 -26 66 -44.5t53 -18.5q31 0 53.5 29t28.5 80z"/>
    <glyph glyph-name="jcircumflex" unicode="ĵ" horiz-adv-x="455" d="M291 -31q0 -123 -27 -189.5t-82 -102t-129 -35.5q-61 0 -114 20l10 92q42 -14 96 -14q68 0 98.5 42t30.5 167v983h117v-963zM368 1044l-137 185l-139 -185h-92l163 256h134l163 -256h-92z"/>
    <glyph glyph-name="kcommaaccent" unicode="ķ" horiz-adv-x="932" d="M768 0l-354 481l-133 -127v-354h-117v1341h117v-860l446 451h154l-389 -375l419 -557h-143zM579 -102q-11 -81 -56.5 -157.5t-117.5 -133.5l-71 41q115 129 129 254z"/>
    <glyph glyph-name="lacute" unicode="ĺ" horiz-adv-x="444" d="M164 0v1341h117v-1341h-117zM236 1454h-92l133 256h143z"/>
    <glyph glyph-name="lcaron" unicode="ľ" horiz-adv-x="444" d="M164 0v1341h117v-1341h-117zM549 1339q-4 -93 -33 -190t-69 -156l-86 8q66 159 67 342z"/>
    <glyph glyph-name="lcommaaccent" unicode="ļ" horiz-adv-x="444" d="M164 0v1341h117v-1341h-117zM313 -102q-11 -81 -56.5 -157.5t-117.5 -133.5l-71 41q115 129 129 254z"/>
    <glyph glyph-name="ldot" unicode="ŀ" horiz-adv-x="588" d="M164 0v1341h117v-1341h-117zM618 703q0 -43 -29.5 -74t-72.5 -31q-42 0 -73 30t-31 72q0 45 31 75t71 30q42 0 73 -30t31 -72z"/>
    <glyph glyph-name="nacute" unicode="ń" horiz-adv-x="1055" d="M784 0v571q0 143 -51.5 208t-159.5 65q-68 0 -130 -41t-106.5 -109.5t-55.5 -130.5v-563h-117v932h106l11 -184q52 97 136.5 149.5t186.5 52.5q145 0 221 -88.5t76 -249.5v-612h-117zM555 1044h-92l133 256h143z"/>
    <glyph glyph-name="ncaron" unicode="ň" horiz-adv-x="1055" d="M784 0v571q0 143 -51.5 208t-159.5 65q-68 0 -130 -41t-106.5 -109.5t-55.5 -130.5v-563h-117v932h106l11 -184q52 97 136.5 149.5t186.5 52.5q145 0 221 -88.5t76 -249.5v-612h-117zM615 1044h-134l-163 256h92l137 -184l139 184h92z"/>
    <glyph glyph-name="ncommaaccent" unicode="ņ" horiz-adv-x="1055" d="M784 0v571q0 143 -51.5 208t-159.5 65q-68 0 -130 -41t-106.5 -109.5t-55.5 -130.5v-563h-117v932h106l11 -184q52 97 136.5 149.5t186.5 52.5q145 0 221 -88.5t76 -249.5v-612h-117zM612 -102q-11 -81 -56.5 -157.5t-117.5 -133.5l-71 41q115 129 129 254z"/>
    <glyph glyph-name="obreve" unicode="ŏ" d="M942 467q0 -220 -119 -352.5t-311 -132.5t-311 133t-119 350q0 220 119 352.5t311 132.5t311 -133t119 -350zM819 467q0 179 -83.5 282t-223.5 103q-141 0 -224 -103.5t-83 -281.5t82.5 -282.5t224.5 -104.5t224.5 104t82.5 283zM774 1280q-27 -121 -94.5 -178.5 t-165.5 -57.5q-105 0 -170.5 59t-91.5 177l72 20q47 -163 188 -163t190 163z"/>
    <glyph glyph-name="ohungarumlaut" unicode="ő" d="M942 467q0 -220 -119 -352.5t-311 -132.5t-311 133t-119 350q0 220 119 352.5t311 132.5t311 -133t119 -350zM819 467q0 179 -83.5 282t-223.5 103q-141 0 -224 -103.5t-83 -281.5t82.5 -282.5t224.5 -104.5t224.5 104t82.5 283zM678 1044h-94l133 256h145zM422 1044h-94 l133 256h143z"/>
    <glyph glyph-name="omacron" unicode="ō" d="M942 467q0 -220 -119 -352.5t-311 -132.5t-311 133t-119 350q0 220 119 352.5t311 132.5t311 -133t119 -350zM819 467q0 179 -83.5 282t-223.5 103q-141 0 -224 -103.5t-83 -281.5t82.5 -282.5t224.5 -104.5t224.5 104t82.5 283zM252 1126v93h522v-93h-522z"/>
    <glyph glyph-name="oslashacute" unicode="ǿ" d="M942 467q0 -220 -119 -352.5t-311 -132.5q-153 0 -260 86l-100 -125l-62 57l100 125q-108 131 -108 340q0 220 119 352.5t311 132.5q160 0 270 -92l97 121l61 -57l-100 -125q102 -129 102 -330zM713 774q-78 78 -201 78q-141 0 -224 -103.5t-83 -281.5q0 -150 59 -250z M819 465q0 143 -53 240l-449 -553q78 -72 195 -72q141 0 224 103.5t83 281.5zM533 1044h-92l133 256h143z"/>
    <glyph glyph-name="racute" unicode="ŕ" horiz-adv-x="666" d="M625 823q-30 13 -62 13q-103 0 -183 -82.5t-99 -200.5v-553h-117v932h106l11 -195q43 95 121.5 155t170.5 60q35 0 72 -10zM381 1044h-92l133 256h143z"/>
    <glyph glyph-name="rcaron" unicode="ř" horiz-adv-x="666" d="M625 823q-30 13 -62 13q-103 0 -183 -82.5t-99 -200.5v-553h-117v932h106l11 -195q43 95 121.5 155t170.5 60q35 0 72 -10zM461 1044h-134l-163 256h92l137 -184l139 184h92z"/>
    <glyph glyph-name="rcommaaccent" unicode="ŗ" horiz-adv-x="666" d="M625 823q-30 13 -62 13q-103 0 -183 -82.5t-99 -200.5v-553h-117v932h106l11 -195q43 95 121.5 155t170.5 60q35 0 72 -10zM340 -102q-11 -81 -56.5 -157.5t-117.5 -133.5l-71 41q115 129 129 254z"/>
    <glyph glyph-name="sacute" unicode="ś" horiz-adv-x="799" d="M727 254q0 -122 -92 -197t-238 -75q-108 0 -204.5 51t-141.5 117l76 71q50 -64 124 -102.5t148 -38.5q100 0 157.5 42t57.5 118q0 61 -42.5 98t-143.5 72l-152 55q-94 34 -137 96.5t-43 132.5q0 115 89.5 185.5t228.5 70.5q90 0 172.5 -35t130.5 -88l-62 -82 q-46 49 -112 79t-133 30q-94 0 -149.5 -39t-55.5 -108q0 -55 33.5 -90t119.5 -64l149 -52q52 -18 101 -46.5t84 -78t35 -122.5zM432 1044h-92l133 256h143z"/>
    <glyph glyph-name="scedilla" unicode="ş" horiz-adv-x="799" d="M727 254q0 -112 -79.5 -185.5t-183.5 -81.5l-116 -243h-133l153 239q-92 6 -182 53.5t-135 113.5l76 71q50 -64 124 -102.5t148 -38.5q100 0 157.5 42t57.5 118q0 47 -23.5 77.5t-63 51t-99.5 41.5l-152 55q-51 18 -89 46.5t-64.5 75.5t-26.5 107q0 115 89.5 185.5 t228.5 70.5q90 0 172.5 -35t130.5 -88l-62 -82q-46 49 -112 79t-133 30q-94 0 -149.5 -39t-55.5 -108q0 -55 33.5 -90t119.5 -64l149 -52q111 -38 165.5 -99.5t54.5 -147.5z"/>
    <glyph glyph-name="scircumflex" unicode="ŝ" horiz-adv-x="799" d="M727 254q0 -122 -92 -197t-238 -75q-108 0 -204.5 51t-141.5 117l76 71q50 -64 124 -102.5t148 -38.5q100 0 157.5 42t57.5 118q0 61 -42.5 98t-143.5 72l-152 55q-94 34 -137 96.5t-43 132.5q0 115 89.5 185.5t228.5 70.5q90 0 172.5 -35t130.5 -88l-62 -82 q-46 49 -112 79t-133 30q-94 0 -149.5 -39t-55.5 -108q0 -55 33.5 -90t119.5 -64l149 -52q52 -18 101 -46.5t84 -78t35 -122.5zM555 1044l-137 185l-139 -185h-92l163 256h134l163 -256h-92z"/>
    <glyph glyph-name="scommaaccent" unicode="ș" horiz-adv-x="799" d="M727 254q0 -122 -92 -197t-238 -75q-108 0 -204.5 51t-141.5 117l76 71q50 -64 124 -102.5t148 -38.5q100 0 157.5 42t57.5 118q0 61 -42.5 98t-143.5 72l-152 55q-94 34 -137 96.5t-43 132.5q0 115 89.5 185.5t228.5 70.5q90 0 172.5 -35t130.5 -88l-62 -82 q-46 49 -112 79t-133 30q-94 0 -149.5 -39t-55.5 -108q0 -55 33.5 -90t119.5 -64l149 -52q52 -18 101 -46.5t84 -78t35 -122.5zM477 -102q-11 -81 -56.5 -157.5t-117.5 -133.5l-71 41q115 129 129 254z"/>
    <glyph glyph-name="tbar" unicode="ŧ" horiz-adv-x="614" d="M309 434v-137q0 -84 12.5 -128t47.5 -67.5t98 -23.5q38 0 90 14l16 -92q-67 -20 -143 -20q-81 0 -135.5 34.5t-78 93t-23.5 189.5v137h-142v94h142v312h-142v92h142l16 266h100v-266h275v-92h-275v-312h275v-94h-275z"/>
    <glyph glyph-name="tcaron" unicode="ť" horiz-adv-x="614" d="M309 840v-543q0 -84 12.5 -128t47.5 -67.5t98 -23.5q38 0 90 14l16 -92q-68 -20 -143 -20q-81 0 -135.5 34.5t-78 93t-23.5 189.5v543h-142v92h142l16 266h100v-266h275v-92h-275zM602 1339q-4 -93 -33 -190t-69 -156l-86 8q66 159 67 342z"/>
    <glyph glyph-name="tcedilla" unicode="ţ" horiz-adv-x="614" d="M309 840v-543q0 -84 12.5 -128t47.5 -67.5t98 -23.5q38 0 90 14l16 -92q-68 -20 -143 -20q-81 0 -135.5 34.5t-78 93t-23.5 189.5v543h-142v92h142l16 266h100v-266h275v-92h-275zM340 -391h-133l164 256h92z"/>
    <glyph glyph-name="tcommaaccent" unicode="ț" horiz-adv-x="614" d="M309 840v-543q0 -84 12.5 -128t47.5 -67.5t98 -23.5q38 0 90 14l16 -92q-68 -20 -143 -20q-81 0 -135.5 34.5t-78 93t-23.5 189.5v543h-142v92h142l16 266h100v-266h275v-92h-275zM450 -102q-11 -81 -56.5 -157.5t-117.5 -133.5l-71 41q115 129 129 254z"/>
    <glyph glyph-name="ubreve" unicode="ŭ" horiz-adv-x="1044" d="M774 0l-10 184q-49 -93 -132.5 -147.5t-180.5 -54.5q-144 0 -220.5 86t-76.5 249v615h116v-584q0 -123 47.5 -191.5t157.5 -68.5q65 0 126.5 38.5t106 104t56.5 131.5v570h117v-932h-107zM784 1280q-27 -121 -94.5 -178.5t-165.5 -57.5q-105 0 -170.5 59t-91.5 177l72 20 q47 -163 188 -163t190 163z"/>
    <glyph glyph-name="uhungarumlaut" unicode="ű" horiz-adv-x="1044" d="M774 0l-10 184q-49 -93 -132.5 -147.5t-180.5 -54.5q-144 0 -220.5 86t-76.5 249v615h116v-584q0 -123 47.5 -191.5t157.5 -68.5q65 0 126.5 38.5t106 104t56.5 131.5v570h117v-932h-107zM688 1044h-94l133 256h145zM432 1044h-94l133 256h143z"/>
    <glyph glyph-name="umacron" unicode="ū" horiz-adv-x="1044" d="M774 0l-10 184q-49 -93 -132.5 -147.5t-180.5 -54.5q-144 0 -220.5 86t-76.5 249v615h116v-584q0 -123 47.5 -191.5t157.5 -68.5q65 0 126.5 38.5t106 104t56.5 131.5v570h117v-932h-107zM262 1126v93h522v-93h-522z"/>
    <glyph glyph-name="uogonek" unicode="ų" horiz-adv-x="1044" d="M764 184q-139 -202 -322 -202q-138 0 -213 86.5t-75 248.5v615h116v-584q0 -260 205 -260q60 0 121.5 38t112.5 109.5t55 126.5v570h117v-932h-70q-76 -70 -101.5 -118t-25.5 -81q0 -43 23.5 -65.5t66.5 -22.5q59 0 115 37l31 -51q-32 -35 -79.5 -56.5t-99.5 -21.5 q-73 0 -116 41t-43 107q0 64 38 123t152 153z"/>
    <glyph glyph-name="uring" unicode="ů" horiz-adv-x="1044" d="M774 0l-10 184q-49 -93 -132.5 -147.5t-180.5 -54.5q-144 0 -220.5 86t-76.5 249v615h116v-584q0 -123 47.5 -191.5t157.5 -68.5q65 0 126.5 38.5t106 104t56.5 131.5v570h117v-932h-107zM682 1174q0 -67 -46 -113.5t-114 -46.5q-67 0 -113.5 45t-46.5 112q0 68 46 114 t114 46t114 -45t46 -112zM614 1174q0 39 -27.5 65.5t-64.5 26.5q-39 0 -65.5 -26.5t-26.5 -65.5q0 -40 27 -67.5t65 -27.5q40 0 66 28t26 67z"/>
    <glyph glyph-name="utilde" unicode="ũ" horiz-adv-x="1044" d="M774 0l-10 184q-49 -93 -132.5 -147.5t-180.5 -54.5q-144 0 -220.5 86t-76.5 249v615h116v-584q0 -123 47.5 -191.5t157.5 -68.5q65 0 126.5 38.5t106 104t56.5 131.5v570h117v-932h-107zM798 1260q0 -76 -45.5 -130.5t-107.5 -54.5q-67 0 -133 48l-25 18q-27 21 -48 32 t-40 11q-28 0 -50 -24t-32 -85l-72 10q0 76 45.5 130.5t113.5 54.5q58 0 122 -46q36 -26 66 -44.5t53 -18.5q31 0 53.5 29t28.5 80z"/>
    <glyph glyph-name="wacute" unicode="ẃ" horiz-adv-x="1352" d="M1040 0h-122l-242 799l-240 -799h-123l-272 932h117l221 -789l229 789h135l230 -789l219 789h119zM672 1044h-92l133 256h143z"/>
    <glyph glyph-name="wcircumflex" unicode="ŵ" horiz-adv-x="1352" d="M1040 0h-122l-242 799l-240 -799h-123l-272 932h117l221 -789l229 789h135l230 -789l219 789h119zM815 1044l-137 185l-139 -185h-92l163 256h134l163 -256h-92z"/>
    <glyph glyph-name="wdieresis" unicode="ẅ" horiz-adv-x="1352" d="M1040 0h-122l-242 799l-240 -799h-123l-272 932h117l221 -789l229 789h135l230 -789l219 789h119zM914 1174q0 -36 -25 -62.5t-64 -26.5q-36 0 -62 25.5t-26 60.5q0 36 25 62.5t63 26.5q39 0 64 -26t25 -60zM617 1174q0 -36 -25 -62.5t-63 -26.5q-39 0 -64 26t-25 60 q0 36 25 62.5t64 26.5q36 0 62 -25.5t26 -60.5z"/>
    <glyph glyph-name="wgrave" unicode="ẁ" horiz-adv-x="1352" d="M1040 0h-122l-242 799l-240 -799h-123l-272 932h117l221 -789l229 789h135l230 -789l219 789h119zM682 1044l-184 256h143l133 -256h-92z"/>
    <glyph glyph-name="ycircumflex" unicode="ŷ" horiz-adv-x="891" d="M236 -358q-86 0 -144 36l31 93q26 -14 51.5 -20.5t50.5 -6.5q40 0 62.5 22.5t50.5 90.5l57 143l-364 932h123l297 -819l297 819h122l-440 -1127q-32 -86 -81.5 -124.5t-112.5 -38.5zM583 1044l-137 185l-139 -185h-92l163 256h134l163 -256h-92z"/>
    <glyph glyph-name="ygrave" unicode="ỳ" horiz-adv-x="891" d="M236 -358q-86 0 -144 36l31 93q26 -14 51.5 -20.5t50.5 -6.5q40 0 62.5 22.5t50.5 90.5l57 143l-364 932h123l297 -819l297 819h122l-440 -1127q-32 -86 -81.5 -124.5t-112.5 -38.5zM461 1044l-184 256h143l133 -256h-92z"/>
    <glyph glyph-name="zacute" unicode="ź" horiz-adv-x="829" d="M51 0v82l570 758h-549v92h686v-76l-570 -758h590v-98h-727zM430 1044h-92l133 256h143z"/>
    <glyph glyph-name="zdotaccent" unicode="ż" horiz-adv-x="829" d="M51 0v82l570 758h-549v92h686v-76l-570 -758h590v-98h-727zM518 1174q0 -43 -29.5 -74t-72.5 -31q-42 0 -73 30t-31 72q0 45 31 75t71 30q42 0 73 -30t31 -72z"/>
    <glyph glyph-name="kgreenlandic" unicode="ĸ" horiz-adv-x="932" d="M768 0l-354 481l-133 -127v-354h-117v932h117v-451l446 451h154l-389 -375l419 -557h-143z"/>
    <glyph glyph-name="napostrophe" unicode="ŉ" horiz-adv-x="1126" d="M246 1290q0 -100 -62 -212.5t-153 -176.5l-61 51q153 142 153 369zM856 0v571q0 143 -51.5 208t-159.5 65q-68 0 -130 -41t-106.5 -109.5t-55.5 -130.5v-563h-117v932h106l11 -184q52 97 136.5 149.5t186.5 52.5q145 0 221 -88.5t76 -249.5v-612h-117zM164 269z"/>
    <glyph glyph-name="Delta" unicode="∆" horiz-adv-x="1126" d="M35 0v92l461 1208h133l463 -1208v-92h-1057zM559 1188l-399 -1086h794z"/>
    <glyph glyph-name="Omega" unicode="Ω" horiz-adv-x="1423" d="M712 1210q-220 0 -351.5 -148t-131.5 -397q0 -137 50.5 -254t140 -201t194.5 -118v-92h-522v102h317q-142 85 -224.5 234.5t-82.5 330.5q0 184 75.5 334t214 233.5t320.5 83.5q177 0 315.5 -80.5t216 -230t77.5 -342.5q0 -181 -87 -333.5t-221 -229.5h318v-102h-522v92 q85 27 170 97t150 190.5t65 285.5q0 253 -135 399t-347 146z"/>
    <glyph glyph-name="uni03BC" unicode="μ" d="M754 0l-11 184q-40 -87 -118.5 -144.5t-163.5 -57.5q-61 0 -109 19t-71 50v-399h-117v1280h117v-574q0 -143 46 -206.5t144 -63.5q62 0 123 43t102 108.5t47 122.5v570h117v-932h-106z"/>
    <glyph glyph-name="pi" unicode="π" d="M113 0q66 209 89 417t23 423h-194v92h932v-92h-205v-623q0 -75 17.5 -102t70.5 -27q41 0 88 33l41 -86q-69 -45 -133 -45q-105 0 -153 50.5t-48 166.5v633h-299q0 -253 -30 -461.5t-83 -378.5h-116z"/>
    <glyph glyph-name="Euro" unicode="€" d="M985 203q-51 -104 -143.5 -162.5t-206.5 -58.5q-180 0 -285 128t-131 377h-147v82h142v174h-142v82h147q34 241 145.5 368.5t282.5 127.5q121 0 208 -58.5t128 -148.5l-82 -59l-11 22q-37 66 -100 109t-145 43q-123 0 -202 -104t-105 -300h461v-82h-464v-174h464v-82 h-461q23 -207 96 -307t211 -100q82 0 150.5 48t107.5 130z"/>
    <glyph glyph-name="litre" unicode="ℓ" horiz-adv-x="1008" d="M823 121q-119 -146 -260 -146q-97 0 -157 69t-60 212v285l-129 -146l-61 56l190 219v499q0 162 57 242t156 80q78 0 127 -55.5t49 -141.5q0 -125 -52.5 -249.5t-128.5 -231.5t-114 -156v-417q0 -87 35 -135t100 -48q92 0 197 117zM641 1284q0 55 -22 90t-62 35 q-117 0 -117 -254v-360q91 124 146 253t55 236z"/>
    <glyph glyph-name="estimated" unicode="℮" horiz-adv-x="1229" d="M1150 530h-828v-370q120 -121 296 -121q127 0 226 61.5t170 184.5l71 -43q-120 -174 -234.5 -225.5t-232.5 -51.5q-236 0 -382 161.5t-146 403.5q0 254 149 410t379 156q215 0 366.5 -141t165.5 -425zM917 604v295q-129 125 -301 123q-175 2 -294 -123v-295h595z"/>
    <glyph glyph-name="partialdiff" unicode="∂" d="M942 481q0 -223 -119 -361t-311 -138q-122 0 -221 59.5t-154 163.5t-55 229q0 128 53 233t150 164.5t217 59.5q100 0 186.5 -47.5t130.5 -126.5q-34 132 -126.5 263t-221 212t-287.5 108l21 82q234 -40 395.5 -166t251.5 -313.5t90 -421.5zM819 440q0 162 -83.5 261.5 t-223.5 99.5q-139 0 -223 -99.5t-84 -261.5q0 -161 84.5 -260.5t222.5 -99.5q139 0 223 99.5t84 260.5z"/>
    <glyph glyph-name="product" unicode="∏" d="M604 -348v92h144v1505h-410v-1505h143v-92h-399v92h154v1505h-154v92h922v-92h-154v-1505h154v-92h-400z"/>
    <glyph glyph-name="summation" unicode="∑" d="M51 -348v82l492 778l-482 748v81h881v-440h-92v348h-672l488 -737l-498 -768h702v369h93v-461h-912z"/>
    <glyph glyph-name="uni2219" unicode="∙" horiz-adv-x="512" d="M348 573q0 -39 -26.5 -65.5t-65.5 -26.5t-65.5 26.5t-26.5 65.5q0 38 25.5 65.5t66.5 27.5q40 0 66 -27.5t26 -65.5z"/>
    <glyph glyph-name="radical" unicode="√" d="M829 1208l-309 -1208h-133l-162 559h-123v92h195l154 -549l307 1198h235v-92h-164z"/>
    <glyph glyph-name="infinity" unicode="∞" d="M983 606q0 -98 -66.5 -161.5t-168.5 -63.5q-133 0 -236 149q-57 -83 -116.5 -116t-119.5 -33q-103 0 -169 63t-66 160q0 98 66.5 161.5t168.5 63.5q70 0 128 -38t108 -111q64 89 120 119t116 30q103 0 169 -63t66 -160zM893 606q0 59 -40 96t-105 37q-102 0 -185 -133 q45 -73 92 -104t93 -31q62 0 103.5 36t41.5 99zM461 604q-47 75 -93.5 105t-91.5 30q-62 0 -103.5 -36t-41.5 -97t41 -98t104 -37q102 0 185 133z"/>
    <glyph glyph-name="integral" unicode="∫" d="M809 1239q-20 12 -45.5 18.5t-56.5 6.5q-53 0 -85.5 -22.5t-45.5 -58t-13 -110.5v-1167q0 -89 -27 -143t-79.5 -87.5t-120.5 -33.5q-62 0 -94.5 11t-46.5 17l20 92q21 -12 46.5 -18t55.5 -6q69 0 106.5 39t37.5 135v1184q0 88 27 142t80 88t122 34q36 0 67.5 -5.5 t71.5 -23.5z"/>
    <glyph glyph-name="approxequal" unicode="≈" d="M932 778q-120 -112 -256 -112q-42 0 -84.5 17.5t-84.5 38.5t-84.5 38.5t-84.5 17.5q-51 0 -99 -23.5t-81 -53.5l-15 -15l-51 72q53 53 121.5 82.5t134.5 29.5q42 0 84.5 -17.5t84.5 -38.5t84.5 -38.5t84.5 -17.5q50 0 98 23.5t81 53.5l16 15zM932 451 q-49 -52 -118.5 -82.5t-137.5 -30.5q-42 0 -84.5 17.5t-84.5 39t-84.5 39t-84.5 17.5q-50 0 -99 -24.5t-81 -53.5l-15 -15l-51 72q53 53 121 83t135 30q42 0 84.5 -17.5t84.5 -39t84.5 -39t84.5 -17.5q50 0 103.5 26t91.5 66z"/>
    <glyph glyph-name="notequal" unicode="≠" d="M487 387l-92 -295h-94l94 295h-293v92h324l80 252h-404v92h435l92 295h94l-94 -295h293v-92h-324l-80 -252h404v-92h-435z"/>
    <glyph glyph-name="lessequal" unicode="≤" d="M922 911l-707 -305l707 -307v-106l-820 366v92l820 367v-107zM102 0v92h820v-92h-820z"/>
    <glyph glyph-name="greaterequal" unicode="≥" d="M102 1018l820 -367v-92l-820 -366v106l707 305l-707 307v107zM102 0v92h820v-92h-820z"/>
    <glyph glyph-name="lozenge" unicode="◊" d="M512 -20l-440 675l440 676l440 -676zM512 1167l-334 -512l334 -512l334 512z"/>
    <glyph glyph-name="uni00A0" unicode=" " horiz-adv-x="362"/>
    <glyph glyph-name="uni00AD" unicode="­" horiz-adv-x="614" d="M92 420v102h430v-102h-430z"/>
    <glyph glyph-name="uni02C9" unicode="ˉ" horiz-adv-x="768" d="M123 1126v93h522v-93h-522z"/>
    <glyph glyph-name="percent.oldstyle" unicode="﹪" horiz-adv-x="1536" d="M655 676q0 -135 -76 -216t-194 -81q-120 0 -196 82.5t-76 214.5q0 135 76 216t194 81q120 0 196 -82.5t76 -214.5zM559 676q0 98 -50.5 156.5t-123.5 58.5q-76 0 -126 -58.5t-50 -156.5t50.5 -156.5t123.5 -58.5q76 0 126 58.5t50 156.5zM528 -31l-77 43l557 971l75 -43z M1423 276q0 -134 -76.5 -215t-193.5 -81q-120 0 -196 82t-76 214q0 135 76 216t194 81q120 0 196 -82.5t76 -214.5zM1327 276q0 97 -49.5 156.5t-124.5 59.5q-76 0 -126 -59.5t-50 -156.5q0 -98 50.5 -156.5t123.5 -58.5q76 0 126 58.5t50 156.5z"/>
    <glyph glyph-name="zero.denominator" horiz-adv-x="768" d="M676 391q0 -181 -80.5 -294t-214.5 -113q-135 0 -215 112t-80 295t80 295.5t215 112.5t215 -114t80 -294zM569 391q0 148 -51 234t-137 86t-137 -86.5t-51 -233.5t51 -233t137 -86t137 86.5t51 232.5z"/>
    <glyph glyph-name="one.denominator" horiz-adv-x="768" d="M354 0v653q-22 -15 -70 -31t-69 -16l-16 72q55 9 94.5 33t57.5 45.5t22 40.5h88v-797h-107z"/>
    <glyph glyph-name="two.denominator" horiz-adv-x="768" d="M115 0q7 70 34 126t64.5 103t183.5 169q113 94 113 171q0 66 -40 105t-110 39q-51 0 -100.5 -23.5t-89.5 -73.5l-55 66q45 57 108.5 88t147.5 31q111 0 178 -61.5t67 -164.5q0 -62 -37 -122.5t-97 -107.5l-104 -85q-111 -92 -126 -168h395v-92h-532z"/>
    <glyph glyph-name="three.denominator" horiz-adv-x="768" d="M627 215q0 -101 -79.5 -166t-193.5 -65q-67 0 -128.5 30.5t-116.5 98.5l61 61q87 -102 184 -102q78 0 121 39t43 108q0 65 -44 107.5t-109 42.5h-82v86h71q66 0 108 38t42 95t-41.5 93t-108.5 36q-107 0 -174 -78l-51 61q39 48 97.5 75.5t131.5 27.5q107 0 177.5 -54.5 t70.5 -140.5q0 -74 -43.5 -123.5t-105.5 -64.5q72 -13 121 -70t49 -135z"/>
    <glyph glyph-name="four.denominator" horiz-adv-x="768" d="M565 168v-168h-104v168h-402v90l373 526h133v-522h121v-94h-121zM461 682l-295 -420h295v420z"/>
    <glyph glyph-name="five.denominator" horiz-adv-x="768" d="M639 246q0 -118 -79.5 -189t-209.5 -71q-92 0 -160.5 38t-93.5 80l62 66q80 -96 194 -96q84 0 134.5 43.5t50.5 128.5q0 75 -49.5 123.5t-118.5 48.5q-48 0 -89 -13t-63 -36l-78 32l74 381h422v-94h-348l-43 -215q27 13 61.5 21t79.5 8q110 0 182 -73t72 -183z"/>
    <glyph glyph-name="six.denominator" horiz-adv-x="768" d="M670 256q0 -115 -78.5 -192.5t-198.5 -77.5q-81 0 -146.5 40t-105 122t-39.5 239q0 115 41 211t114 148.5t173 52.5q61 0 119.5 -22t91.5 -58l-53 -68q-29 29 -71.5 45.5t-86.5 16.5q-89 0 -136.5 -49t-67.5 -113.5t-23 -142.5q41 41 100 65.5t121 24.5 q105 0 175.5 -67.5t70.5 -174.5zM569 248q0 76 -46 122t-124 46q-54 0 -107 -32.5t-85 -80.5q2 -99 52 -165t134 -66q81 0 128.5 48t47.5 128z"/>
    <glyph glyph-name="seven.denominator" horiz-adv-x="768" d="M285 0h-111l365 686h-441v96h551v-90z"/>
    <glyph glyph-name="eight.denominator" horiz-adv-x="768" d="M668 209q0 -103 -78 -163t-209 -60q-130 0 -208.5 60t-78.5 163q0 72 42.5 126t123.5 81q-135 57 -135 180q0 91 74 147t182 56q110 0 182 -57t72 -146q0 -61 -32.5 -105t-100.5 -71q84 -31 125 -84t41 -127zM537 596q0 52 -44 85.5t-112 33.5q-67 0 -111.5 -32.5 t-44.5 -86.5q0 -50 38 -81.5t88 -43.5l52 -12l53 21q81 38 81 116zM565 215q0 56 -49 94.5t-125 57.5l-33 8l-24 -7q-60 -20 -98.5 -58.5t-38.5 -94.5q0 -65 51 -104t133 -39q81 0 132.5 40t51.5 103z"/>
    <glyph glyph-name="nine.denominator" horiz-adv-x="768" d="M659 405q0 -117 -37 -211.5t-106.5 -151t-185.5 -56.5q-70 0 -124 22.5t-93 65.5l59 65q60 -67 158 -67q88 0 139 50t70 115.5t20 135.5l-16 -16q-35 -35 -87.5 -54.5t-117.5 -19.5q-104 0 -175 70.5t-71 178.5q0 114 78 190.5t199 76.5q131 0 210.5 -99.5t79.5 -294.5z M555 479q0 105 -51.5 169.5t-134.5 64.5q-85 0 -130.5 -47.5t-45.5 -126.5q0 -76 46 -122t123 -46q106 0 193 108z"/>
    <glyph glyph-name="uni2215" unicode="∕" horiz-adv-x="512" d="M-78 -31l-76 41l744 1319l75 -41z"/>
    <glyph glyph-name="uni03A9" unicode="Ω" horiz-adv-x="1423" d="M712 1210q-220 0 -351.5 -148t-131.5 -397q0 -137 50.5 -254t140 -201t194.5 -118v-92h-522v102h317q-142 85 -224.5 234.5t-82.5 330.5q0 184 75.5 334t214 233.5t320.5 83.5q177 0 315.5 -80.5t216 -230t77.5 -342.5q0 -181 -87 -333.5t-221 -229.5h318v-102h-522v92 q85 27 170 97t150 190.5t65 285.5q0 253 -135 399t-347 146z"/>
    <glyph glyph-name="caron.alt" horiz-adv-x="768" d="M481 1339q-4 -93 -33 -190t-69 -156l-86 8q66 159 67 342z"/>
    <glyph glyph-name="numbersign.oldstyle" unicode="﹟" horiz-adv-x="881" d="M653 604l-55 -256h174v-72h-188l-58 -276h-82l58 276h-207l-57 -276h-82l57 276h-162v72h176l56 256h-174v72h188l57 276h82l-57 -276h207l57 276h82l-57 -276h161v-72h-176zM365 604l-56 -256h207l55 256h-206z"/>
    <glyph glyph-name="longs" unicode="ſ" horiz-adv-x="526" d="M586 1229l-11 5q-48 21 -106 21q-48 0 -85.5 -19.5t-57 -70.5t-19.5 -131v-1034h-117v840h-147v92h147v113q0 108 32.5 171.5t90 98.5t138.5 35q38 0 74 -5t85 -26z"/>
    <glyph glyph-name="Bhook" unicode="Ɓ" horiz-adv-x="1325" d="M721 1300q164 0 242 -30t131 -104t53 -173q0 -102 -62 -180t-170 -106v-5q149 -20 233.5 -108.5t84.5 -224.5q0 -156 -111.5 -262.5t-369.5 -106.5h-379v1198h-39q-115 0 -158 -36t-43 -128q0 -50 10 -84l-106 -22q-6 14 -10 34.5t-5.5 37t-1.5 32.5q0 147 80.5 207.5 t261.5 60.5h359zM1106 369q0 117 -79 191.5t-255 74.5h-276v-533h276q111 0 182.5 29.5t111.5 93t40 144.5zM1022 973q0 80 -34.5 132t-88.5 72.5t-192 20.5h-211v-461h209q124 0 184 25t96.5 81.5t36.5 129.5zM184 281z"/>
    <glyph glyph-name="Oopen" unicode="Ɔ" horiz-adv-x="1300" d="M170 383q59 -142 167 -216.5t251 -74.5q216 0 349.5 155.5t133.5 403.5q0 246 -132.5 402.5t-348.5 156.5q-153 0 -259.5 -66t-166.5 -181l-103 65q79 136 218 213.5t309 77.5q176 0 315.5 -85t217 -238t77.5 -345q0 -191 -76 -344.5t-215.5 -239t-316.5 -85.5 q-129 0 -232 44.5t-173.5 116t-123.5 183.5z"/>
    <glyph glyph-name="Chook" unicode="Ƈ" horiz-adv-x="1229" d="M1067 993q-51 97 -148.5 156t-224.5 59q-201 0 -333 -152t-132 -405q0 -247 125 -402t332 -155q129 0 232 60.5t163 162.5l86 -71q-68 -120 -194.5 -192t-286.5 -72q-173 0 -306 82t-205.5 235.5t-72.5 351.5q0 192 77 345.5t213 238t304 84.5q206 0 353 -121 q0 149 59 222t168 73q79 0 143 -31l-26 -98q-50 27 -97 27q-71 0 -104 -39.5t-33 -134.5v-152z"/>
    <glyph glyph-name="chook" unicode="ƈ" horiz-adv-x="895" d="M764 705q-40 67 -106 106t-142 39q-141 0 -227 -104t-86 -279q0 -171 83.5 -277t219.5 -106q65 0 116 22.5t86.5 55.5t61.5 71l78 -67l-13 -20q-26 -33 -64 -67.5t-113 -66.5t-166 -32q-167 0 -288.5 127.5t-121.5 357.5q0 139 55.5 250.5t155 173t219.5 61.5 q133 0 231 -71q0 197 60.5 264t159.5 67q81 0 143 -30l-27 -90q-45 26 -96 26q-71 0 -104 -43t-33 -169v-138z"/>
    <glyph glyph-name="Dafrican" unicode="Ɖ" horiz-adv-x="1311" d="M1208 651q0 -184 -75 -334t-210 -233.5t-329 -83.5h-410v631h-123v96h123v573h410q290 0 452 -187t162 -462zM1081 649q0 154 -57.5 280t-167.5 197.5t-262 71.5h-287v-471h318v-96h-318v-529h287q153 0 263 72t167 198t57 277z"/>
    <glyph glyph-name="Dhook" unicode="Ɗ" horiz-adv-x="1499" d="M782 1300q291 0 453 -185.5t162 -463.5q0 -147 -48.5 -280t-186.5 -252t-380 -119h-409v1198h-39q-115 0 -158 -36t-43 -128q0 -41 10 -84l-106 -22q-6 21 -9.5 36t-5.5 31.5t-2 36.5q0 147 80.5 207.5t261.5 60.5h420zM1270 649q0 155 -59 282t-169 197t-260 70h-286 v-1096h286q152 0 261.5 71t168 197.5t58.5 278.5zM184 158z"/>
    <glyph glyph-name="Dtopbar" unicode="Ƌ" horiz-adv-x="1065" d="M758 748v450h-547v102h670v-1300h-359q-188 0 -309 94t-121 277q0 190 126.5 283.5t303.5 93.5h236zM758 645h-205q-169 0 -253.5 -73t-84.5 -201q0 -87 37.5 -145t107.5 -91t193 -33h205v543z"/>
    <glyph glyph-name="Ereversed" unicode="Ǝ" horiz-adv-x="1044" d="M92 0v104h645v541h-583v103h583v452h-624v100h747v-1300h-768z"/>
    <glyph glyph-name="Schwa" unicode="Ə" horiz-adv-x="1251" d="M1022 676q-5 229 -123 379.5t-317 150.5q-129 0 -217 -40.5t-187 -153.5l-82 73q104 129 219.5 181.5t266.5 52.5q168 0 297.5 -82.5t199.5 -235t70 -352.5q0 -192 -69 -345t-190.5 -237.5t-271.5 -84.5q-259 0 -394.5 174t-135.5 493v27h934zM618 88q163 0 272.5 132.5 t127.5 352.5h-807q25 -485 407 -485z"/>
    <glyph glyph-name="Eopen" unicode="Ɛ" horiz-adv-x="1016" d="M102 358q0 137 78.5 220.5t216.5 111.5q-111 35 -173 114.5t-62 182.5q0 152 99 243t267 91q113 0 202.5 -46t141.5 -130l-84 -66q-94 140 -258 140q-115 0 -179 -59t-64 -169q0 -124 77.5 -189t227.5 -65h96v-102h-104q-187 0 -271 -73.5t-84 -203.5q0 -126 82.5 -200 t218.5 -74q87 1 149.5 22t104.5 48t78 61l72 -80q-77 -76 -177.5 -115.5t-226.5 -39.5q-196 0 -312 103t-116 275z"/>
    <glyph glyph-name="Fhook" unicode="Ƒ" horiz-adv-x="952" d="M891 1300v-100h-584v-483h533v-103h-533v-657q0 -150 -70 -232.5t-196 -82.5q-78 0 -133 24l20 98q40 -20 113 -20q65 0 104 50t39 155v1351h707z"/>
    <glyph glyph-name="Ghook" unicode="Ɠ" horiz-adv-x="1341" d="M1065 1004l-6 10q-46 75 -106 116.5t-121.5 59.5t-137.5 18q-134 0 -240.5 -70t-165.5 -197.5t-59 -289.5q0 -247 125 -402t332 -155q132 0 233.5 53.5t157.5 139.5v256h-360v102h481v-645h-88l-16 164q-62 -79 -171.5 -130.5t-246.5 -51.5q-169 0 -300.5 83t-202.5 236 t-71 350q0 192 77 345.5t213 238t304 84.5q198 0 351 -121q0 149 59 222t168 73q79 0 143 -31l-26 -98q-50 27 -97 27q-71 0 -104 -39.5t-33 -134.5v-142z"/>
    <glyph glyph-name="Gammaafrican" unicode="Ɣ" horiz-adv-x="1106" d="M557 -260q48 0 75 37.5t27 109.5q0 159 -104 363q-100 -178 -100 -363q0 -72 27 -109.5t75 -37.5zM557 -358q-106 0 -161.5 66t-55.5 190q0 98 44.5 225t107.5 235l-482 942h137l356 -723q27 -54 54 -120q25 60 54 119l356 724h129l-478 -938q156 -282 156 -464 q0 -118 -57.5 -187t-159.5 -69z"/>
    <glyph glyph-name="hv" unicode="ƕ" horiz-adv-x="1573" d="M733 571q0 143 -46.5 208t-143.5 65q-62 0 -117 -41t-94 -107.5t-51 -132.5v-563h-117v1341h117v-593q46 95 125 148.5t172 53.5q132 0 202 -88t70 -250v-256q0 -144 57.5 -208t167.5 -64q116 0 172 66t56 206v576h116v-576q0 -179 -91.5 -276.5t-252.5 -97.5 q-163 0 -252.5 96t-89.5 280v213z"/>
    <glyph glyph-name="Iotaafrican" unicode="Ɩ" horiz-adv-x="705" d="M307 295q0 -109 38.5 -157t105.5 -48q95 0 172 49l49 -96q-62 -34 -117 -48.5t-104 -14.5q-267 0 -267 307v1013h123v-1005z"/>
    <glyph glyph-name="Ibar" unicode="Ɨ" horiz-adv-x="492" d="M0 727h184v573h123v-573h185v-96h-185v-631h-123v631h-184v96z"/>
    <glyph glyph-name="Khook" unicode="Ƙ" horiz-adv-x="1096" d="M543 784l532 -784h-147l-463 694l-158 -186v-508h-123v1300h123v-643l441 531q49 59 97 91t107 32q43 0 80.5 -17.5t69.5 -54.5l-70 -74q-43 43 -80 43q-32 0 -62 -24t-69 -72z"/>
    <glyph glyph-name="khook" unicode="ƙ" horiz-adv-x="932" d="M164 1073q0 136 65.5 206.5t192.5 70.5q87 0 158 -31l-27 -90q-59 26 -129 26q-143 0 -143 -182v-592l446 451h154l-389 -375l419 -557h-143l-354 481l-133 -127v-354h-117v1073z"/>
    <glyph glyph-name="Nhook" unicode="Ɲ" horiz-adv-x="1352" d="M1055 0l-758 1147v-1190q0 -152 -66.5 -233.5t-189.5 -81.5q-78 0 -133 24l20 98q40 -20 113 -20q65 0 104 50t39 155v1351h148l723 -1095v1095h112v-1300h-112z"/>
    <glyph glyph-name="Ohorn" unicode="Ơ" horiz-adv-x="1454" d="M1320 651q0 -192 -76 -345.5t-216 -238.5t-316 -85t-316 85t-217 237.5t-77 344.5t76 346t215.5 239t316.5 85q158 0 280.5 -64t203.5 -176q72 2 110.5 39t38.5 115v108h111v-108q0 -103 -56.5 -169t-150.5 -77q73 -154 73 -336zM1194 651q0 246 -133.5 402.5 t-347.5 156.5q-218 0 -351 -156t-133 -403q0 -249 135 -404t347 -155q216 0 349.5 155.5t133.5 403.5zM1352 238z"/>
    <glyph glyph-name="ohorn" unicode="ơ" horiz-adv-x="1055" d="M942 467q0 -220 -119 -352.5t-311 -132.5t-311 133t-119 350q0 220 119 352.5t311 132.5q164 0 281 -102q83 3 119 41t36 112v115h107v-117q0 -95 -52.5 -158.5t-138.5 -78.5q78 -124 78 -295zM819 467q0 179 -83.5 282t-223.5 103q-141 0 -224 -103.5t-83 -281.5 t82.5 -282.5t224.5 -104.5t224.5 104t82.5 283zM973 183z"/>
    <glyph glyph-name="Phook" unicode="Ƥ" horiz-adv-x="1253" d="M731 1300q129 0 222 -42t150.5 -127.5t57.5 -223.5q0 -197 -121.5 -296t-308.5 -99h-235v-512h-123v1198h-39q-115 0 -158 -36t-43 -128q0 -41 10 -84l-106 -22q-4 14 -8 31.5t-6.5 36t-2.5 36.5q0 147 80.5 207.5t261.5 60.5h369zM1038 907q0 97 -38 159.5t-108.5 97 t-191.5 34.5h-204v-584h204q124 0 193.5 36t107 98t37.5 159zM184 207z"/>
    <glyph glyph-name="phook" unicode="ƥ" horiz-adv-x="1085" d="M1004 467q0 -140 -51.5 -245t-145 -172.5t-223.5 -67.5q-97 0 -179 47t-124 125v-502h-117v1421q0 136 65.5 206.5t192.5 70.5q87 0 158 -31l-27 -90q-59 26 -129 26q-143 0 -143 -182v-305q6 15 28.5 43t62.5 61t101.5 55.5t130.5 22.5q180 0 290 -135.5t110 -347.5z M881 467q0 167 -83.5 277t-213.5 110q-132 0 -220 -111t-88 -276q0 -167 83.5 -277t213.5 -110q133 0 220.5 110.5t87.5 276.5z"/>
    <glyph glyph-name="Esh" unicode="Ʃ" horiz-adv-x="1075" d="M215 104h789v-104h-932v94l501 598l-479 516v92h889v-100h-745l475 -508z"/>
    <glyph glyph-name="Thook" unicode="Ƭ" d="M334 1198q-115 0 -158 -36t-43 -128q0 -41 10 -84l-106 -22q-5 16 -9 34.5t-6 36.5t-2 33q0 147 80.5 207.5t261.5 60.5h642v-102h-410v-1198h-123v1198h-137z"/>
    <glyph glyph-name="thook" unicode="ƭ" horiz-adv-x="614" d="M309 840v-543q0 -84 12.5 -128t47.5 -67.5t98 -23.5q38 0 90 14l16 -92q-67 -20 -143 -20q-81 0 -135.5 34.5t-78 93t-23.5 189.5v543h-142v92h142v141q0 136 65.5 206.5t192.5 70.5q88 0 157 -31l-26 -90q-59 26 -129 26q-76 0 -110 -43t-34 -139v-141h275v-92h-275z "/>
    <glyph glyph-name="Tretroflexhook" unicode="Ʈ" horiz-adv-x="983" d="M20 1198v102h943v-102h-410v-1249q0 -105 39 -155t104 -50q70 0 113 20l20 -98q-55 -24 -133 -24q-127 0 -196.5 84t-69.5 231v1241h-410z"/>
    <glyph glyph-name="Uhorn" unicode="Ư" horiz-adv-x="1368" d="M973 1300h123v-217q89 0 125 36.5t36 113.5v108h111v-108q0 -113 -67 -180.5t-205 -67.5v-473q0 -216 -52 -317t-154 -157t-259 -56q-119 0 -204.5 30.5t-147 94.5t-88.5 152t-27 253v788h123v-798q0 -140 18 -201t62 -110t106 -73t156 -24q86 0 152 23t111 74t63 110 t18 201v798z"/>
    <glyph glyph-name="uhorn" unicode="ư" horiz-adv-x="1116" d="M774 0l-10 184q-49 -93 -132.5 -147.5t-180.5 -54.5q-144 0 -220.5 86t-76.5 249v615h116v-584q0 -123 47.5 -191.5t157.5 -68.5q65 0 126.5 38.5t106 104t56.5 131.5v570h117v-82q69 8 99 45.5t30 105.5v115h106v-103q0 -234 -235 -255v-758h-107zM1035 213z"/>
    <glyph glyph-name="Upsilonafrican" unicode="Ʊ" horiz-adv-x="1423" d="M711 90q220 0 351.5 148t131.5 397q0 137 -50.5 254t-140 201t-194.5 118v92h522v-102h-317q142 -85 224.5 -234.5t82.5 -330.5q0 -184 -75.5 -334t-214 -233.5t-320.5 -83.5q-177 0 -315.5 80.5t-216 230t-77.5 342.5q0 181 87 333.5t221 229.5h-318v102h522v-92 q-150 -45 -267.5 -202.5t-117.5 -370.5q0 -253 135 -399t347 -146z"/>
    <glyph glyph-name="Vhook" unicode="Ʋ" horiz-adv-x="1106" d="M614 0h-122l-472 1300h134l403 -1167l342 862q18 45 24.5 73t6.5 46q0 94 -94 94q-52 0 -103 -28l-49 88q68 43 152 43q102 0 154 -53t52 -144q0 -48 -41 -151l-10 -24z"/>
    <glyph glyph-name="Yhook" unicode="Ƴ" horiz-adv-x="1055" d="M113 1208q-37 0 -76 -39l-68 70q31 36 68.5 54t81.5 18q35 0 63.5 -9t59.5 -37.5t63 -103.5l227 -516l373 655h129l-444 -757v-543h-123v543l-250 559q-27 60 -50.5 83t-53.5 23z"/>
    <glyph glyph-name="yhook" unicode="ƴ" horiz-adv-x="985" d="M236 -358q-86 0 -144 36l31 93q26 -14 51.5 -20.5t50.5 -6.5q40 0 62.5 22.5t50.5 90.5l57 143l-364 932h123l297 -819l247 675q31 82 74.5 123t106.5 41q42 0 79 -17t68 -54l-61 -74q-37 43 -74 43q-35 0 -54 -21t-38 -71l-369 -953q-33 -88 -83 -125.5t-111 -37.5z"/>
    <glyph glyph-name="Zbar" unicode="Ƶ" horiz-adv-x="1075" d="M197 727h313l330 473h-748v100h891v-92l-336 -481h264v-96h-329l-367 -527h789v-104h-932v94l372 537h-247v96z"/>
    <glyph glyph-name="zbar" unicode="ƶ" horiz-adv-x="829" d="M109 541h286l226 299h-549v92h686v-76l-238 -315h211v-95h-280l-263 -348h590v-98h-727v82l275 364h-217v95z"/>
    <glyph glyph-name="Ezh" unicode="Ʒ" horiz-adv-x="1006" d="M893 385q0 -189 -119 -297t-321 -108q-129 0 -235 66t-167 181l86 62q121 -205 326 -205q149 0 226 79.5t77 221.5q0 111 -35.5 173t-105.5 97t-193 35h-104v92l372 418h-567v100h717v-92l-377 -415q200 -7 310 -111.5t110 -296.5z"/>
    <glyph glyph-name="clickdental" unicode="ǀ" horiz-adv-x="903" d="M393 -348v1689h117v-1689h-117z"/>
    <glyph glyph-name="clicklateral" unicode="ǁ" horiz-adv-x="928" d="M182 -348v1689h117v-1689h-117zM631 -348v1689h117v-1689h-117z"/>
    <glyph glyph-name="clickalveolar" unicode="ǂ" horiz-adv-x="903" d="M111 745h282v596h117v-596h283v-98h-283v-262h283v-98h-283v-635h-117v635h-282v98h282v262h-282v98z"/>
    <glyph glyph-name="clickretroflex" unicode="ǃ" horiz-adv-x="553" d="M317 358h-81l-27 942h135zM369 72q0 -39 -27 -65.5t-66 -26.5t-65.5 26.5t-26.5 65.5t26.5 65.5t65.5 26.5q38 0 65.5 -25.5t27.5 -66.5z"/>
    <glyph glyph-name="Acaron" unicode="Ǎ" horiz-adv-x="1126" d="M993 0l-133 365h-604l-133 -365h-123l496 1300h133l497 -1300h-133zM559 1188l-266 -721h530zM627 1411h-134l-163 256h92l137 -184l139 184h92z"/>
    <glyph glyph-name="acaron" unicode="ǎ" horiz-adv-x="922" d="M696 0q-20 60 -20 123q-113 -141 -307 -141q-130 0 -208.5 75t-78.5 205q0 74 32.5 132.5t100.5 98t165 58t292 22.5v72q0 100 -61 154.5t-171 54.5q-76 0 -149.5 -22t-126.5 -62l-47 90q69 42 151 66t166 24q113 0 194.5 -38t120.5 -109.5t39 -188.5v-430q0 -99 41 -184 h-133zM672 483q-62 0 -172 -11t-167.5 -35t-92.5 -66t-35 -105q0 -88 51 -140t143 -52q80 0 158 48t115 124v237zM527 1044h-134l-163 256h92l137 -184l139 184h92z"/>
    <glyph glyph-name="Icaron" unicode="Ǐ" horiz-adv-x="492" d="M184 0v1300h123v-1300h-123zM316 1411h-134l-163 256h92l137 -184l139 184h92z"/>
    <glyph glyph-name="icaron" unicode="ǐ" horiz-adv-x="444" d="M164 0v932h117v-932h-117zM287 1044h-134l-163 256h92l137 -184l139 184h92z"/>
    <glyph glyph-name="Ocaron" unicode="Ǒ" horiz-adv-x="1423" d="M1321 651q0 -191 -76 -344.5t-215.5 -239t-316.5 -85.5t-317.5 85t-217 238t-76.5 344q0 192 77 346.5t216.5 239t315.5 84.5t315.5 -85t217 -238t77.5 -345zM1194 651q0 246 -133.5 402.5t-347.5 156.5q-218 0 -351 -156t-133 -403q0 -249 135 -404t347 -155 q216 0 349.5 155.5t133.5 403.5zM770 1411h-134l-163 256h92l137 -184l139 184h92z"/>
    <glyph glyph-name="ocaron" unicode="ǒ" d="M942 467q0 -220 -119 -352.5t-311 -132.5t-311 133t-119 350q0 220 119 352.5t311 132.5t311 -133t119 -350zM819 467q0 179 -83.5 282t-223.5 103q-141 0 -224 -103.5t-83 -281.5t82.5 -282.5t224.5 -104.5t224.5 104t82.5 283zM580 1044h-134l-163 256h92l137 -184 l139 184h92z"/>
    <glyph glyph-name="Ucaron" unicode="Ǔ" horiz-adv-x="1260" d="M973 1300h123v-788q0 -210 -47 -307.5t-146 -160t-272 -62.5q-119 0 -204.5 30.5t-147 94.5t-88.5 152t-27 253v788h123v-798q0 -140 18 -201t62 -110t106 -73t156 -24q86 0 152 23t111 74t63 110t18 201v798zM697 1411h-134l-163 256h92l137 -184l139 184h92z"/>
    <glyph glyph-name="ucaron" unicode="ǔ" horiz-adv-x="1044" d="M774 0l-10 184q-49 -93 -132.5 -147.5t-180.5 -54.5q-144 0 -220.5 86t-76.5 249v615h116v-584q0 -123 47.5 -191.5t157.5 -68.5q65 0 126.5 38.5t106 104t56.5 131.5v570h117v-932h-107zM586 1044h-134l-163 256h92l137 -184l139 184h92z"/>
    <glyph glyph-name="Udieresismacron" unicode="Ǖ" horiz-adv-x="1260" d="M973 1300h123v-788q0 -210 -47 -307.5t-146 -160t-272 -62.5q-119 0 -204.5 30.5t-147 94.5t-88.5 152t-27 253v788h123v-798q0 -140 18 -201t62 -110t106 -73t156 -24q86 0 152 23t111 74t63 110t18 201v798zM377 1729v92h506v-92h-506zM867 1543q0 -36 -25 -62.5 t-64 -26.5q-36 0 -62 25.5t-26 61.5q0 38 26 63t62 25q39 0 64 -26t25 -60zM570 1543q0 -36 -25 -62.5t-63 -26.5t-63.5 25.5t-25.5 61.5q0 38 26 63t63 25q36 0 62 -25.5t26 -60.5z"/>
    <glyph glyph-name="udieresismacron" unicode="ǖ" horiz-adv-x="1044" d="M774 0l-10 184q-49 -93 -132.5 -147.5t-180.5 -54.5q-144 0 -220.5 86t-76.5 249v615h116v-584q0 -123 47.5 -191.5t157.5 -68.5q65 0 126.5 38.5t106 104t56.5 131.5v570h117v-932h-107zM266 1362v92h506v-92h-506zM756 1176q0 -36 -25 -62.5t-64 -26.5q-36 0 -62 25.5 t-26 61.5q0 38 26 63t62 25q39 0 64 -26t25 -60zM459 1176q0 -36 -25 -62.5t-63 -26.5t-63.5 25.5t-25.5 61.5q0 38 26 63t63 25q36 0 62 -25.5t26 -60.5z"/>
    <glyph glyph-name="Udieresisacute" unicode="Ǘ" horiz-adv-x="1260" d="M973 1300h123v-788q0 -210 -47 -307.5t-146 -160t-272 -62.5q-119 0 -204.5 30.5t-147 94.5t-88.5 152t-27 253v788h123v-798q0 -140 18 -201t62 -110t106 -73t156 -24q86 0 152 23t111 74t63 110t18 201v798zM871 1543q0 -36 -25 -62.5t-64 -26.5q-36 0 -62 25.5 t-26 61.5q0 38 26 63t62 25q39 0 64 -26t25 -60zM574 1543q0 -36 -25 -62.5t-63 -26.5t-63.5 25.5t-25.5 61.5q0 38 26 63t63 25q36 0 62 -25.5t26 -60.5zM647 1696h-92l133 211h144z"/>
    <glyph glyph-name="udieresisacute" unicode="ǘ" horiz-adv-x="1044" d="M774 0l-10 184q-49 -93 -132.5 -147.5t-180.5 -54.5q-144 0 -220.5 86t-76.5 249v615h116v-584q0 -123 47.5 -191.5t157.5 -68.5q65 0 126.5 38.5t106 104t56.5 131.5v570h117v-932h-107zM756 1176q0 -36 -25 -62.5t-64 -26.5q-36 0 -62 25.5t-26 61.5q0 38 26 63t62 25 q39 0 64 -26t25 -60zM459 1176q0 -36 -25 -62.5t-63 -26.5t-63.5 25.5t-25.5 61.5q0 38 26 63t63 25q36 0 62 -25.5t26 -60.5zM532 1329h-92l133 211h144z"/>
    <glyph glyph-name="Udieresiscaron" unicode="Ǚ" horiz-adv-x="1260" d="M973 1300h123v-788q0 -210 -47 -307.5t-146 -160t-272 -62.5q-119 0 -204.5 30.5t-147 94.5t-88.5 152t-27 253v788h123v-798q0 -140 18 -201t62 -110t106 -73t156 -24q86 0 152 23t111 74t63 110t18 201v798zM871 1543q0 -36 -25 -62.5t-64 -26.5q-36 0 -62 25.5 t-26 61.5q0 38 26 63t62 25q39 0 64 -26t25 -60zM574 1543q0 -36 -25 -62.5t-63 -26.5t-63.5 25.5t-25.5 61.5q0 38 26 63t63 25q36 0 62 -25.5t26 -60.5zM713 1698h-158l-151 209h92l137 -139l137 139h94z"/>
    <glyph glyph-name="udieresiscaron" unicode="ǚ" horiz-adv-x="1044" d="M774 0l-10 184q-49 -93 -132.5 -147.5t-180.5 -54.5q-144 0 -220.5 86t-76.5 249v615h116v-584q0 -123 47.5 -191.5t157.5 -68.5q65 0 126.5 38.5t106 104t56.5 131.5v570h117v-932h-107zM756 1176q0 -36 -25 -62.5t-64 -26.5q-36 0 -62 25.5t-26 61.5q0 38 26 63t62 25 q39 0 64 -26t25 -60zM459 1176q0 -36 -25 -62.5t-63 -26.5t-63.5 25.5t-25.5 61.5q0 38 26 63t63 25q36 0 62 -25.5t26 -60.5zM598 1331h-158l-151 209h92l137 -139l137 139h94z"/>
    <glyph glyph-name="Udieresisgrave" unicode="Ǜ" horiz-adv-x="1260" d="M973 1300h123v-788q0 -210 -47 -307.5t-146 -160t-272 -62.5q-119 0 -204.5 30.5t-147 94.5t-88.5 152t-27 253v788h123v-798q0 -140 18 -201t62 -110t106 -73t156 -24q86 0 152 23t111 74t63 110t18 201v798zM871 1543q0 -36 -25 -62.5t-64 -26.5q-36 0 -62 25.5 t-26 61.5q0 38 26 63t62 25q39 0 64 -26t25 -60zM574 1543q0 -36 -25 -62.5t-63 -26.5t-63.5 25.5t-25.5 61.5q0 38 26 63t63 25q36 0 62 -25.5t26 -60.5zM434 1907h144l133 -211h-92z"/>
    <glyph glyph-name="udieresisgrave" unicode="ǜ" horiz-adv-x="1044" d="M774 0l-10 184q-49 -93 -132.5 -147.5t-180.5 -54.5q-144 0 -220.5 86t-76.5 249v615h116v-584q0 -123 47.5 -191.5t157.5 -68.5q65 0 126.5 38.5t106 104t56.5 131.5v570h117v-932h-107zM756 1176q0 -36 -25 -62.5t-64 -26.5q-36 0 -62 25.5t-26 61.5q0 38 26 63t62 25 q39 0 64 -26t25 -60zM459 1176q0 -36 -25 -62.5t-63 -26.5t-63.5 25.5t-25.5 61.5q0 38 26 63t63 25q36 0 62 -25.5t26 -60.5zM319 1540h144l133 -211h-92z"/>
    <glyph glyph-name="eturn" unicode="ǝ" horiz-adv-x="958" d="M754 481q0 166 -82 266.5t-226 100.5q-87 0 -166.5 -30.5t-129.5 -80.5l-58 80q57 59 156 96t209 37q189 0 304.5 -132t115.5 -351q0 -140 -48 -244.5t-142 -172.5t-230 -68q-173 0 -279 120.5t-106 317.5v61h682zM190 389q0 -142 71.5 -226.5t199.5 -84.5q125 0 204 89 t89 222h-564z"/>
    <glyph glyph-name="uni01DE" unicode="Ǟ" horiz-adv-x="1126" d="M993 0l-133 365h-604l-133 -365h-123l496 1300h133l497 -1300h-133zM559 1188l-266 -721h530zM299 1490v93h522v-93h-522z"/>
    <glyph glyph-name="uni01DF" unicode="ǟ" horiz-adv-x="922" d="M696 0q-20 60 -20 123q-113 -141 -307 -141q-130 0 -208.5 75t-78.5 205q0 74 32.5 132.5t100.5 98t165 58t292 22.5v72q0 100 -61 154.5t-171 54.5q-76 0 -149.5 -22t-126.5 -62l-47 90q69 42 151 66t166 24q113 0 194.5 -38t120.5 -109.5t39 -188.5v-430q0 -99 41 -184 h-133zM672 483q-62 0 -172 -11t-167.5 -35t-92.5 -66t-35 -105q0 -88 51 -140t143 -52q80 0 158 48t115 124v237zM205 1126v93h522v-93h-522z"/>
    <glyph glyph-name="uni01E0" unicode="Ǡ" horiz-adv-x="1126" d="M993 0l-133 365h-604l-133 -365h-123l496 1300h133l497 -1300h-133zM559 1188l-266 -721h530zM664 1505q0 -42 -30 -73t-72 -31q-43 0 -74 29.5t-31 72.5t30.5 73.5t72.5 30.5t73 -30t31 -72zM308 1695v93h506v-93h-506z"/>
    <glyph glyph-name="uni01E1" unicode="ǡ" horiz-adv-x="922" d="M696 0q-20 60 -20 123q-113 -141 -307 -141q-130 0 -208.5 75t-78.5 205q0 74 32.5 132.5t100.5 98t165 58t292 22.5v72q0 100 -61 154.5t-171 54.5q-76 0 -149.5 -22t-126.5 -62l-47 90q69 42 151 66t166 24q113 0 194.5 -38t120.5 -109.5t39 -188.5v-430q0 -99 41 -184 h-133zM672 483q-62 0 -172 -11t-167.5 -35t-92.5 -66t-35 -105q0 -88 51 -140t143 -52q80 0 158 48t115 124v237zM567 1151q0 -42 -30 -73t-72 -31q-43 0 -74 29.5t-31 72.5t30.5 73.5t72.5 30.5t73 -30t31 -72zM211 1341v93h506v-93h-506z"/>
    <glyph glyph-name="uni01E2" unicode="Ǣ" horiz-adv-x="1638" d="M819 0v410h-522l-246 -410h-133l803 1300h805v-100h-584v-452h543v-103h-543v-541h604v-104h-727zM819 1200h-47l-414 -688h461v688zM778 1491v93h522v-93h-522z"/>
    <glyph glyph-name="uni01E3" unicode="ǣ" horiz-adv-x="1542" d="M788 469v-18q0 -167 83 -267t225 -100q86 0 164.5 29.5t132.5 81.5l57 -80q-59 -61 -157.5 -97t-207.5 -36q-113 0 -202.5 49.5t-145.5 142.5q-69 -100 -156 -146t-202 -46q-132 0 -214.5 71.5t-82.5 196.5q0 153 142 230t448 77v88q0 100 -61 154.5t-171 54.5 q-76 0 -149.5 -22t-126.5 -62l-47 90q69 42 151 66t166 24q260 0 324 -182q104 182 327 182q171 0 278 -119t107 -309v-53h-682zM1352 557q0 124 -72 210.5t-199 86.5q-126 0 -206 -90t-87 -207h564zM696 266q-24 68 -24 203q-147 -4 -269 -27q-198 -41 -198 -186 q0 -85 54.5 -133.5t150.5 -48.5q88 0 163.5 51.5t122.5 140.5zM500 1126v93h522v-93h-522z"/>
    <glyph glyph-name="uni01E4" unicode="Ǥ" horiz-adv-x="1341" d="M1110 0l-16 164q-62 -79 -171.5 -130.5t-246.5 -51.5q-169 0 -300.5 83t-202.5 236t-71 350q0 192 77 345.5t213 238t304 84.5q150 0 269.5 -65.5t191.5 -178.5l-92 -71q-50 92 -146 148t-225 56q-134 0 -240.5 -70t-165.5 -197.5t-59 -289.5q0 -247 125 -402t332 -155 q132 0 233.5 53.5t157.5 139.5v57h-258v92h258v107h-360v102h481v-209h143v-92h-143v-344h-88z"/>
    <glyph glyph-name="uni01E5" unicode="ǥ" horiz-adv-x="1075" d="M864 -145q-43 -98 -146.5 -155.5t-246.5 -57.5q-99 0 -193 31t-149 77l57 88q36 -32 123.5 -63t161.5 -31q90 0 154.5 26t111.5 85h-235v92h276q17 53 17 166v82q-40 -80 -125 -132.5t-199 -52.5q-172 0 -280.5 129.5t-108.5 341.5q0 131 54 239.5t149 169t207 60.5 q101 0 180 -44.5t123 -137.5l20 164h96v-768q0 -133 -18 -217h131v-92h-160zM799 481q0 162 -82 267.5t-209 105.5q-130 0 -216.5 -106.5t-86.5 -266.5t81 -266t210 -106q130 0 216.5 106.5t86.5 265.5z"/>
    <glyph glyph-name="Gcaron" unicode="Ǧ" horiz-adv-x="1341" d="M1110 0l-16 164q-62 -79 -171.5 -130.5t-246.5 -51.5q-169 0 -300.5 83t-202.5 236t-71 350q0 192 77 345.5t213 238t304 84.5q123 0 217.5 -40.5t150.5 -92.5t93 -111l-92 -71l-7 11q-27 45 -70.5 86.5t-116.5 74t-177 32.5q-134 0 -240.5 -70t-165.5 -197.5t-59 -289.5 q0 -247 125 -402t332 -155q132 0 233.5 53.5t157.5 139.5v256h-360v102h481v-645h-88zM801 1409h-134l-163 256h92l137 -184l139 184h92z"/>
    <glyph glyph-name="gcaron" unicode="ǧ" horiz-adv-x="1075" d="M795 195q-74 -116 -158 -150.5t-166 -34.5q-172 0 -280.5 129.5t-108.5 341.5q0 131 54 239.5t149 169t207 60.5q61 0 113 -14.5t103.5 -53.5t86.5 -114l20 164h96v-768q0 -217 -51.5 -318t-153 -152.5t-235.5 -51.5q-102 0 -189 29t-153 79l57 88q44 -36 123 -65 t162 -29q154 0 239 80t85 289v82zM799 481q0 162 -82 267.5t-209 105.5q-130 0 -216.5 -106.5t-86.5 -266.5t81 -266t210 -106q130 0 216.5 106.5t86.5 265.5zM574 1044h-134l-163 256h92l137 -184l139 184h92z"/>
    <glyph glyph-name="uni01E8" unicode="Ǩ" horiz-adv-x="1096" d="M928 0l-453 682l-168 -180v-502h-123v1300h123v-655l598 655h150l-500 -534l520 -766h-147zM609 1409h-134l-163 256h92l137 -184l139 184h92z"/>
    <glyph glyph-name="uni01E9" unicode="ǩ" horiz-adv-x="932" d="M768 0l-354 481l-133 -127v-354h-117v1341h117v-860l446 451h154l-389 -375l419 -557h-143zM589 1409h-134l-163 256h92l137 -184l139 184h92z"/>
    <glyph glyph-name="uni01EA" unicode="Ǫ" horiz-adv-x="1423" d="M973 -297q-37 -38 -85 -60t-100 -22q-89 0 -141.5 48.5t-52.5 135.5q0 98 88 179q-170 6 -303 93t-205 237t-72 335q0 192 77 346.5t216.5 239t315.5 84.5t315.5 -85t217 -238t77.5 -345q0 -181 -69 -329t-194.5 -235.5t-285.5 -100.5q-76 -76 -76 -160q0 -55 30 -84 t83 -29q76 0 133 41zM1194 651q0 246 -133.5 402.5t-347.5 156.5q-218 0 -351 -156t-133 -403q0 -249 135 -404t347 -155q216 0 349.5 155.5t133.5 403.5z"/>
    <glyph glyph-name="uni01EB" unicode="ǫ" d="M942 467q0 -194 -93.5 -321.5t-252.5 -155.5q-80 -80 -80 -164q0 -55 30 -84t83 -29q76 0 133 41l31 -51q-37 -38 -85 -60t-100 -22q-89 0 -141.5 48.5t-52.5 135.5q0 96 88 177q-188 4 -304 135.5t-116 347.5q0 220 119 352.5t311 132.5t311 -133t119 -350zM819 467 q0 179 -83.5 282t-223.5 103q-141 0 -224 -103.5t-83 -281.5t82.5 -282.5t224.5 -104.5t224.5 104t82.5 283z"/>
    <glyph glyph-name="uni01EC" unicode="Ǭ" horiz-adv-x="1423" d="M973 -297q-37 -38 -85 -60t-100 -22q-89 0 -141.5 48.5t-52.5 135.5q0 98 88 179q-170 6 -303 93t-205 237t-72 335q0 192 77 346.5t216.5 239t315.5 84.5t315.5 -85t217 -238t77.5 -345q0 -181 -69 -329t-194.5 -235.5t-285.5 -100.5q-76 -76 -76 -160q0 -55 30 -84 t83 -29q76 0 133 41zM1194 651q0 246 -133.5 402.5t-347.5 156.5q-218 0 -351 -156t-133 -403q0 -249 135 -404t347 -155q216 0 349.5 155.5t133.5 403.5zM449 1491v93h522v-93h-522z"/>
    <glyph glyph-name="uni01ED" unicode="ǭ" d="M942 467q0 -194 -93.5 -321.5t-252.5 -155.5q-80 -80 -80 -164q0 -55 30 -84t83 -29q76 0 133 41l31 -51q-37 -38 -85 -60t-100 -22q-89 0 -141.5 48.5t-52.5 135.5q0 96 88 177q-188 4 -304 135.5t-116 347.5q0 220 119 352.5t311 132.5t311 -133t119 -350zM819 467 q0 179 -83.5 282t-223.5 103q-141 0 -224 -103.5t-83 -281.5t82.5 -282.5t224.5 -104.5t224.5 104t82.5 283zM250 1126v93h522v-93h-522z"/>
    <glyph glyph-name="uni01EE" unicode="Ǯ" horiz-adv-x="1006" d="M893 385q0 -189 -119 -297t-321 -108q-129 0 -235 66t-167 181l86 62q121 -205 326 -205q149 0 226 79.5t77 221.5q0 111 -35.5 173t-105.5 97t-193 35h-104v92l372 418h-567v100h717v-92l-377 -415q200 -7 310 -111.5t110 -296.5zM535 1409h-134l-163 256h92l137 -184 l139 184h92z"/>
    <glyph glyph-name="uni01EF" unicode="ǯ" horiz-adv-x="909" d="M408 -250q134 0 210 79.5t76 221.5q0 141 -89 213t-257 72h-102v82l395 422h-549v92h692v-76l-399 -428q207 -4 319.5 -100.5t112.5 -266.5q0 -186 -111 -300.5t-298 -114.5q-86 0 -165 24.5t-141.5 71.5t-91.5 90l78 68q49 -62 138 -106t182 -44zM519 1044h-134 l-163 256h92l137 -184l139 184h92z"/>
    <glyph glyph-name="uni01F0" unicode="ǰ" horiz-adv-x="455" d="M291 -31q0 -123 -27 -189.5t-82 -102t-129 -35.5q-61 0 -114 20l10 92q42 -14 96 -14q68 0 98.5 42t30.5 167v983h117v-963zM303 1044h-134l-163 256h92l137 -184l139 184h92z"/>
    <glyph glyph-name="uni01F1" unicode="Ǳ" horiz-adv-x="2345" d="M1208 651q0 -184 -75 -334t-210 -233.5t-329 -83.5h-410v1300h410q290 0 452 -187t162 -462zM1081 649q0 154 -57.5 280t-167.5 197.5t-262 71.5h-287v-1096h287q153 0 263 72t167 198t57 277zM1342 0v94l768 1106h-748v100h891v-92l-768 -1104h789v-104h-932z"/>
    <glyph glyph-name="uni01F2" unicode="ǲ" horiz-adv-x="2140" d="M1208 651q0 -184 -75 -334t-210 -233.5t-329 -83.5h-410v1300h410q290 0 452 -187t162 -462zM1081 649q0 154 -57.5 280t-167.5 197.5t-262 71.5h-287v-1096h287q153 0 263 72t167 198t57 277zM1362 0v82l570 758h-549v92h686v-76l-570 -758h590v-98h-727z"/>
    <glyph glyph-name="uni01F3" unicode="ǳ" horiz-adv-x="1915" d="M825 0l-20 154q-46 -77 -131 -124.5t-195 -47.5q-178 0 -287.5 135t-109.5 350q0 206 118 344.5t302 138.5q89 0 168 -40.5t135 -141.5v573h117v-1341h-97zM809 467q0 167 -83.5 277t-213.5 110q-131 0 -219 -110.5t-88 -276.5t82.5 -276.5t214.5 -110.5q131 0 219 110.5 t88 276.5zM1136 0v82l570 758h-549v92h686v-76l-570 -758h590v-98h-727z"/>
    <glyph glyph-name="uni01F4" unicode="Ǵ" horiz-adv-x="1341" d="M1110 0l-16 164q-62 -79 -171.5 -130.5t-246.5 -51.5q-169 0 -300.5 83t-202.5 236t-71 350q0 192 77 345.5t213 238t304 84.5q123 0 217.5 -40.5t150.5 -92.5t93 -111l-92 -71l-7 11q-27 45 -70.5 86.5t-116.5 74t-177 32.5q-134 0 -240.5 -70t-165.5 -197.5t-59 -289.5 q0 -247 125 -402t332 -155q132 0 233.5 53.5t157.5 139.5v256h-360v102h481v-645h-88zM688 1409h-92l133 256h143z"/>
    <glyph glyph-name="uni01F5" unicode="ǵ" horiz-adv-x="1075" d="M795 195q-74 -116 -158 -150.5t-166 -34.5q-172 0 -280.5 129.5t-108.5 341.5q0 131 54 239.5t149 169t207 60.5q61 0 113 -14.5t103.5 -53.5t86.5 -114l20 164h96v-768q0 -217 -51.5 -318t-153 -152.5t-235.5 -51.5q-102 0 -189 29t-153 79l57 88q44 -36 123 -65 t162 -29q154 0 239 80t85 289v82zM799 481q0 162 -82 267.5t-209 105.5q-130 0 -216.5 -106.5t-86.5 -266.5t81 -266t210 -106q130 0 216.5 106.5t86.5 265.5zM518 1044h-92l133 256h143z"/>
    <glyph glyph-name="uni01F6" unicode="Ƕ" horiz-adv-x="1901" d="M973 645h-666v-645h-123v1300h123v-552h666v552h123v-944q0 -144 66.5 -205t195.5 -61q136 0 201 63t65 203v576h123v-576q0 -177 -105 -275.5t-284 -98.5q-183 0 -284 98.5t-101 277.5v287z"/>
    <glyph glyph-name="uni01F7" unicode="Ƿ" horiz-adv-x="1221" d="M184 -346v1646h123v-174q56 92 152 142.5t219 50.5q214 0 332 -115.5t118 -324.5q0 -171 -101 -337.5t-287 -308.5t-433 -243v-336h-123zM674 1214q-105 0 -190 -46t-131 -129.5t-46 -190.5v-750q322 141 507 349t185 430q0 337 -325 337z"/>
    <glyph glyph-name="Aringacute" unicode="Ǻ" horiz-adv-x="1126" d="M559 1079l-248 -612h494zM655 1262q0 39 -27.5 65.5t-64.5 26.5q-39 0 -65.5 -26.5t-26.5 -65.5q0 -40 27 -67.5t65 -27.5q40 0 66 28t26 67zM584 1462h-92l133 256h143zM723 1262q0 -45 -18.5 -79.5t-55.5 -58.5l477 -1124h-133l-147 365h-576l-147 -365h-123l475 1126 q-34 20 -53 55t-19 79q0 66 46 112.5t114 46.5t114 -45t46 -112z"/>
    <glyph glyph-name="aringacute" unicode="ǻ" horiz-adv-x="922" d="M461 1392h-92l133 256h143zM696 0q-20 60 -20 123q-113 -141 -307 -141q-130 0 -208.5 75t-78.5 205q0 74 32.5 132.5t100.5 98t165 58t292 22.5v72q0 100 -61 154.5t-171 54.5q-76 0 -149.5 -22t-126.5 -62l-47 90q69 42 151 66t166 24q113 0 194.5 -38t120.5 -109.5 t39 -188.5v-430q0 -99 41 -184h-133zM672 483q-62 0 -172 -11t-167.5 -35t-92.5 -66t-35 -105q0 -88 51 -140t143 -52q80 0 158 48t115 124v237zM621 1174q0 -67 -46 -113.5t-114 -46.5q-67 0 -113.5 45t-46.5 112q0 68 46 114t114 46t114 -45t46 -112zM553 1174 q0 39 -27.5 65.5t-64.5 26.5q-39 0 -65.5 -26.5t-26.5 -65.5q0 -40 27 -67.5t65 -27.5q40 0 66 28t26 67z"/>
    <glyph glyph-name="uni022E" unicode="Ȯ" horiz-adv-x="1423" d="M1321 651q0 -191 -76 -344.5t-215.5 -239t-316.5 -85.5t-317.5 85t-217 238t-76.5 344q0 192 77 346.5t216.5 239t315.5 84.5t315.5 -85t217 -238t77.5 -345zM1194 651q0 246 -133.5 402.5t-347.5 156.5q-218 0 -351 -156t-133 -403q0 -249 135 -404t347 -155 q216 0 349.5 155.5t133.5 403.5zM809 1541q0 -43 -29.5 -74t-72.5 -31q-42 0 -73 30t-31 72q0 45 31 75t71 30q42 0 73 -30t31 -72z"/>
    <glyph glyph-name="uni022F" unicode="ȯ" d="M942 467q0 -220 -119 -352.5t-311 -132.5t-311 133t-119 350q0 220 119 352.5t311 132.5t311 -133t119 -350zM819 467q0 179 -83.5 282t-223.5 103q-141 0 -224 -103.5t-83 -281.5t82.5 -282.5t224.5 -104.5t224.5 104t82.5 283zM608 1174q0 -43 -29.5 -74t-72.5 -31 q-42 0 -73 30t-31 72q0 45 31 75t71 30q42 0 73 -30t31 -72z"/>
    <glyph glyph-name="uni0250" unicode="ɐ" horiz-adv-x="922" d="M226 932q20 -60 20 -123q113 141 307 141q130 0 208.5 -75t78.5 -205q0 -68 -24.5 -115t-49.5 -71.5t-77.5 -54t-148 -48t-290.5 -22.5v-72q0 -100 61 -154.5t171 -54.5q156 0 276 84l47 -90q-69 -42 -151 -66t-166 -24q-113 0 -194.5 38t-120.5 109.5t-39 188.5v430 q0 99 -41 184h133zM250 449q102 2 228.5 19t182.5 69.5t56 128.5q0 88 -51 140t-143 52q-80 0 -158 -48t-115 -124v-237z"/>
    <glyph glyph-name="ascript" unicode="ɑ" horiz-adv-x="1085" d="M825 0l-20 164q-50 -77 -133 -129.5t-193 -52.5q-178 0 -287.5 135t-109.5 350q0 209 120 346t300 137q109 0 186 -51.5t117 -130.5l20 164h97v-932h-97zM809 467q0 167 -83.5 277t-213.5 110q-131 0 -219 -110.5t-88 -276.5t82.5 -276.5t214.5 -110.5q131 0 219 110.5 t88 276.5z"/>
    <glyph glyph-name="uni0252" unicode="ɒ" horiz-adv-x="1085" d="M260 932l21 -164l9 15q45 69 127.5 118t188.5 49q178 0 288 -134.5t110 -350.5q0 -136 -53.5 -247t-150.5 -173.5t-216 -62.5q-111 0 -193.5 57t-109.5 125l-21 -164h-96v932h96zM276 465q0 -167 83.5 -277t213.5 -110q133 0 220.5 112t87.5 275q0 167 -83.5 277 t-213.5 110q-134 0 -221 -110.5t-87 -276.5z"/>
    <glyph glyph-name="bhook" unicode="ɓ" horiz-adv-x="1085" d="M1004 467q0 -140 -53 -247t-148.5 -172.5t-218.5 -65.5q-97 0 -179 47t-124 125l-21 -154h-96v1073q0 136 65.5 206.5t192.5 70.5q87 0 158 -31l-27 -90q-59 26 -139 26q-133 0 -133 -182v-305q6 14 21 34t59.5 60t109 64t133.5 24q180 0 290 -135.5t110 -347.5zM881 467 q0 167 -83.5 277t-213.5 110q-132 0 -220 -110.5t-88 -276.5q0 -167 83.5 -277t213.5 -110q133 0 220.5 112t87.5 275z"/>
    <glyph glyph-name="oopen" unicode="ɔ" horiz-adv-x="920" d="M147 248q40 -82 104.5 -125t156.5 -43q142 0 224.5 104t82.5 283t-83.5 282t-223.5 103q-51 0 -87.5 -10.5t-71 -32t-60 -52t-44.5 -69.5l-98 60q56 95 148 148.5t213 53.5q130 0 223 -58t150 -168t57 -257q0 -137 -46.5 -239t-144 -174t-239.5 -72q-63 0 -116.5 14 t-90.5 36.5t-56 38.5t-36 34t-31.5 37.5t-30.5 47.5z"/>
    <glyph glyph-name="uni0255" unicode="ɕ" horiz-adv-x="942" d="M764 705q-40 67 -106 106t-142 39q-141 0 -227 -104t-86 -279q0 -130 47 -219q70 101 157.5 152t192.5 51q124 0 200.5 -58.5t76.5 -156.5q0 -81 -42 -134t-121 -87.5t-208 -34.5q-70 0 -131 19.5t-113 57.5q-46 -104 -76 -204l-96 38q18 61 41.5 121.5t52.5 120.5 q-102 131 -102 332q0 139 55.5 250.5t155 173t219.5 61.5q74 0 133.5 -21t95.5 -47.5t59 -52.5t46 -63zM600 350q-172 0 -285 -188q82 -82 207 -82q111 0 175.5 39.5t64.5 109.5q0 57 -38 89t-124 32z"/>
    <glyph glyph-name="drthook" unicode="ɖ" horiz-adv-x="1096" d="M1157 -342q-44 -16 -106 -16q-124 0 -185 74.5t-61 242.5v63q0 35 2 70.5t4 70.5q-46 -77 -134 -129t-198 -52q-178 0 -287.5 135t-109.5 350q0 207 118.5 345t301.5 138q89 0 168 -40t135 -142v573h117v-1382q0 -118 33.5 -168.5t99.5 -50.5q46 0 86 10zM809 467 q0 167 -83.5 277t-213.5 110q-131 0 -219 -110.5t-88 -276.5t82.5 -276.5t214.5 -110.5q131 0 219 110.5t88 276.5z"/>
    <glyph glyph-name="dhook" unicode="ɗ" horiz-adv-x="1085" d="M825 0l-20 154q-46 -77 -131 -124.5t-195 -47.5q-178 0 -287.5 135t-109.5 350q0 206 119 344.5t301 138.5q100 0 181 -48t126 -143q-4 54 -4 99v176q0 168 61 243t185 75q59 0 106 -17l-16 -92q-32 10 -82 10q-137 0 -137 -219v-1034h-97zM809 467q0 167 -83.5 277 t-213.5 110q-131 0 -219 -110.5t-88 -276.5t82.5 -276.5t214.5 -110.5q131 0 219 110.5t88 276.5z"/>
    <glyph glyph-name="uni0258" unicode="ɘ" horiz-adv-x="958" d="M72 451v61q0 196 105.5 317t279.5 121q121 0 217.5 -60.5t149.5 -171t53 -253.5q0 -220 -115 -351.5t-305 -131.5q-112 0 -210 36.5t-155 96.5l58 80q50 -51 128.5 -81t167.5 -30q144 0 226 101t82 266h-682zM754 543q-8 124 -85.5 217.5t-207.5 93.5q-127 0 -199 -84 t-72 -227h564z"/>
    <glyph glyph-name="schwa" unicode="ə" horiz-adv-x="958" d="M754 481q0 166 -82 266.5t-226 100.5q-87 0 -166.5 -30.5t-129.5 -80.5l-58 80q57 59 156 96t209 37q189 0 304.5 -132t115.5 -351q0 -140 -48 -244.5t-142 -172.5t-230 -68q-173 0 -279 120.5t-106 317.5v61h682zM190 389q0 -142 71.5 -226.5t199.5 -84.5q125 0 204 89 t89 222h-564z"/>
    <glyph glyph-name="uni025A" unicode="ɚ" horiz-adv-x="1257" d="M457 -18q-114 0 -199 51t-131.5 135.5t-54.5 214.5l676 180q-21 135 -101 210t-201 75q-87 0 -166.5 -30.5t-129.5 -80.5l-58 80q57 59 156 96t209 37q159 0 267 -95t140 -261l133 37l52 -162q12 -44 37.5 -63t58.5 -19q53 0 115 41l38 -68q-80 -67 -176 -67 q-57 0 -108 36t-88 187l-52 -14l3 -35q0 -140 -53.5 -251t-151 -172.5t-215.5 -61.5zM461 78q134 0 211.5 101.5t81.5 289.5l-559 -147q17 -117 86 -180.5t180 -63.5z"/>
    <glyph glyph-name="eopen" unicode="ɛ" horiz-adv-x="907" d="M498 453q-155 0 -220 -47.5t-65 -141.5q0 -83 74 -133.5t198 -50.5q169 0 297 141l76 -71q-70 -81 -166 -124.5t-200 -43.5q-187 0 -294.5 76.5t-107.5 205.5q0 99 59.5 160.5t172.5 79.5q-81 20 -130 71t-49 132q0 116 86 179.5t246 63.5q107 0 197 -39.5t145 -115.5 l-76 -68q-45 62 -116 93.5t-139 31.5q-224 0 -224 -150q0 -68 50.5 -109.5t166.5 -41.5h158v-98h-139z"/>
    <glyph glyph-name="eopenreversed" unicode="ɜ" horiz-adv-x="907" d="M270 453v98h158q120 0 168.5 43t48.5 113q0 145 -209 145q-74 0 -141.5 -31.5t-112.5 -93.5l-76 68q58 76 141 115.5t193 39.5q157 0 240.5 -63t83.5 -180q0 -81 -49 -132t-129 -71q231 -43 231 -228q0 -137 -105.5 -215.5t-295.5 -78.5q-110 0 -216 50.5t-151 117.5 l76 71q52 -64 135 -102.5t162 -38.5q126 0 199 52.5t73 143.5q0 89 -66 133t-218 44h-140z"/>
    <glyph glyph-name="uni025D" unicode="ɝ" horiz-adv-x="1094" d="M270 453v98h158q121 0 169 43.5t48 112.5q0 145 -209 145q-74 0 -141.5 -31.5t-112.5 -93.5l-76 68q57 75 139.5 115t194.5 40q250 0 308 -153l86 22q48 -160 61.5 -188t33 -42t52.5 -14q27 0 59.5 12t55.5 29l39 -67q-83 -68 -177 -68q-62 0 -106.5 36t-87.5 181 q-3 -77 -52 -126.5t-126 -67.5q231 -44 231 -228q0 -137 -105.5 -215.5t-295.5 -78.5q-106 0 -207.5 45.5t-159.5 122.5l76 71q52 -64 135 -102.5t162 -38.5q126 0 199 52.5t73 143.5q0 89 -66 133t-218 44h-140zM1012 213z"/>
    <glyph glyph-name="uni025E" unicode="ɞ" horiz-adv-x="997" d="M82 465q0 225 116.5 355t313.5 130q161 0 251.5 -64t90.5 -179q0 -81 -49 -132t-129 -71q231 -40 231 -213q0 -147 -103 -228t-292 -81q-209 0 -319.5 123t-110.5 360zM422 551h96q119 0 168 42.5t49 113.5q0 66 -57 105.5t-166 39.5q-150 0 -228.5 -99t-78.5 -286 q0 -196 76 -291.5t231 -95.5q134 0 203 57.5t69 157.5q0 78 -67.5 118t-216.5 40h-78v98z"/>
    <glyph glyph-name="uni025F" unicode="ɟ" horiz-adv-x="455" d="M291 446v-477q0 -123 -27 -189.5t-82 -102t-129 -35.5q-61 0 -114 20l10 92q42 -14 96 -14q67 0 98 42t31 170v494h-135v95h135v391h117v-391h133v-95h-133z"/>
    <glyph glyph-name="ghook" unicode="ɠ" horiz-adv-x="1075" d="M795 1034q0 318 245 318q62 0 107 -17l-17 -92q-30 10 -81 10q-69 0 -103.5 -49.5t-34.5 -169.5v-870q0 -217 -51.5 -318t-153 -152.5t-235.5 -51.5q-91 0 -188 29.5t-154 78.5l57 88q45 -35 125.5 -64.5t159.5 -29.5q154 0 239 80t85 289v82q-59 -102 -143.5 -143.5 t-180.5 -41.5q-172 0 -280.5 129.5t-108.5 341.5q0 131 54 239.5t149 169t207 60.5q98 0 176.5 -42t126.5 -140v266zM799 481q0 162 -82 267.5t-209 105.5q-130 0 -216.5 -106.5t-86.5 -266.5t81 -266t210 -106q130 0 216.5 106.5t86.5 265.5z"/>
    <glyph glyph-name="uni0261" unicode="ɡ" horiz-adv-x="1075" d="M795 195q-74 -116 -158 -150.5t-166 -34.5q-172 0 -280.5 129.5t-108.5 341.5q0 131 54 239.5t149 169t207 60.5q61 0 113 -14.5t103.5 -53.5t86.5 -114l20 164h96v-768q0 -217 -51.5 -318t-153 -152.5t-235.5 -51.5q-102 0 -189 29t-153 79l57 88q44 -36 123 -65 t162 -29q154 0 239 80t85 289v82zM799 481q0 162 -82 267.5t-209 105.5q-130 0 -216.5 -106.5t-86.5 -266.5t81 -266t210 -106q130 0 216.5 106.5t86.5 265.5z"/>
    <glyph glyph-name="uni0262" unicode="ɢ" horiz-adv-x="1049" d="M829 0l-14 106q-62 -62 -143.5 -94t-171.5 -32q-127 0 -220 63t-145.5 168.5t-52.5 253.5q0 138 58.5 249.5t162.5 173.5t232 62q116 0 208.5 -49t143.5 -135l-82 -61q-41 66 -113 105.5t-153 39.5q-152 0 -244 -103.5t-92 -279.5q0 -174 90 -278.5t235 -104.5 q80 0 156.5 39.5t124.5 103.5v170h-248v92h365v-489h-97z"/>
    <glyph glyph-name="gammalatinsmall" unicode="ɣ" horiz-adv-x="881" d="M498 195q70 -123 96.5 -201.5t26.5 -149.5q0 -96 -48.5 -148t-132.5 -52q-81 0 -130.5 53.5t-49.5 157.5q0 79 30 157.5t95 180.5l-365 739h123l297 -643l297 643h123zM440 -264q74 0 74 117q0 112 -74 249q-40 -74 -56.5 -135.5t-16.5 -113.5q0 -117 73 -117z"/>
    <glyph glyph-name="uni0264" unicode="ɤ" horiz-adv-x="918" d="M455 395q-88 -101 -88 -217q0 -43 24.5 -69.5t63.5 -26.5q34 0 61 23t27 73q0 107 -88 217zM459 553l215 313q15 22 34 41.5t45 32t62 12.5q67 0 113 -37l-56 -81q-22 16 -53 16q-14 0 -25.5 -6t-25 -22t-252.5 -345q76 -99 105.5 -166.5t29.5 -138.5q0 -82 -57.5 -135 t-138.5 -53q-91 0 -144 49.5t-53 138.5q0 66 29.5 138.5t103.5 164.5l-241 342q-12 17 -24 25t-28 8q-31 0 -53 -16l-55 81q46 37 112 37q37 0 63.5 -13t44.5 -31.5t40.5 -51t208.5 -303.5z"/>
    <glyph glyph-name="uni0265" unicode="ɥ" horiz-adv-x="1044" d="M764 -348v532q-49 -93 -132.5 -147.5t-180.5 -54.5q-144 0 -220.5 86t-76.5 249v615h116v-584q0 -123 47.5 -191.5t157.5 -68.5q65 0 126.5 38.5t106 104t56.5 131.5v570h117v-1280h-117z"/>
    <glyph glyph-name="hhook" unicode="ɦ" horiz-adv-x="1055" d="M281 748q52 97 136.5 149.5t186.5 52.5q145 0 221 -88.5t76 -249.5v-612h-117v571q0 143 -51.5 208t-159.5 65q-68 0 -130 -41t-106.5 -109.5t-55.5 -130.5v-563h-117v1073q0 136 65.5 206.5t192.5 70.5q87 0 158 -31l-27 -90q-59 26 -129 26q-75 0 -109 -43t-34 -139 v-325z"/>
    <glyph glyph-name="uni0267" unicode="ɧ" horiz-adv-x="1055" d="M281 748q52 97 136.5 149.5t186.5 52.5q145 0 221 -88.5t76 -249.5v-653q0 -117 -30 -184t-86.5 -100t-149.5 -33q-62 0 -113 20l17 92q46 -14 96 -14q73 0 111 50t38 169v612q0 143 -51.5 208t-159.5 65q-68 0 -130 -41t-106.5 -109.5t-55.5 -130.5v-563h-117v1073 q0 136 65.5 206.5t192.5 70.5q87 0 158 -31l-27 -90q-59 26 -129 26q-75 0 -109 -43t-34 -139v-325z"/>
    <glyph glyph-name="ibar" unicode="ɨ" horiz-adv-x="444" d="M31 541h133v391h117v-391h133v-95h-133v-446h-117v446h-133v95zM315 1255q0 -39 -27 -66.5t-65 -27.5q-39 0 -66.5 27t-27.5 65q0 40 27 67.5t65 27.5q40 0 67 -28t27 -65z"/>
    <glyph glyph-name="iotaafrican" unicode="ɩ" horiz-adv-x="516" d="M154 932h116v-725q0 -119 88 -119q53 0 107 33l41 -86q-73 -45 -152 -45q-200 0 -200 217v725z"/>
    <glyph glyph-name="uni026A" unicode="ɪ" horiz-adv-x="580" d="M508 932v-92h-160v-748h160v-92h-436v92h159v748h-159v92h436z"/>
    <glyph glyph-name="uni026B" unicode="ɫ" horiz-adv-x="580" d="M348 696q20 -14 37 -20t31 -6q65 0 82 108l71 -10q0 -75 -45.5 -129.5t-107.5 -54.5q-21 0 -38 2.5t-30 7.5v-594h-117v664q-22 15 -38.5 21.5t-28.5 6.5q-31 0 -53.5 -29.5t-28.5 -78.5l-72 10q0 75 45.5 129.5t108.5 54.5q15 0 31.5 -3t35.5 -9v575h117v-645z"/>
    <glyph glyph-name="uni026C" unicode="ɬ" horiz-adv-x="590" d="M268 0v496h-59q-100 0 -150.5 45t-50.5 123q0 73 44.5 118t117.5 45q63 0 98 -39v553h117v-753h174v-92h-174v-496h-117zM117 664q0 -42 23.5 -59t68.5 -17h59v43q0 58 -23.5 81t-60.5 23q-32 0 -49.5 -18.5t-17.5 -52.5z"/>
    <glyph glyph-name="uni026D" unicode="ɭ" horiz-adv-x="424" d="M154 1341h116v-1366q0 -134 33.5 -184.5t120.5 -50.5q47 0 96 14l17 -94q-50 -18 -117 -18q-81 -1 -149.5 39.5t-92.5 109.5t-24 164v1386z"/>
    <glyph glyph-name="uni026E" unicode="ɮ" horiz-adv-x="1135" d="M920 51q0 141 -89 213t-258 72h-102v82l395 422h-585v-840h-117v1341h117v-409h729v-76l-400 -428q432 -17 432 -371q0 -182 -111 -296.5t-298 -114.5q-126 0 -228 48.5t-169 137.5l77 68q136 -150 320 -150q135 0 211 78.5t76 222.5z"/>
    <glyph glyph-name="uni026F" unicode="ɯ" horiz-adv-x="1593" d="M270 932v-604q0 -134 46 -187t139 -53q58 0 117 39.5t107 115.5t54 126v563h117v-604q0 -133 45.5 -186.5t138.5 -53.5q60 0 118.5 40t107 116t53.5 125v563h117v-932h-107l-10 184q-43 -88 -129 -145t-178 -57q-107 0 -174 54t-89 161q-48 -97 -137 -156t-180 -59 q-131 0 -201.5 83.5t-70.5 231.5v635h116z"/>
    <glyph glyph-name="uni0270" unicode="ɰ" horiz-adv-x="1593" d="M270 932v-604q0 -134 46 -187t139 -53q58 0 117 39.5t107 115.5t54 126v563h117v-604q0 -133 45.5 -186.5t138.5 -53.5q60 0 118.5 40t107 116t53.5 125v563h117v-1280h-117v532q-43 -88 -129 -145t-178 -57q-107 0 -174 54t-89 161q-48 -97 -137 -156t-180 -59 q-131 0 -201.5 83.5t-70.5 231.5v635h116z"/>
    <glyph glyph-name="mhook" unicode="ɱ" horiz-adv-x="1593" d="M1323 604q0 133 -45.5 186.5t-138.5 53.5q-58 0 -115.5 -38t-105.5 -111.5t-58 -131.5v-563h-117v604q0 134 -45 187t-139 53q-58 0 -115.5 -38t-107.5 -115t-55 -128v-563h-117v932h106l11 -184q43 88 129 145t178 57q119 0 180.5 -59t81.5 -156q48 97 137 156t180 59 q131 0 202 -82.5t71 -232.5v-717q0 -92 -24 -152.5t-76.5 -92t-125.5 -31.5q-76 0 -137 26l27 90q48 -22 104 -22q60 0 87.5 43t27.5 139v686z"/>
    <glyph glyph-name="nhookleft" unicode="ɲ" horiz-adv-x="1055" d="M281 -41q0 -110 -25.5 -179t-80 -103.5t-140.5 -34.5q-63 0 -107 16l17 92q40 -10 86 -10q65 0 99 50t34 169v973h106l11 -184q52 97 136.5 149.5t186.5 52.5q145 0 221 -88.5t76 -249.5v-612h-117v571q0 143 -51.5 208t-159.5 65q-68 0 -130 -41t-106.5 -109.5 t-55.5 -130.5v-604z"/>
    <glyph glyph-name="uni0273" unicode="ɳ" horiz-adv-x="1055" d="M784 571q0 143 -51.5 208t-159.5 65q-68 0 -130 -41t-106.5 -109.5t-55.5 -130.5v-563h-117v932h106l11 -184q52 97 136.5 149.5t186.5 52.5q145 0 221 -88.5t76 -249.5v-653q0 -118 33.5 -168.5t99.5 -50.5q46 0 86 10l17 -92q-44 -16 -107 -16q-75 0 -131 29.5 t-85.5 100t-29.5 187.5v612z"/>
    <glyph glyph-name="uni0274" unicode="ɴ" horiz-adv-x="1096" d="M813 0l-541 797v-797h-108v932h143l516 -762v762h109v-932h-119z"/>
    <glyph glyph-name="uni0275" unicode="ɵ" d="M942 467q0 -220 -119 -352.5t-311 -132.5t-311 133t-119 350q0 220 119 352.5t311 132.5t311 -133t119 -350zM512 80q133 0 214 92t91 256h-612q8 -159 89 -253.5t218 -94.5zM512 852q-132 0 -211.5 -87.5t-93.5 -238.5h608q-14 151 -93.5 238.5t-209.5 87.5z"/>
    <glyph glyph-name="OEsmallcap" unicode="ɶ" horiz-adv-x="1505" d="M819 0v137q-103 -155 -307 -155q-192 0 -311 133t-119 350q0 220 119 352.5t311 132.5q204 0 307 -155v137h588v-92h-481v-297h450v-92h-450v-357h497v-94h-604zM819 467q0 179 -83.5 282t-223.5 103q-141 0 -224 -103.5t-83 -281.5t82.5 -282.5t224.5 -104.5t224.5 104 t82.5 283z"/>
    <glyph glyph-name="omegaclosed" unicode="ɷ" horiz-adv-x="1427" d="M711 168q-32 -88 -96 -138t-179 -50q-323 0 -323 440q0 164 69 282t204.5 183t330.5 65q201 0 332.5 -64.5t198.5 -182t67 -283.5q0 -440 -324 -440q-104 0 -171 45t-103 143h-6zM717 852q-234 0 -361 -111t-127 -313q0 -346 217 -346q98 0 153.5 62.5t55.5 174.5v302 h117v-302q0 -112 55.5 -174.5t153.5 -62.5q217 0 217 346q0 202 -125 313t-356 111z"/>
    <glyph glyph-name="uni0278" unicode="ɸ" horiz-adv-x="1235" d="M563 -348v338q-208 2 -340.5 134.5t-132.5 344.5q0 137 60 245t169 167.5t244 60.5v399h113v-399q142 -3 243.5 -59.5t165.5 -161.5t64 -252q0 -138 -59.5 -247t-168 -169.5t-245.5 -62.5v-338h-113zM207 469q0 -167 99 -274t257 -107v756q-161 0 -258.5 -104t-97.5 -271 zM1032 469q0 170 -96.5 272.5t-259.5 102.5v-756q159 0 257.5 103t98.5 278z"/>
    <glyph glyph-name="uni0279" unicode="ɹ" horiz-adv-x="666" d="M41 109q20 -13 61 -13q104 0 184 83t99 200v553h117v-932h-107l-10 195q-43 -96 -122.5 -155.5t-170.5 -59.5q-39 0 -72 10z"/>
    <glyph glyph-name="uni027A" unicode="ɺ" horiz-adv-x="666" d="M41 109q20 -13 61 -13q104 0 184 83t99 200v962h117v-1341h-107l-10 195q-43 -96 -122.5 -155.5t-170.5 -59.5q-39 0 -72 10z"/>
    <glyph glyph-name="uni027B" unicode="ɻ" horiz-adv-x="666" d="M385 195q-43 -96 -122.5 -155.5t-170.5 -59.5q-39 0 -72 10l21 119q20 -13 61 -13q104 0 184 83t99 200v553h117v-957q0 -134 33.5 -184.5t119.5 -50.5q46 0 97 14l16 -94q-50 -18 -117 -18q-106 0 -162.5 41t-80 108t-23.5 164v240z"/>
    <glyph glyph-name="rlongleg" unicode="ɼ" horiz-adv-x="666" d="M625 823q-30 13 -62 13q-103 0 -183 -82.5t-99 -200.5v-901h-117v1280h106l11 -195q43 95 121.5 155t170.5 60q31 0 72 -10z"/>
    <glyph glyph-name="uni027D" unicode="ɽ" horiz-adv-x="666" d="M164 932h106l11 -195q43 95 121.5 155t170.5 60q29 0 72 -10l-20 -119q-30 13 -62 13q-103 0 -183 -82.5t-99 -200.5v-578q0 -134 33.5 -184.5t119.5 -50.5q47 0 96 14l17 -94q-50 -18 -117 -18q-100 0 -160.5 40t-83 114t-22.5 159v977z"/>
    <glyph glyph-name="uni027E" unicode="ɾ" horiz-adv-x="666" d="M154 555q0 202 82.5 294.5t232.5 92.5q91 0 176 -27l-22 -100q-81 25 -152 25q-201 0 -201 -287v-553h-116v555z"/>
    <glyph glyph-name="rfishhookreversed" unicode="ɿ" horiz-adv-x="666" d="M512 -348h-117v901q0 287 -200 287q-73 0 -152 -25l-23 100q86 27 177 27q144 0 229.5 -88.5t85.5 -298.5v-903z"/>
    <glyph glyph-name="uni0280" unicode="ʀ" horiz-adv-x="920" d="M725 0l-264 391h-180v-391h-117v932h305q163 0 241 -69.5t78 -192.5q0 -95 -55 -166t-151 -98l286 -406h-143zM666 668q0 166 -211 166h-174v-345h174q109 0 160 48.5t51 130.5z"/>
    <glyph glyph-name="uni0281" unicode="ʁ" horiz-adv-x="920" d="M868 932l-286 -406q98 -29 152 -100.5t54 -163.5q0 -123 -78 -192.5t-241 -69.5h-305v932h117v-391h180l264 391h143zM666 264q0 82 -51 130t-160 48h-174v-344h174q211 0 211 166z"/>
    <glyph glyph-name="uni0282" unicode="ʂ" horiz-adv-x="799" d="M727 254q0 -124 -88.5 -198t-241.5 -74q-143 0 -247 75v-98q0 -219 139 -219q52 0 98 16l16 -92q-49 -22 -120 -22q-88 0 -138 40t-72 107.5t-22 169.5v191l76 71q50 -64 124 -102.5t148 -38.5q100 0 157.5 42t57.5 118q0 44 -31.5 85t-120.5 72l-186 66 q-91 35 -135.5 95.5t-44.5 135.5q0 115 89 186.5t229 71.5q96 0 175 -35.5t128 -87.5l-62 -81q-47 50 -113.5 79t-131.5 29q-97 0 -151 -41t-54 -108q0 -53 31 -86t122 -68l174 -61q64 -25 102.5 -55t65.5 -78t27 -105z"/>
    <glyph glyph-name="uni0283" unicode="ʃ" horiz-adv-x="465" d="M291 -45q0 -160 -61 -236.5t-175 -76.5q-70 0 -127 24l25 88q42 -18 80 -18q50 0 79 19.5t45.5 64.5t16.5 137v1079q0 163 62.5 238.5t173.5 75.5q72 0 127 -23l-29 -86q-39 14 -76 14q-54 0 -84.5 -24t-43.5 -69t-13 -128v-1079z"/>
    <glyph glyph-name="uni0284" unicode="ʄ" horiz-adv-x="465" d="M291 541h143v-95h-143v-491q0 -166 -63 -239.5t-173 -73.5q-70 0 -127 24l25 88q42 -18 80 -18q45 0 75.5 18t48 64.5t17.5 138.5v489h-143v95h143v495q0 163 62.5 238.5t173.5 75.5q72 0 127 -23l-29 -86q-39 14 -76 14q-55 0 -85.5 -26t-43 -70t-12.5 -125v-493z"/>
    <glyph glyph-name="eshsquatreversed" unicode="ʅ" horiz-adv-x="465" d="M184 715q0 42 -5 68t-25.5 43.5t-57.5 17.5q-40 0 -78 -19l-38 88q54 29 120 29q101 0 151 -52.5t50 -164.5v-856q0 -72 21 -100.5t67 -28.5q53 0 107 33l41 -86q-76 -45 -152 -45q-100 0 -150.5 52.5t-50.5 164.5v856z"/>
    <glyph glyph-name="eshcurl" unicode="ʆ" horiz-adv-x="465" d="M174 1036q0 163 62.5 238.5t173.5 75.5q72 0 127 -23l-29 -86q-39 14 -76 14q-58 0 -88 -26.5t-41.5 -72.5t-11.5 -122v-1034h153v-92h-153q0 -148 -51 -207t-144 -59q-85 0 -133.5 46t-48.5 130q0 83 49.5 132.5t151.5 49.5h59v1036zM23 -182q0 -44 19 -65t54 -21 q40 0 59 37.5t19 107.5v31h-59q-53 0 -72.5 -23.5t-19.5 -66.5z"/>
    <glyph glyph-name="tturned" unicode="ʇ" horiz-adv-x="614" d="M305 358v543q0 90 -12.5 131t-47.5 64.5t-98 23.5q-39 0 -90 -14l-16 92q24 8 67.5 14.5t75.5 6.5q82 0 137 -36.5t78 -95t23 -186.5v-543h141v-92h-141l-16 -266h-101v266h-274v92h274zM-74 950z"/>
    <glyph glyph-name="uni0288" unicode="ʈ" horiz-adv-x="614" d="M309 840v-881q0 -84 12.5 -128t47.5 -67.5t98 -23.5q37 0 90 14l16 -92q-68 -20 -143 -20q-81 0 -135.5 34.5t-78 93t-23.5 189.5v881h-142v92h142l16 266h100v-266h275v-92h-275z"/>
    <glyph glyph-name="uni0289" unicode="ʉ" horiz-adv-x="1044" d="M31 541h123v391h116v-391h494v391h117v-391h133v-95h-133v-446h-107l-10 184q-49 -93 -132.5 -147.5t-180.5 -54.5q-144 0 -220.5 86t-76.5 249v129h-123v95zM475 88q65 0 126.5 38.5t106 104t56.5 131.5v84h-494v-98q0 -123 47.5 -191.5t157.5 -68.5z"/>
    <glyph glyph-name="uni028A" unicode="ʊ" horiz-adv-x="1092" d="M535 80q344 0 344 366q0 137 -69 239.5t-192 154.5v92h392v-98h-228q104 -62 161.5 -163.5t57.5 -224.5q0 -213 -120 -338.5t-336 -125.5q-204 0 -329.5 127t-125.5 337q0 123 63.5 230t155.5 158h-227v98h391v-92q-138 -60 -200 -161t-62 -233q0 -172 87.5 -269 t236.5 -97z"/>
    <glyph glyph-name="uni028B" unicode="ʋ" horiz-adv-x="1038" d="M520 -18q-177 0 -271.5 97t-94.5 279v574h116v-576q0 -144 63.5 -208t186.5 -64q130 0 192 66t62 206v359q0 72 -20.5 100.5t-67.5 28.5q-40 0 -78 -19l-39 88q56 29 121 29q101 0 151 -52.5t50 -164.5v-369q0 -177 -98 -275.5t-273 -98.5z"/>
    <glyph glyph-name="uni028C" unicode="ʌ" horiz-adv-x="881" d="M860 0h-123l-297 819l-297 -819h-123l359 932h123z"/>
    <glyph glyph-name="uni028D" unicode="ʍ" horiz-adv-x="1352" d="M311 932h123l242 -799l239 799h123l273 -932h-117l-221 788l-230 -788h-135l-229 788l-219 -788h-119z"/>
    <glyph glyph-name="uni028E" unicode="ʎ" horiz-adv-x="891" d="M690 1352q81 0 144 -37l-31 -92q-30 14 -55.5 20t-47.5 6q-41 0 -63 -23.5t-49 -88.5l-82 -205l364 -932h-122l-297 819l-297 -819h-123l465 1188q34 89 84 126.5t110 37.5z"/>
    <glyph glyph-name="uni028F" unicode="ʏ" horiz-adv-x="854" d="M485 377v-377h-116v377l-349 555h134l276 -467l275 467h129z"/>
    <glyph glyph-name="zretroflexhook" unicode="ʐ" horiz-adv-x="829" d="M778 -41q0 -115 36.5 -167t103.5 -52q52 0 98 16l16 -92q-49 -22 -121 -22q-117 0 -174 76.5t-57 240.5v41h-629v82l570 758h-549v92h686v-76l-570 -758h590v-139z"/>
    <glyph glyph-name="uni0291" unicode="ʑ" horiz-adv-x="862" d="M352 98q69 132 137.5 195t151.5 63q78 0 125 -42.5t47 -114.5q0 -199 -294 -199h-99q-30 -60 -74 -178l-86 47l51 131h-260v82l570 758h-549v92h686v-76l-570 -758h164zM633 264q-88 0 -166 -166h72q87 0 127.5 21.5t40.5 68.5q0 39 -21 57.5t-53 18.5z"/>
    <glyph glyph-name="uni0292" unicode="ʒ" horiz-adv-x="909" d="M408 -250q134 0 210 79.5t76 221.5q0 141 -89 213t-257 72h-102v82l395 422h-549v92h692v-76l-399 -428q207 -4 319.5 -100.5t112.5 -266.5q0 -186 -111 -300.5t-298 -114.5q-86 0 -165 24.5t-141.5 71.5t-91.5 90l78 68q49 -62 138 -106t182 -44z"/>
    <glyph glyph-name="ezhcurl" unicode="ʓ" horiz-adv-x="909" d="M817 61q0 -90 -31 -159q73 -53 170 -150l-67 -78q-94 87 -158 136q-62 -78 -158.5 -121t-220.5 -43q-141 0 -233 57.5t-92 151.5q0 96 85 151t238 55q171 0 338 -95l6 95q0 133 -88 204t-258 71h-102v82l395 422h-549v92h692v-76l-399 -428q207 -4 319.5 -100.5 t112.5 -266.5zM133 -147q0 -48 64 -77.5t155 -29.5q97 0 170.5 33.5t116.5 95.5q-72 44 -143 66t-142 22q-134 0 -177.5 -31t-43.5 -79z"/>
    <glyph glyph-name="uni0294" unicode="ʔ" horiz-adv-x="801" d="M731 981q0 -105 -40.5 -185.5t-110.5 -140.5t-189 -114v-541h-117v602q133 48 200.5 98.5t100.5 121t33 165.5q0 123 -64.5 194.5t-178.5 71.5q-157 0 -265 -135l-80 66q57 81 147 125.5t200 44.5q169 0 266.5 -98.5t97.5 -274.5z"/>
    <glyph glyph-name="uni0295" unicode="ʕ" horiz-adv-x="801" d="M70 981q0 176 97.5 274.5t266.5 98.5q222 0 346 -170l-80 -66q-30 38 -60 63t-82.5 48.5t-121.5 23.5q-114 0 -178.5 -71.5t-64.5 -194.5q0 -97 32 -163.5t82 -107t97.5 -64.5t121.5 -50v-602h-116v541q-96 47 -165 95t-122 134.5t-53 210.5z"/>
    <glyph glyph-name="uni0296" unicode="ʖ" horiz-adv-x="760" d="M690 14q0 -175 -103.5 -273.5t-281.5 -98.5q-209 0 -325 170l79 65q42 -52 75 -77t75 -41.5t94 -16.5q123 0 193.5 71.5t70.5 194.5q0 96 -30.5 164t-73.5 106.5t-85.5 62t-117.5 52.5v539h117v-477q75 -36 144.5 -88.5t119 -140t49.5 -212.5z"/>
    <glyph glyph-name="cstretched" unicode="ʗ" horiz-adv-x="895" d="M82 295q0 320 112 487.5t322 167.5q52 0 100 -11t92 -35.5t78 -58t60 -79.5l-82 -61q-48 77 -109 111t-135 34q-167 0 -242 -137.5t-75 -417.5q0 -277 73.5 -412t229.5 -135q82 0 149.5 39t114.5 111l78 -68q-6 -9 -13 -19t-20 -25.5t-39.5 -41.5t-71.5 -51.5t-96 -37 t-104 -11.5q-209 0 -315.5 165t-106.5 486z"/>
    <glyph glyph-name="uni0298" unicode="ʘ" horiz-adv-x="1423" d="M1321 651q0 -191 -76 -344.5t-215.5 -239t-316.5 -85.5t-317.5 85t-217 238t-76.5 344q0 192 77 346.5t216.5 239t315.5 84.5t315.5 -85t217 -238t77.5 -345zM1194 651q0 246 -133.5 402.5t-347.5 156.5q-218 0 -351 -156t-133 -403q0 -249 135 -404t347 -155 q216 0 349.5 155.5t133.5 403.5zM807 665q0 -39 -26.5 -65.5t-65.5 -26.5t-65.5 26.5t-26.5 65.5q0 38 25.5 65.5t66.5 27.5q40 0 66 -27.5t26 -65.5z"/>
    <glyph glyph-name="uni0299" unicode="ʙ" horiz-adv-x="983" d="M893 276q0 -126 -96.5 -201t-264.5 -75h-368v932h344q95 0 166.5 -24t114 -76t42.5 -140q0 -77 -46 -127.5t-138 -70.5v-4q116 -9 181 -66t65 -148zM715 692q0 31 -11.5 58t-38.5 49t-65.5 31.5t-93.5 9.5h-225v-308h211q61 0 109 14t81 49.5t33 96.5zM770 276 q0 62 -39 99t-99 51t-147 14h-204v-348h241q85 0 135.5 20.5t81.5 60.5t31 103z"/>
    <glyph glyph-name="eopenclosed" unicode="ʚ" horiz-adv-x="997" d="M793 467q0 183 -90.5 284t-243.5 101q-121 0 -182.5 -39.5t-61.5 -105.5q0 -156 264 -156h158v-98h-139q-305 0 -305 -172q0 -90 72 -145.5t194 -55.5q160 0 247 99.5t87 287.5zM322 504q-106 21 -166 73.5t-60 129.5q0 114 96 178.5t267 64.5q144 0 241 -54t156 -159 t59 -272q0 -147 -49.5 -252t-149 -168t-257.5 -63q-181 0 -285 80t-104 212q0 89 65.5 149.5t186.5 80.5z"/>
    <glyph glyph-name="uni029B" unicode="ʛ" horiz-adv-x="1049" d="M829 0l-14 106q-62 -62 -143.5 -94t-171.5 -32q-128 0 -219.5 63t-145 167t-53.5 255q0 138 58.5 249.5t162.5 173.5t232 62q143 0 249 -73q0 189 55.5 261t164.5 72q81 0 143 -30l-27 -90q-45 26 -96 26q-71 0 -104 -43t-33 -159v-148l-82 -61q-41 66 -113 105.5 t-153 39.5q-152 0 -244 -103.5t-92 -279.5q0 -174 90 -278.5t235 -104.5q80 0 156.5 39.5t124.5 103.5v170h-248v92h365v-489h-97z"/>
    <glyph glyph-name="uni029C" unicode="ʜ" horiz-adv-x="1110" d="M829 0v436h-548v-436h-117v932h117v-397h548v397h117v-932h-117z"/>
    <glyph glyph-name="uni029D" unicode="ʝ" horiz-adv-x="455" d="M326 1255q0 -40 -28 -67t-65 -27q-39 0 -66.5 27t-27.5 65t27 66.5t65 28.5q41 0 68 -28t27 -65zM174 932h117v-932h153v-92h-153q0 -148 -51 -207t-144 -59q-85 0 -133.5 46t-48.5 130q0 83 49.5 132.5t151.5 49.5h59v932zM23 -182q0 -41 17.5 -63.5t55.5 -22.5 q40 0 59 32.5t19 125.5v18h-59q-53 0 -72.5 -23.5t-19.5 -66.5z"/>
    <glyph glyph-name="kturned" unicode="ʞ" horiz-adv-x="932" d="M164 932l354 -481l133 127v354h117v-1280h-117v799l-446 -451h-154l389 375l-420 557h144z"/>
    <glyph glyph-name="uni029F" unicode="ʟ" horiz-adv-x="674" d="M164 0v932h117v-834h383v-98h-500z"/>
    <glyph glyph-name="qhook" unicode="ʠ" horiz-adv-x="1085" d="M805 1036q0 163 62.5 238.5t172.5 75.5q75 0 127 -23l-28 -86q-39 14 -76 14q-75 0 -108 -49.5t-33 -171.5v-1382h-117v502q-46 -77 -131 -124.5t-195 -47.5q-178 0 -287.5 135t-109.5 350q0 206 118 344.5t302 138.5q112 0 189.5 -54t113.5 -128v268zM809 467 q0 167 -83.5 277t-213.5 110q-131 0 -219 -110.5t-88 -276.5t82.5 -276.5t214.5 -110.5q131 0 219 110.5t88 276.5z"/>
    <glyph glyph-name="uni02A1" unicode="ʡ" horiz-adv-x="801" d="M391 293v-293h-117v293h-174v94h174v215q133 48 200.5 98.5t100.5 121t33 165.5q0 123 -64.5 194.5t-178.5 71.5q-157 0 -265 -135l-80 66q57 81 147 125.5t200 44.5q169 0 266.5 -98.5t97.5 -274.5q0 -114 -47 -199t-121 -140t-172 -101v-154h195v-94h-195z"/>
    <glyph glyph-name="uni02A2" unicode="ʢ" horiz-adv-x="801" d="M215 293v94h195v154q-115 53 -185.5 110.5t-112.5 140t-42 189.5q0 176 97.5 274.5t266.5 98.5q107 0 197 -43.5t149 -126.5l-80 -66q-108 135 -264 135q-114 0 -178.5 -71.5t-64.5 -194.5q0 -97 33.5 -167.5t101.5 -121t198 -96.5v-215h174v-94h-174v-293h-116v293h-195 z"/>
    <glyph glyph-name="dzlig" unicode="ʣ" horiz-adv-x="1690" d="M825 0l-20 154q-46 -77 -131 -124.5t-195 -47.5q-178 0 -287.5 135t-109.5 350q0 204 117.5 343.5t302.5 139.5q105 0 183.5 -50.5t119.5 -131.5v573h117v-409h696v-76l-569 -758h589v-98h-813zM809 467q0 167 -83.5 277t-213.5 110q-131 0 -219 -110.5t-88 -276.5 t82.5 -276.5t214.5 -110.5q131 0 219 110.5t88 276.5zM922 840v-746l559 746h-559z"/>
    <glyph glyph-name="uni02A4" unicode="ʤ" horiz-adv-x="1743" d="M809 467q0 167 -83.5 277t-213.5 110q-131 0 -219 -110.5t-88 -276.5t82.5 -276.5t214.5 -110.5q131 0 219 110.5t88 276.5zM1528 51q0 141 -89 213t-257 72h-103v82l396 422h-553v-840h-97l-20 154q-46 -77 -131 -124.5t-195 -47.5q-178 0 -287.5 135t-109.5 350 q0 207 118 345t302 138q102 0 179.5 -47.5t123.5 -134.5v573h117v-409h696v-76l-399 -428q207 -4 319.5 -100.5t112.5 -266.5q0 -188 -112.5 -301.5t-297.5 -113.5q-126 0 -224.5 47.5t-172.5 138.5l78 68q135 -150 319 -150q135 0 211 79.5t76 221.5z"/>
    <glyph glyph-name="dzligcurl" unicode="ʥ" horiz-adv-x="1722" d="M1212 98q70 132 138 195t151 63q79 0 125.5 -42.5t46.5 -114.5q0 -199 -294 -199h-99q-30 -60 -74 -178l-86 47l51 131h-346l-20 154q-46 -77 -131 -124.5t-195 -47.5q-178 0 -287.5 135t-109.5 350q0 209 118.5 346t301.5 137q105 0 183.5 -50.5t119.5 -131.5v573h117 v-409h696v-76l-569 -758h163zM809 467q0 167 -83.5 277t-213.5 110q-131 0 -219 -110.5t-88 -276.5t82.5 -276.5t214.5 -110.5q131 0 219 110.5t88 276.5zM922 840v-746l559 746h-559zM1493 264q-43 0 -86 -43.5t-80 -122.5h72q87 0 127.5 21.5t40.5 68.5q0 39 -21 57.5 t-53 18.5z"/>
    <glyph glyph-name="tslig" unicode="ʦ" horiz-adv-x="1290" d="M309 932h463q69 20 133 20q89 0 161.5 -29t141.5 -94l-61 -81q-47 51 -114.5 79.5t-131.5 28.5q-94 0 -149.5 -39t-55.5 -106q0 -99 118 -135l36 -12l174 -60q104 -37 149.5 -94t45.5 -140q0 -79 -32.5 -134t-101 -95.5t-196.5 -40.5h-459q-85 0 -139.5 37.5t-76 98.5 t-21.5 181v523h-142v92h142l16 266h100v-266zM871 98q235 0 235 156q0 50 -28.5 81t-68.5 49.5t-200 72.5q-61 20 -105.5 45.5t-80 75.5t-35.5 120q0 83 47 142h-326v-523q0 -85 13 -129.5t48 -67t97 -22.5h404z"/>
    <glyph glyph-name="uni02A7" unicode="ʧ" horiz-adv-x="930" d="M756 -45q0 -180 -68 -246.5t-168 -66.5q-70 0 -127 24l25 88q42 -18 80 -18q56 0 87 26.5t42.5 69t11.5 180.5q-96 -32 -188 -32q-89 0 -148 34t-84.5 93.5t-25.5 189.5v543h-142v92h142l16 266h100v-266h330v104q0 163 62.5 238.5t172.5 75.5q75 0 127 -23l-28 -86 q-39 14 -76 14q-55 0 -84.5 -24t-43 -69t-13.5 -128v-1079zM487 78q70 0 152 33v729h-330v-543q0 -89 15 -131t53.5 -65t109.5 -23z"/>
    <glyph glyph-name="tcligcurl" unicode="ʨ" horiz-adv-x="1556" d="M1378 705q-38 66 -104.5 105.5t-143.5 39.5q-141 0 -227 -104t-86 -279q0 -106 35 -188q203 170 379 170q117 0 188.5 -59.5t71.5 -153.5q0 -93 -57 -151t-138 -81.5t-176 -23.5q-97 0 -174.5 35t-136.5 106q-190 -141 -379 -141q-107 0 -172 63t-65 224v573h-142v92h142 l16 266h100v-266h275v-92h-275v-543q0 -84 12.5 -128t47.5 -67.5t98 -23.5q79 0 149.5 36t139.5 89q-30 57 -45 122.5t-15 139.5q0 139 55 249.5t154.5 173t220.5 62.5q63 0 113 -14t92.5 -39.5t75 -59t53.5 -71.5zM1214 350q-62 0 -133 -35.5t-180 -124.5q90 -110 236 -110 q110 0 174.5 40t64.5 109q0 56 -37.5 88.5t-124.5 32.5z"/>
    <glyph glyph-name="uni02A9" unicode="ʩ" horiz-adv-x="1456" d="M586 1229l-15 7q-46 19 -102 19q-58 0 -93.5 -23.5t-52 -67.5t-16.5 -130v-102h365l10 -184q52 97 137 149.5t187 52.5q144 0 220.5 -88.5t76.5 -249.5v-643q0 -124 -29 -192t-82 -101.5t-131 -33.5q-71 0 -111 20l11 92q40 -14 92 -14q72 0 102.5 45.5t30.5 204.5v581 q0 143 -51.5 208t-159.5 65q-69 0 -130.5 -40.5t-106 -108.5t-56.5 -132v-563h-117v840h-258v-840h-117v840h-147v92h147v123q0 97 32 160t91.5 99t137.5 36q38 0 69.5 -5t89.5 -26z"/>
    <glyph glyph-name="uni02AA" unicode="ʪ" horiz-adv-x="1110" d="M164 0v1341h117v-1151q78 -48 186.5 -79t208.5 -31q137 0 193.5 42t56.5 124q0 97 -148 149l-149 53q-221 76 -221 246q0 115 89 186.5t228 71.5q102 0 180.5 -37.5t122.5 -85.5l-61 -81q-47 51 -114.5 79.5t-131.5 28.5q-97 0 -151 -41t-54 -108q0 -29 9 -52t38 -49 t107 -53l174 -61q100 -38 147 -95t47 -143q0 -272 -384 -272q-89 0 -195 27.5t-178 74.5v-84h-117z"/>
    <glyph glyph-name="uni02AB" unicode="ʫ" horiz-adv-x="1049" d="M164 0v1341h117v-409h696v-76l-569 -758h589v-98h-833zM281 840v-746l559 746h-559z"/>
    <glyph glyph-name="uni02AC" unicode="ʬ" horiz-adv-x="897" d="M682 0h-100l-131 477l-142 -477h-92l-176 596h102l125 -453l131 453h105l125 -453l123 453h104zM682 705h-100l-131 477l-142 -477h-92l-176 595h102l125 -452l131 452h105l125 -452l123 452h104z"/>
    <glyph glyph-name="uni02AD" unicode="ʭ" horiz-adv-x="1202" d="M922 424h-641v-424h-117v522h874v-522h-116v424zM922 1202h-641v-424h-117v522h874v-522h-116v424z"/>
    <glyph glyph-name="uni02AE" unicode="ʮ" horiz-adv-x="1075" d="M184 715q0 72 -20.5 100.5t-67.5 28.5q-40 0 -78 -19l-38 88q26 14 55.5 21.5t64.5 7.5q201 0 201 -217v-377q0 -123 47 -191.5t158 -68.5q65 0 127.5 39.5t106 104.5t55.5 130v570h116v-1280h-116v532q-49 -93 -133 -147.5t-181 -54.5q-145 0 -221 87t-76 248v398z"/>
    <glyph glyph-name="uni02AF" unicode="ʯ" horiz-adv-x="1075" d="M795 184q-49 -93 -133 -147.5t-181 -54.5q-145 0 -221 87t-76 248v398q0 72 -20.5 100.5t-67.5 28.5q-40 0 -78 -19l-38 88q26 14 56 21.5t64 7.5q201 0 201 -217v-377q0 -123 47 -191.5t158 -68.5q65 0 127.5 39.5t106 104.5t55.5 130v570h116v-973q0 -120 34.5 -169.5 t98.5 -49.5q46 0 86 10l17 -92q-21 -8 -47.5 -12t-59.5 -4q-245 0 -245 296v246z"/>
    <glyph glyph-name="uni02B0" unicode="ʰ" horiz-adv-x="815" d="M592 629v409q0 98 -36.5 144.5t-115.5 46.5q-70 0 -127.5 -54t-81.5 -141v-405h-104v966h104v-421q83 143 240 143q107 0 165 -63.5t58 -182.5v-442h-102z"/>
    <glyph glyph-name="uni02B1" unicode="ʱ" horiz-adv-x="815" d="M231 1174q84 143 240 143q107 0 165 -63.5t58 -182.5v-442h-102v409q0 98 -36.5 144.5t-115.5 46.5q-63 0 -125 -54.5t-84 -140.5v-405h-104v770q0 203 199 203q67 0 123 -23l-27 -74q-42 19 -88 19q-103 0 -103 -115v-235z"/>
    <glyph glyph-name="uni02B2" unicode="ʲ" horiz-adv-x="367" d="M264 1532q0 -29 -23 -51.5t-55 -22.5q-31 0 -53 21.5t-22 52.5t22 52.5t53 21.5q32 0 55 -21.5t23 -52.5zM240 610q0 -125 -50 -182q-49 -57 -135 -57q-38 0 -94 16l10 76q28 -10 70 -10q52 0 73 30.5t21 128.5v691h105v-693z"/>
    <glyph glyph-name="uni02B3" unicode="ʳ" horiz-adv-x="526" d="M485 1212q-22 9 -47 9q-68 0 -128 -49.5t-79 -147.5v-395h-104v674h96l8 -138q33 72 93 113t125 41q25 0 53 -8z"/>
    <glyph glyph-name="uni02B4" unicode="ʴ" horiz-adv-x="526" d="M41 721q17 -10 49 -10q74 0 130.5 56t74.5 144v392h104v-674h-94l-10 137q-33 -69 -91.5 -110.5t-123.5 -41.5q-34 0 -55 7z"/>
    <glyph glyph-name="uni02B5" unicode="ʵ" horiz-adv-x="526" d="M295 766q-33 -69 -91.5 -110.5t-123.5 -41.5q-34 0 -55 7l16 100q17 -10 49 -10q74 0 130.5 56t74.5 144v392h104v-707q0 -48 7 -77.5t28.5 -47.5t57.5 -18q33 0 63 10l14 -76q-35 -16 -92 -16q-92 0 -137 54t-45 169v172z"/>
    <glyph glyph-name="uni02B6" unicode="ʶ" horiz-adv-x="723" d="M676 1303l-211 -287q74 -22 115 -73t41 -122q0 -93 -62 -142.5t-186 -49.5h-246v674h104v-277h127l195 277h123zM514 825q0 65 -40.5 94t-113.5 29h-129v-241h129q80 0 117 31t37 87z"/>
    <glyph glyph-name="uni02B7" unicode="ʷ" horiz-adv-x="1047" d="M805 629h-107l-176 563l-174 -563h-106l-203 674h104l158 -558l166 558h113l165 -558l158 558h105z"/>
    <glyph glyph-name="uni02B8" unicode="ʸ" horiz-adv-x="700" d="M195 371q-71 0 -117 28l24 76q21 -10 40.5 -14t37.5 -4q30 0 51.5 20t71.5 154l-272 672h108l215 -576l213 576h109l-324 -803q-26 -65 -63 -97t-94 -32z"/>
    <glyph glyph-name="uni02B9" unicode="ʹ" horiz-adv-x="338" d="M170 831h-78l47 469h137z"/>
    <glyph glyph-name="uni02BA" unicode="ʺ" horiz-adv-x="645" d="M170 831h-78l47 469h137zM477 831h-78l47 469h137z"/>
    <glyph glyph-name="uni02BB" unicode="ʻ" horiz-adv-x="512" d="M399 1280q-153 -148 -153 -369l-123 31q0 105 63 215.5t152 173.5z"/>
    <glyph glyph-name="uni02BC" unicode="ʼ" horiz-adv-x="512" d="M389 1290q0 -100 -62 -212.5t-153 -176.5l-61 51q153 142 153 369z"/>
    <glyph glyph-name="afii64937" unicode="ʽ" horiz-adv-x="512" d="M338 911q-89 63 -152 174t-63 215l123 31q0 -220 153 -368z"/>
    <glyph glyph-name="uni02BE" unicode="ʾ" horiz-adv-x="0" d="M-80 1079q40 0 66 28t26 67t-27.5 65.5t-64.5 26.5v65q68 0 114 -45t46 -112t-46 -113.5t-114 -46.5v65z"/>
    <glyph glyph-name="uni02BF" unicode="ʿ" horiz-adv-x="0" d="M80 1014q-67 0 -113.5 45t-46.5 112q0 68 46 114t114 46v-65q-37 0 -64.5 -27t-27.5 -68q0 -39 27.5 -65.5t64.5 -26.5v-65z"/>
    <glyph glyph-name="uni02C0" unicode="ˀ" horiz-adv-x="567" d="M217 774v144q113 28 158 72t45 116q0 143 -150 143q-99 0 -164 -86l-57 70q87 102 221 102q123 0 185.5 -59.5t62.5 -171.5q0 -178 -207 -238v-92h-94z"/>
    <glyph glyph-name="uni02C1" unicode="ˁ" horiz-adv-x="567" d="M256 774v92q-207 61 -207 238q0 113 62.5 172t185.5 59q136 0 221 -102l-57 -70q-69 86 -164 86q-150 0 -150 -143q0 -72 45 -116t158 -72v-144h-94z"/>
    <glyph glyph-name="uni02C2" unicode="˂" d="M922 911l-707 -305l707 -307v-106l-820 366v92l820 367v-107z"/>
    <glyph glyph-name="uni02C3" unicode="˃" d="M102 1018l820 -367v-92l-820 -366v106l707 305l-707 307v107z"/>
    <glyph glyph-name="uni02C4" unicode="˄" d="M465 1016h92l365 -819h-107l-303 706l-307 -706h-107z"/>
    <glyph glyph-name="uni02C5" unicode="˅" d="M555.057 223.124h-91.9883l-364.956 818.9h106.987l302.963 -705.914l306.963 705.914h106.986z"/>
    <glyph glyph-name="uni02C8" unicode="ˈ" horiz-adv-x="0" d="M47 1276v-258h-94v258h94z"/>
    <glyph glyph-name="uni02CA" unicode="ˊ" horiz-adv-x="0" d="M-20 1044h-92l133 256h143z"/>
    <glyph glyph-name="uni02CB" unicode="ˋ" horiz-adv-x="0" d="M24 1044l-184 256h143l133 -256h-92z"/>
    <glyph glyph-name="vlinebelow" horiz-adv-x="821" d="M360 -115h95v-258h-95v258z"/>
    <glyph glyph-name="uni02CD" unicode="ˍ" horiz-adv-x="0" d="M-256 -273v93h522v-93h-522z"/>
    <glyph glyph-name="uni02CE" unicode="ˎ" horiz-adv-x="0" d="M16 -314l-184 256h143l133 -256h-92z"/>
    <glyph glyph-name="uni02CF" unicode="ˏ" horiz-adv-x="0" d="M-12 -314h-92l133 256h143z"/>
    <glyph glyph-name="uni02D0" unicode="ː" horiz-adv-x="0" d="M131 932l-131 -213l-131 213h262zM131 0h-262l131 213z"/>
    <glyph glyph-name="uni02D1" unicode="ˑ" horiz-adv-x="0" d="M131 932l-131 -234l-131 234h262z"/>
    <glyph glyph-name="uni02D2" unicode="˒" horiz-adv-x="0" d="M-80 578q40 0 66 28t26 67t-27.5 65.5t-64.5 26.5v65q68 0 114 -45t46 -112t-46 -113.5t-114 -46.5v65z"/>
    <glyph glyph-name="uni02D3" unicode="˓" horiz-adv-x="0" d="M80 513q-67 0 -113.5 45t-46.5 112q0 68 46 114t114 46v-65q-37 0 -64.5 -27t-27.5 -68q0 -39 27.5 -65.5t64.5 -26.5v-65z"/>
    <glyph glyph-name="uni02D4" unicode="˔" horiz-adv-x="0" d="M33 -152v-127h94v-65h-254v65h94v127h66z"/>
    <glyph glyph-name="uni02D5" unicode="˕" horiz-adv-x="0" d="M-33 -344v127h-94v65h254v-65h-94v-127h-66z"/>
    <glyph glyph-name="uni02D6" unicode="˖" horiz-adv-x="0" d="M33 -86v-100h94v-66h-94v-100h-66v100h-94v66h94v100h66z"/>
    <glyph glyph-name="uni02D7" unicode="˗" horiz-adv-x="0" d="M-203 -254v92h410v-92h-410z"/>
    <glyph glyph-name="uni02DE" unicode="˞" horiz-adv-x="0" d="M-72 696l37 -118q27 -86 51 -105.5t60 -19.5q56 0 114 41l39 -68q-81 -68 -176 -68q-77 0 -119 46.5t-77 177.5l-90 -23l-23 88z"/>
    <glyph glyph-name="uni02DF" unicode="˟" horiz-adv-x="0" d="M-53 1247l-123 125l53 53l123 -125l125 125l53 -53l-125 -125l125 -123l-53 -53l-125 123l-123 -123l-53 53z"/>
    <glyph glyph-name="uni02E0" unicode="ˠ" horiz-adv-x="692" d="M401 774q91 -145 91 -248q0 -75 -38.5 -114t-107.5 -39q-68 0 -107.5 39.5t-39.5 117.5q0 44 19.5 104t74.5 140l-268 529h108l213 -449l213 449h109zM346 446q55 0 55 82q0 80 -55 177q-55 -97 -55 -177q0 -82 55 -82z"/>
    <glyph glyph-name="uni02E1" unicode="ˡ" horiz-adv-x="358" d="M127 629v966h104v-966h-104z"/>
    <glyph glyph-name="uni02E2" unicode="ˢ" horiz-adv-x="627" d="M565 817q0 -89 -69 -145t-185 -56q-76 0 -148.5 33t-117.5 88l64 60q35 -44 92.5 -72.5t111.5 -28.5q72 0 112 28t40 81q0 68 -100 103l-148 50q-68 26 -102.5 70.5t-34.5 99.5q0 85 68.5 138t175.5 53q62 0 121 -20t112 -70l-49 -68q-86 78 -184 78q-68 0 -108 -26 t-40 -74q0 -44 38.5 -69.5t207.5 -80.5q77 -31 110 -73t33 -99z"/>
    <glyph glyph-name="uni02E3" unicode="ˣ" horiz-adv-x="670" d="M535 629l-205 289l-201 -289h-113l258 348l-243 326h121l186 -267l186 267h113l-242 -326l258 -348h-118z"/>
    <glyph glyph-name="uni02E4" unicode="ˤ" horiz-adv-x="623" d="M59 1331q0 125 73.5 200t203.5 75q88 0 153.5 -31t110.5 -92l-61 -58q-41 50 -90.5 73.5t-106.5 23.5q-82 0 -130 -50t-48 -137q0 -89 36.5 -138.5t86 -77.5t127.5 -54v-436h-105v387q-71 30 -119 64t-89.5 95t-41.5 156z"/>
    <glyph glyph-name="uni02E5" unicode="˥" horiz-adv-x="819" d="M430 1190h-297v110h420v-1300h-123v1190z"/>
    <glyph glyph-name="uni02E6" unicode="˦" horiz-adv-x="819" d="M430 903h-297v111h297v286h123v-1300h-123v903z"/>
    <glyph glyph-name="uni02E7" unicode="˧" horiz-adv-x="819" d="M430 596h-297v111h297v593h123v-1300h-123v596z"/>
    <glyph glyph-name="uni02E8" unicode="˨" horiz-adv-x="819" d="M430 1300h123v-1300h-123v287h-297v110h297v903z"/>
    <glyph glyph-name="uni02E9" unicode="˩" horiz-adv-x="819" d="M430 1300h123v-1300h-420v111h297v1189z"/>
    <glyph glyph-name="uni02EA" unicode="˪" horiz-adv-x="819" d="M389 111h297v-111h-420v1300h123v-1189z"/>
    <glyph glyph-name="uni02EB" unicode="˫" horiz-adv-x="819" d="M389 707h297v-111h-297v-596h-123v1300h123v-593z"/>
    <glyph glyph-name="uni02EC" unicode="ˬ" horiz-adv-x="0" d="M68 -355h-134l-163 256h92l137 -184l139 184h92z"/>
    <glyph glyph-name="uni02ED" unicode="˭" horiz-adv-x="0" d="M-358 1319v82h716v-82h-716zM-358 1065v82h716v-82h-716z"/>
    <glyph glyph-name="uni02EE" unicode="ˮ" horiz-adv-x="819" d="M696 1290q0 -105 -64.5 -217.5t-150.5 -171.5l-61 51q153 152 153 369zM389 1290q0 -100 -62 -212.5t-153 -176.5l-61 51q153 152 153 369z"/>
    <glyph glyph-name="uni02EF" unicode="˯" horiz-adv-x="0" d="M0 -229l92 196h78l-156 -301h-28l-156 301h78z"/>
    <glyph glyph-name="uni02F0" unicode="˰" horiz-adv-x="0" d="M0 -137l-92 -197h-78l156 301h28l156 -301h-78z"/>
    <glyph glyph-name="uni02F1" unicode="˱" horiz-adv-x="0" d="M-47 -176l199 -92v-78l-304 156v28l304 156v-78z"/>
    <glyph glyph-name="uni02F2" unicode="˲" horiz-adv-x="0" d="M47 -176l-199 92v78l304 -156v-28l-304 -156v78z"/>
    <glyph glyph-name="uni02F3" unicode="˳" horiz-adv-x="0" d="M0 -127q-57 0 -80.5 -25t-23.5 -65q0 -43 27.5 -65.5t76.5 -22.5q56 0 80 23.5t24 64.5q0 44 -25.5 67t-78.5 23zM0 -70q82 0 126 -39t44 -108q0 -65 -42.5 -105t-127.5 -40q-78 0 -124 39.5t-46 109.5q0 71 44 107t126 36z"/>
    <glyph glyph-name="uni02F4" unicode="˴" horiz-adv-x="0" d="M49 538l-184 256h143l133 -256h-92z"/>
    <glyph glyph-name="uni02F5" unicode="˵" horiz-adv-x="0" d="M86 520h-94l133 256h145zM-170 520h-94l133 256h143z"/>
    <glyph glyph-name="uni02F6" unicode="˶" horiz-adv-x="0" d="M-266 773h145l133 -256h-94zM-8 773h143l133 -256h-94z"/>
    <glyph glyph-name="uni02F7" unicode="˷" horiz-adv-x="0" d="M277 -142q0 -76 -45.5 -130.5t-107.5 -54.5q-67 0 -133 48l-25 18q-27 21 -48 32t-40 11q-28 0 -50 -24t-32 -85l-72 10q0 76 45.5 130.5t113.5 54.5q58 0 122 -46q36 -26 66 -44.5t53 -18.5q31 0 53.5 29t28.5 80z"/>
    <glyph glyph-name="uni02F8" unicode="˸" horiz-adv-x="0" d="M94 449q0 -39 -26.5 -65.5t-65.5 -26.5t-65.5 26.5t-26.5 65.5t26.5 65.5t65.5 26.5t65.5 -26.5t26.5 -65.5zM94 1207q0 -39 -26.5 -65.5t-65.5 -26.5t-65.5 26.5t-26.5 65.5t26.5 65.5t65.5 26.5t65.5 -26.5t26.5 -65.5z"/>
    <glyph glyph-name="uni02F9" unicode="˹" horiz-adv-x="0" d="M-139 971v342h278v-92h-188v-250h-90z"/>
    <glyph glyph-name="uni02FA" unicode="˺" horiz-adv-x="0" d="M49 971v250h-188v92h278v-342h-90z"/>
    <glyph glyph-name="uni02FB" unicode="˻" horiz-adv-x="0" d="M-49 330v-250h188v-92h-278v342h90z"/>
    <glyph glyph-name="uni02FC" unicode="˼" horiz-adv-x="0" d="M139 330v-342h-278v92h188v250h90z"/>
    <glyph glyph-name="uni02FD" unicode="˽" horiz-adv-x="0" d="M-291 -268h582v162h90v-244h-762v244h90v-162z"/>
    <glyph glyph-name="uni02FE" unicode="˾" horiz-adv-x="0" d="M-291 -279h672v-81h-762v254h90v-173z"/>
    <glyph glyph-name="uni02FF" unicode="˿" horiz-adv-x="0" d="M-219 -174l203 -98v-78l-363 188v45l363 189v-78l-203 -98h598v-70h-598z"/>
    <glyph glyph-name="gravecomb" unicode="̀" horiz-adv-x="0" d="M45 1044l-184 256h143l133 -256h-92z"/>
    <glyph glyph-name="acutecomb" unicode="́" horiz-adv-x="0" d="M-45 1044h-92l133 256h143z"/>
    <glyph glyph-name="circumflexcomb" unicode="̂" horiz-adv-x="0" d="M137 1044l-137 185l-139 -185h-92l163 256h134l163 -256h-92z"/>
    <glyph glyph-name="tildecomb" unicode="̃" horiz-adv-x="0" d="M276 1260q0 -76 -45.5 -130.5t-107.5 -54.5q-67 0 -134 49l-24 17q-21 15 -45.5 29t-42.5 14q-31 0 -53.5 -30t-28.5 -79l-71 10q0 76 45.5 130.5t114.5 54.5q49 0 98 -32q42 -29 77.5 -53t63.5 -24q31 0 53.5 29t28.5 80z"/>
    <glyph glyph-name="macroncomb" unicode="̄" horiz-adv-x="0" d="M-260 1126v93h522v-93h-522z"/>
    <glyph glyph-name="brevecomb" unicode="̆" horiz-adv-x="0" d="M262 1280q-27 -121 -93 -178.5t-167 -57.5t-168 57t-94 179l72 20q45 -163 188 -163q141 0 190 163z"/>
    <glyph glyph-name="dotaccentcomb" unicode="̇" horiz-adv-x="0" d="M102 1174q0 -43 -29.5 -74t-72.5 -31q-42 0 -73 30t-31 72q0 45 31 75t71 30q42 0 73 -30t31 -72z"/>
    <glyph glyph-name="dieresiscomb" unicode="̈" horiz-adv-x="0" d="M239 1174q0 -36 -25 -62.5t-64 -26.5q-36 0 -62 25.5t-26 60.5q0 36 25 62.5t63 26.5q39 0 64 -26t25 -60zM-58 1174q0 -36 -25 -62.5t-63 -26.5q-39 0 -64 26t-25 60q0 36 25 62.5t64 26.5q36 0 62 -25.5t26 -60.5z"/>
    <glyph glyph-name="hookabovecomb" unicode="̉" horiz-adv-x="0" d="M-55 1032v86q69 13 102 35t33 70q0 35 -19 55t-61 20q-28 0 -63.5 -10.5t-57.5 -32.5l-45 48q28 32 75 49.5t93 17.5q80 0 125 -36t45 -103q0 -115 -137 -146v-53h-90z"/>
    <glyph glyph-name="ringcomb" unicode="̊" horiz-adv-x="0" d="M160 1174q0 -67 -46 -113.5t-114 -46.5q-67 0 -113.5 45t-46.5 112q0 68 46 114t114 46t114 -45t46 -112zM92 1174q0 39 -27.5 65.5t-64.5 26.5q-39 0 -65.5 -26.5t-26.5 -65.5q0 -40 27 -67.5t65 -27.5q40 0 66 28t26 67z"/>
    <glyph glyph-name="caroncomb" unicode="̌" horiz-adv-x="0" d="M66 1044h-134l-163 256h92l137 -184l139 184h92z"/>
    <glyph glyph-name="uni0315" unicode="̕" horiz-adv-x="0" d="M389 1290q0 -100 -62 -212.5t-153 -176.5l-61 51q153 142 153 369z"/>
    <glyph glyph-name="uni0322" unicode="̢" horiz-adv-x="0" d="M264 0v-41q0 -123 39 -171t100 -48q53 0 99 16l16 -92q-49 -22 -121 -22q-117 0 -174 76.5t-57 240.5v41h98z"/>
    <glyph glyph-name="dotbelowcomb" unicode="̣" horiz-adv-x="0" d="M106 -238q0 -42 -30.5 -72t-73.5 -30q-42 0 -72 30.5t-30 71.5q0 43 30.5 74t71.5 31q43 0 73.5 -31t30.5 -74z"/>
    <glyph glyph-name="cedillacomb" unicode="̧" horiz-adv-x="0" d="M4 -256h-133l164 256h92z"/>
    <glyph glyph-name="circumflexundercomb" unicode="̭" horiz-adv-x="0" d="M137 -365l-135 185l-139 -185h-92l163 256h134l161 -256h-92z"/>
    <glyph glyph-name="macronundercomb" unicode="̱" horiz-adv-x="0" d="M-260 -250v92h522v-92h-522z"/>
    </font>
</defs>
</svg>
