<?xml version="1.0" encoding="UTF-8" standalone="no"?>
<!DOCTYPE svg PUBLIC "-//W3C//DTD SVG 1.1//EN" "http://www.w3.org/Graphics/SVG/1.1/DTD/svg11.dtd">
<svg>
<metadata>
Created by FontForge 20110222 at Mon Nov  5 14:23:17 2012
 By Orthosie Webmaster
Copyright 2006 - 2007, 2012 Monotype Imaging Inc. All rights reserved.
</metadata>
<defs>
<font id="SlatePro-Medium" horiz-adv-x="1118">
  <font-face font-family="Slate Pro" font-weight="500" font-stretch="normal" units-per-em="2048" panose-1="2 0 6 3 4 0 0 2 0 4" ascent="1341" descent="-707" x-height="961" cap-height="1300" bbox="-389 -459 2431 1911" underline-thickness="102" underline-position="-103" unicode-range="U+0020-FEFF"/>
<missing-glyph horiz-adv-x="1024" d="M997 1362v-1362h-972v1362h972zM512 768l330 498h-662zM123 186l330 496l-330 496v-992zM901 1178l-332 -496l332 -498v994zM512 594l-332 -496h662z"/>
    <glyph glyph-name=".notdef" horiz-adv-x="1024" d="M997 1362v-1362h-972v1362h972zM512 768l330 498h-662zM123 186l330 496l-330 496v-992zM901 1178l-332 -496l332 -498v994zM512 594l-332 -496h662z"/>
    <glyph glyph-name="NULL" horiz-adv-x="0"/>
    <glyph glyph-name="nonmarkingreturn" horiz-adv-x="352"/>
    <glyph glyph-name="space" unicode=" " horiz-adv-x="352"/>
    <glyph glyph-name="exclam" unicode="!" horiz-adv-x="618" d="M408 403h-195l-41 897h274zM459 123q0 -63 -42.5 -103t-107.5 -40q-63 0 -106 40t-43 103q0 62 42 102.5t107 40.5q64 0 107 -40t43 -103z"/>
    <glyph glyph-name="quotedbl" unicode="&quot;" horiz-adv-x="963" d="M754 831h-164l-41 500h246zM375 831h-166l-41 500h246z"/>
    <glyph glyph-name="numbersign" unicode="#" d="M860 817l-65 -313h200v-148h-231l-72 -352h-153l71 352h-229l-72 -352h-155l73 352h-188v148h219l66 313h-201v148h231l72 350h154l-72 -350h229l72 350h156l-74 -350h188v-148h-219zM477 817l-65 -313h229l66 313h-230z"/>
    <glyph glyph-name="dollar" unicode="$" d="M1024 387q0 -102 -56 -189.5t-145 -133t-184 -52.5l-2 -178h-145l4 176q-106 2 -224.5 54t-185.5 131l119 167q58 -65 137.5 -105t157.5 -46l4 350l-84 33q-160 62 -223.5 145.5t-63.5 200.5q0 144 109 245.5t276 108.5v133h144v-135q99 -6 192.5 -48.5t144.5 -102.5 l-104 -160q-106 106 -240 123l-2 -338l76 -31q156 -64 225.5 -149.5t69.5 -198.5zM516 1114q-66 0 -114 -40.5t-48 -104.5q0 -41 17 -69.5t48 -49t97 -43.5v307zM799 352q0 107 -117 156l-41 18l-4 -321q68 0 115 42.5t47 104.5z"/>
    <glyph glyph-name="percent" unicode="%" horiz-adv-x="1679" d="M1593 362q0 -174 -88.5 -278t-234.5 -104q-147 0 -234.5 104.5t-87.5 277.5q0 172 87.5 276.5t234.5 104.5q146 0 234.5 -104.5t88.5 -276.5zM508 -25l-113 70l776 1305l113 -70zM731 963q0 -172 -87.5 -276.5t-233.5 -104.5q-147 0 -235.5 103.5t-88.5 277.5t89 278.5 t235 104.5q145 0 233 -105t88 -278zM1409 360q0 107 -37 171.5t-102 64.5q-66 0 -103 -64t-37 -170t37 -170.5t103 -64.5q67 0 103 65t36 168zM549 963q0 106 -36.5 170.5t-102.5 64.5t-103 -64t-37 -169q0 -108 37.5 -172t102.5 -64q67 0 103 65t36 169z"/>
    <glyph glyph-name="ampersand" unicode="&amp;" horiz-adv-x="1372" d="M1059 0l-119 131q-92 -79 -192.5 -115t-233.5 -36q-124 0 -224.5 45.5t-155 127t-54.5 181.5q0 53 12 97.5t40 90t73.5 86t181.5 115.5q-84 93 -109.5 132.5t-36 78.5t-10.5 82q0 133 105.5 219t271.5 86q169 0 271 -80.5t102 -214.5q0 -96 -50 -170t-173 -147l-37 -23 l233 -256q42 53 78.5 135.5t52.5 151.5l195 -72q-17 -89 -75.5 -201t-108.5 -163l262 -281h-299zM762 1022q0 65 -42 104t-108 39q-65 0 -107 -39.5t-42 -99.5q0 -62 88 -160l49 -55l39 25q59 37 91 85.5t32 100.5zM508 596q-85 -48 -115 -78.5t-46.5 -68t-16.5 -84.5 q0 -84 60.5 -137.5t162.5 -53.5q70 0 134.5 28t111.5 79z"/>
    <glyph glyph-name="quoteright" unicode="’" horiz-adv-x="549" d="M500 1296q0 -121 -73.5 -254.5t-180.5 -210.5l-154 76q199 199 199 453zM100 1356z"/>
    <glyph glyph-name="parenleft" unicode="(" horiz-adv-x="696" d="M498 -315q-122 99 -219 244t-145 306t-48 334q0 259 107.5 492t302.5 395l125 -104q-160 -167 -238 -365t-78 -416q0 -219 80 -420.5t236 -361.5z"/>
    <glyph glyph-name="parenright" unicode=")" horiz-adv-x="696" d="M610 571q0 -170 -47.5 -332t-145 -310t-216.5 -244l-125 104q160 167 237.5 365.5t77.5 414.5q0 222 -79.5 422.5t-235.5 360.5l123 104q126 -105 221.5 -250t142.5 -306t47 -329z"/>
    <glyph glyph-name="asterisk" unicode="*" horiz-adv-x="870" d="M530 952l164 -196l-116 -86l-142 207l-143 -207l-117 84l164 198l-246 64l45 139l234 -84l-11 246h146l-10 -246l231 84l47 -137z"/>
    <glyph glyph-name="plus" unicode="+" d="M653 557v-362h-188v362h-363v188h363v363h188v-363h363v-188h-363z"/>
    <glyph glyph-name="comma" unicode="," horiz-adv-x="559" d="M438 229q0 -121 -73.5 -254.5t-180.5 -210.5l-153 76q200 200 200 453z"/>
    <glyph glyph-name="hyphen" unicode="-" horiz-adv-x="645" d="M66 391v189h514v-189h-514z"/>
    <glyph glyph-name="period" unicode="." horiz-adv-x="559" d="M428 129q0 -62 -42 -103.5t-105 -41.5q-64 0 -107 40t-43 103q0 62 42 103.5t106 41.5q65 0 107 -40.5t42 -102.5z"/>
    <glyph glyph-name="slash" unicode="/" horiz-adv-x="1108" d="M242 -217l-142 70l766 1589l142 -70z"/>
    <glyph glyph-name="zero" unicode="0" d="M1049 651q0 -308 -131 -489.5t-359 -181.5q-227 0 -358 181.5t-131 489.5q0 309 131.5 489.5t357.5 180.5q228 0 359 -180.5t131 -489.5zM797 651q0 219 -63 345t-175 126q-113 0 -175 -127t-62 -344t62.5 -344t174.5 -127t175 127t63 344z"/>
    <glyph glyph-name="one" unicode="1" d="M500 0v1018q-49 -43 -213 -92l-56 178q43 6 121.5 41t128 76t64.5 84h207v-1305h-252z"/>
    <glyph glyph-name="two" unicode="2" d="M76 0q26 294 318 529l158 131q175 143 175 262q0 90 -61 142t-170 52q-80 0 -157 -41t-136 -110l-121 161q76 91 198.5 143t256.5 52q195 0 316.5 -106.5t121.5 -276.5q0 -215 -238 -397l-127 -102q-176 -139 -213 -234h629v-205h-950z"/>
    <glyph glyph-name="three" unicode="3" d="M987 367q0 -113 -61 -201.5t-169.5 -137t-242.5 -48.5q-131 0 -248.5 52t-204.5 152l134 154q68 -71 150 -112.5t167 -41.5q102 0 165.5 56t63.5 145q0 93 -68 146t-175 53h-140v190h144q97 0 155 49t58 129q0 78 -61.5 123t-161.5 45q-154 0 -279 -125l-111 162 q76 76 188.5 120t231.5 44q122 0 222 -42t155 -118t55 -176q0 -59 -18.5 -108.5t-49 -86.5t-80.5 -68t-79 -34q120 -28 190 -113t70 -208z"/>
    <glyph glyph-name="four" unicode="4" d="M907 276v-276h-250v276h-626v191l573 833h303v-831h174v-193h-174zM657 1092l-417 -623h417v623z"/>
    <glyph glyph-name="five" unicode="5" d="M1018 422q0 -130 -64 -230.5t-178.5 -156t-253.5 -55.5q-134 0 -254.5 50t-206.5 144l134 154q56 -64 139 -104t170 -40q121 0 193.5 64t72.5 176q0 109 -74 173.5t-194 64.5q-63 0 -119 -22.5t-86 -55.5l-154 65l113 651h727v-198h-543l-53 -299q74 37 191 37 q127 0 227.5 -51t156.5 -145t56 -222z"/>
    <glyph glyph-name="six" unicode="6" d="M1051 430q0 -201 -127 -325.5t-338 -124.5q-224 0 -360 162.5t-136 486.5q0 331 153.5 511.5t401.5 180.5q99 0 195 -29.5t166 -85.5l-97 -164q-42 39 -113 63.5t-145 24.5q-100 0 -175 -55t-109.5 -145t-34.5 -230q58 63 144.5 97t187.5 34q107 0 195.5 -50t140 -143 t51.5 -208zM805 414q0 110 -60.5 172.5t-164.5 62.5q-67 0 -132.5 -39.5t-109.5 -107.5q0 -144 65.5 -238t176.5 -94q105 0 165 64t60 180z"/>
    <glyph glyph-name="seven" unicode="7" d="M487 0h-268l559 1100h-661v200h917v-188z"/>
    <glyph glyph-name="eight" unicode="8" d="M1040 354q0 -172 -132.5 -273t-348.5 -101q-219 0 -351 101.5t-132 272.5q0 107 63 191t195 135q-108 43 -161.5 121.5t-53.5 179.5q0 153 122 246.5t318 93.5q195 0 317.5 -93t122.5 -245q0 -95 -55.5 -170t-167.5 -117q125 -43 194.5 -133t69.5 -209zM762 971 q0 79 -55 125.5t-148 46.5q-94 0 -148.5 -45.5t-54.5 -124.5q0 -71 64 -124.5t172 -74.5q85 28 127.5 78.5t42.5 118.5zM797 371q0 77 -71 138t-206 93q-198 -72 -198 -229q0 -94 65.5 -151.5t171.5 -57.5q105 0 171.5 56.5t66.5 150.5z"/>
    <glyph glyph-name="nine" unicode="9" d="M1028 672q0 -151 -34 -275t-102.5 -215.5t-173 -146.5t-245.5 -55q-108 0 -205 31.5t-166 90.5l99 168q45 -41 121.5 -68.5t142.5 -27.5q104 0 176.5 51t108.5 141.5t36 235.5q-60 -66 -146.5 -99.5t-184.5 -33.5q-107 0 -197 51.5t-140 143.5t-50 206q0 131 57 234.5 t163 160t244 56.5q225 0 360.5 -163t135.5 -486zM780 803q0 144 -65.5 238t-175.5 94q-108 0 -167 -64.5t-59 -177.5q0 -112 61.5 -175t164.5 -63q67 0 130.5 38.5t110.5 109.5z"/>
    <glyph glyph-name="colon" unicode=":" horiz-adv-x="559" d="M428 129q0 -62 -42 -103.5t-105 -41.5q-64 0 -107 40t-43 103q0 62 42 103.5t106 41.5q65 0 107 -40.5t42 -102.5zM428 811q0 -62 -42 -103.5t-105 -41.5q-64 0 -107 40t-43 103q0 62 42 103.5t106 41.5q65 0 107 -40.5t42 -102.5z"/>
    <glyph glyph-name="semicolon" unicode=";" horiz-adv-x="559" d="M434 809q0 -62 -42 -102.5t-107 -40.5q-64 0 -107 41t-43 102q0 63 42.5 103t107.5 40q63 0 106 -40t43 -103zM438 227q0 -119 -73.5 -252t-180.5 -211l-153 76q200 200 200 453z"/>
    <glyph glyph-name="less" unicode="&lt;" d="M102 532v191l914 369v-207l-688 -256l688 -256v-207z"/>
    <glyph glyph-name="equal" unicode="=" d="M102 743v189h914v-189h-914zM102 324v190h914v-190h-914z"/>
    <glyph glyph-name="greater" unicode="&gt;" d="M102 166v207l689 256l-689 254v209l914 -369v-188z"/>
    <glyph glyph-name="question" unicode="?" horiz-adv-x="920" d="M858 999q0 -66 -19 -118.5t-49 -92.5t-94 -92l-123 -102q-30 -26 -43.5 -46t-16.5 -42t-5 -103h-203v89l-1 33q0 62 20.5 101.5t66.5 78.5l111 90q75 59 99 96t24 78q0 70 -55 109.5t-144 39.5q-70 0 -141 -30t-125 -84l-109 163q75 75 182.5 114.5t227.5 39.5 q175 0 286 -91t111 -231zM555 123q0 -62 -42 -102.5t-105 -40.5q-66 0 -108 40t-42 103q0 62 42 102.5t108 40.5q63 0 105 -40.5t42 -102.5z"/>
    <glyph glyph-name="at" unicode="@" horiz-adv-x="1665" d="M1556 586q0 -143 -55 -261.5t-150.5 -187.5t-203.5 -69q-80 0 -132.5 39.5t-62.5 105.5q-15 -30 -51 -62.5t-83 -54.5t-103 -22q-121 0 -190.5 83t-69.5 228q0 123 49.5 235t139 181t206.5 69q68 0 121.5 -24.5t79.5 -67.5l39 72h135l-119 -463q-16 -64 -16 -104 q0 -88 79 -88q66 0 125 49t95 138t36 204q0 140 -70.5 255.5t-198 180.5t-290.5 65q-171 0 -312 -81t-220.5 -225.5t-79.5 -319.5q0 -271 161 -430.5t429 -159.5q136 0 257.5 28t203.5 76l47 -98q-90 -60 -227.5 -95.5t-295.5 -35.5q-211 0 -373.5 88t-251.5 252t-89 381 q0 204 96 373t272.5 270.5t380.5 101.5q195 0 351.5 -80t248.5 -223.5t92 -322.5zM1010 631q-7 44 -47.5 78t-96.5 34q-104 0 -176 -109.5t-72 -244.5q0 -84 34.5 -129t101.5 -45q56 0 115 52.5t79 127.5z"/>
    <glyph glyph-name="A" unicode="A" horiz-adv-x="1204" d="M940 0l-94 285h-508l-94 -285h-254l456 1300h308l460 -1300h-274zM592 1061l-193 -574h383zM10 547zM1194 519z"/>
    <glyph glyph-name="B" unicode="B" horiz-adv-x="1198" d="M1133 375q0 -168 -124 -271.5t-384 -103.5h-475v1300h448q158 0 251 -30t150.5 -107t57.5 -184q0 -100 -58 -174.5t-165 -104.5v-4q138 -22 218.5 -108.5t80.5 -212.5zM799 938q0 76 -48 122t-169 46h-176v-340h176q112 0 164.5 49t52.5 123zM868 389q0 111 -82 162 q-67 37 -170 37h-210v-395h208q138 0 196 54.5t58 141.5z"/>
    <glyph glyph-name="C" unicode="C" horiz-adv-x="1221" d="M1047 920q-50 77 -136 126.5t-192 49.5q-111 0 -198 -54.5t-135 -156t-48 -230.5q0 -199 102.5 -320.5t274.5 -121.5q100 0 189.5 47.5t148.5 130.5l133 -174q-71 -107 -198 -172t-292 -65q-182 0 -323.5 82t-219 235t-77.5 354q0 196 82 349.5t227 237t322 83.5 q103 0 195.5 -29.5t163 -82t102.5 -98.5l14 -21z"/>
    <glyph glyph-name="D" unicode="D" horiz-adv-x="1341" d="M1266 651q0 -289 -175.5 -470t-490.5 -181h-450v1300h448q323 0 495.5 -183t172.5 -466zM1001 653q0 133 -46 233t-134.5 156t-226.5 56h-186v-891h186q195 0 301 118.5t106 327.5z"/>
    <glyph glyph-name="E" unicode="E" horiz-adv-x="1081" d="M150 0v1300h835v-202h-577v-316h536v-204h-536v-369h596v-209h-854z"/>
    <glyph glyph-name="F" unicode="F" horiz-adv-x="1001" d="M408 1098v-357h497v-204h-497v-537h-258v1300h800v-202h-542z"/>
    <glyph glyph-name="G" unicode="G" horiz-adv-x="1362" d="M1073 0l-24 133q-54 -70 -159.5 -111.5t-234.5 -41.5q-164 0 -298 85t-207.5 238.5t-73.5 351.5q0 195 82 347t227.5 235.5t321.5 83.5q54 0 101 -6.5t98.5 -22.5t99.5 -40.5t95 -61.5t95 -98l-152 -156l-34 40q-47 53 -125.5 89.5t-169.5 36.5q-109 0 -195 -55 t-134 -157.5t-48 -236.5q0 -208 100.5 -328t270.5 -120q97 0 174 32t116 87v186h-270v195h516v-705h-172z"/>
    <glyph glyph-name="H" unicode="H" horiz-adv-x="1384" d="M977 0v578h-569v-578h-258v1300h258v-516h569v516h258v-1300h-258z"/>
    <glyph glyph-name="I" unicode="I" horiz-adv-x="559" d="M150 0v1300h258v-1300h-258z"/>
    <glyph glyph-name="J" unicode="J" horiz-adv-x="686" d="M537 232q0 -178 -90 -275t-259 -97q-112 0 -188 36l35 183q43 -23 117 -23q62 0 94.5 43t32.5 121v1080h258v-1068z"/>
    <glyph glyph-name="K" unicode="K" horiz-adv-x="1184" d="M885 0l-346 573l-131 -145v-428h-258v1300h258v-559l458 559h301l-465 -530l482 -770h-299z"/>
    <glyph glyph-name="L" unicode="L" horiz-adv-x="950" d="M150 0v1300h258v-1091h516v-209h-774z"/>
    <glyph glyph-name="M" unicode="M" horiz-adv-x="1700" d="M1292 0v913l-336 -913h-227l-338 913v-913h-241v1300h331l367 -999l371 999h331v-1300h-258z"/>
    <glyph glyph-name="N" unicode="N" horiz-adv-x="1374" d="M977 0l-584 942v-942h-243v1300h276l555 -894v894h244v-1300h-248z"/>
    <glyph glyph-name="O" unicode="O" horiz-adv-x="1425" d="M1350 651q0 -198 -79 -351.5t-224 -236.5t-334 -83q-190 0 -335.5 83.5t-223.5 237t-78 350.5q0 198 78.5 351t224 236t334.5 83t334.5 -83t224 -236t78.5 -351zM1085 653q0 202 -100 327.5t-272 125.5t-272.5 -125t-100.5 -328q0 -207 101.5 -330.5t271.5 -123.5 q171 0 271.5 124.5t100.5 329.5z"/>
    <glyph glyph-name="P" unicode="P" horiz-adv-x="1143" d="M1075 879q0 -146 -59.5 -239t-172 -138t-251.5 -45h-184v-457h-258v1300h442q225 0 354 -106t129 -315zM817 879q0 60 -17 100t-51.5 69.5t-76.5 42.5t-121 13h-143v-451h141q101 0 152.5 24t83.5 73t32 129z"/>
    <glyph glyph-name="Q" unicode="Q" horiz-adv-x="1425" d="M799 -14l-86 -6q-190 0 -335.5 83.5t-223.5 237t-78 350.5q0 198 78.5 351t224 236t334.5 83t334.5 -83t224 -236t78.5 -351q0 -135 -39 -253t-115 -208t-158 -129q33 -123 160 -198l-205 -146q-68 34 -122 108.5t-72 160.5zM1085 653q0 202 -100 327.5t-272 125.5 t-272.5 -125t-100.5 -328q0 -207 101.5 -330.5t271.5 -123.5q171 0 271.5 124.5t100.5 329.5z"/>
    <glyph glyph-name="R" unicode="R" horiz-adv-x="1194" d="M872 0l-303 506h-161v-506h-258v1300h468q150 0 249 -42t161 -134.5t62 -212.5q0 -131 -71.5 -226.5t-195.5 -137.5l344 -547h-295zM834 901q0 92 -61.5 147.5t-182.5 55.5h-182v-406h180q121 0 183.5 55t62.5 148zM1118 468z"/>
    <glyph glyph-name="S" unicode="S" horiz-adv-x="1065" d="M1001 385q0 -114 -58.5 -207t-168 -145.5t-260.5 -52.5q-133 0 -264.5 52.5t-216.5 141.5l129 182q68 -68 166.5 -113.5t185.5 -45.5q116 0 173.5 42.5t57.5 116.5q0 45 -27.5 80.5t-73.5 56t-178 69.5l-120 44q-125 48 -188.5 135t-63.5 205q0 107 55 192t159 134 t253 49q120 0 239.5 -47.5t196.5 -124.5l-110 -176q-58 58 -155 100.5t-179 42.5q-100 0 -153.5 -36.5t-53.5 -108.5q0 -49 35 -87.5t131 -74t223 -82.5q266 -98 266 -342zM76 738z"/>
    <glyph glyph-name="T" unicode="T" horiz-adv-x="1030" d="M643 1098v-1098h-256v1098h-373v202h1000v-202h-371z"/>
    <glyph glyph-name="U" unicode="U" horiz-adv-x="1311" d="M915 1300h259v-784q0 -151 -30.5 -244t-96 -159.5t-160.5 -99.5t-232 -33q-142 0 -239.5 35.5t-162.5 109t-91.5 162.5t-26.5 227v786h258v-798q0 -96 15.5 -143.5t48.5 -81t81 -52t115 -18.5q85 0 143 30t88.5 84.5t30.5 180.5v798z"/>
    <glyph glyph-name="V" unicode="V" horiz-adv-x="1188" d="M737 0h-286l-441 1300h273l319 -1024l324 1024h252z"/>
    <glyph glyph-name="W" unicode="W" horiz-adv-x="1808" d="M1444 0h-283l-256 993l-256 -993h-282l-336 1300h264l227 -999l250 999h268l250 -999l228 999h260z"/>
    <glyph glyph-name="X" unicode="X" horiz-adv-x="1192" d="M891 0l-295 508l-293 -508h-299l436 668l-399 632h291l264 -471l264 471h293l-397 -632l432 -668h-297z"/>
    <glyph glyph-name="Y" unicode="Y" horiz-adv-x="1153" d="M707 530v-530h-258v530l-449 770h285l295 -569l292 569h281zM10 445zM1143 445z"/>
    <glyph glyph-name="Z" unicode="Z" horiz-adv-x="1149" d="M59 0v178l689 920h-664v202h979v-182l-678 -909h705v-209h-1031z"/>
    <glyph glyph-name="bracketleft" unicode="[" horiz-adv-x="696" d="M156 -281v1682h452v-137h-248v-1405h248v-140h-452z"/>
    <glyph glyph-name="backslash" unicode="\" horiz-adv-x="1108" d="M868 -217l-768 1589l140 70l768 -1589z"/>
    <glyph glyph-name="bracketright" unicode="]" horiz-adv-x="696" d="M88 -281v140h248v1403h-248v139h453v-1682h-453z"/>
    <glyph glyph-name="asciicircum" unicode="^" d="M799 647l-240 475l-237 -475h-220l351 653h213l350 -653h-217z"/>
    <glyph glyph-name="underscore" unicode="_" d="M0 -281v119h1118v-119h-1118z"/>
    <glyph glyph-name="quoteleft" unicode="‘" horiz-adv-x="549" d="M457 1288q-199 -199 -199 -452l-209 63q0 121 73.5 254.5t180.5 210.5zM133 1356z"/>
    <glyph glyph-name="a" unicode="a" horiz-adv-x="1016" d="M686 0q-20 60 -20 111q-114 -131 -291 -131q-144 0 -230 79t-86 215q0 108 66 181t204 108t330 35v45q0 156 -198 156q-75 0 -154.5 -24.5t-136.5 -61.5l-68 172q68 38 171 66t208 28q139 0 236 -42.5t143.5 -123t46.5 -209.5v-389q0 -131 45 -215h-266zM659 451 q-31 0 -114 -7t-132 -24.5t-75.5 -48.5t-26.5 -78q0 -66 38.5 -102.5t111.5 -36.5q58 0 111.5 32t86.5 88v177z"/>
    <glyph glyph-name="b" unicode="b" horiz-adv-x="1155" d="M1094 481q0 -221 -118.5 -361t-305.5 -140q-70 0 -123 20t-91 49.5t-75 85.5l-25 -135h-225v1341h248v-522q52 78 132.5 119t170.5 41q185 0 298.5 -137.5t113.5 -360.5zM840 481q0 137 -64 222t-168 85q-103 0 -169 -86t-66 -219q0 -136 63.5 -221.5t165.5 -85.5 q106 0 172 85.5t66 219.5z"/>
    <glyph glyph-name="c" unicode="c" horiz-adv-x="938" d="M918 133q-65 -74 -167 -113.5t-219 -39.5q-136 0 -244 60.5t-168.5 173.5t-60.5 265q0 147 63 261t174.5 176.5t246.5 62.5q118 0 219.5 -44.5t150.5 -113.5l-114 -153q-49 51 -109.5 78.5t-120.5 27.5q-120 0 -191 -77.5t-71 -213.5q0 -137 70.5 -215t193.5 -78 q63 0 126.5 28.5t111.5 78.5z"/>
    <glyph glyph-name="d" unicode="d" horiz-adv-x="1155" d="M799 0l-25 135q-47 -74 -126 -114.5t-173 -40.5q-186 0 -301 138.5t-115 360.5q0 223 117.5 361.5t304.5 138.5q92 0 169.5 -41.5t123.5 -118.5v522h250v-1341h-225zM780 483q0 133 -63 219t-166 86q-104 0 -170 -85.5t-66 -219.5q0 -136 63.5 -221.5t166.5 -85.5 q105 0 170 86t65 221z"/>
    <glyph glyph-name="e" unicode="e" horiz-adv-x="1024" d="M311 420q4 -118 73.5 -185t188.5 -67q78 0 160 29t127 69l86 -151q-66 -63 -172.5 -99t-232.5 -36q-219 0 -350.5 135.5t-131.5 363.5q0 227 130.5 363.5t349.5 136.5q198 0 315 -132.5t117 -348.5v-78h-660zM733 584q0 105 -54 165t-151 60q-92 0 -151.5 -61.5 t-69.5 -163.5h426z"/>
    <glyph glyph-name="f" unicode="f" horiz-adv-x="614" d="M655 1157l-16 5q-52 18 -100 18q-68 0 -99.5 -34t-31.5 -130v-55h229v-183h-227v-778h-250v778h-127v183h127v94q0 102 40 166t111.5 99.5t169.5 35.5q106 0 205 -37z"/>
    <glyph glyph-name="g" unicode="g" horiz-adv-x="1141" d="M1014 205q0 -204 -52.5 -316t-168.5 -178.5t-289 -66.5q-107 0 -220.5 31.5t-185.5 78.5l82 176q68 -42 155 -67t159 -25q135 0 205.5 64.5t70.5 210.5v75q-16 -35 -59.5 -72.5t-103.5 -62t-136 -24.5q-122 0 -216 59.5t-145 169t-51 248.5q0 136 54 244.5t150.5 168.5 t217.5 60q95 0 172.5 -44t110.5 -116l20 142h230v-756zM770 508q0 125 -60 202.5t-163 77.5t-167.5 -78t-64.5 -202q0 -122 61 -200.5t165 -78.5t166.5 78.5t62.5 200.5z"/>
    <glyph glyph-name="h" unicode="h" horiz-adv-x="1128" d="M760 0v557q0 111 -40.5 162t-125.5 51q-77 0 -137.5 -60.5t-77.5 -146.5v-563h-250v1341h250v-542q60 91 139 135.5t170 44.5q320 0 320 -365v-614h-248z"/>
    <glyph glyph-name="i" unicode="i" horiz-adv-x="510" d="M401 1245q0 -61 -40.5 -102t-104.5 -41q-66 0 -108 40.5t-42 100.5q0 59 40.5 100t107.5 41q63 0 105 -38t42 -101zM129 0v961h250v-961h-250z"/>
    <glyph glyph-name="j" unicode="j" horiz-adv-x="514" d="M408 1245q0 -60 -41 -101.5t-107 -41.5q-64 0 -105.5 39.5t-41.5 101.5q0 61 40.5 101t104.5 40q63 0 106.5 -38t43.5 -101zM385 -4q0 -136 -32.5 -204.5t-102.5 -108t-162 -39.5q-101 0 -172 32l25 179q36 -15 84 -15q51 0 73.5 21.5t29.5 60.5t7 92v947h250v-965z"/>
    <glyph glyph-name="k" unicode="k" horiz-adv-x="1038" d="M752 0l-269 403l-104 -102v-301h-250v1341h250v-766l346 386h293l-369 -377l389 -584h-286z"/>
    <glyph glyph-name="l" unicode="l" horiz-adv-x="510" d="M129 0v1341h250v-1341h-250z"/>
    <glyph glyph-name="m" unicode="m" horiz-adv-x="1686" d="M1317 0v573q0 108 -36.5 152.5t-111.5 44.5q-49 0 -91 -30.5t-69.5 -79t-35.5 -97.5v-563h-250v573q0 108 -36 152.5t-109 44.5q-49 0 -91.5 -30.5t-71 -78.5t-36.5 -98v-563h-250v961h233l17 -162q54 88 130 134t163 46q106 0 176 -49t98 -144q129 193 318 193 q142 0 221.5 -90t79.5 -258v-631h-248z"/>
    <glyph glyph-name="n" unicode="n" horiz-adv-x="1128" d="M760 0v557q0 111 -40.5 162t-125.5 51q-77 0 -137.5 -60.5t-77.5 -146.5v-563h-250v961h233l17 -162q60 91 139 135.5t170 44.5q320 0 320 -365v-614h-248z"/>
    <glyph glyph-name="o" unicode="o" horiz-adv-x="1094" d="M1034 479q0 -229 -133.5 -364t-353.5 -135q-223 0 -355.5 136.5t-132.5 362.5q0 227 132.5 363.5t355.5 136.5t355 -135.5t132 -364.5zM778 479q0 143 -62 227.5t-169 84.5q-110 0 -171 -85t-61 -227q0 -145 62.5 -228t169.5 -83q106 0 168.5 84t62.5 227z"/>
    <glyph glyph-name="p" unicode="p" horiz-adv-x="1155" d="M1094 481q0 -221 -118.5 -361t-305.5 -140q-70 0 -123 20t-91 49.5t-75 85.5v-475h-250v1301h234l14 -142q52 78 132.5 119t170.5 41q185 0 298.5 -137.5t113.5 -360.5zM840 481q0 137 -64 222t-168 85q-103 0 -169 -86t-66 -219q0 -136 63.5 -221.5t165.5 -85.5 q106 0 172 85.5t66 219.5z"/>
    <glyph glyph-name="q" unicode="q" horiz-adv-x="1155" d="M774 -340v475q-47 -74 -126 -114.5t-173 -40.5q-186 0 -301 138.5t-115 360.5q0 223 117.5 361.5t304.5 138.5q92 0 169.5 -41.5t123.5 -118.5l19 142h231v-1301h-250zM782 483q0 135 -64 220t-167 85q-104 0 -170 -85.5t-66 -219.5q0 -136 63.5 -221.5t166.5 -85.5 q105 0 171 85.5t66 221.5z"/>
    <glyph glyph-name="r" unicode="r" horiz-adv-x="752" d="M705 731l-23 7q-38 7 -61 7q-90 0 -156 -66.5t-86 -166.5v-512h-250v961h233l17 -173q41 87 117.5 140t160.5 53q33 0 78 -10z"/>
    <glyph glyph-name="s" unicode="s" horiz-adv-x="891" d="M840 297q0 -134 -103.5 -225.5t-306.5 -91.5q-108 0 -222 47.5t-177 115.5l123 154q47 -51 131.5 -89t154.5 -38q154 0 154 90q0 34 -31.5 57t-122.5 52l-77 24q-154 47 -218.5 114t-64.5 173q0 135 104.5 218t280.5 83q100 0 199 -35.5t167 -93.5l-96 -158 q-58 47 -130 75t-134 28q-149 0 -149 -86q0 -34 26.5 -54.5t122.5 -52.5q151 -45 207 -73t92.5 -63t53 -77.5t16.5 -93.5z"/>
    <glyph glyph-name="t" unicode="t" horiz-adv-x="698" d="M670 10q-108 -30 -209 -30q-107 0 -168 34t-92 95t-31 188v481h-135v183h135l16 249h232v-249h252v-183h-252v-434q0 -104 32 -137t82 -33q55 0 113 14z"/>
    <glyph glyph-name="u" unicode="u" d="M754 0l-15 162q-56 -88 -132 -135t-167 -47q-321 0 -321 364v617h250v-566q0 -97 36.5 -151t126.5 -54q76 0 134 59t71 144v568h250v-961h-233z"/>
    <glyph glyph-name="v" unicode="v" horiz-adv-x="1004" d="M633 0h-262l-367 961h268l232 -711l231 711h262z"/>
    <glyph glyph-name="w" unicode="w" horiz-adv-x="1507" d="M1206 0h-252l-200 684l-199 -684h-252l-278 961h254l167 -701l185 701h243l187 -701l166 701h256z"/>
    <glyph glyph-name="x" unicode="x" horiz-adv-x="979" d="M698 0l-213 354l-215 -354h-276l342 489l-322 472h281l199 -336l198 336h271l-322 -472l342 -489h-285z"/>
    <glyph glyph-name="y" unicode="y" horiz-adv-x="1014" d="M307 -356q-131 0 -225 47l53 184q23 -12 54 -20.5t55 -8.5q41 0 62 18.5t40 67.5l33 88l-365 941h269l231 -715l231 715h263l-406 -1053q-57 -146 -122.5 -205t-172.5 -59z"/>
    <glyph glyph-name="z" unicode="z" horiz-adv-x="899" d="M35 0v154l512 622h-492v185h789v-156l-502 -612h522v-193h-829z"/>
    <glyph glyph-name="braceleft" unicode="{" horiz-adv-x="696" d="M614 -305l-184 16q-108 10 -159 69.5t-58 194.5l-16 267q-6 107 -18.5 145.5t-37.5 57t-73 18.5h-37v176h35q47 0 73.5 18.5t39.5 60t18 142.5l14 266q7 134 58.5 194.5t160.5 70.5l182 16l13 -139l-113 -17q-57 -8 -78.5 -39t-23.5 -122l-15 -291q-7 -123 -49 -178 t-133 -66v-8q90 -11 131.5 -66t48.5 -178l17 -291q4 -74 14 -101t30.5 -41.5t57.5 -19.5l113 -16z"/>
    <glyph glyph-name="bar" unicode="|" horiz-adv-x="655" d="M233 -281v1682h189v-1682h-189z"/>
    <glyph glyph-name="braceright" unicode="}" horiz-adv-x="696" d="M631 463q-46 0 -72.5 -17.5t-39.5 -56t-19 -147.5l-15 -267q-7 -138 -59.5 -196t-159.5 -68l-182 -16l-12 139l112 16q37 5 58 19.5t31 39.5t14 101l14 293q7 126 50.5 180t131.5 64v8q-89 9 -131 64t-49 178l-16 293q-4 79 -14.5 103.5t-31.5 38.5t-57 19l-112 15 l10 141l184 -16q107 -10 158.5 -69t58.5 -196l17 -266q6 -114 18.5 -150.5t39 -53.5t71.5 -17h37v-176h-35z"/>
    <glyph glyph-name="asciitilde" unicode="~" d="M1077 735q-48 -150 -129.5 -226.5t-189.5 -76.5q-46 0 -82 10t-64.5 26t-89.5 67l-38 34q-61 54 -128 54q-52 0 -94.5 -51.5t-64.5 -129.5l-156 72q47 146 128 224.5t191 78.5q47 0 83 -10t66 -26.5t87 -65.5l38 -33q63 -55 128 -55q47 0 89.5 46.5t70.5 133.5z"/>
    <glyph glyph-name="exclamdown" unicode="¡" horiz-adv-x="618" d="M160 836q0 62 42 103.5t107 41.5q64 0 107 -41t43 -102q0 -62 -43.5 -104t-106.5 -42q-66 0 -107.5 41t-41.5 103zM211 555h195l38 -897h-272z"/>
    <glyph glyph-name="cent" unicode="¢" d="M999 303q-59 -59 -136.5 -96.5t-153.5 -44.5v-185h-144v181q-192 15 -310 148.5t-118 342.5q0 206 116 338t312 154v180h144v-182q64 -6 113.5 -25.5t85.5 -41.5t58.5 -43t32.5 -30l-98 -163q-26 39 -80 71t-112 39v-588q61 8 112.5 37.5t79.5 71.5zM565 946 q-91 -17 -143.5 -96t-52.5 -197q0 -122 52.5 -198.5t143.5 -96.5v588z"/>
    <glyph glyph-name="sterling" unicode="£" d="M119 0v158l184 28q35 50 54.5 112.5t19.5 121.5q0 66 -27 160h-200v139h161q-35 114 -40 152t-5 85q0 99 49 181t143 133t228 51q220 0 358 -174l-124 -141q-41 55 -101 87.5t-123 32.5q-93 0 -150 -52t-57 -136q0 -87 27 -161l19 -58h348v-137h-310q25 -80 25 -156 q0 -62 -22.5 -125.5t-53.5 -110.5h522v-190h-925z"/>
    <glyph glyph-name="fraction" unicode="⁄" horiz-adv-x="236" d="M-215 -25l-113 70l779 1305l112 -70z"/>
    <glyph glyph-name="yen" unicode="¥" d="M762 721h250v-139h-316l-18 -37v-105h334v-137h-334v-303h-236v301h-336v139h336v103l-18 39h-318v139h250l-309 579h275l239 -538l240 538h270z"/>
    <glyph glyph-name="florin" unicode="ƒ" d="M1012 1133q-60 34 -135 34q-62 0 -99 -40t-53 -132l-37 -190h230v-139h-254l-105 -578q-26 -141 -72.5 -216t-116.5 -111.5t-157 -36.5q-55 0 -112 16t-89 39l62 174q52 -31 123 -31q54 0 88 48t53 153l98 543h-186v137h211l43 227q24 116 62.5 181.5t108.5 105t175 39.5 q62 0 119.5 -16.5t97.5 -39.5z"/>
    <glyph glyph-name="section" unicode="§" d="M1008 543q0 -73 -33.5 -139.5t-97.5 -110.5q42 -29 69 -88t27 -123q0 -94 -53 -173t-152.5 -124t-232.5 -45q-120 0 -233 44t-193 120l106 164q167 -140 324 -140q93 0 147.5 36t54.5 97q0 40 -29.5 71.5t-97.5 53.5l-219 72q-62 18 -127 57t-99 100.5t-34 135.5 q0 56 18 99.5t43 75.5t72 67q-45 31 -68.5 85.5t-23.5 120.5q0 90 53.5 167.5t146 116t224.5 38.5q111 0 216.5 -35.5t176.5 -91.5l-92 -160q-57 49 -140.5 80t-160.5 31q-89 0 -144 -32t-55 -91q0 -77 102 -110l247 -81q70 -21 129.5 -58.5t94 -98t34.5 -131.5zM807 487 q0 97 -135 142q-214 71 -231.5 78t-30.5 14q-72 -40 -72 -121q0 -97 133 -141q186 -61 224 -74t40 -16q33 16 52.5 48t19.5 70z"/>
    <glyph glyph-name="currency" unicode="¤" d="M920 166l-168 168q-87 -58 -193 -58q-57 0 -109.5 17.5t-80.5 40.5l-168 -168l-127 125l168 168q-24 32 -40 85t-16 107q0 52 16 105t40 86l-168 168l125 127l168 -168q90 57 192 57q101 0 191 -57l168 168l126 -125l-167 -168q31 -53 43 -102t12 -91q0 -49 -14.5 -101 t-40.5 -89l167 -168zM756 651q0 82 -58 139.5t-139 57.5q-80 0 -138.5 -57t-58.5 -140q0 -82 58.5 -139t138.5 -57q82 0 139.5 58t57.5 138z"/>
    <glyph glyph-name="quotesingle" unicode="'" horiz-adv-x="580" d="M373 831h-166l-39 500h244z"/>
    <glyph glyph-name="quotedblleft" unicode="“" horiz-adv-x="958" d="M866 1288q-198 -198 -198 -452l-209 63q0 121 73.5 254.5t180.5 210.5zM457 1288q-199 -199 -199 -452l-209 63q0 121 73.5 254.5t180.5 210.5zM93 1356z"/>
    <glyph glyph-name="guillemotleft" unicode="«" horiz-adv-x="1024" d="M815 88l-303 363v112l301 363l117 -97l-262 -321l262 -322zM391 88l-301 363v112l301 363l117 -97l-262 -321l262 -322z"/>
    <glyph glyph-name="guilsinglleft" unicode="‹" horiz-adv-x="602" d="M391 88l-301 363v112l301 363l117 -97l-262 -321l262 -322z"/>
    <glyph glyph-name="guilsinglright" unicode="›" horiz-adv-x="602" d="M211 88l-117 96l262 322l-262 321l115 99l303 -363v-112z"/>
    <glyph glyph-name="fi" unicode="ﬁ" horiz-adv-x="1124" d="M655 1157l-16 5q-52 18 -100 18q-68 0 -99.5 -34t-31.5 -130v-55h229v-183h-227v-778h-250v778h-127v183h127v94q0 102 40 166t111.5 99.5t169.5 35.5q106 0 205 -37zM1017 1245q0 -61 -40.5 -102t-104.5 -41q-66 0 -108 40.5t-42 100.5q0 59 40.5 100t107.5 41 q63 0 105 -38t42 -101zM745 0v961h250v-961h-250z"/>
    <glyph glyph-name="fl" unicode="ﬂ" horiz-adv-x="1124" d="M655 1157l-16 5q-52 18 -100 18q-68 0 -99.5 -34t-31.5 -130v-55h229v-183h-227v-778h-250v778h-127v183h127v94q0 102 40 166t111.5 99.5t169.5 35.5q106 0 205 -37zM743 0v1341h250v-1341h-250z"/>
    <glyph glyph-name="endash" unicode="–" horiz-adv-x="1006" d="M70 399v172h866v-172h-866z"/>
    <glyph glyph-name="dagger" unicode="†" d="M637 793l22 -443l-34 -602h-133l-33 602l22 443l-368 -21v191l368 -21l-22 399h200l-22 -399l369 21v-191z"/>
    <glyph glyph-name="daggerdbl" unicode="‡" d="M637 139l22 -401h-200l22 401l-368 -20v188l368 -20l-14 254l14 252l-368 -21v191l368 -21l-22 399h200l-22 -399l369 21v-191l-369 21l14 -252l-14 -254l369 20v-188z"/>
    <glyph glyph-name="periodcentered" unicode="·" horiz-adv-x="559" d="M428 539q0 -63 -42.5 -104.5t-104.5 -41.5q-65 0 -107.5 41t-42.5 103t42.5 103.5t105.5 41.5q65 0 107 -40.5t42 -102.5z"/>
    <glyph glyph-name="paragraph" unicode="¶" d="M956 1167v-1448h-143v1448h-149v-841h-82q-235 0 -368.5 130t-133.5 357t132.5 357t367.5 130h489v-133h-113z"/>
    <glyph glyph-name="bullet" unicode="•" d="M831 647q0 -114 -80 -193t-192 -79q-113 0 -192.5 79.5t-79.5 192.5q0 114 79.5 193.5t192.5 79.5q112 0 192 -78.5t80 -194.5z"/>
    <glyph glyph-name="quotesinglbase" unicode="‚" horiz-adv-x="549" d="M434 229q0 -121 -73.5 -254.5t-180.5 -210.5l-153 76q200 200 200 453z"/>
    <glyph glyph-name="quotedblbase" unicode="„" horiz-adv-x="958" d="M852 229q0 -121 -73.5 -254.5t-180.5 -210.5l-154 76q201 201 201 453zM438 229q0 -119 -74 -253.5t-180 -211.5l-153 76q198 198 198 453z"/>
    <glyph glyph-name="quotedblright" unicode="”" horiz-adv-x="958" d="M909 1296q0 -121 -73.5 -254.5t-180.5 -210.5l-153 76q198 198 198 453zM500 1296q0 -121 -73.5 -254.5t-180.5 -210.5l-154 76q199 199 199 453zM128 1356z"/>
    <glyph glyph-name="guillemotright" unicode="»" horiz-adv-x="1024" d="M633 88l-117 96l262 322l-262 321l117 99l301 -363v-112zM211 88l-117 96l262 322l-262 321l115 99l303 -363v-112z"/>
    <glyph glyph-name="ellipsis" unicode="…" horiz-adv-x="1677" d="M1546 129q0 -62 -42 -103.5t-105 -41.5q-64 0 -107 40t-43 103q0 62 42 103.5t106 41.5q65 0 107 -40.5t42 -102.5zM987 129q0 -62 -42 -103.5t-105 -41.5q-64 0 -107 40t-43 103q0 62 42 103.5t106 41.5q65 0 107 -40.5t42 -102.5zM428 129q0 -62 -42 -103.5t-105 -41.5 q-64 0 -107 40t-43 103q0 62 42 103.5t106 41.5q65 0 107 -40.5t42 -102.5z"/>
    <glyph glyph-name="perthousand" unicode="‰" horiz-adv-x="2382" d="M2294 362q0 -172 -87 -277t-235 -105q-146 0 -234.5 104.5t-88.5 277.5q0 172 87.5 276.5t233.5 104.5q147 0 235.5 -103.5t88.5 -277.5zM1583 362q0 -174 -88.5 -278t-234.5 -104q-147 0 -234.5 104.5t-87.5 277.5q0 172 87.5 276.5t234.5 104.5q146 0 234.5 -104.5 t88.5 -276.5zM502 -25l-113 70l778 1305l111 -70zM731 963q0 -172 -87.5 -276.5t-233.5 -104.5q-147 0 -235.5 103.5t-88.5 277.5t89 278.5t235 104.5q145 0 233 -105t88 -278zM2109 360q0 110 -36.5 173t-100.5 63q-67 0 -103 -65t-36 -169q0 -108 36.5 -171.5t100.5 -63.5 q67 0 103 65t36 168zM1399 360q0 107 -37 171.5t-102 64.5q-66 0 -103 -64t-37 -170t37 -170.5t103 -64.5q67 0 103 65t36 168zM547 965q0 106 -36.5 169.5t-100.5 63.5q-66 0 -103 -64t-37 -169q0 -108 37.5 -172t102.5 -64t101 63t36 173z"/>
    <glyph glyph-name="questiondown" unicode="¿" horiz-adv-x="920" d="M494 -160q70 0 139.5 30t126.5 87l108 -164q-63 -69 -174.5 -112t-234.5 -43q-115 0 -207 42.5t-142.5 117.5t-50.5 163q0 66 19 116t47 89t96 96l123 103q41 35 52.5 57.5t13.5 64.5v68h202l2 -109q0 -71 -20 -111.5t-68 -78.5l-148 -123q-83 -68 -83 -141 q0 -70 52.5 -111t146.5 -41zM659 838q0 -63 -42.5 -104.5t-104.5 -41.5q-65 0 -107.5 41t-42.5 103q0 63 42.5 104t107.5 41q63 0 105 -40.5t42 -102.5z"/>
    <glyph glyph-name="grave" unicode="`" horiz-adv-x="874" d="M451 1071l-205 266h241l140 -266h-176z"/>
    <glyph glyph-name="acute" unicode="´" horiz-adv-x="874" d="M424 1071h-178l139 266h244z"/>
    <glyph glyph-name="circumflex" unicode="ˆ" horiz-adv-x="874" d="M559 1071l-121 168l-125 -168h-172l181 266h231l180 -266h-174z"/>
    <glyph glyph-name="tilde" unicode="˜" horiz-adv-x="874" d="M762 1307q0 -91 -57.5 -157.5t-137.5 -66.5q-79 0 -139 44q-25 17 -60 38t-61 21q-28 0 -50 -24t-30 -75l-118 15q0 92 58.5 157.5t135.5 65.5q79 0 140 -43q16 -12 54.5 -35.5t65.5 -23.5q28 0 50 23.5t30 74.5z"/>
    <glyph glyph-name="macron" unicode="¯" horiz-adv-x="874" d="M135 1137v135h604v-135h-604z"/>
    <glyph glyph-name="breve" unicode="˘" horiz-adv-x="874" d="M731 1323q-28 -127 -104.5 -190.5t-188.5 -63.5t-189.5 62.5t-105.5 189.5l129 25q16 -67 59.5 -103.5t104.5 -36.5t104 36.5t60 103.5z"/>
    <glyph glyph-name="dotaccent" unicode="˙" horiz-adv-x="874" d="M561 1204q0 -52 -34.5 -88.5t-90.5 -36.5q-53 0 -88 35.5t-35 89.5t34.5 88.5t88.5 34.5q56 0 90.5 -35.5t34.5 -87.5z"/>
    <glyph glyph-name="dieresis" unicode="¨" horiz-adv-x="874" d="M725 1206q0 -51 -31 -85t-84 -34q-52 0 -84 34t-32 83q0 51 31 84t83 33q53 0 85 -32.5t32 -82.5zM383 1206q0 -51 -32 -85t-85 -34q-52 0 -84 34t-32 83q0 51 32 84t84 33q53 0 85 -32.5t32 -82.5z"/>
    <glyph glyph-name="ring" unicode="˚" horiz-adv-x="874" d="M621 1233q0 -80 -52.5 -131t-132.5 -51t-132 51.5t-52 130.5q0 80 52.5 131t131.5 51q81 0 133 -51.5t52 -130.5zM526 1233q0 38 -26 64t-64 26t-64 -26t-26 -64t26 -64t64 -26t64 26t26 64z"/>
    <glyph glyph-name="cedilla" unicode="¸" horiz-adv-x="874" d="M453 -264h-236l180 264h178z"/>
    <glyph glyph-name="hungarumlaut" unicode="˝" horiz-adv-x="874" d="M637 1071h-178l139 266h244zM293 1071h-178l139 266h242z"/>
    <glyph glyph-name="ogonek" unicode="˛" horiz-adv-x="874" d="M831 -291q-43 -43 -106 -68.5t-123 -25.5q-98 0 -156.5 52t-58.5 143q0 54 28 104t79 86h139q-37 -28 -62.5 -71t-25.5 -83q0 -48 27 -73t75 -25q44 0 81.5 14t57.5 29z"/>
    <glyph glyph-name="caron" unicode="ˇ" horiz-adv-x="874" d="M553 1071h-231l-181 266h172l123 -168l123 168h174z"/>
    <glyph glyph-name="emdash" unicode="—" horiz-adv-x="1638" d="M59 399v172h1520v-172h-1520z"/>
    <glyph glyph-name="AE" unicode="Æ" horiz-adv-x="1726" d="M838 0v332h-455l-180 -332h-285l739 1300h973v-202h-536v-316h495v-204h-495v-369h555v-209h-811zM838 1102h-43l-314 -572h357v572z"/>
    <glyph glyph-name="ordfeminine" unicode="ª" horiz-adv-x="795" d="M524 602l-11 27q-11 26 -11 57q-39 -47 -96 -72.5t-125 -25.5q-105 0 -165.5 57t-60.5 158q0 57 30 103.5t89.5 78.5t151.5 45.5t176 13.5v25q0 109 -148 109q-53 0 -116 -19t-101 -45l-53 135q52 29 132.5 50.5t156.5 21.5q165 0 247 -71.5t82 -205.5v-278 q0 -86 35 -162zM504 938q-83 0 -166.5 -23.5t-83.5 -95.5q0 -92 115 -92q40 0 80 25.5t53 62.5z"/>
    <glyph glyph-name="Lslash" unicode="Ł" horiz-adv-x="950" d="M150 0v463l-99 -53v198l99 54v638h258v-507l231 122v-200l-231 -121v-385h516v-209h-774z"/>
    <glyph glyph-name="Oslash" unicode="Ø" horiz-adv-x="1425" d="M1350 651q0 -197 -78 -350t-223 -237t-336 -84q-206 0 -359 98l-118 -150l-117 90l123 154q-166 180 -166 479q0 198 78.5 351t224 236t334.5 83q208 0 364 -102l113 143l117 -90l-119 -150q162 -185 162 -471zM930 1036q-91 70 -217 70q-172 0 -272.5 -123.5 t-100.5 -329.5q0 -162 66 -276zM1085 653q0 155 -59 267l-522 -656q88 -65 209 -65q171 0 271.5 124.5t100.5 329.5z"/>
    <glyph glyph-name="OE" unicode="Œ" horiz-adv-x="1851" d="M963 0v41q-53 -27 -122.5 -44t-129.5 -17q-187 0 -332.5 83.5t-224 236t-78.5 351.5q0 197 78 349.5t223 236.5t332 84q66 0 136 -17.5t118 -43.5l-2 40h794v-202h-536v-316h495v-204h-495v-369h555v-209h-811zM963 1028q-46 36 -114.5 57t-137.5 21 q-172 0 -271.5 -124.5t-99.5 -328.5q0 -205 100.5 -329.5t268.5 -124.5q74 0 141.5 19.5t112.5 53.5v756z"/>
    <glyph glyph-name="ordmasculine" unicode="º" horiz-adv-x="844" d="M788 952q0 -166 -100 -267t-266 -101q-167 0 -267 101t-100 267q0 167 100 268t267 101q166 0 266 -101t100 -268zM584 954q0 103 -44.5 162.5t-117.5 59.5q-76 0 -119 -60.5t-43 -161.5t43 -162t119 -61q75 0 118.5 60.5t43.5 162.5z"/>
    <glyph glyph-name="ae" unicode="æ" horiz-adv-x="1616" d="M901 436v-16q8 -124 77.5 -188t184.5 -64q74 0 151.5 26.5t135.5 71.5l88 -151q-66 -62 -173 -98.5t-235 -36.5q-245 0 -376 170q-77 -92 -168.5 -131t-206.5 -39q-145 0 -232.5 77t-87.5 211q0 156 140.5 238t459.5 82v55q0 156 -198 156q-75 0 -154.5 -24.5 t-136.5 -61.5l-68 172q68 38 171 66t208 28q66 0 115 -8.5t96.5 -29t79 -51.5t37.5 -50q50 54 89.5 79.5t96.5 42.5t133 17q201 0 318 -132.5t117 -344.5v-66h-662zM1325 592q0 98 -54.5 157.5t-150.5 59.5q-91 0 -151 -60t-70 -157h426zM682 281q-29 82 -29 159 q-176 0 -259 -40t-83 -113q0 -64 42 -98.5t114 -34.5q64 0 122.5 35t92.5 92z"/>
    <glyph glyph-name="dotlessi" unicode="ı" horiz-adv-x="510" d="M129 0v961h250v-961h-250z"/>
    <glyph glyph-name="lslash" unicode="ł" horiz-adv-x="510" d="M379 655v-655h-250v512l-117 -72v195l117 72v634h250v-491l119 74v-195z"/>
    <glyph glyph-name="oslash" unicode="ø" horiz-adv-x="1094" d="M1034 479q0 -229 -132.5 -364t-354.5 -135q-168 0 -293 83l-94 -106l-82 76l94 106q-113 132 -113 340q0 227 132.5 363.5t355.5 136.5q174 0 297 -86l94 104l80 -75l-92 -105q108 -138 108 -338zM698 729q-58 62 -151 62q-110 0 -171 -85t-61 -227q0 -83 25 -153z M778 479q0 84 -22 148l-357 -400q59 -59 148 -59q106 0 168.5 84t62.5 227z"/>
    <glyph glyph-name="oe" unicode="œ" horiz-adv-x="1731" d="M1016 420q5 -124 76.5 -188t187.5 -64q73 0 149 26t136 72l88 -151q-66 -62 -173 -98.5t-235 -36.5q-111 0 -202 44t-144 128l-39 -47q-46 -56 -127 -90.5t-186 -34.5q-223 0 -355.5 136.5t-132.5 362.5q0 227 132.5 363.5t355.5 136.5q114 0 208.5 -47.5t139.5 -126.5 q47 64 93.5 97.5t109 55t145.5 21.5q200 0 317 -131t117 -350v-78h-661zM1440 584q0 105 -54.5 165t-150.5 60q-92 0 -152.5 -62t-70.5 -163h428zM778 479q0 143 -62 227.5t-169 84.5q-110 0 -171 -85t-61 -227q0 -145 62.5 -228t169.5 -83q106 0 168.5 84t62.5 227z"/>
    <glyph glyph-name="germandbls" unicode="ß" horiz-adv-x="1137" d="M1069 395q0 -123 -52.5 -217t-147 -146t-210.5 -52q-74 0 -121.5 12t-60.5 20l35 176q53 -20 113 -20q53 0 97.5 29.5t69.5 83.5t25 127q0 111 -68.5 177t-185.5 66h-59v178h49q88 0 135 50.5t47 132.5q0 77 -46.5 123.5t-119.5 46.5q-81 0 -133 -49q-57 -57 -57 -170 v-963h-250v932q0 133 51 228t150.5 145.5t253.5 50.5q168 0 276.5 -89t108.5 -227q0 -77 -30 -137.5t-80 -100.5t-97 -48q139 -21 223 -118.5t84 -240.5z"/>
    <glyph glyph-name="one.superior" unicode="¹" horiz-adv-x="850" d="M350 782v584q-29 -20 -72 -35t-75 -21l-39 136q17 0 76.5 24.5t100.5 55.5t56 57h150v-801h-197z"/>
    <glyph glyph-name="logicalnot" unicode="¬" d="M807 324v419h-721v189h915v-608h-194z"/>
    <glyph glyph-name="mu" unicode="µ" horiz-adv-x="1108" d="M743 0l-14 162q-35 -65 -96 -111.5t-121 -46.5q-91 0 -137 33v-377h-250v1301h248v-562q0 -111 39 -160t118 -49q50 0 91.5 28.5t70 76.5t35.5 98v568h250v-961h-234z"/>
    <glyph glyph-name="trademark" unicode="™" horiz-adv-x="1526" d="M1280 600l-18 543l-156 -543h-125l-154 543l-20 -543h-141l32 700h209l140 -501l137 501h211l35 -698zM416 1180v-580h-148v580h-194v120h534v-120h-192z"/>
    <glyph glyph-name="Eth" unicode="Ð" horiz-adv-x="1341" d="M1266 651q0 -289 -175.5 -470t-490.5 -181h-450v580h-107v176h107v544h448q323 0 495.5 -183t172.5 -466zM1001 653q0 133 -45.5 232.5t-137.5 156t-224 56.5h-186v-342h247v-176h-247v-373h186q195 0 301 118.5t106 327.5z"/>
    <glyph glyph-name="onehalf" unicode="½" horiz-adv-x="1698" d="M224 518v584q-29 -20 -72 -35t-75 -21l-39 136q17 0 76.5 24.5t100.5 55.5t56 57h150v-801h-197zM426 -25l-113 70l779 1305l112 -70zM979 0q14 108 72.5 195.5t183.5 183.5q89 69 109 90.5t30.5 41.5t10.5 42q0 53 -34 81t-91 28q-98 0 -193 -95l-78 125 q21 28 66.5 55.5t103 44.5t125.5 17q130 0 207.5 -65.5t77.5 -172.5q0 -52 -17.5 -93.5t-51.5 -79t-121 -99.5q-144 -98 -158 -149h383v-150h-625zM1630 297z"/>
    <glyph glyph-name="plusminus" unicode="±" d="M653 621v-349h-188v349h-363v190h363v348h188v-348h363v-190h-363zM102 0v190h914v-190h-914z"/>
    <glyph glyph-name="Thorn" unicode="Þ" horiz-adv-x="1143" d="M1065 682q0 -145 -60.5 -239t-175 -137.5t-247.5 -43.5h-174v-262h-258v1300h258v-198h174q143 0 255.5 -47.5t170 -140.5t57.5 -232zM807 682q0 76 -31.5 124.5t-82.5 72.5t-152 24h-133v-444h131q101 0 152.5 24t83.5 73t32 126z"/>
    <glyph glyph-name="onequarter" unicode="¼" horiz-adv-x="1698" d="M426 -25l-113 70l779 1305l112 -70zM1456 141v-141h-180v141h-385v140l348 501h217v-499h105v-142h-105zM1276 629l-225 -346h225v346zM910 480zM1550 519zM224 518v584q-29 -20 -72 -35t-75 -21l-39 136q17 0 76.5 24.5t100.5 55.5t56 57h150v-801h-197z"/>
    <glyph glyph-name="divide" unicode="÷" d="M709 1026q0 -63 -42.5 -104t-107.5 -41q-63 0 -106 40t-43 103q0 62 42 103.5t107 41.5q64 0 107 -41t43 -102zM102 532v191h914v-191h-914zM709 231q0 -63 -42.5 -103t-107.5 -40q-63 0 -106 40t-43 103q0 61 41 102.5t108 41.5q64 0 107 -41.5t43 -102.5z"/>
    <glyph glyph-name="brokenbar" unicode="¦" horiz-adv-x="655" d="M233 731v670h189v-670h-189zM233 -281v672h189v-672h-189z"/>
    <glyph glyph-name="degree" unicode="°" horiz-adv-x="778" d="M657 1053q0 -115 -77.5 -193t-190.5 -78t-190.5 78t-77.5 193q0 114 77.5 191t190.5 77q114 0 191 -77t77 -191zM545 1053q0 69 -43.5 113t-112.5 44q-68 0 -112 -44.5t-44 -112.5q0 -70 44.5 -115t111.5 -45t111.5 45t44.5 115z"/>
    <glyph glyph-name="thorn" unicode="þ" horiz-adv-x="1155" d="M1094 481q0 -221 -118.5 -361t-305.5 -140q-70 0 -123 20t-91 49.5t-75 85.5v-475h-250v1681h250v-522q52 78 131 119t170 41q185 0 298.5 -137.5t113.5 -360.5zM840 481q0 137 -64 222t-168 85q-103 0 -169 -86t-66 -219q0 -136 63.5 -221.5t165.5 -85.5q106 0 172 85.5 t66 219.5z"/>
    <glyph glyph-name="threequarters" unicode="¾" horiz-adv-x="1698" d="M651 741q0 -104 -90.5 -171.5t-221.5 -67.5q-155 0 -284 118l80 117q33 -36 89 -65t105 -29q62 0 102.5 29.5t40.5 83.5q0 50 -33.5 79t-88.5 29h-101v131h90q50 0 82.5 24t32.5 70q0 42 -35 68.5t-92 26.5q-97 0 -176 -70l-66 119q49 45 118.5 69.5t144.5 24.5 q120 0 201 -56.5t81 -150.5q0 -67 -37 -116.5t-96 -63.5q69 -15 111.5 -70t42.5 -129zM685 823zM45 806zM516 -25l-113 70l779 1305l112 -70zM1507 141v-141h-180v141h-385v140l348 501h217v-499h105v-142h-105zM1327 629l-225 -346h225v346zM961 480zM1601 519z"/>
    <glyph glyph-name="two.superior" unicode="²" horiz-adv-x="850" d="M94 782q14 108 72.5 195.5t183.5 183.5q89 69 109 90.5t30.5 41.5t10.5 42q0 53 -34 81t-91 28q-98 0 -193 -95l-78 125q21 28 66.5 55.5t103 44.5t125.5 17q130 0 207.5 -65.5t77.5 -172.5q0 -52 -17.5 -93.5t-51.5 -79t-121 -99.5q-144 -98 -158 -149h383v-150h-625z M745 1079z"/>
    <glyph glyph-name="registered" unicode="®" horiz-adv-x="1374" d="M1325 950q0 -171 -82 -315t-228.5 -227.5t-318.5 -83.5q-169 0 -313 81.5t-228.5 226.5t-84.5 318q0 172 82.5 317t228 227.5t315.5 82.5t315 -81t229.5 -226.5t84.5 -319.5zM1231 950q0 145 -71.5 269.5t-195 195t-268.5 70.5t-268.5 -70.5t-194.5 -195.5t-71 -269 q0 -145 71 -269t195 -194.5t268 -70.5q145 0 269.5 71.5t195 195t70.5 267.5zM840 602l-152 270h-82v-270h-145v701h270q112 0 178 -59.5t66 -156.5q0 -57 -21 -98t-53 -67t-65 -33l168 -287h-164zM819 1087q0 56 -32.5 81.5t-81.5 25.5h-101v-213h101q54 0 84 28.5t30 77.5 z"/>
    <glyph glyph-name="minus" unicode="−" d="M102 532v191h914v-191h-914z"/>
    <glyph glyph-name="eth" unicode="ð" horiz-adv-x="1094" d="M1034 485q0 -228 -132 -366.5t-353 -138.5q-218 0 -354 129t-136 333q0 126 57 228.5t157 159.5t219 57q76 0 145.5 -29t101.5 -70q-51 141 -204 283l-162 -113l-76 99l137 92q-24 21 -83 55.5t-95 48.5l66 136q64 -21 137.5 -56t122.5 -69l168 118l77 -98l-137 -92 q36 -27 90 -82.5t103.5 -125t80 -142t50.5 -162t20 -195.5zM778 449q0 126 -63.5 203t-167.5 77q-106 0 -169 -76.5t-63 -203.5t63 -204t169 -77t168.5 78t62.5 203z"/>
    <glyph glyph-name="multiply" unicode="×" d="M829 223l-270 273l-270 -273l-133 135l270 271l-270 270l133 133l270 -270l270 270l134 -133l-271 -270l271 -271z"/>
    <glyph glyph-name="three.superior" unicode="³" horiz-adv-x="850" d="M711 1005q0 -104 -90.5 -171.5t-221.5 -67.5q-155 0 -284 118l80 117q33 -36 89 -65t105 -29q62 0 102.5 29.5t40.5 83.5q0 50 -33.5 79t-88.5 29h-101v131h90q50 0 82.5 24t32.5 70q0 42 -35 68.5t-92 26.5q-97 0 -176 -70l-66 119q49 45 118.5 69.5t144.5 24.5 q120 0 201 -56.5t81 -150.5q0 -67 -37 -116.5t-96 -63.5q69 -15 111.5 -70t42.5 -129zM745 1087zM105 1070z"/>
    <glyph glyph-name="copyright" unicode="©" horiz-adv-x="1497" d="M1421 651q0 -186 -88 -341.5t-243 -244t-342 -88.5q-186 0 -341.5 88.5t-244 243t-88.5 342.5q0 186 88.5 341.5t243 244t342.5 88.5q185 0 340.5 -88t244 -243.5t88.5 -342.5zM1321 651q0 151 -75 284t-208.5 211.5t-289.5 78.5q-151 0 -284.5 -75.5t-211.5 -209 t-78 -289.5q0 -154 77 -287t210.5 -210.5t286.5 -77.5q157 0 290.5 79t208 212.5t74.5 283.5zM545 655q0 -112 61.5 -179.5t161.5 -67.5q59 0 111 25t86 67l79 -113q-46 -57 -124 -90t-166 -33q-101 0 -187 50.5t-135 139.5t-49 199q0 111 48.5 200t135 139t185.5 50 q95 0 173.5 -33.5t118.5 -84.5l-77 -115q-34 38 -85.5 66t-113.5 28q-102 0 -162.5 -66.5t-60.5 -181.5z"/>
    <glyph glyph-name="Aacute" unicode="Á" horiz-adv-x="1204" d="M940 0l-94 285h-508l-94 -285h-254l456 1300h308l460 -1300h-274zM592 1061l-193 -574h383zM10 547zM1194 519zM680 1413h-178l139 266h244z"/>
    <glyph glyph-name="Acircumflex" unicode="Â" horiz-adv-x="1204" d="M940 0l-94 285h-508l-94 -285h-254l456 1300h308l460 -1300h-274zM592 1061l-193 -574h383zM10 547zM1194 519zM719 1413l-121 168l-125 -168h-172l181 266h231l180 -266h-174z"/>
    <glyph glyph-name="Adieresis" unicode="Ä" horiz-adv-x="1204" d="M940 0l-94 285h-508l-94 -285h-254l456 1300h308l460 -1300h-274zM592 1061l-193 -574h383zM10 547zM1194 519zM881 1548q0 -51 -31 -85t-84 -34q-52 0 -84 34t-32 83q0 51 31 84t83 33q53 0 85 -32.5t32 -82.5zM539 1548q0 -51 -32 -85t-85 -34q-52 0 -84 34t-32 83 q0 51 32 84t84 33q53 0 85 -32.5t32 -82.5z"/>
    <glyph glyph-name="Agrave" unicode="À" horiz-adv-x="1204" d="M940 0l-94 285h-508l-94 -285h-254l456 1300h308l460 -1300h-274zM592 1061l-193 -574h383zM10 547zM1194 519zM525 1413l-205 266h241l140 -266h-176z"/>
    <glyph glyph-name="Aring" unicode="Å" horiz-adv-x="1204" d="M940 0l-94 285h-508l-94 -285h-254l456 1300h308l460 -1300h-274zM592 1061l-193 -574h383zM10 547zM1194 519zM787 1575q0 -80 -52.5 -131t-132.5 -51t-132 51.5t-52 130.5q0 80 52.5 131t131.5 51q81 0 133 -51.5t52 -130.5zM692 1575q0 38 -26 64t-64 26t-64 -26 t-26 -64t26 -64t64 -26t64 26t26 64z"/>
    <glyph glyph-name="Atilde" unicode="Ã" horiz-adv-x="1204" d="M940 0l-94 285h-508l-94 -285h-254l456 1300h308l460 -1300h-274zM592 1061l-193 -574h383zM10 547zM1194 519zM928 1649q0 -91 -57.5 -157.5t-137.5 -66.5q-79 0 -139 44q-25 17 -60 38t-61 21q-28 0 -50 -24t-30 -75l-118 15q0 92 58.5 157.5t135.5 65.5q79 0 140 -43 q16 -12 54.5 -35.5t65.5 -23.5q28 0 50 23.5t30 74.5z"/>
    <glyph glyph-name="Ccedilla" unicode="Ç" horiz-adv-x="1221" d="M1186 217q-62 -94 -165 -155t-235 -76l-122 -256h-242l176 258q-150 15 -269.5 101t-186 230t-66.5 332q0 196 82 349.5t227 237t322 83.5q103 0 195.5 -29.5t163 -82t102.5 -98.5l14 -21l-135 -170q-50 77 -136 126.5t-192 49.5q-111 0 -198 -54.5t-135 -156t-48 -230.5 q0 -199 102.5 -320.5t274.5 -121.5q100 0 189.5 47.5t148.5 130.5z"/>
    <glyph glyph-name="Eacute" unicode="É" horiz-adv-x="1081" d="M150 0v1300h835v-202h-577v-316h536v-204h-536v-369h596v-209h-854zM602 1413h-178l139 266h244z"/>
    <glyph glyph-name="Ecircumflex" unicode="Ê" horiz-adv-x="1081" d="M150 0v1300h835v-202h-577v-316h536v-204h-536v-369h596v-209h-854zM688 1413l-121 168l-125 -168h-172l181 266h231l180 -266h-174z"/>
    <glyph glyph-name="Edieresis" unicode="Ë" horiz-adv-x="1081" d="M150 0v1300h835v-202h-577v-316h536v-204h-536v-369h596v-209h-854zM854 1548q0 -51 -31 -85t-84 -34q-52 0 -84 34t-32 83q0 51 31 84t83 33q53 0 85 -32.5t32 -82.5zM512 1548q0 -51 -32 -85t-85 -34q-52 0 -84 34t-32 83q0 51 32 84t84 33q53 0 85 -32.5t32 -82.5z "/>
    <glyph glyph-name="Egrave" unicode="È" horiz-adv-x="1081" d="M150 0v1300h835v-202h-577v-316h536v-204h-536v-369h596v-209h-854zM523 1413l-205 266h241l140 -266h-176z"/>
    <glyph glyph-name="Iacute" unicode="Í" horiz-adv-x="559" d="M150 0v1300h258v-1300h-258zM329 1413h-178l139 266h244z"/>
    <glyph glyph-name="Icircumflex" unicode="Î" horiz-adv-x="559" d="M150 0v1300h258v-1300h-258zM402 1413l-121 168l-125 -168h-172l181 266h231l180 -266h-174z"/>
    <glyph glyph-name="Idieresis" unicode="Ï" horiz-adv-x="559" d="M150 0v1300h258v-1300h-258zM566 1548q0 -51 -31 -85t-84 -34q-52 0 -84 34t-32 83q0 51 31 84t83 33q53 0 85 -32.5t32 -82.5zM224 1548q0 -51 -32 -85t-85 -34q-52 0 -84 34t-32 83q0 51 32 84t84 33q53 0 85 -32.5t32 -82.5z"/>
    <glyph glyph-name="Igrave" unicode="Ì" horiz-adv-x="559" d="M150 0v1300h258v-1300h-258zM206 1413l-205 266h241l140 -266h-176z"/>
    <glyph glyph-name="Ntilde" unicode="Ñ" horiz-adv-x="1374" d="M977 0l-584 942v-942h-243v1300h276l555 -894v894h244v-1300h-248zM1014 1649q0 -91 -57.5 -157.5t-137.5 -66.5q-79 0 -139 44q-25 17 -60 38t-61 21q-28 0 -50 -24t-30 -75l-118 15q0 92 58.5 157.5t135.5 65.5q79 0 140 -43q16 -12 54.5 -35.5t65.5 -23.5 q28 0 50 23.5t30 74.5z"/>
    <glyph glyph-name="Oacute" unicode="Ó" horiz-adv-x="1425" d="M1350 651q0 -198 -79 -351.5t-224 -236.5t-334 -83q-190 0 -335.5 83.5t-223.5 237t-78 350.5q0 198 78.5 351t224 236t334.5 83t334.5 -83t224 -236t78.5 -351zM1085 653q0 202 -100 327.5t-272 125.5t-272.5 -125t-100.5 -328q0 -207 101.5 -330.5t271.5 -123.5 q171 0 271.5 124.5t100.5 329.5zM799 1413h-178l139 266h244z"/>
    <glyph glyph-name="Ocircumflex" unicode="Ô" horiz-adv-x="1425" d="M1350 651q0 -198 -79 -351.5t-224 -236.5t-334 -83q-190 0 -335.5 83.5t-223.5 237t-78 350.5q0 198 78.5 351t224 236t334.5 83t334.5 -83t224 -236t78.5 -351zM1085 653q0 202 -100 327.5t-272 125.5t-272.5 -125t-100.5 -328q0 -207 101.5 -330.5t271.5 -123.5 q171 0 271.5 124.5t100.5 329.5zM835 1413l-121 168l-125 -168h-172l181 266h231l180 -266h-174z"/>
    <glyph glyph-name="Odieresis" unicode="Ö" horiz-adv-x="1425" d="M1350 651q0 -198 -79 -351.5t-224 -236.5t-334 -83q-190 0 -335.5 83.5t-223.5 237t-78 350.5q0 198 78.5 351t224 236t334.5 83t334.5 -83t224 -236t78.5 -351zM1085 653q0 202 -100 327.5t-272 125.5t-272.5 -125t-100.5 -328q0 -207 101.5 -330.5t271.5 -123.5 q171 0 271.5 124.5t100.5 329.5zM999 1548q0 -51 -31 -85t-84 -34q-52 0 -84 34t-32 83q0 51 31 84t83 33q53 0 85 -32.5t32 -82.5zM657 1548q0 -51 -32 -85t-85 -34q-52 0 -84 34t-32 83q0 51 32 84t84 33q53 0 85 -32.5t32 -82.5z"/>
    <glyph glyph-name="Ograve" unicode="Ò" horiz-adv-x="1425" d="M1350 651q0 -198 -79 -351.5t-224 -236.5t-334 -83q-190 0 -335.5 83.5t-223.5 237t-78 350.5q0 198 78.5 351t224 236t334.5 83t334.5 -83t224 -236t78.5 -351zM1085 653q0 202 -100 327.5t-272 125.5t-272.5 -125t-100.5 -328q0 -207 101.5 -330.5t271.5 -123.5 q171 0 271.5 124.5t100.5 329.5zM627 1413l-205 266h241l140 -266h-176z"/>
    <glyph glyph-name="Otilde" unicode="Õ" horiz-adv-x="1425" d="M1350 651q0 -198 -79 -351.5t-224 -236.5t-334 -83q-190 0 -335.5 83.5t-223.5 237t-78 350.5q0 198 78.5 351t224 236t334.5 83t334.5 -83t224 -236t78.5 -351zM1085 653q0 202 -100 327.5t-272 125.5t-272.5 -125t-100.5 -328q0 -207 101.5 -330.5t271.5 -123.5 q171 0 271.5 124.5t100.5 329.5zM1038 1649q0 -91 -57.5 -157.5t-137.5 -66.5q-79 0 -139 44q-25 17 -60 38t-61 21q-28 0 -50 -24t-30 -75l-118 15q0 92 58.5 157.5t135.5 65.5q79 0 140 -43q16 -12 54.5 -35.5t65.5 -23.5q28 0 50 23.5t30 74.5z"/>
    <glyph glyph-name="Scaron" unicode="Š" horiz-adv-x="1065" d="M1001 385q0 -114 -58.5 -207t-168 -145.5t-260.5 -52.5q-133 0 -264.5 52.5t-216.5 141.5l129 182q68 -68 166.5 -113.5t185.5 -45.5q116 0 173.5 42.5t57.5 116.5q0 45 -27.5 80.5t-73.5 56t-178 69.5l-120 44q-125 48 -188.5 135t-63.5 205q0 107 55 192t159 134 t253 49q120 0 239.5 -47.5t196.5 -124.5l-110 -176q-58 58 -155 100.5t-179 42.5q-100 0 -153.5 -36.5t-53.5 -108.5q0 -49 35 -87.5t131 -74t223 -82.5q266 -98 266 -342zM76 738zM676 1413h-231l-181 266h172l123 -168l123 168h174z"/>
    <glyph glyph-name="Uacute" unicode="Ú" horiz-adv-x="1311" d="M915 1300h259v-784q0 -151 -30.5 -244t-96 -159.5t-160.5 -99.5t-232 -33q-142 0 -239.5 35.5t-162.5 109t-91.5 162.5t-26.5 227v786h258v-798q0 -96 15.5 -143.5t48.5 -81t81 -52t115 -18.5q85 0 143 30t88.5 84.5t30.5 180.5v798zM713 1413h-178l139 266h244z"/>
    <glyph glyph-name="Ucircumflex" unicode="Û" horiz-adv-x="1311" d="M915 1300h259v-784q0 -151 -30.5 -244t-96 -159.5t-160.5 -99.5t-232 -33q-142 0 -239.5 35.5t-162.5 109t-91.5 162.5t-26.5 227v786h258v-798q0 -96 15.5 -143.5t48.5 -81t81 -52t115 -18.5q85 0 143 30t88.5 84.5t30.5 180.5v798zM776 1413l-121 168l-125 -168h-172 l181 266h231l180 -266h-174z"/>
    <glyph glyph-name="Udieresis" unicode="Ü" horiz-adv-x="1311" d="M915 1300h259v-784q0 -151 -30.5 -244t-96 -159.5t-160.5 -99.5t-232 -33q-142 0 -239.5 35.5t-162.5 109t-91.5 162.5t-26.5 227v786h258v-798q0 -96 15.5 -143.5t48.5 -81t81 -52t115 -18.5q85 0 143 30t88.5 84.5t30.5 180.5v798zM942 1548q0 -51 -31 -85t-84 -34 q-52 0 -84 34t-32 83q0 51 31 84t83 33q53 0 85 -32.5t32 -82.5zM600 1548q0 -51 -32 -85t-85 -34q-52 0 -84 34t-32 83q0 51 32 84t84 33q53 0 85 -32.5t32 -82.5z"/>
    <glyph glyph-name="Ugrave" unicode="Ù" horiz-adv-x="1311" d="M915 1300h259v-784q0 -151 -30.5 -244t-96 -159.5t-160.5 -99.5t-232 -33q-142 0 -239.5 35.5t-162.5 109t-91.5 162.5t-26.5 227v786h258v-798q0 -96 15.5 -143.5t48.5 -81t81 -52t115 -18.5q85 0 143 30t88.5 84.5t30.5 180.5v798zM598 1413l-205 266h241l140 -266 h-176z"/>
    <glyph glyph-name="Yacute" unicode="Ý" horiz-adv-x="1153" d="M707 530v-530h-258v530l-449 770h285l295 -569l292 569h281zM10 445zM1143 445zM637 1413h-178l139 266h244z"/>
    <glyph glyph-name="Ydieresis" unicode="Ÿ" horiz-adv-x="1153" d="M707 530v-530h-258v530l-449 770h285l295 -569l292 569h281zM10 445zM1143 445zM868 1548q0 -51 -31 -85t-84 -34q-52 0 -84 34t-32 83q0 51 31 84t83 33q53 0 85 -32.5t32 -82.5zM526 1548q0 -51 -32 -85t-85 -34q-52 0 -84 34t-32 83q0 51 32 84t84 33q53 0 85 -32.5 t32 -82.5z"/>
    <glyph glyph-name="Zcaron" unicode="Ž" horiz-adv-x="1149" d="M59 0v178l689 920h-664v202h979v-182l-678 -909h705v-209h-1031zM690 1413h-231l-181 266h172l123 -168l123 168h174z"/>
    <glyph glyph-name="aacute" unicode="á" horiz-adv-x="1016" d="M686 0q-20 60 -20 111q-114 -131 -291 -131q-144 0 -230 79t-86 215q0 108 66 181t204 108t330 35v45q0 156 -198 156q-75 0 -154.5 -24.5t-136.5 -61.5l-68 172q68 38 171 66t208 28q139 0 236 -42.5t143.5 -123t46.5 -209.5v-389q0 -131 45 -215h-266zM659 451 q-31 0 -114 -7t-132 -24.5t-75.5 -48.5t-26.5 -78q0 -66 38.5 -102.5t111.5 -36.5q58 0 111.5 32t86.5 88v177zM557 1071h-178l139 266h244z"/>
    <glyph glyph-name="acircumflex" unicode="â" horiz-adv-x="1016" d="M686 0q-20 60 -20 111q-114 -131 -291 -131q-144 0 -230 79t-86 215q0 108 66 181t204 108t330 35v45q0 156 -198 156q-75 0 -154.5 -24.5t-136.5 -61.5l-68 172q68 38 171 66t208 28q139 0 236 -42.5t143.5 -123t46.5 -209.5v-389q0 -131 45 -215h-266zM659 451 q-31 0 -114 -7t-132 -24.5t-75.5 -48.5t-26.5 -78q0 -66 38.5 -102.5t111.5 -36.5q58 0 111.5 32t86.5 88v177zM627 1071l-121 168l-125 -168h-172l181 266h231l180 -266h-174z"/>
    <glyph glyph-name="adieresis" unicode="ä" horiz-adv-x="1016" d="M686 0q-20 60 -20 111q-114 -131 -291 -131q-144 0 -230 79t-86 215q0 108 66 181t204 108t330 35v45q0 156 -198 156q-75 0 -154.5 -24.5t-136.5 -61.5l-68 172q68 38 171 66t208 28q139 0 236 -42.5t143.5 -123t46.5 -209.5v-389q0 -131 45 -215h-266zM659 451 q-31 0 -114 -7t-132 -24.5t-75.5 -48.5t-26.5 -78q0 -66 38.5 -102.5t111.5 -36.5q58 0 111.5 32t86.5 88v177zM795 1206q0 -51 -31 -85t-84 -34q-52 0 -84 34t-32 83q0 51 31 84t83 33q53 0 85 -32.5t32 -82.5zM453 1206q0 -51 -32 -85t-85 -34q-52 0 -84 34t-32 83 q0 51 32 84t84 33q53 0 85 -32.5t32 -82.5z"/>
    <glyph glyph-name="agrave" unicode="à" horiz-adv-x="1016" d="M686 0q-20 60 -20 111q-114 -131 -291 -131q-144 0 -230 79t-86 215q0 108 66 181t204 108t330 35v45q0 156 -198 156q-75 0 -154.5 -24.5t-136.5 -61.5l-68 172q68 38 171 66t208 28q139 0 236 -42.5t143.5 -123t46.5 -209.5v-389q0 -131 45 -215h-266zM659 451 q-31 0 -114 -7t-132 -24.5t-75.5 -48.5t-26.5 -78q0 -66 38.5 -102.5t111.5 -36.5q58 0 111.5 32t86.5 88v177zM451 1071l-205 266h241l140 -266h-176z"/>
    <glyph glyph-name="aring" unicode="å" horiz-adv-x="1016" d="M686 0q-20 60 -20 111q-114 -131 -291 -131q-144 0 -230 79t-86 215q0 108 66 181t204 108t330 35v45q0 156 -198 156q-75 0 -154.5 -24.5t-136.5 -61.5l-68 172q68 38 171 66t208 28q139 0 236 -42.5t143.5 -123t46.5 -209.5v-389q0 -131 45 -215h-266zM659 451 q-31 0 -114 -7t-132 -24.5t-75.5 -48.5t-26.5 -78q0 -66 38.5 -102.5t111.5 -36.5q58 0 111.5 32t86.5 88v177zM689 1233q0 -80 -52.5 -131t-132.5 -51t-132 51.5t-52 130.5q0 80 52.5 131t131.5 51q81 0 133 -51.5t52 -130.5zM594 1233q0 38 -26 64t-64 26t-64 -26t-26 -64 t26 -64t64 -26t64 26t26 64z"/>
    <glyph glyph-name="atilde" unicode="ã" horiz-adv-x="1016" d="M686 0q-20 60 -20 111q-114 -131 -291 -131q-144 0 -230 79t-86 215q0 108 66 181t204 108t330 35v45q0 156 -198 156q-75 0 -154.5 -24.5t-136.5 -61.5l-68 172q68 38 171 66t208 28q139 0 236 -42.5t143.5 -123t46.5 -209.5v-389q0 -131 45 -215h-266zM659 451 q-31 0 -114 -7t-132 -24.5t-75.5 -48.5t-26.5 -78q0 -66 38.5 -102.5t111.5 -36.5q58 0 111.5 32t86.5 88v177zM848 1307q0 -91 -57.5 -157.5t-137.5 -66.5q-79 0 -139 44q-25 17 -60 38t-61 21q-28 0 -50 -24t-30 -75l-118 15q0 92 58.5 157.5t135.5 65.5q79 0 140 -43 q16 -12 54.5 -35.5t65.5 -23.5q28 0 50 23.5t30 74.5z"/>
    <glyph glyph-name="ccedilla" unicode="ç" horiz-adv-x="938" d="M918 133q-54 -61 -133 -99t-169 -48l-118 -250h-238l172 252q-108 19 -193 84.5t-132.5 167t-47.5 239.5q0 147 63 261t174.5 176.5t246.5 62.5q118 0 219.5 -44.5t150.5 -113.5l-114 -153q-49 51 -109.5 78.5t-120.5 27.5q-120 0 -191 -77.5t-71 -213.5 q0 -137 70.5 -215t193.5 -78q63 0 126.5 28.5t111.5 78.5z"/>
    <glyph glyph-name="eacute" unicode="é" horiz-adv-x="1024" d="M311 420q4 -118 73.5 -185t188.5 -67q78 0 160 29t127 69l86 -151q-66 -63 -172.5 -99t-232.5 -36q-219 0 -350.5 135.5t-131.5 363.5q0 227 130.5 363.5t349.5 136.5q198 0 315 -132.5t117 -348.5v-78h-660zM733 584q0 105 -54 165t-151 60q-92 0 -151.5 -61.5 t-69.5 -163.5h426zM582 1071h-178l139 266h244z"/>
    <glyph glyph-name="ecircumflex" unicode="ê" horiz-adv-x="1024" d="M311 420q4 -118 73.5 -185t188.5 -67q78 0 160 29t127 69l86 -151q-66 -63 -172.5 -99t-232.5 -36q-219 0 -350.5 135.5t-131.5 363.5q0 227 130.5 363.5t349.5 136.5q198 0 315 -132.5t117 -348.5v-78h-660zM733 584q0 105 -54 165t-151 60q-92 0 -151.5 -61.5 t-69.5 -163.5h426zM665 1071l-121 168l-125 -168h-172l181 266h231l180 -266h-174z"/>
    <glyph glyph-name="edieresis" unicode="ë" horiz-adv-x="1024" d="M311 420q4 -118 73.5 -185t188.5 -67q78 0 160 29t127 69l86 -151q-66 -63 -172.5 -99t-232.5 -36q-219 0 -350.5 135.5t-131.5 363.5q0 227 130.5 363.5t349.5 136.5q198 0 315 -132.5t117 -348.5v-78h-660zM733 584q0 105 -54 165t-151 60q-92 0 -151.5 -61.5 t-69.5 -163.5h426zM825 1206q0 -51 -31 -85t-84 -34q-52 0 -84 34t-32 83q0 51 31 84t83 33q53 0 85 -32.5t32 -82.5zM483 1206q0 -51 -32 -85t-85 -34q-52 0 -84 34t-32 83q0 51 32 84t84 33q53 0 85 -32.5t32 -82.5z"/>
    <glyph glyph-name="egrave" unicode="è" horiz-adv-x="1024" d="M311 420q4 -118 73.5 -185t188.5 -67q78 0 160 29t127 69l86 -151q-66 -63 -172.5 -99t-232.5 -36q-219 0 -350.5 135.5t-131.5 363.5q0 227 130.5 363.5t349.5 136.5q198 0 315 -132.5t117 -348.5v-78h-660zM733 584q0 105 -54 165t-151 60q-92 0 -151.5 -61.5 t-69.5 -163.5h426zM467 1071l-205 266h241l140 -266h-176z"/>
    <glyph glyph-name="iacute" unicode="í" horiz-adv-x="510" d="M129 0v961h250v-961h-250zM308 1071h-178l139 266h244z"/>
    <glyph glyph-name="icircumflex" unicode="î" horiz-adv-x="510" d="M129 0v961h250v-961h-250zM378 1071l-121 168l-125 -168h-172l181 266h231l180 -266h-174z"/>
    <glyph glyph-name="idieresis" unicode="ï" horiz-adv-x="510" d="M129 0v961h250v-961h-250zM542 1206q0 -51 -31 -85t-84 -34q-52 0 -84 34t-32 83q0 51 31 84t83 33q53 0 85 -32.5t32 -82.5zM200 1206q0 -51 -32 -85t-85 -34q-52 0 -84 34t-32 83q0 51 32 84t84 33q53 0 85 -32.5t32 -82.5z"/>
    <glyph glyph-name="igrave" unicode="ì" horiz-adv-x="510" d="M129 0v961h250v-961h-250zM206 1071l-205 266h241l140 -266h-176z"/>
    <glyph glyph-name="ntilde" unicode="ñ" horiz-adv-x="1128" d="M760 0v557q0 111 -40.5 162t-125.5 51q-77 0 -137.5 -60.5t-77.5 -146.5v-563h-250v961h233l17 -162q60 91 139 135.5t170 44.5q320 0 320 -365v-614h-248zM905 1307q0 -91 -57.5 -157.5t-137.5 -66.5q-79 0 -139 44q-25 17 -60 38t-61 21q-28 0 -50 -24t-30 -75l-118 15 q0 92 58.5 157.5t135.5 65.5q79 0 140 -43q16 -12 54.5 -35.5t65.5 -23.5q28 0 50 23.5t30 74.5z"/>
    <glyph glyph-name="oacute" unicode="ó" horiz-adv-x="1094" d="M1034 479q0 -229 -133.5 -364t-353.5 -135q-223 0 -355.5 136.5t-132.5 362.5q0 227 132.5 363.5t355.5 136.5t355 -135.5t132 -364.5zM778 479q0 143 -62 227.5t-169 84.5q-110 0 -171 -85t-61 -227q0 -145 62.5 -228t169.5 -83q106 0 168.5 84t62.5 227zM623 1071h-178 l139 266h244z"/>
    <glyph glyph-name="ocircumflex" unicode="ô" horiz-adv-x="1094" d="M1034 479q0 -229 -133.5 -364t-353.5 -135q-223 0 -355.5 136.5t-132.5 362.5q0 227 132.5 363.5t355.5 136.5t355 -135.5t132 -364.5zM778 479q0 143 -62 227.5t-169 84.5q-110 0 -171 -85t-61 -227q0 -145 62.5 -228t169.5 -83q106 0 168.5 84t62.5 227zM670 1071 l-121 168l-125 -168h-172l181 266h231l180 -266h-174z"/>
    <glyph glyph-name="odieresis" unicode="ö" horiz-adv-x="1094" d="M1034 479q0 -229 -133.5 -364t-353.5 -135q-223 0 -355.5 136.5t-132.5 362.5q0 227 132.5 363.5t355.5 136.5t355 -135.5t132 -364.5zM778 479q0 143 -62 227.5t-169 84.5q-110 0 -171 -85t-61 -227q0 -145 62.5 -228t169.5 -83q106 0 168.5 84t62.5 227zM834 1206 q0 -51 -31 -85t-84 -34q-52 0 -84 34t-32 83q0 51 31 84t83 33q53 0 85 -32.5t32 -82.5zM492 1206q0 -51 -32 -85t-85 -34q-52 0 -84 34t-32 83q0 51 32 84t84 33q53 0 85 -32.5t32 -82.5z"/>
    <glyph glyph-name="ograve" unicode="ò" horiz-adv-x="1094" d="M1034 479q0 -229 -133.5 -364t-353.5 -135q-223 0 -355.5 136.5t-132.5 362.5q0 227 132.5 363.5t355.5 136.5t355 -135.5t132 -364.5zM778 479q0 143 -62 227.5t-169 84.5q-110 0 -171 -85t-61 -227q0 -145 62.5 -228t169.5 -83q106 0 168.5 84t62.5 227zM471 1071 l-205 266h241l140 -266h-176z"/>
    <glyph glyph-name="otilde" unicode="õ" horiz-adv-x="1094" d="M1034 479q0 -229 -133.5 -364t-353.5 -135q-223 0 -355.5 136.5t-132.5 362.5q0 227 132.5 363.5t355.5 136.5t355 -135.5t132 -364.5zM778 479q0 143 -62 227.5t-169 84.5q-110 0 -171 -85t-61 -227q0 -145 62.5 -228t169.5 -83q106 0 168.5 84t62.5 227zM877 1307 q0 -91 -57.5 -157.5t-137.5 -66.5q-79 0 -139 44q-25 17 -60 38t-61 21q-28 0 -50 -24t-30 -75l-118 15q0 92 58.5 157.5t135.5 65.5q79 0 140 -43q16 -12 54.5 -35.5t65.5 -23.5q28 0 50 23.5t30 74.5z"/>
    <glyph glyph-name="scaron" unicode="š" horiz-adv-x="891" d="M840 297q0 -134 -103.5 -225.5t-306.5 -91.5q-108 0 -222 47.5t-177 115.5l123 154q47 -51 131.5 -89t154.5 -38q154 0 154 90q0 34 -31.5 57t-122.5 52l-77 24q-154 47 -218.5 114t-64.5 173q0 135 104.5 218t280.5 83q100 0 199 -35.5t167 -93.5l-96 -158 q-58 47 -130 75t-134 28q-149 0 -149 -86q0 -34 26.5 -54.5t122.5 -52.5q151 -45 207 -73t92.5 -63t53 -77.5t16.5 -93.5zM580 1071h-231l-181 266h172l123 -168l123 168h174z"/>
    <glyph glyph-name="uacute" unicode="ú" d="M754 0l-15 162q-56 -88 -132 -135t-167 -47q-321 0 -321 364v617h250v-566q0 -97 36.5 -151t126.5 -54q76 0 134 59t71 144v568h250v-961h-233zM629 1071h-178l139 266h244z"/>
    <glyph glyph-name="ucircumflex" unicode="û" d="M754 0l-15 162q-56 -88 -132 -135t-167 -47q-321 0 -321 364v617h250v-566q0 -97 36.5 -151t126.5 -54q76 0 134 59t71 144v568h250v-961h-233zM676 1071l-121 168l-125 -168h-172l181 266h231l180 -266h-174z"/>
    <glyph glyph-name="udieresis" unicode="ü" d="M754 0l-15 162q-56 -88 -132 -135t-167 -47q-321 0 -321 364v617h250v-566q0 -97 36.5 -151t126.5 -54q76 0 134 59t71 144v568h250v-961h-233zM840 1206q0 -51 -31 -85t-84 -34q-52 0 -84 34t-32 83q0 51 31 84t83 33q53 0 85 -32.5t32 -82.5zM498 1206q0 -51 -32 -85 t-85 -34q-52 0 -84 34t-32 83q0 51 32 84t84 33q53 0 85 -32.5t32 -82.5z"/>
    <glyph glyph-name="ugrave" unicode="ù" d="M754 0l-15 162q-56 -88 -132 -135t-167 -47q-321 0 -321 364v617h250v-566q0 -97 36.5 -151t126.5 -54q76 0 134 59t71 144v568h250v-961h-233zM482 1071l-205 266h241l140 -266h-176z"/>
    <glyph glyph-name="yacute" unicode="ý" horiz-adv-x="1014" d="M307 -356q-131 0 -225 47l53 184q23 -12 54 -20.5t55 -8.5q41 0 62 18.5t40 67.5l33 88l-365 941h269l231 -715l231 715h263l-406 -1053q-57 -146 -122.5 -205t-172.5 -59zM578 1071h-178l139 266h244z"/>
    <glyph glyph-name="ydieresis" unicode="ÿ" horiz-adv-x="1014" d="M307 -356q-131 0 -225 47l53 184q23 -12 54 -20.5t55 -8.5q41 0 62 18.5t40 67.5l33 88l-365 941h269l231 -715l231 715h263l-406 -1053q-57 -146 -122.5 -205t-172.5 -59zM803 1206q0 -51 -31 -85t-84 -34q-52 0 -84 34t-32 83q0 51 31 84t83 33q53 0 85 -32.5t32 -82.5 zM461 1206q0 -51 -32 -85t-85 -34q-52 0 -84 34t-32 83q0 51 32 84t84 33q53 0 85 -32.5t32 -82.5z"/>
    <glyph glyph-name="zcaron" unicode="ž" horiz-adv-x="899" d="M35 0v154l512 622h-492v185h789v-156l-502 -612h522v-193h-829zM565 1071h-231l-181 266h172l123 -168l123 168h174z"/>
    <glyph glyph-name="f_f" unicode="ﬀ" horiz-adv-x="1229" d="M655 1157l-16 5q-52 18 -100 18q-68 0 -99.5 -34t-31.5 -130v-55h366v94q0 102 40 166t111.5 99.5t170.5 35.5q105 0 204 -37l-30 -162l-16 5q-52 18 -101 18q-45 0 -74.5 -16t-43 -47t-13.5 -101v-55h229v-183h-227v-778h-250v778h-364v-778h-250v778h-127v183h127v94 q0 102 40 166t111.5 99.5t169.5 35.5q106 0 205 -37z"/>
    <glyph glyph-name="f_f_i" unicode="ﬃ" horiz-adv-x="1739" d="M655 1157l-16 5q-52 18 -100 18q-68 0 -99.5 -34t-31.5 -130v-55h366v94q0 102 40 166t111.5 99.5t170.5 35.5q105 0 204 -37l-30 -162l-16 5q-52 18 -101 18q-45 0 -74.5 -16t-43 -47t-13.5 -101v-55h229v-183h-227v-778h-250v778h-364v-778h-250v778h-127v183h127v94 q0 102 40 166t111.5 99.5t169.5 35.5q106 0 205 -37zM1630 1243q0 -61 -40 -100t-105 -39t-106.5 39t-41.5 100q0 59 40.5 100t105.5 41q64 0 105.5 -39.5t41.5 -101.5zM1360 0v961h248v-961h-248z"/>
    <glyph glyph-name="f_f_l" unicode="ﬄ" horiz-adv-x="1739" d="M655 1157l-16 5q-52 18 -100 18q-68 0 -99.5 -34t-31.5 -130v-55h366v94q0 102 40 166t111.5 99.5t170.5 35.5q105 0 204 -37l-30 -162l-16 5q-52 18 -101 18q-45 0 -74.5 -16t-43 -47t-13.5 -101v-55h229v-183h-227v-778h-250v778h-364v-778h-250v778h-127v183h127v94 q0 102 40 166t111.5 99.5t169.5 35.5q106 0 205 -37zM1358 0v1341h250v-1341h-250z"/>
    <glyph glyph-name="oneeighth" unicode="⅛" horiz-adv-x="1698" d="M224 518v584q-29 -20 -72 -35t-75 -21l-39 136q17 0 76.5 24.5t100.5 55.5t56 57h150v-801h-197zM438 -25l-113 70l779 1305l112 -70zM1577 213q0 -106 -81.5 -167.5t-225.5 -61.5q-150 0 -231.5 59t-81.5 162q0 70 41 122t116 74q-73 33 -102 79.5t-29 109.5 q0 97 78.5 153t206.5 56t204.5 -57t76.5 -152q0 -62 -37 -107t-101 -61q166 -55 166 -209zM1374 584q0 43 -30.5 65.5t-75.5 22.5q-46 0 -77.5 -21t-31.5 -63q0 -38 24 -60.5t52 -31.5l49 -19q46 19 68 42t22 65zM1397 223q0 33 -20 56.5t-70 42.5l-66 22l-28 -10 q-76 -30 -76 -111q0 -49 36.5 -76.5t90.5 -27.5q60 0 96.5 26.5t36.5 77.5z"/>
    <glyph glyph-name="threeeighths" unicode="⅜" horiz-adv-x="1698" d="M644 741q0 -104 -90.5 -171.5t-221.5 -67.5q-155 0 -284 118l80 117q33 -36 89 -65t105 -29q62 0 102.5 29.5t40.5 83.5q0 50 -33.5 79t-88.5 29h-101v131h90q50 0 82.5 24t32.5 70q0 42 -35 68.5t-92 26.5q-97 0 -176 -70l-66 119q49 45 118.5 69.5t144.5 24.5 q120 0 201 -56.5t81 -150.5q0 -67 -37 -116.5t-96 -63.5q69 -15 111.5 -70t42.5 -129zM678 823zM38 806zM500 -25l-113 70l779 1305l112 -70zM1628 213q0 -106 -81.5 -167.5t-225.5 -61.5q-150 0 -231.5 59t-81.5 162q0 70 41 122t116 74q-73 33 -102 79.5t-29 109.5 q0 97 78.5 153t206.5 56t204.5 -57t76.5 -152q0 -62 -37 -107t-101 -61q166 -55 166 -209zM1425 584q0 43 -30.5 65.5t-75.5 22.5q-46 0 -77.5 -21t-31.5 -63q0 -38 24 -60.5t52 -31.5l49 -19q46 19 68 42t22 65zM1448 223q0 33 -20 56.5t-70 42.5l-66 22l-28 -10 q-76 -30 -76 -111q0 -49 36.5 -76.5t90.5 -27.5q60 0 96.5 26.5t36.5 77.5z"/>
    <glyph glyph-name="fiveeighths" unicode="⅝" horiz-adv-x="1698" d="M659 772q0 -122 -85 -196t-218 -74q-171 0 -293 108l78 127q34 -37 88.5 -64.5t105.5 -27.5q65 0 106.5 31t41.5 96q0 56 -37.5 89.5t-102.5 33.5q-84 0 -122 -41l-121 41l73 405h465v-143h-331l-33 -156q54 27 133 27q69 0 127.5 -32t91.5 -90t33 -134zM45 1026z M685 965zM512 -25l-113 70l779 1305l112 -70zM1636 213q0 -106 -81.5 -167.5t-225.5 -61.5q-150 0 -231.5 59t-81.5 162q0 70 41 122t116 74q-73 33 -102 79.5t-29 109.5q0 97 78.5 153t206.5 56t204.5 -57t76.5 -152q0 -62 -37 -107t-101 -61q166 -55 166 -209zM1433 584 q0 43 -30.5 65.5t-75.5 22.5q-46 0 -77.5 -21t-31.5 -63q0 -38 24 -60.5t52 -31.5l49 -19q46 19 68 42t22 65zM1456 223q0 33 -20 56.5t-70 42.5l-66 22l-28 -10q-76 -30 -76 -111q0 -49 36.5 -76.5t90.5 -27.5q60 0 96.5 26.5t36.5 77.5z"/>
    <glyph glyph-name="seveneighths" unicode="⅞" horiz-adv-x="1698" d="M384 518h-192l334 629h-392v153h576v-135zM96 953zM736 908zM416 -25l-113 70l779 1305l112 -70zM1575 213q0 -106 -81.5 -167.5t-225.5 -61.5q-150 0 -231.5 59t-81.5 162q0 70 41 122t116 74q-73 33 -102 79.5t-29 109.5q0 97 78.5 153t206.5 56t204.5 -57t76.5 -152 q0 -62 -37 -107t-101 -61q166 -55 166 -209zM1372 584q0 43 -30.5 65.5t-75.5 22.5q-46 0 -77.5 -21t-31.5 -63q0 -38 24 -60.5t52 -31.5l49 -19q46 19 68 42t22 65zM1395 223q0 33 -20 56.5t-70 42.5l-66 22l-28 -10q-76 -30 -76 -111q0 -49 36.5 -76.5t90.5 -27.5 q60 0 96.5 26.5t36.5 77.5z"/>
    <glyph glyph-name="onethird" unicode="⅓" horiz-adv-x="1698" d="M285 518v584q-29 -20 -72 -35t-75 -21l-39 136q17 0 76.5 24.5t100.5 55.5t56 57h150v-801h-197zM459 -25l-113 70l779 1305l112 -70zM1596 223q0 -104 -90.5 -171.5t-221.5 -67.5q-155 0 -284 118l80 117q33 -36 89 -65t105 -29q62 0 102.5 29.5t40.5 83.5 q0 50 -33.5 79t-88.5 29h-101v131h90q50 0 82.5 24t32.5 70q0 42 -35 68.5t-92 26.5q-97 0 -176 -70l-66 119q49 45 118.5 69.5t144.5 24.5q120 0 201 -56.5t81 -150.5q0 -67 -37 -116.5t-96 -63.5q69 -15 111.5 -70t42.5 -129zM1630 305zM990 288z"/>
    <glyph glyph-name="twothirds" unicode="⅔" horiz-adv-x="1698" d="M42 518q14 108 72.5 195.5t183.5 183.5q89 69 109 90.5t30.5 41.5t10.5 42q0 53 -34 81t-91 28q-98 0 -193 -95l-78 125q21 28 66.5 55.5t103 44.5t125.5 17q130 0 207.5 -65.5t77.5 -172.5q0 -52 -17.5 -93.5t-51.5 -79t-121 -99.5q-144 -98 -158 -149h383v-150h-625z M693 815zM567 -25l-113 70l779 1305l112 -70zM1657 223q0 -104 -90.5 -171.5t-221.5 -67.5q-155 0 -284 118l80 117q33 -36 89 -65t105 -29q62 0 102.5 29.5t40.5 83.5q0 50 -33.5 79t-88.5 29h-101v131h90q50 0 82.5 24t32.5 70q0 42 -35 68.5t-92 26.5q-97 0 -176 -70 l-66 119q49 45 118.5 69.5t144.5 24.5q120 0 201 -56.5t81 -150.5q0 -67 -37 -116.5t-96 -63.5q69 -15 111.5 -70t42.5 -129zM1691 305zM1051 288z"/>
    <glyph glyph-name="zero.superior" unicode="⁰" horiz-adv-x="850" d="M745 1173q0 -184 -88 -295.5t-231 -111.5q-146 0 -234 113.5t-88 293.5q0 182 88.5 295t231.5 113q145 0 233 -112t88 -296zM561 1173q0 127 -35.5 192.5t-99.5 65.5q-66 0 -101.5 -65t-35.5 -191q0 -125 35 -191.5t100 -66.5q66 0 101.5 65t35.5 191z"/>
    <glyph glyph-name="four.superior" unicode="⁴" horiz-adv-x="850" d="M651 923v-141h-180v141h-385v140l348 501h217v-499h105v-142h-105zM471 1411l-225 -346h225v346zM105 1262zM745 1301z"/>
    <glyph glyph-name="five.superior" unicode="⁵" horiz-adv-x="850" d="M719 1036q0 -122 -85 -196t-218 -74q-171 0 -293 108l78 127q34 -37 88.5 -64.5t105.5 -27.5q65 0 106.5 31t41.5 96q0 56 -37.5 89.5t-102.5 33.5q-84 0 -122 -41l-121 41l73 405h465v-143h-331l-33 -156q54 27 133 27q69 0 127.5 -32t91.5 -90t33 -134zM105 1290z M745 1229z"/>
    <glyph glyph-name="six.superior" unicode="⁶" horiz-adv-x="850" d="M745 1036q0 -120 -84 -195t-219 -75q-149 0 -235 107t-86 302q0 183 97.5 294.5t254.5 111.5q58 0 100.5 -11t71.5 -25.5t45 -28t21 -17.5l-66 -117q-21 21 -70 39t-96 18q-91 0 -135.5 -60.5t-44.5 -174.5q30 30 57.5 44.5t64.5 25t81 10.5q103 0 173 -69.5t70 -178.5z M567 1034q0 59 -32.5 94t-94.5 35q-32 0 -58.5 -13.5t-48 -34.5t-30.5 -38q0 -77 35 -124.5t100 -47.5t97 35t32 94z"/>
    <glyph glyph-name="seven.superior" unicode="⁷" horiz-adv-x="850" d="M393 782h-192l334 629h-392v153h576v-135zM105 1217zM745 1172z"/>
    <glyph glyph-name="eight.superior" unicode="⁸" horiz-adv-x="850" d="M735 995q0 -106 -81.5 -167.5t-225.5 -61.5q-150 0 -231.5 59t-81.5 162q0 70 41 122t116 74q-73 33 -102 79.5t-29 109.5q0 97 78.5 153t206.5 56t204.5 -57t76.5 -152q0 -62 -37 -107t-101 -61q166 -55 166 -209zM532 1366q0 43 -30.5 65.5t-75.5 22.5q-46 0 -77.5 -21 t-31.5 -63q0 -38 24 -60.5t52 -31.5l49 -19q46 19 68 42t22 65zM555 1005q0 33 -20 56.5t-70 42.5l-66 22l-28 -10q-76 -30 -76 -111q0 -49 36.5 -76.5t90.5 -27.5q60 0 96.5 26.5t36.5 77.5z"/>
    <glyph glyph-name="nine.superior" unicode="⁹" horiz-adv-x="850" d="M727 1175q0 -129 -43.5 -221t-121.5 -140t-183 -48q-77 0 -142.5 23.5t-103.5 66.5l70 116q11 -20 63.5 -43.5t104.5 -23.5q86 0 132 61.5t46 175.5q-73 -81 -197 -81q-63 0 -119 31t-90 87t-34 135q0 120 83 193.5t218 73.5q154 0 235.5 -105.5t81.5 -300.5zM547 1274 q0 76 -37 126t-100 50q-58 0 -91.5 -33.5t-33.5 -95.5q0 -56 31.5 -90.5t93.5 -34.5q32 0 56 10t40.5 23t26 26t14.5 19z"/>
    <glyph glyph-name="zero.inferior" unicode="₀" horiz-adv-x="850" d="M745 146q0 -184 -88 -295.5t-231 -111.5q-146 0 -234 113.5t-88 293.5q0 182 88.5 295t231.5 113q145 0 233 -112t88 -296zM561 146q0 127 -35.5 192.5t-99.5 65.5q-66 0 -101.5 -65t-35.5 -191q0 -125 35 -191.5t100 -66.5q66 0 101.5 65t35.5 191z"/>
    <glyph glyph-name="one.inferior" unicode="₁" horiz-adv-x="850" d="M350 -245v584q-29 -20 -72 -35t-75 -21l-39 136q17 0 76.5 24.5t100.5 55.5t56 57h150v-801h-197z"/>
    <glyph glyph-name="two.inferior" unicode="₂" horiz-adv-x="850" d="M94 -245q14 108 72.5 195.5t183.5 183.5q89 69 109 90.5t30.5 41.5t10.5 42q0 53 -34 81t-91 28q-98 0 -193 -95l-78 125q21 28 66.5 55.5t103 44.5t125.5 17q130 0 207.5 -65.5t77.5 -172.5q0 -52 -17.5 -93.5t-51.5 -79t-121 -99.5q-144 -98 -158 -149h383v-150h-625z M745 52z"/>
    <glyph glyph-name="three.inferior" unicode="₃" horiz-adv-x="850" d="M711 -22q0 -104 -90.5 -171.5t-221.5 -67.5q-155 0 -284 118l80 117q33 -36 89 -65t105 -29q62 0 102.5 29.5t40.5 83.5q0 50 -33.5 79t-88.5 29h-101v131h90q50 0 82.5 24t32.5 70q0 42 -35 68.5t-92 26.5q-97 0 -176 -70l-66 119q49 45 118.5 69.5t144.5 24.5 q120 0 201 -56.5t81 -150.5q0 -67 -37 -116.5t-96 -63.5q69 -15 111.5 -70t42.5 -129zM745 60zM105 43z"/>
    <glyph glyph-name="four.inferior" unicode="₄" horiz-adv-x="850" d="M651 -104v-141h-180v141h-385v140l348 501h217v-499h105v-142h-105zM471 384l-225 -346h225v346zM105 235zM745 274z"/>
    <glyph glyph-name="five.inferior" unicode="₅" horiz-adv-x="850" d="M719 9q0 -122 -85 -196t-218 -74q-171 0 -293 108l78 127q34 -37 88.5 -64.5t105.5 -27.5q65 0 106.5 31t41.5 96q0 56 -37.5 89.5t-102.5 33.5q-84 0 -122 -41l-121 41l73 405h465v-143h-331l-33 -156q54 27 133 27q69 0 127.5 -32t91.5 -90t33 -134zM105 263zM745 202z "/>
    <glyph glyph-name="six.inferior" unicode="₆" horiz-adv-x="850" d="M745 9q0 -120 -84 -195t-219 -75q-149 0 -235 107t-86 302q0 183 97.5 294.5t254.5 111.5q58 0 100.5 -11t71.5 -25.5t45 -28t21 -17.5l-66 -117q-21 21 -70 39t-96 18q-91 0 -135.5 -60.5t-44.5 -174.5q30 30 57.5 44.5t64.5 25t81 10.5q103 0 173 -69.5t70 -178.5z M567 7q0 59 -32.5 94t-94.5 35q-32 0 -58.5 -13.5t-48 -34.5t-30.5 -38q0 -77 35 -124.5t100 -47.5t97 35t32 94z"/>
    <glyph glyph-name="seven.inferior" unicode="₇" horiz-adv-x="850" d="M393 -245h-192l334 629h-392v153h576v-135zM105 190zM745 145z"/>
    <glyph glyph-name="eight.inferior" unicode="₈" horiz-adv-x="850" d="M735 -32q0 -106 -81.5 -167.5t-225.5 -61.5q-150 0 -231.5 59t-81.5 162q0 70 41 122t116 74q-73 33 -102 79.5t-29 109.5q0 97 78.5 153t206.5 56t204.5 -57t76.5 -152q0 -62 -37 -107t-101 -61q166 -55 166 -209zM532 339q0 43 -30.5 65.5t-75.5 22.5q-46 0 -77.5 -21 t-31.5 -63q0 -38 24 -60.5t52 -31.5l49 -19q46 19 68 42t22 65zM555 -22q0 33 -20 56.5t-70 42.5l-66 22l-28 -10q-76 -30 -76 -111q0 -49 36.5 -76.5t90.5 -27.5q60 0 96.5 26.5t36.5 77.5z"/>
    <glyph glyph-name="nine.inferior" unicode="₉" horiz-adv-x="850" d="M727 148q0 -129 -43.5 -221t-121.5 -140t-183 -48q-77 0 -142.5 23.5t-103.5 66.5l70 116q11 -20 63.5 -43.5t104.5 -23.5q86 0 132 61.5t46 175.5q-73 -81 -197 -81q-63 0 -119 31t-90 87t-34 135q0 120 83 193.5t218 73.5q154 0 235.5 -105.5t81.5 -300.5zM547 247 q0 76 -37 126t-100 50q-58 0 -91.5 -33.5t-33.5 -95.5q0 -56 31.5 -90.5t93.5 -34.5q32 0 56 10t40.5 23t26 26t14.5 19z"/>
    <glyph glyph-name="commaaccent" horiz-adv-x="559" d="M453 -94q-29 -200 -193 -318l-149 66q104 104 120 258z"/>
    <glyph glyph-name="Abreve" unicode="Ă" horiz-adv-x="1204" d="M940 0l-94 285h-508l-94 -285h-254l456 1300h308l460 -1300h-274zM592 1061l-193 -574h383zM10 547zM1194 519zM897 1665q-28 -127 -104.5 -190.5t-188.5 -63.5t-189.5 62.5t-105.5 189.5l129 25q16 -67 59.5 -103.5t104.5 -36.5t104 36.5t60 103.5z"/>
    <glyph glyph-name="Amacron" unicode="Ā" horiz-adv-x="1204" d="M940 0l-94 285h-508l-94 -285h-254l456 1300h308l460 -1300h-274zM592 1061l-193 -574h383zM10 547zM1194 519zM301 1479v135h604v-135h-604z"/>
    <glyph glyph-name="Aogonek" unicode="Ą" horiz-adv-x="1204" d="M1202 -297q-88 -88 -205 -88q-96 0 -153.5 52.5t-57.5 142.5q0 127 144 221l-84 254h-508l-94 -285h-254l456 1300h308l460 -1300h-178q-92 -78 -92 -158q0 -45 25 -69.5t71 -24.5q65 0 117 37zM592 1061l-193 -574h383zM10 755zM1194 792z"/>
    <glyph glyph-name="AEacute" unicode="Ǽ" horiz-adv-x="1726" d="M838 0v332h-455l-180 -332h-285l739 1300h973v-202h-536v-316h495v-204h-495v-369h555v-209h-811zM838 1102h-43l-314 -572h357v572zM993 1413h-178l139 266h244z"/>
    <glyph glyph-name="Cacute" unicode="Ć" horiz-adv-x="1221" d="M1047 920q-50 77 -136 126.5t-192 49.5q-111 0 -198 -54.5t-135 -156t-48 -230.5q0 -199 102.5 -320.5t274.5 -121.5q100 0 189.5 47.5t148.5 130.5l133 -174q-71 -107 -198 -172t-292 -65q-182 0 -323.5 82t-219 235t-77.5 354q0 196 82 349.5t227 237t322 83.5 q103 0 195.5 -29.5t163 -82t102.5 -98.5l14 -21zM746 1413h-178l139 266h244z"/>
    <glyph glyph-name="Ccaron" unicode="Č" horiz-adv-x="1221" d="M1047 920q-50 77 -136 126.5t-192 49.5q-111 0 -198 -54.5t-135 -156t-48 -230.5q0 -199 102.5 -320.5t274.5 -121.5q100 0 189.5 47.5t148.5 130.5l133 -174q-71 -107 -198 -172t-292 -65q-182 0 -323.5 82t-219 235t-77.5 354q0 196 82 349.5t227 237t322 83.5 q103 0 195.5 -29.5t163 -82t102.5 -98.5l14 -21zM813 1413h-231l-181 266h172l123 -168l123 168h174z"/>
    <glyph glyph-name="Ccircumflex" unicode="Ĉ" horiz-adv-x="1221" d="M1047 920q-50 77 -136 126.5t-192 49.5q-111 0 -198 -54.5t-135 -156t-48 -230.5q0 -199 102.5 -320.5t274.5 -121.5q100 0 189.5 47.5t148.5 130.5l133 -174q-71 -107 -198 -172t-292 -65q-182 0 -323.5 82t-219 235t-77.5 354q0 196 82 349.5t227 237t322 83.5 q103 0 195.5 -29.5t163 -82t102.5 -98.5l14 -21zM819 1413l-121 168l-125 -168h-172l181 266h231l180 -266h-174z"/>
    <glyph glyph-name="Cdotaccent" unicode="Ċ" horiz-adv-x="1221" d="M1047 920q-50 77 -136 126.5t-192 49.5q-111 0 -198 -54.5t-135 -156t-48 -230.5q0 -199 102.5 -320.5t274.5 -121.5q100 0 189.5 47.5t148.5 130.5l133 -174q-71 -107 -198 -172t-292 -65q-182 0 -323.5 82t-219 235t-77.5 354q0 196 82 349.5t227 237t322 83.5 q103 0 195.5 -29.5t163 -82t102.5 -98.5l14 -21zM821 1546q0 -52 -34.5 -88.5t-90.5 -36.5q-53 0 -88 35.5t-35 89.5t34.5 88.5t88.5 34.5q56 0 90.5 -35.5t34.5 -87.5z"/>
    <glyph glyph-name="Dcaron" unicode="Ď" horiz-adv-x="1341" d="M1266 651q0 -289 -175.5 -470t-490.5 -181h-450v1300h448q323 0 495.5 -183t172.5 -466zM1001 653q0 133 -46 233t-134.5 156t-226.5 56h-186v-891h186q195 0 301 118.5t106 327.5zM766 1413h-231l-181 266h172l123 -168l123 168h174z"/>
    <glyph glyph-name="Dcroat" unicode="Đ" horiz-adv-x="1341" d="M1266 651q0 -289 -175.5 -470t-490.5 -181h-450v580h-107v176h107v544h448q323 0 495.5 -183t172.5 -466zM1001 653q0 133 -46 233t-134.5 156t-226.5 56h-186v-342h247v-176h-247v-373h186q195 0 301 118.5t106 327.5z"/>
    <glyph glyph-name="Ebreve" unicode="Ĕ" horiz-adv-x="1081" d="M150 0v1300h835v-202h-577v-316h536v-204h-536v-369h596v-209h-854zM878 1665q-28 -127 -104.5 -190.5t-188.5 -63.5t-189.5 62.5t-105.5 189.5l129 25q16 -67 59.5 -103.5t104.5 -36.5t104 36.5t60 103.5z"/>
    <glyph glyph-name="Ecaron" unicode="Ě" horiz-adv-x="1081" d="M150 0v1300h835v-202h-577v-316h536v-204h-536v-369h596v-209h-854zM700 1413h-231l-181 266h172l123 -168l123 168h174z"/>
    <glyph glyph-name="Edotaccent" unicode="Ė" horiz-adv-x="1081" d="M150 0v1300h835v-202h-577v-316h536v-204h-536v-369h596v-209h-854zM708 1546q0 -52 -34.5 -88.5t-90.5 -36.5q-53 0 -88 35.5t-35 89.5t34.5 88.5t88.5 34.5q56 0 90.5 -35.5t34.5 -87.5z"/>
    <glyph glyph-name="Emacron" unicode="Ē" horiz-adv-x="1081" d="M150 0v1300h835v-202h-577v-316h536v-204h-536v-369h596v-209h-854zM282 1479v135h604v-135h-604z"/>
    <glyph glyph-name="Eng" unicode="Ŋ" horiz-adv-x="1374" d="M1225 0q0 -111 -43 -191t-119 -122.5t-186 -42.5q-115 0 -189 37l35 182q43 -23 117 -23q134 0 141 152l-588 950v-942h-243v1300h276l555 -894v894h244v-1300z"/>
    <glyph glyph-name="Eogonek" unicode="Ę" horiz-adv-x="1081" d="M993 -291q-43 -43 -106 -68.5t-123 -25.5q-98 0 -156.5 52t-58.5 143q0 56 30.5 109t73.5 81h-503v1300h835v-202h-577v-316h536v-204h-536v-369h596v-209h-209q-37 -28 -62.5 -71t-25.5 -83q0 -48 27 -73t75 -25q43 0 81 14t58 29z"/>
    <glyph glyph-name="Gbreve" unicode="Ğ" horiz-adv-x="1362" d="M1073 0l-24 133q-54 -70 -159.5 -111.5t-234.5 -41.5q-164 0 -298 85t-207.5 238.5t-73.5 351.5q0 195 82 347t227.5 235.5t321.5 83.5q54 0 101 -6.5t98.5 -22.5t99.5 -40.5t95 -61.5t95 -98l-152 -156l-34 40q-47 53 -125.5 89.5t-169.5 36.5q-109 0 -195 -55 t-134 -157.5t-48 -236.5q0 -208 100.5 -328t270.5 -120q97 0 174 32t116 87v186h-270v195h516v-705h-172zM1001 1665q-28 -127 -104.5 -190.5t-188.5 -63.5t-189.5 62.5t-105.5 189.5l129 25q16 -67 59.5 -103.5t104.5 -36.5t104 36.5t60 103.5z"/>
    <glyph glyph-name="Gcircumflex" unicode="Ĝ" horiz-adv-x="1362" d="M1073 0l-24 133q-54 -70 -159.5 -111.5t-234.5 -41.5q-164 0 -298 85t-207.5 238.5t-73.5 351.5q0 195 82 347t227.5 235.5t321.5 83.5q54 0 101 -6.5t98.5 -22.5t99.5 -40.5t95 -61.5t95 -98l-152 -156l-34 40q-47 53 -125.5 89.5t-169.5 36.5q-109 0 -195 -55 t-134 -157.5t-48 -236.5q0 -208 100.5 -328t270.5 -120q97 0 174 32t116 87v186h-270v195h516v-705h-172zM829 1413l-121 168l-125 -168h-172l181 266h231l180 -266h-174z"/>
    <glyph glyph-name="Gcommaaccent" unicode="Ģ" horiz-adv-x="1362" d="M1073 0l-24 133q-54 -70 -159.5 -111.5t-234.5 -41.5q-164 0 -298 85t-207.5 238.5t-73.5 351.5q0 195 82 347t227.5 235.5t321.5 83.5q54 0 101 -6.5t98.5 -22.5t99.5 -40.5t95 -61.5t95 -98l-152 -156l-34 40q-47 53 -125.5 89.5t-169.5 36.5q-109 0 -195 -55 t-134 -157.5t-48 -236.5q0 -208 100.5 -328t270.5 -120q97 0 174 32t116 87v186h-270v195h516v-705h-172zM832 -94q-29 -200 -193 -318l-149 66q104 104 120 258z"/>
    <glyph glyph-name="Gdotaccent" unicode="Ġ" horiz-adv-x="1362" d="M1073 0l-24 133q-54 -70 -159.5 -111.5t-234.5 -41.5q-164 0 -298 85t-207.5 238.5t-73.5 351.5q0 195 82 347t227.5 235.5t321.5 83.5q54 0 101 -6.5t98.5 -22.5t99.5 -40.5t95 -61.5t95 -98l-152 -156l-34 40q-47 53 -125.5 89.5t-169.5 36.5q-109 0 -195 -55 t-134 -157.5t-48 -236.5q0 -208 100.5 -328t270.5 -120q97 0 174 32t116 87v186h-270v195h516v-705h-172zM831 1546q0 -52 -34.5 -88.5t-90.5 -36.5q-53 0 -88 35.5t-35 89.5t34.5 88.5t88.5 34.5q56 0 90.5 -35.5t34.5 -87.5z"/>
    <glyph glyph-name="Hbar" unicode="Ħ" horiz-adv-x="1384" d="M977 0v551h-569v-551h-258v946h-138v172h138v182h258v-182h569v182h258v-182h139v-172h-139v-946h-258zM977 758v188h-569v-188h569z"/>
    <glyph glyph-name="Hcircumflex" unicode="Ĥ" horiz-adv-x="1384" d="M977 0v578h-569v-578h-258v1300h258v-516h569v516h258v-1300h-258zM815 1413l-121 168l-125 -168h-172l181 266h231l180 -266h-174z"/>
    <glyph glyph-name="Ibreve" unicode="Ĭ" horiz-adv-x="559" d="M150 0v1300h258v-1300h-258zM574 1665q-28 -127 -104.5 -190.5t-188.5 -63.5t-189.5 62.5t-105.5 189.5l129 25q16 -67 59.5 -103.5t104.5 -36.5t104 36.5t60 103.5z"/>
    <glyph glyph-name="IJ" unicode="Ĳ" horiz-adv-x="1184" d="M150 0v1300h258v-1300h-258zM1034 233q0 -124 -42.5 -205.5t-118 -124.5t-187.5 -43q-114 0 -188 37l34 182q46 -23 117 -23q54 0 90.5 38.5t36.5 125.5v1080h258v-1067z"/>
    <glyph glyph-name="Imacron" unicode="Ī" horiz-adv-x="559" d="M150 0v1300h258v-1300h-258zM-22 1479v135h604v-135h-604z"/>
    <glyph glyph-name="Iogonek" unicode="Į" horiz-adv-x="559" d="M489 -291q-43 -43 -106 -68.5t-123 -25.5q-98 0 -156.5 52t-58.5 143q0 55 30 108t75 82v1300h258v-1300h-117q-37 -28 -62.5 -71t-25.5 -83q0 -48 27 -73t75 -25q43 0 81 14t58 29z"/>
    <glyph glyph-name="Itilde" unicode="Ĩ" horiz-adv-x="559" d="M150 0v1300h258v-1300h-258zM605 1649q0 -91 -57.5 -157.5t-137.5 -66.5q-79 0 -139 44q-25 17 -60 38t-61 21q-28 0 -50 -24t-30 -75l-118 15q0 92 58.5 157.5t135.5 65.5q79 0 140 -43q16 -12 54.5 -35.5t65.5 -23.5q28 0 50 23.5t30 74.5z"/>
    <glyph glyph-name="Jcircumflex" unicode="Ĵ" horiz-adv-x="686" d="M537 232q0 -178 -90 -275t-259 -97q-112 0 -188 36l35 183q43 -23 117 -23q62 0 94.5 43t32.5 121v1080h258v-1068zM527 1413l-121 168l-125 -168h-172l181 266h231l180 -266h-174z"/>
    <glyph glyph-name="Kcommaaccent" unicode="Ķ" horiz-adv-x="1184" d="M885 0l-346 573l-131 -145v-428h-258v1300h258v-559l458 559h301l-465 -530l482 -770h-299zM758 -94q-29 -200 -193 -318l-149 66q104 104 120 258z"/>
    <glyph glyph-name="Lacute" unicode="Ĺ" horiz-adv-x="950" d="M150 0v1300h258v-1091h516v-209h-774zM321 1413h-178l139 266h244z"/>
    <glyph glyph-name="Lcaron" unicode="Ľ" horiz-adv-x="950" d="M150 0v1300h258v-1091h516v-209h-774zM862 1330q0 -91 -27 -184.5t-79 -174.5l-174 13q61 155 61 350z"/>
    <glyph glyph-name="Lcommaaccent" unicode="Ļ" horiz-adv-x="950" d="M150 0v1300h258v-1091h516v-209h-774zM676 -94q-29 -200 -193 -318l-149 66q104 104 120 258z"/>
    <glyph glyph-name="Ldot" unicode="Ŀ" horiz-adv-x="950" d="M150 0v1300h258v-1091h516v-209h-774zM881 745q0 -52 -34.5 -88.5t-90.5 -36.5q-53 0 -88 35.5t-35 89.5t34.5 88.5t88.5 34.5q56 0 90.5 -35.5t34.5 -87.5z"/>
    <glyph glyph-name="Nacute" unicode="Ń" horiz-adv-x="1374" d="M977 0l-584 942v-942h-243v1300h276l555 -894v894h244v-1300h-248zM754 1413h-178l139 266h244z"/>
    <glyph glyph-name="Ncaron" unicode="Ň" horiz-adv-x="1374" d="M977 0l-584 942v-942h-243v1300h276l555 -894v894h244v-1300h-248zM825 1413h-231l-181 266h172l123 -168l123 168h174z"/>
    <glyph glyph-name="Ncommaaccent" unicode="Ņ" horiz-adv-x="1374" d="M977 0l-584 942v-942h-243v1300h276l555 -894v894h244v-1300h-248zM815 -94q-29 -200 -193 -318l-149 66q104 104 120 258z"/>
    <glyph glyph-name="Obreve" unicode="Ŏ" horiz-adv-x="1425" d="M1350 651q0 -198 -79 -351.5t-224 -236.5t-334 -83q-190 0 -335.5 83.5t-223.5 237t-78 350.5q0 198 78.5 351t224 236t334.5 83t334.5 -83t224 -236t78.5 -351zM1085 653q0 202 -100 327.5t-272 125.5t-272.5 -125t-100.5 -328q0 -207 101.5 -330.5t271.5 -123.5 q171 0 271.5 124.5t100.5 329.5zM1007 1665q-28 -127 -104.5 -190.5t-188.5 -63.5t-189.5 62.5t-105.5 189.5l129 25q16 -67 59.5 -103.5t104.5 -36.5t104 36.5t60 103.5z"/>
    <glyph glyph-name="Ohungarumlaut" unicode="Ő" horiz-adv-x="1425" d="M1350 651q0 -198 -79 -351.5t-224 -236.5t-334 -83q-190 0 -335.5 83.5t-223.5 237t-78 350.5q0 198 78.5 351t224 236t334.5 83t334.5 -83t224 -236t78.5 -351zM1085 653q0 202 -100 327.5t-272 125.5t-272.5 -125t-100.5 -328q0 -207 101.5 -330.5t271.5 -123.5 q171 0 271.5 124.5t100.5 329.5zM934 1413h-178l139 266h244zM590 1413h-178l139 266h242z"/>
    <glyph glyph-name="Omacron" unicode="Ō" horiz-adv-x="1425" d="M1350 651q0 -198 -79 -351.5t-224 -236.5t-334 -83q-190 0 -335.5 83.5t-223.5 237t-78 350.5q0 198 78.5 351t224 236t334.5 83t334.5 -83t224 -236t78.5 -351zM1085 653q0 202 -100 327.5t-272 125.5t-272.5 -125t-100.5 -328q0 -207 101.5 -330.5t271.5 -123.5 q171 0 271.5 124.5t100.5 329.5zM411 1479v135h604v-135h-604z"/>
    <glyph glyph-name="Oslashacute" unicode="Ǿ" horiz-adv-x="1425" d="M1350 651q0 -197 -78 -350t-223 -237t-336 -84q-206 0 -359 98l-118 -150l-117 90l123 154q-166 180 -166 479q0 198 78.5 351t224 236t334.5 83q208 0 364 -102l113 143l117 -90l-119 -150q162 -185 162 -471zM930 1036q-91 70 -217 70q-172 0 -272.5 -123.5 t-100.5 -329.5q0 -162 66 -276zM1085 653q0 155 -59 267l-522 -656q88 -65 209 -65q171 0 271.5 124.5t100.5 329.5zM799 1413h-178l139 266h244z"/>
    <glyph glyph-name="Racute" unicode="Ŕ" horiz-adv-x="1194" d="M872 0l-303 506h-161v-506h-258v1300h468q150 0 249 -42t161 -134.5t62 -212.5q0 -131 -71.5 -226.5t-195.5 -137.5l344 -547h-295zM834 901q0 92 -61.5 147.5t-182.5 55.5h-182v-406h180q121 0 183.5 55t62.5 148zM1118 468zM645 1413h-178l139 266h244z"/>
    <glyph glyph-name="Rcaron" unicode="Ř" horiz-adv-x="1194" d="M872 0l-303 506h-161v-506h-258v1300h468q150 0 249 -42t161 -134.5t62 -212.5q0 -131 -71.5 -226.5t-195.5 -137.5l344 -547h-295zM834 901q0 92 -61.5 147.5t-182.5 55.5h-182v-406h180q121 0 183.5 55t62.5 148zM1118 468zM713 1413h-231l-181 266h172l123 -168 l123 168h174z"/>
    <glyph glyph-name="Rcommaaccent" unicode="Ŗ" horiz-adv-x="1194" d="M872 0l-303 506h-161v-506h-258v1300h468q150 0 249 -42t161 -134.5t62 -212.5q0 -131 -71.5 -226.5t-195.5 -137.5l344 -547h-295zM834 901q0 92 -61.5 147.5t-182.5 55.5h-182v-406h180q121 0 183.5 55t62.5 148zM1118 468zM762 -94q-29 -200 -193 -318l-149 66 q104 104 120 258z"/>
    <glyph glyph-name="Sacute" unicode="Ś" horiz-adv-x="1065" d="M1001 385q0 -114 -58.5 -207t-168 -145.5t-260.5 -52.5q-133 0 -264.5 52.5t-216.5 141.5l129 182q68 -68 166.5 -113.5t185.5 -45.5q116 0 173.5 42.5t57.5 116.5q0 45 -27.5 80.5t-73.5 56t-178 69.5l-120 44q-125 48 -188.5 135t-63.5 205q0 107 55 192t159 134 t253 49q120 0 239.5 -47.5t196.5 -124.5l-110 -176q-58 58 -155 100.5t-179 42.5q-100 0 -153.5 -36.5t-53.5 -108.5q0 -49 35 -87.5t131 -74t223 -82.5q266 -98 266 -342zM76 738zM602 1413h-178l139 266h244z"/>
    <glyph glyph-name="Scedilla" unicode="Ş" horiz-adv-x="1065" d="M1001 385q0 -152 -98 -260t-268 -135l-117 -254h-235l168 248q-122 10 -236 63t-182 127l129 182q68 -68 166.5 -113.5t185.5 -45.5q116 0 173.5 42.5t57.5 116.5q0 45 -27.5 80.5t-73.5 56t-178 69.5l-120 44q-125 48 -188.5 135t-63.5 205q0 107 55 192t159 134t253 49 q120 0 239.5 -47.5t196.5 -124.5l-110 -176q-58 58 -155 100.5t-179 42.5q-100 0 -153.5 -36.5t-53.5 -108.5q0 -36 16 -62t40 -44.5t85 -45.5l248 -92q266 -98 266 -342zM76 628z"/>
    <glyph glyph-name="Scircumflex" unicode="Ŝ" horiz-adv-x="1065" d="M1001 385q0 -114 -58.5 -207t-168 -145.5t-260.5 -52.5q-133 0 -264.5 52.5t-216.5 141.5l129 182q68 -68 166.5 -113.5t185.5 -45.5q116 0 173.5 42.5t57.5 116.5q0 45 -27.5 80.5t-73.5 56t-178 69.5l-120 44q-125 48 -188.5 135t-63.5 205q0 107 55 192t159 134 t253 49q120 0 239.5 -47.5t196.5 -124.5l-110 -176q-58 58 -155 100.5t-179 42.5q-100 0 -153.5 -36.5t-53.5 -108.5q0 -49 35 -87.5t131 -74t223 -82.5q266 -98 266 -342zM76 738zM668 1413l-121 168l-125 -168h-172l181 266h231l180 -266h-174z"/>
    <glyph glyph-name="Scommaaccent" unicode="Ș" horiz-adv-x="1065" d="M1001 385q0 -114 -58.5 -207t-168 -145.5t-260.5 -52.5q-133 0 -264.5 52.5t-216.5 141.5l129 182q68 -68 166.5 -113.5t185.5 -45.5q116 0 173.5 42.5t57.5 116.5q0 45 -27.5 80.5t-73.5 56t-178 69.5l-120 44q-125 48 -188.5 135t-63.5 205q0 107 55 192t159 134 t253 49q120 0 239.5 -47.5t196.5 -124.5l-110 -176q-58 58 -155 100.5t-179 42.5q-100 0 -153.5 -36.5t-53.5 -108.5q0 -49 35 -87.5t131 -74t223 -82.5q266 -98 266 -342zM76 738zM686 -94q-29 -200 -193 -318l-149 66q104 104 120 258z"/>
    <glyph glyph-name="Tbar" unicode="Ŧ" horiz-adv-x="1030" d="M643 498v-498h-256v498h-305v172h305v428h-373v202h1000v-202h-371v-428h305v-172h-305z"/>
    <glyph glyph-name="Tcaron" unicode="Ť" horiz-adv-x="1030" d="M643 1098v-1098h-256v1098h-373v202h1000v-202h-371zM631 1413h-231l-181 266h172l123 -168l123 168h174z"/>
    <glyph glyph-name="Tcedilla" unicode="Ţ" horiz-adv-x="1030" d="M643 1098v-1098h-256v1098h-373v202h1000v-202h-371zM504 -365h-236l180 264h178z"/>
    <glyph glyph-name="Tcommaaccent" unicode="Ț" horiz-adv-x="1030" d="M643 1098v-1098h-256v1098h-373v202h1000v-202h-371zM648 -94q-29 -200 -193 -318l-149 66q104 104 120 258z"/>
    <glyph glyph-name="Ubreve" unicode="Ŭ" horiz-adv-x="1311" d="M915 1300h259v-784q0 -151 -30.5 -244t-96 -159.5t-160.5 -99.5t-232 -33q-142 0 -239.5 35.5t-162.5 109t-91.5 162.5t-26.5 227v786h258v-798q0 -96 15.5 -143.5t48.5 -81t81 -52t115 -18.5q85 0 143 30t88.5 84.5t30.5 180.5v798zM950 1665q-28 -127 -104.5 -190.5 t-188.5 -63.5t-189.5 62.5t-105.5 189.5l129 25q16 -67 59.5 -103.5t104.5 -36.5t104 36.5t60 103.5z"/>
    <glyph glyph-name="Uhungarumlaut" unicode="Ű" horiz-adv-x="1311" d="M915 1300h259v-784q0 -151 -30.5 -244t-96 -159.5t-160.5 -99.5t-232 -33q-142 0 -239.5 35.5t-162.5 109t-91.5 162.5t-26.5 227v786h258v-798q0 -96 15.5 -143.5t48.5 -81t81 -52t115 -18.5q85 0 143 30t88.5 84.5t30.5 180.5v798zM887 1413h-178l139 266h244z M543 1413h-178l139 266h242z"/>
    <glyph glyph-name="Umacron" unicode="Ū" horiz-adv-x="1311" d="M915 1300h259v-784q0 -151 -30.5 -244t-96 -159.5t-160.5 -99.5t-232 -33q-142 0 -239.5 35.5t-162.5 109t-91.5 162.5t-26.5 227v786h258v-798q0 -96 15.5 -143.5t48.5 -81t81 -52t115 -18.5q85 0 143 30t88.5 84.5t30.5 180.5v798zM354 1479v135h604v-135h-604z"/>
    <glyph glyph-name="Uogonek" unicode="Ų" horiz-adv-x="1311" d="M1051 -291q-41 -41 -104.5 -67.5t-125.5 -26.5q-98 0 -156.5 52t-58.5 143q0 97 80 170h-31q-142 0 -239.5 35.5t-162.5 109t-91.5 162.5t-26.5 227v786h258v-798q0 -96 15.5 -143.5t48.5 -81t81 -52t115 -18.5q85 0 143 30t88.5 84.5t30.5 180.5v798h259v-784 q0 -159 -34.5 -255t-107.5 -163t-180 -96q-88 -79 -88 -156q0 -48 27 -73t75 -25q44 0 82 14t58 29z"/>
    <glyph glyph-name="Uring" unicode="Ů" horiz-adv-x="1311" d="M915 1300h259v-784q0 -151 -30.5 -244t-96 -159.5t-160.5 -99.5t-232 -33q-142 0 -239.5 35.5t-162.5 109t-91.5 162.5t-26.5 227v786h258v-798q0 -96 15.5 -143.5t48.5 -81t81 -52t115 -18.5q85 0 143 30t88.5 84.5t30.5 180.5v798zM840 1575q0 -80 -52.5 -131 t-132.5 -51t-132 51.5t-52 130.5q0 80 52.5 131t131.5 51q81 0 133 -51.5t52 -130.5zM745 1575q0 38 -26 64t-64 26t-64 -26t-26 -64t26 -64t64 -26t64 26t26 64z"/>
    <glyph glyph-name="Utilde" unicode="Ũ" horiz-adv-x="1311" d="M915 1300h259v-784q0 -151 -30.5 -244t-96 -159.5t-160.5 -99.5t-232 -33q-142 0 -239.5 35.5t-162.5 109t-91.5 162.5t-26.5 227v786h258v-798q0 -96 15.5 -143.5t48.5 -81t81 -52t115 -18.5q85 0 143 30t88.5 84.5t30.5 180.5v798zM981 1649q0 -91 -57.5 -157.5 t-137.5 -66.5q-79 0 -139 44q-25 17 -60 38t-61 21q-28 0 -50 -24t-30 -75l-118 15q0 92 58.5 157.5t135.5 65.5q79 0 140 -43q16 -12 54.5 -35.5t65.5 -23.5q28 0 50 23.5t30 74.5z"/>
    <glyph glyph-name="Wacute" unicode="Ẃ" horiz-adv-x="1808" d="M1444 0h-283l-256 993l-256 -993h-282l-336 1300h264l227 -999l250 999h268l250 -999l228 999h260zM932 1413h-178l139 266h244z"/>
    <glyph glyph-name="Wcircumflex" unicode="Ŵ" horiz-adv-x="1808" d="M1444 0h-283l-256 993l-256 -993h-282l-336 1300h264l227 -999l250 999h268l250 -999l228 999h260zM1026 1413l-121 168l-125 -168h-172l181 266h231l180 -266h-174z"/>
    <glyph glyph-name="Wdieresis" unicode="Ẅ" horiz-adv-x="1808" d="M1444 0h-283l-256 993l-256 -993h-282l-336 1300h264l227 -999l250 999h268l250 -999l228 999h260zM1192 1548q0 -51 -31 -85t-84 -34q-52 0 -84 34t-32 83q0 51 31 84t83 33q53 0 85 -32.5t32 -82.5zM850 1548q0 -51 -32 -85t-85 -34q-52 0 -84 34t-32 83q0 51 32 84 t84 33q53 0 85 -32.5t32 -82.5z"/>
    <glyph glyph-name="Wgrave" unicode="Ẁ" horiz-adv-x="1808" d="M1444 0h-283l-256 993l-256 -993h-282l-336 1300h264l227 -999l250 999h268l250 -999l228 999h260zM877 1413l-205 266h241l140 -266h-176z"/>
    <glyph glyph-name="Ycircumflex" unicode="Ŷ" horiz-adv-x="1153" d="M707 530v-530h-258v530l-449 770h285l295 -569l292 569h281zM10 445zM1143 445zM698 1413l-121 168l-125 -168h-172l181 266h231l180 -266h-174z"/>
    <glyph glyph-name="Ygrave" unicode="Ỳ" horiz-adv-x="1153" d="M707 530v-530h-258v530l-449 770h285l295 -569l292 569h281zM10 445zM1143 445zM529 1413l-205 266h241l140 -266h-176z"/>
    <glyph glyph-name="Zacute" unicode="Ź" horiz-adv-x="1149" d="M59 0v178l689 920h-664v202h979v-182l-678 -909h705v-209h-1031zM614 1413h-178l139 266h244z"/>
    <glyph glyph-name="Zdotaccent" unicode="Ż" horiz-adv-x="1149" d="M59 0v178l689 920h-664v202h979v-182l-678 -909h705v-209h-1031zM698 1546q0 -52 -34.5 -88.5t-90.5 -36.5q-53 0 -88 35.5t-35 89.5t34.5 88.5t88.5 34.5q56 0 90.5 -35.5t34.5 -87.5z"/>
    <glyph glyph-name="Idotaccent" unicode="İ" horiz-adv-x="559" d="M150 0v1300h258v-1300h-258zM403 1546q0 -52 -34.5 -88.5t-90.5 -36.5q-53 0 -88 35.5t-35 89.5t34.5 88.5t88.5 34.5q56 0 90.5 -35.5t34.5 -87.5z"/>
    <glyph glyph-name="abreve" unicode="ă" horiz-adv-x="1016" d="M686 0q-20 60 -20 111q-114 -131 -291 -131q-144 0 -230 79t-86 215q0 108 66 181t204 108t330 35v45q0 156 -198 156q-75 0 -154.5 -24.5t-136.5 -61.5l-68 172q68 38 171 66t208 28q139 0 236 -42.5t143.5 -123t46.5 -209.5v-389q0 -131 45 -215h-266zM659 451 q-31 0 -114 -7t-132 -24.5t-75.5 -48.5t-26.5 -78q0 -66 38.5 -102.5t111.5 -36.5q58 0 111.5 32t86.5 88v177zM803 1323q-28 -127 -104.5 -190.5t-188.5 -63.5t-189.5 62.5t-105.5 189.5l129 25q16 -67 59.5 -103.5t104.5 -36.5t104 36.5t60 103.5z"/>
    <glyph glyph-name="amacron" unicode="ā" horiz-adv-x="1016" d="M686 0q-20 60 -20 111q-114 -131 -291 -131q-144 0 -230 79t-86 215q0 108 66 181t204 108t330 35v45q0 156 -198 156q-75 0 -154.5 -24.5t-136.5 -61.5l-68 172q68 38 171 66t208 28q139 0 236 -42.5t143.5 -123t46.5 -209.5v-389q0 -131 45 -215h-266zM659 451 q-31 0 -114 -7t-132 -24.5t-75.5 -48.5t-26.5 -78q0 -66 38.5 -102.5t111.5 -36.5q58 0 111.5 32t86.5 88v177zM207 1137v135h604v-135h-604z"/>
    <glyph glyph-name="aogonek" unicode="ą" horiz-adv-x="1016" d="M793 0q-93 -79 -93 -158q0 -45 25 -69.5t72 -24.5q64 0 116 37l45 -82q-88 -88 -204 -88q-96 0 -153.5 52.5t-57.5 142.5q0 60 35 116.5t100 98.5q-12 41 -12 86q-114 -131 -291 -131q-144 0 -230 79t-86 215q0 108 66 181t204 108t330 35v45q0 156 -198 156 q-75 0 -154.5 -24.5t-136.5 -61.5l-68 172q68 38 171 66t208 28q139 0 236 -42.5t143.5 -123t46.5 -209.5v-389q0 -131 45 -215h-159zM659 451q-31 0 -114 -7t-132 -24.5t-75.5 -48.5t-26.5 -78q0 -66 38.5 -102.5t111.5 -36.5q58 0 111.5 32t86.5 88v177z"/>
    <glyph glyph-name="aeacute" unicode="ǽ" horiz-adv-x="1616" d="M901 436v-16q8 -124 77.5 -188t184.5 -64q74 0 151.5 26.5t135.5 71.5l88 -151q-66 -62 -173 -98.5t-235 -36.5q-245 0 -376 170q-77 -92 -168.5 -131t-206.5 -39q-145 0 -232.5 77t-87.5 211q0 156 140.5 238t459.5 82v55q0 156 -198 156q-75 0 -154.5 -24.5 t-136.5 -61.5l-68 172q68 38 171 66t208 28q66 0 115 -8.5t96.5 -29t79 -51.5t37.5 -50q50 54 89.5 79.5t96.5 42.5t133 17q201 0 318 -132.5t117 -344.5v-66h-662zM1325 592q0 98 -54.5 157.5t-150.5 59.5q-91 0 -151 -60t-70 -157h426zM682 281q-29 82 -29 159 q-176 0 -259 -40t-83 -113q0 -64 42 -98.5t114 -34.5q64 0 122.5 35t92.5 92zM856 1071h-178l139 266h244z"/>
    <glyph glyph-name="cacute" unicode="ć" horiz-adv-x="938" d="M918 133q-65 -74 -167 -113.5t-219 -39.5q-136 0 -244 60.5t-168.5 173.5t-60.5 265q0 147 63 261t174.5 176.5t246.5 62.5q118 0 219.5 -44.5t150.5 -113.5l-114 -153q-49 51 -109.5 78.5t-120.5 27.5q-120 0 -191 -77.5t-71 -213.5q0 -137 70.5 -215t193.5 -78 q63 0 126.5 28.5t111.5 78.5zM594 1071h-178l139 266h244z"/>
    <glyph glyph-name="ccaron" unicode="č" horiz-adv-x="938" d="M918 133q-65 -74 -167 -113.5t-219 -39.5q-136 0 -244 60.5t-168.5 173.5t-60.5 265q0 147 63 261t174.5 176.5t246.5 62.5q118 0 219.5 -44.5t150.5 -113.5l-114 -153q-49 51 -109.5 78.5t-120.5 27.5q-120 0 -191 -77.5t-71 -213.5q0 -137 70.5 -215t193.5 -78 q63 0 126.5 28.5t111.5 78.5zM651 1071h-231l-181 266h172l123 -168l123 168h174z"/>
    <glyph glyph-name="ccircumflex" unicode="ĉ" horiz-adv-x="938" d="M918 133q-65 -74 -167 -113.5t-219 -39.5q-136 0 -244 60.5t-168.5 173.5t-60.5 265q0 147 63 261t174.5 176.5t246.5 62.5q118 0 219.5 -44.5t150.5 -113.5l-114 -153q-49 51 -109.5 78.5t-120.5 27.5q-120 0 -191 -77.5t-71 -213.5q0 -137 70.5 -215t193.5 -78 q63 0 126.5 28.5t111.5 78.5zM657 1071l-121 168l-125 -168h-172l181 266h231l180 -266h-174z"/>
    <glyph glyph-name="cdotaccent" unicode="ċ" horiz-adv-x="938" d="M918 133q-65 -74 -167 -113.5t-219 -39.5q-136 0 -244 60.5t-168.5 173.5t-60.5 265q0 147 63 261t174.5 176.5t246.5 62.5q118 0 219.5 -44.5t150.5 -113.5l-114 -153q-49 51 -109.5 78.5t-120.5 27.5q-120 0 -191 -77.5t-71 -213.5q0 -137 70.5 -215t193.5 -78 q63 0 126.5 28.5t111.5 78.5zM659 1204q0 -52 -34.5 -88.5t-90.5 -36.5q-53 0 -88 35.5t-35 89.5t34.5 88.5t88.5 34.5q56 0 90.5 -35.5t34.5 -87.5z"/>
    <glyph glyph-name="dcaron" unicode="ď" horiz-adv-x="1155" d="M799 0l-25 135q-47 -74 -126 -114.5t-173 -40.5q-186 0 -301 138.5t-115 360.5q0 223 117.5 361.5t304.5 138.5q92 0 169.5 -41.5t123.5 -118.5v522h250v-1341h-225zM780 483q0 133 -63 219t-166 86q-104 0 -170 -85.5t-66 -219.5q0 -136 63.5 -221.5t166.5 -85.5 q105 0 170 86t65 221zM1378 1354q0 -91 -27 -184.5t-79 -174.5l-174 13q61 155 61 350z"/>
    <glyph glyph-name="dcroat" unicode="đ" horiz-adv-x="1155" d="M799 0l-25 135q-47 -74 -126 -114.5t-173 -40.5q-186 0 -301 138.5t-115 360.5q0 223 117.5 361.5t304.5 138.5q92 0 169.5 -41.5t123.5 -118.5v234h-362v172h362v116h250v-116h131v-172h-131v-1053h-225zM780 483q0 133 -63 219t-166 86q-104 0 -170 -85.5t-66 -219.5 q0 -136 63.5 -221.5t166.5 -85.5q105 0 170 86t65 221z"/>
    <glyph glyph-name="ebreve" unicode="ĕ" horiz-adv-x="1024" d="M311 420q4 -118 73.5 -185t188.5 -67q78 0 160 29t127 69l86 -151q-66 -63 -172.5 -99t-232.5 -36q-219 0 -350.5 135.5t-131.5 363.5q0 227 130.5 363.5t349.5 136.5q198 0 315 -132.5t117 -348.5v-78h-660zM733 584q0 105 -54 165t-151 60q-92 0 -151.5 -61.5 t-69.5 -163.5h426zM823 1323q-28 -127 -104.5 -190.5t-188.5 -63.5t-189.5 62.5t-105.5 189.5l129 25q16 -67 59.5 -103.5t104.5 -36.5t104 36.5t60 103.5z"/>
    <glyph glyph-name="ecaron" unicode="ě" horiz-adv-x="1024" d="M311 420q4 -118 73.5 -185t188.5 -67q78 0 160 29t127 69l86 -151q-66 -63 -172.5 -99t-232.5 -36q-219 0 -350.5 135.5t-131.5 363.5q0 227 130.5 363.5t349.5 136.5q198 0 315 -132.5t117 -348.5v-78h-660zM733 584q0 105 -54 165t-151 60q-92 0 -151.5 -61.5 t-69.5 -163.5h426zM645 1071h-231l-181 266h172l123 -168l123 168h174z"/>
    <glyph glyph-name="edotaccent" unicode="ė" horiz-adv-x="1024" d="M311 420q4 -118 73.5 -185t188.5 -67q78 0 160 29t127 69l86 -151q-66 -63 -172.5 -99t-232.5 -36q-219 0 -350.5 135.5t-131.5 363.5q0 227 130.5 363.5t349.5 136.5q198 0 315 -132.5t117 -348.5v-78h-660zM733 584q0 105 -54 165t-151 60q-92 0 -151.5 -61.5 t-69.5 -163.5h426zM653 1204q0 -52 -34.5 -88.5t-90.5 -36.5q-53 0 -88 35.5t-35 89.5t34.5 88.5t88.5 34.5q56 0 90.5 -35.5t34.5 -87.5z"/>
    <glyph glyph-name="emacron" unicode="ē" horiz-adv-x="1024" d="M311 420q4 -118 73.5 -185t188.5 -67q78 0 160 29t127 69l86 -151q-66 -63 -172.5 -99t-232.5 -36q-219 0 -350.5 135.5t-131.5 363.5q0 227 130.5 363.5t349.5 136.5q198 0 315 -132.5t117 -348.5v-78h-660zM733 584q0 105 -54 165t-151 60q-92 0 -151.5 -61.5 t-69.5 -163.5h426zM227 1137v135h604v-135h-604z"/>
    <glyph glyph-name="eng" unicode="ŋ" horiz-adv-x="1128" d="M379 799q60 91 139 135.5t170 44.5q320 0 320 -365v-618q0 -133 -32.5 -203t-103 -109.5t-161.5 -39.5q-101 0 -172 32l24 179q39 -15 84 -15q48 0 70 17.5t32.5 54t10.5 80.5v565q0 111 -40.5 162t-125.5 51q-77 0 -137.5 -60.5t-77.5 -146.5v-563h-250v961h233z"/>
    <glyph glyph-name="eogonek" unicode="ę" horiz-adv-x="1024" d="M920 -291q-41 -41 -104.5 -67.5t-125.5 -26.5q-98 0 -156.5 52t-58.5 143q0 97 80 170h-14q-219 0 -350.5 135.5t-131.5 363.5q0 227 130.5 363.5t349.5 136.5q198 0 315 -132.5t117 -348.5v-78h-660q4 -118 73.5 -185t188.5 -67q78 0 160 29t127 69l86 -151 q-38 -36 -98 -67t-129 -48q-86 -74 -86 -154q0 -48 27 -73t75 -25q44 0 81.5 14t57.5 29zM733 584q0 105 -54 165t-151 60q-92 0 -151.5 -61.5t-69.5 -163.5h426z"/>
    <glyph glyph-name="gbreve" unicode="ğ" horiz-adv-x="1141" d="M1014 205q0 -204 -52.5 -316t-168.5 -178.5t-289 -66.5q-107 0 -220.5 31.5t-185.5 78.5l82 176q68 -42 155 -67t159 -25q135 0 205.5 64.5t70.5 210.5v75q-16 -35 -59.5 -72.5t-103.5 -62t-136 -24.5q-122 0 -216 59.5t-145 169t-51 248.5q0 136 54 244.5t150.5 168.5 t217.5 60q95 0 172.5 -44t110.5 -116l20 142h230v-756zM770 508q0 125 -60 202.5t-163 77.5t-167.5 -78t-64.5 -202q0 -122 61 -200.5t165 -78.5t166.5 78.5t62.5 200.5zM837 1323q-28 -127 -104.5 -190.5t-188.5 -63.5t-189.5 62.5t-105.5 189.5l129 25q16 -67 59.5 -103.5 t104.5 -36.5t104 36.5t60 103.5z"/>
    <glyph glyph-name="gcircumflex" unicode="ĝ" horiz-adv-x="1141" d="M1014 205q0 -204 -52.5 -316t-168.5 -178.5t-289 -66.5q-107 0 -220.5 31.5t-185.5 78.5l82 176q68 -42 155 -67t159 -25q135 0 205.5 64.5t70.5 210.5v75q-16 -35 -59.5 -72.5t-103.5 -62t-136 -24.5q-122 0 -216 59.5t-145 169t-51 248.5q0 136 54 244.5t150.5 168.5 t217.5 60q95 0 172.5 -44t110.5 -116l20 142h230v-756zM770 508q0 125 -60 202.5t-163 77.5t-167.5 -78t-64.5 -202q0 -122 61 -200.5t165 -78.5t166.5 78.5t62.5 200.5zM668 1071l-121 168l-125 -168h-172l181 266h231l180 -266h-174z"/>
    <glyph glyph-name="gcommaaccent" unicode="ģ" horiz-adv-x="1141" d="M1014 205q0 -204 -52.5 -316t-168.5 -178.5t-289 -66.5q-107 0 -220.5 31.5t-185.5 78.5l82 176q68 -42 155 -67t159 -25q135 0 205.5 64.5t70.5 210.5v75q-16 -35 -59.5 -72.5t-103.5 -62t-136 -24.5q-122 0 -216 59.5t-145 169t-51 248.5q0 136 54 244.5t150.5 168.5 t217.5 60q95 0 172.5 -44t110.5 -116l20 142h230v-756zM770 508q0 125 -60 202.5t-163 77.5t-167.5 -78t-64.5 -202q0 -122 61 -200.5t165 -78.5t166.5 78.5t62.5 200.5zM389.056 1047.99q28.9961 199.976 192.976 317.961l148.982 -65.9912 q-103.987 -103.987 -119.985 -257.969z"/>
    <glyph glyph-name="gdotaccent" unicode="ġ" horiz-adv-x="1141" d="M1014 205q0 -204 -52.5 -316t-168.5 -178.5t-289 -66.5q-107 0 -220.5 31.5t-185.5 78.5l82 176q68 -42 155 -67t159 -25q135 0 205.5 64.5t70.5 210.5v75q-16 -35 -59.5 -72.5t-103.5 -62t-136 -24.5q-122 0 -216 59.5t-145 169t-51 248.5q0 136 54 244.5t150.5 168.5 t217.5 60q95 0 172.5 -44t110.5 -116l20 142h230v-756zM770 508q0 125 -60 202.5t-163 77.5t-167.5 -78t-64.5 -202q0 -122 61 -200.5t165 -78.5t166.5 78.5t62.5 200.5zM651 1204q0 -52 -34.5 -88.5t-90.5 -36.5q-53 0 -88 35.5t-35 89.5t34.5 88.5t88.5 34.5 q56 0 90.5 -35.5t34.5 -87.5z"/>
    <glyph glyph-name="hbar" unicode="ħ" horiz-adv-x="1128" d="M760 0v557q0 111 -40.5 162t-125.5 51q-77 0 -137.5 -60.5t-77.5 -146.5v-563h-250v1053h-127v172h127v116h250v-116h366v-172h-366v-254q60 91 139 135.5t170 44.5q320 0 320 -365v-614h-248z"/>
    <glyph glyph-name="hcircumflex" unicode="ĥ" horiz-adv-x="1128" d="M760 0v557q0 111 -40.5 162t-125.5 51q-77 0 -137.5 -60.5t-77.5 -146.5v-563h-250v1341h250v-542q60 91 139 135.5t170 44.5q320 0 320 -365v-614h-248zM378 1452l-121 168l-125 -168h-172l181 266h231l180 -266h-174z"/>
    <glyph glyph-name="ibreve" unicode="ĭ" horiz-adv-x="510" d="M129 0v961h250v-961h-250zM550 1323q-28 -127 -104.5 -190.5t-188.5 -63.5t-189.5 62.5t-105.5 189.5l129 25q16 -67 59.5 -103.5t104.5 -36.5t104 36.5t60 103.5z"/>
    <glyph glyph-name="ij" unicode="ĳ" horiz-adv-x="1024" d="M401 1245q0 -61 -40.5 -102t-104.5 -41q-66 0 -108 40.5t-42 100.5q0 59 40.5 100t107.5 41q63 0 105 -38t42 -101zM129 0v961h250v-961h-250zM918 1245q0 -60 -41 -101.5t-107 -41.5q-64 0 -105.5 39.5t-41.5 101.5q0 61 40.5 101t104.5 40q63 0 106.5 -38t43.5 -101z M895 -4q0 -136 -32.5 -204.5t-102.5 -108t-162 -39.5q-101 0 -172 32l25 179q36 -15 84 -15q51 0 73.5 21.5t29.5 60.5t7 92v947h250v-965z"/>
    <glyph glyph-name="imacron" unicode="ī" horiz-adv-x="510" d="M129 0v961h250v-961h-250zM-46 1137v135h604v-135h-604z"/>
    <glyph glyph-name="iogonek" unicode="į" horiz-adv-x="510" d="M467 -291q-42 -42 -105.5 -68t-123.5 -26q-98 0 -156.5 52t-58.5 143q0 54 28.5 104.5t77.5 85.5v961h250v-961h-111q-88 -72 -88 -154q0 -53 30.5 -75.5t72.5 -22.5q43 0 81 14t58 29zM401 1245q0 -61 -40.5 -102t-104.5 -41q-66 0 -108 40.5t-42 100.5q0 59 40.5 100 t107.5 41q63 0 105 -38t42 -101z"/>
    <glyph glyph-name="itilde" unicode="ĩ" horiz-adv-x="510" d="M129 0v961h250v-961h-250zM583 1307q0 -91 -57.5 -157.5t-137.5 -66.5q-79 0 -139 44q-25 17 -60 38t-61 21q-28 0 -50 -24t-30 -75l-118 15q0 92 58.5 157.5t135.5 65.5q79 0 140 -43q16 -12 54.5 -35.5t65.5 -23.5q28 0 50 23.5t30 74.5z"/>
    <glyph glyph-name="jcircumflex" unicode="ĵ" horiz-adv-x="514" d="M385 -4q0 -77 -12.5 -142.5t-53.5 -113.5q-42 -48 -102 -72t-129 -24t-110.5 11.5t-61.5 20.5l25 179q12 -5 36.5 -10t47.5 -5q15 0 37 3t40 22q20 20 26.5 60.5t6.5 88.5v947h250v-965zM380 1071l-121 168l-125 -168h-172l181 266h231l180 -266h-174z"/>
    <glyph glyph-name="kcommaaccent" unicode="ķ" horiz-adv-x="1038" d="M752 0l-269 403l-104 -102v-301h-250v1341h250v-766l346 386h293l-369 -377l389 -584h-286zM664 -94q-29 -200 -193 -318l-149 66q104 104 120 258z"/>
    <glyph glyph-name="lacute" unicode="ĺ" horiz-adv-x="510" d="M129 0v1341h250v-1341h-250zM302 1452h-178l139 266h244z"/>
    <glyph glyph-name="lcaron" unicode="ľ" horiz-adv-x="510" d="M129 0v1341h250v-1341h-250zM737 1354q0 -91 -27 -184.5t-79 -174.5l-174 13q61 155 61 350z"/>
    <glyph glyph-name="lcommaaccent" unicode="ļ" horiz-adv-x="510" d="M129 0v1341h250v-1341h-250zM382 -94q-29 -200 -193 -318l-149 66q104 104 120 258z"/>
    <glyph glyph-name="ldot" unicode="ŀ" horiz-adv-x="651" d="M129 0v1341h250v-1341h-250zM698 711q0 -52 -34.5 -88.5t-90.5 -36.5q-53 0 -88 35.5t-35 89.5t34.5 88.5t88.5 34.5q56 0 90.5 -35.5t34.5 -87.5z"/>
    <glyph glyph-name="nacute" unicode="ń" horiz-adv-x="1128" d="M760 0v557q0 111 -40.5 162t-125.5 51q-77 0 -137.5 -60.5t-77.5 -146.5v-563h-250v961h233l17 -162q60 91 139 135.5t170 44.5q320 0 320 -365v-614h-248zM627 1071h-178l139 266h244z"/>
    <glyph glyph-name="ncaron" unicode="ň" horiz-adv-x="1128" d="M760 0v557q0 111 -40.5 162t-125.5 51q-77 0 -137.5 -60.5t-77.5 -146.5v-563h-250v961h233l17 -162q60 91 139 135.5t170 44.5q320 0 320 -365v-614h-248zM680 1071h-231l-181 266h172l123 -168l123 168h174z"/>
    <glyph glyph-name="ncommaaccent" unicode="ņ" horiz-adv-x="1128" d="M760 0v557q0 111 -40.5 162t-125.5 51q-77 0 -137.5 -60.5t-77.5 -146.5v-563h-250v961h233l17 -162q60 91 139 135.5t170 44.5q320 0 320 -365v-614h-248zM705 -94q-29 -200 -193 -318l-149 66q104 104 120 258z"/>
    <glyph glyph-name="obreve" unicode="ŏ" horiz-adv-x="1094" d="M1034 479q0 -229 -133.5 -364t-353.5 -135q-223 0 -355.5 136.5t-132.5 362.5q0 227 132.5 363.5t355.5 136.5t355 -135.5t132 -364.5zM778 479q0 143 -62 227.5t-169 84.5q-110 0 -171 -85t-61 -227q0 -145 62.5 -228t169.5 -83q106 0 168.5 84t62.5 227zM842 1323 q-28 -127 -104.5 -190.5t-188.5 -63.5t-189.5 62.5t-105.5 189.5l129 25q16 -67 59.5 -103.5t104.5 -36.5t104 36.5t60 103.5z"/>
    <glyph glyph-name="ohungarumlaut" unicode="ő" horiz-adv-x="1094" d="M1034 479q0 -229 -133.5 -364t-353.5 -135q-223 0 -355.5 136.5t-132.5 362.5q0 227 132.5 363.5t355.5 136.5t355 -135.5t132 -364.5zM778 479q0 143 -62 227.5t-169 84.5q-110 0 -171 -85t-61 -227q0 -145 62.5 -228t169.5 -83q106 0 168.5 84t62.5 227zM748 1071h-178 l139 266h244zM404 1071h-178l139 266h242z"/>
    <glyph glyph-name="omacron" unicode="ō" horiz-adv-x="1094" d="M1034 479q0 -229 -133.5 -364t-353.5 -135q-223 0 -355.5 136.5t-132.5 362.5q0 227 132.5 363.5t355.5 136.5t355 -135.5t132 -364.5zM778 479q0 143 -62 227.5t-169 84.5q-110 0 -171 -85t-61 -227q0 -145 62.5 -228t169.5 -83q106 0 168.5 84t62.5 227zM246 1137v135 h604v-135h-604z"/>
    <glyph glyph-name="oslashacute" unicode="ǿ" horiz-adv-x="1094" d="M1034 479q0 -229 -132.5 -364t-354.5 -135q-168 0 -293 83l-94 -106l-82 76l94 106q-113 132 -113 340q0 227 132.5 363.5t355.5 136.5q174 0 297 -86l94 104l80 -75l-92 -105q108 -138 108 -338zM698 729q-58 62 -151 62q-110 0 -171 -85t-61 -227q0 -83 25 -153z M778 479q0 84 -22 148l-357 -400q59 -59 148 -59q106 0 168.5 84t62.5 227zM623 1071h-178l139 266h244z"/>
    <glyph glyph-name="racute" unicode="ŕ" horiz-adv-x="752" d="M705 731l-23 7q-38 7 -61 7q-90 0 -156 -66.5t-86 -166.5v-512h-250v961h233l17 -173q41 87 117.5 140t160.5 53q33 0 78 -10zM447 1071h-178l139 266h244z"/>
    <glyph glyph-name="rcaron" unicode="ř" horiz-adv-x="752" d="M705 731l-23 7q-38 7 -61 7q-90 0 -156 -66.5t-86 -166.5v-512h-250v961h233l17 -173q41 87 117.5 140t160.5 53q33 0 78 -10zM536 1071h-231l-181 266h172l123 -168l123 168h174z"/>
    <glyph glyph-name="rcommaaccent" unicode="ŗ" horiz-adv-x="752" d="M705 731l-23 7q-38 7 -61 7q-90 0 -156 -66.5t-86 -166.5v-512h-250v961h233l17 -173q41 87 117.5 140t160.5 53q33 0 78 -10zM425 -94q-29 -200 -193 -318l-149 66q104 104 120 258z"/>
    <glyph glyph-name="sacute" unicode="ś" horiz-adv-x="891" d="M840 297q0 -134 -103.5 -225.5t-306.5 -91.5q-108 0 -222 47.5t-177 115.5l123 154q47 -51 131.5 -89t154.5 -38q154 0 154 90q0 34 -31.5 57t-122.5 52l-77 24q-154 47 -218.5 114t-64.5 173q0 135 104.5 218t280.5 83q100 0 199 -35.5t167 -93.5l-96 -158 q-58 47 -130 75t-134 28q-149 0 -149 -86q0 -34 26.5 -54.5t122.5 -52.5q151 -45 207 -73t92.5 -63t53 -77.5t16.5 -93.5zM504 1071h-178l139 266h244z"/>
    <glyph glyph-name="scedilla" unicode="ş" horiz-adv-x="891" d="M840 297q0 -115 -76 -198.5t-203 -106.5l-119 -256h-235l168 248q-102 11 -199 57.5t-145 101.5l123 154q47 -51 131.5 -89t154.5 -38q154 0 154 90q0 31 -30.5 56t-123.5 53q-118 35 -177.5 60.5t-95.5 56t-61.5 77.5t-25.5 117q0 135 104.5 218t280.5 83 q100 0 199 -35.5t167 -93.5l-96 -158q-58 47 -130 75t-134 28q-149 0 -149 -86q0 -31 23.5 -52.5t72.5 -36.5l53 -18q73 -22 170.5 -57t148 -100.5t50.5 -149.5z"/>
    <glyph glyph-name="scircumflex" unicode="ŝ" horiz-adv-x="891" d="M840 297q0 -134 -103.5 -225.5t-306.5 -91.5q-108 0 -222 47.5t-177 115.5l123 154q47 -51 131.5 -89t154.5 -38q154 0 154 90q0 34 -31.5 57t-122.5 52l-77 24q-154 47 -218.5 114t-64.5 173q0 135 104.5 218t280.5 83q100 0 199 -35.5t167 -93.5l-96 -158 q-58 47 -130 75t-134 28q-149 0 -149 -86q0 -34 26.5 -54.5t122.5 -52.5q151 -45 207 -73t92.5 -63t53 -77.5t16.5 -93.5zM577 1071l-121 168l-125 -168h-172l181 266h231l180 -266h-174z"/>
    <glyph glyph-name="scommaaccent" unicode="ș" horiz-adv-x="891" d="M840 297q0 -134 -103.5 -225.5t-306.5 -91.5q-108 0 -222 47.5t-177 115.5l123 154q47 -51 131.5 -89t154.5 -38q154 0 154 90q0 34 -31.5 57t-122.5 52l-77 24q-154 47 -218.5 114t-64.5 173q0 135 104.5 218t280.5 83q100 0 199 -35.5t167 -93.5l-96 -158 q-58 47 -130 75t-134 28q-149 0 -149 -86q0 -34 26.5 -54.5t122.5 -52.5q151 -45 207 -73t92.5 -63t53 -77.5t16.5 -93.5zM592 -94q-29 -200 -193 -318l-149 66q104 104 120 258z"/>
    <glyph glyph-name="tbar" unicode="ŧ" horiz-adv-x="698" d="M418 399v-55q0 -104 32 -137t82 -33q55 0 113 14l25 -178q-108 -30 -209 -30q-107 0 -168 34t-92 95t-31 188v102h-135v172h135v207h-135v183h135l16 249h232v-249h252v-183h-252v-207h252v-172h-252z"/>
    <glyph glyph-name="tcaron" unicode="ť" horiz-adv-x="698" d="M670 10q-108 -30 -209 -30q-107 0 -168 34t-92 95t-31 188v481h-135v183h135l16 249h232v-249h252v-183h-252v-434q0 -104 32 -137t82 -33q55 0 113 14zM762 1391q0 -91 -27 -184.5t-79 -174.5l-174 13q61 155 61 350z"/>
    <glyph glyph-name="tcedilla" unicode="ţ" horiz-adv-x="698" d="M670 10q-108 -30 -209 -30q-107 0 -168 34t-92 95t-31 188v481h-135v183h135l16 249h232v-249h252v-183h-252v-434q0 -104 32 -137t82 -33q55 0 113 14zM423 -365h-236l180 264h178z"/>
    <glyph glyph-name="tcommaaccent" unicode="ț" horiz-adv-x="698" d="M670 10q-108 -30 -209 -30q-107 0 -168 34t-92 95t-31 188v481h-135v183h135l16 249h232v-249h252v-183h-252v-434q0 -104 32 -137t82 -33q55 0 113 14zM545 -94q-29 -200 -193 -318l-149 66q104 104 120 258z"/>
    <glyph glyph-name="ubreve" unicode="ŭ" d="M754 0l-15 162q-56 -88 -132 -135t-167 -47q-321 0 -321 364v617h250v-566q0 -97 36.5 -151t126.5 -54q76 0 134 59t71 144v568h250v-961h-233zM854 1323q-28 -127 -104.5 -190.5t-188.5 -63.5t-189.5 62.5t-105.5 189.5l129 25q16 -67 59.5 -103.5t104.5 -36.5t104 36.5 t60 103.5z"/>
    <glyph glyph-name="uhungarumlaut" unicode="ű" d="M754 0l-15 162q-56 -88 -132 -135t-167 -47q-321 0 -321 364v617h250v-566q0 -97 36.5 -151t126.5 -54q76 0 134 59t71 144v568h250v-961h-233zM780 1071h-178l139 266h244zM436 1071h-178l139 266h242z"/>
    <glyph glyph-name="umacron" unicode="ū" d="M754 0l-15 162q-56 -88 -132 -135t-167 -47q-321 0 -321 364v617h250v-566q0 -97 36.5 -151t126.5 -54q76 0 134 59t71 144v568h250v-961h-233zM258 1137v135h604v-135h-604z"/>
    <glyph glyph-name="uogonek" unicode="ų" d="M829 0q-92 -78 -92 -158q0 -45 25 -69.5t72 -24.5q64 0 116 37l45 -82q-88 -88 -204 -88q-96 0 -153.5 52.5t-57.5 142.5q0 136 170 237l-11 115q-56 -88 -132 -135t-167 -47q-321 0 -321 364v617h250v-566q0 -97 36.5 -151t126.5 -54q76 0 134 59t71 144v568h250v-961 h-158z"/>
    <glyph glyph-name="uring" unicode="ů" d="M754 0l-15 162q-56 -88 -132 -135t-167 -47q-321 0 -321 364v617h250v-566q0 -97 36.5 -151t126.5 -54q76 0 134 59t71 144v568h250v-961h-233zM744 1233q0 -80 -52.5 -131t-132.5 -51t-132 51.5t-52 130.5q0 80 52.5 131t131.5 51q81 0 133 -51.5t52 -130.5zM649 1233 q0 38 -26 64t-64 26t-64 -26t-26 -64t26 -64t64 -26t64 26t26 64z"/>
    <glyph glyph-name="utilde" unicode="ũ" d="M754 0l-15 162q-56 -88 -132 -135t-167 -47q-321 0 -321 364v617h250v-566q0 -97 36.5 -151t126.5 -54q76 0 134 59t71 144v568h250v-961h-233zM885 1307q0 -91 -57.5 -157.5t-137.5 -66.5q-79 0 -139 44q-25 17 -60 38t-61 21q-28 0 -50 -24t-30 -75l-118 15 q0 92 58.5 157.5t135.5 65.5q79 0 140 -43q16 -12 54.5 -35.5t65.5 -23.5q28 0 50 23.5t30 74.5z"/>
    <glyph glyph-name="wacute" unicode="ẃ" horiz-adv-x="1507" d="M1206 0h-252l-200 684l-199 -684h-252l-278 961h254l167 -701l185 701h243l187 -701l166 701h256zM803 1071h-178l139 266h244z"/>
    <glyph glyph-name="wcircumflex" unicode="ŵ" horiz-adv-x="1507" d="M1206 0h-252l-200 684l-199 -684h-252l-278 961h254l167 -701l185 701h243l187 -701l166 701h256zM876 1071l-121 168l-125 -168h-172l181 266h231l180 -266h-174z"/>
    <glyph glyph-name="wdieresis" unicode="ẅ" horiz-adv-x="1507" d="M1206 0h-252l-200 684l-199 -684h-252l-278 961h254l167 -701l185 701h243l187 -701l166 701h256zM1042 1206q0 -51 -31 -85t-84 -34q-52 0 -84 34t-32 83q0 51 31 84t83 33q53 0 85 -32.5t32 -82.5zM700 1206q0 -51 -32 -85t-85 -34q-52 0 -84 34t-32 83q0 51 32 84 t84 33q53 0 85 -32.5t32 -82.5z"/>
    <glyph glyph-name="wgrave" unicode="ẁ" horiz-adv-x="1507" d="M1206 0h-252l-200 684l-199 -684h-252l-278 961h254l167 -701l185 701h243l187 -701l166 701h256zM707 1071l-205 266h241l140 -266h-176z"/>
    <glyph glyph-name="ycircumflex" unicode="ŷ" horiz-adv-x="1014" d="M307 -356q-131 0 -225 47l53 184q23 -12 54 -20.5t55 -8.5q41 0 62 18.5t40 67.5l33 88l-365 941h269l231 -715l231 715h263l-406 -1053q-57 -146 -122.5 -205t-172.5 -59zM629 1071l-121 168l-125 -168h-172l181 266h231l180 -266h-174z"/>
    <glyph glyph-name="ygrave" unicode="ỳ" horiz-adv-x="1014" d="M307 -356q-131 0 -225 47l53 184q23 -12 54 -20.5t55 -8.5q41 0 62 18.5t40 67.5l33 88l-365 941h269l231 -715l231 715h263l-406 -1053q-57 -146 -122.5 -205t-172.5 -59zM459 1071l-205 266h241l140 -266h-176z"/>
    <glyph glyph-name="zacute" unicode="ź" horiz-adv-x="899" d="M35 0v154l512 622h-492v185h789v-156l-502 -612h522v-193h-829zM496 1071h-178l139 266h244z"/>
    <glyph glyph-name="zdotaccent" unicode="ż" horiz-adv-x="899" d="M35 0v154l512 622h-492v185h789v-156l-502 -612h522v-193h-829zM573 1204q0 -52 -34.5 -88.5t-90.5 -36.5q-53 0 -88 35.5t-35 89.5t34.5 88.5t88.5 34.5q56 0 90.5 -35.5t34.5 -87.5z"/>
    <glyph glyph-name="kgreenlandic" unicode="ĸ" horiz-adv-x="1038" d="M752 0l-269 403l-104 -102v-301h-250v961h250v-386l346 386h293l-369 -377l389 -584h-286z"/>
    <glyph glyph-name="napostrophe" unicode="ŉ" horiz-adv-x="1292" d="M317 1296q0 -121 -73.5 -254.5t-180.5 -210.5l-154 76q199 199 199 453zM924 0v557q0 111 -40.5 162t-125.5 51q-77 0 -137.5 -60.5t-77.5 -146.5v-563h-250v961h233l17 -162q60 91 139 135.5t170 44.5q320 0 320 -365v-614h-248zM129 102z"/>
    <glyph glyph-name="Delta" unicode="∆" horiz-adv-x="1192" d="M35 0v180l405 1120h314l403 -1122v-178h-1122zM590 1096l-322 -889h645z"/>
    <glyph glyph-name="Omega" unicode="Ω" horiz-adv-x="1430" d="M788 0v199q143 73 223.5 201.5t80.5 291.5q0 205 -98.5 312.5t-284.5 107.5t-285.5 -107t-99.5 -313q0 -161 78.5 -290t224.5 -203v-199h-561v209h288q-129 74 -201.5 206.5t-72.5 295.5q0 175 79.5 314.5t223.5 217.5t326 78t329 -77t228.5 -216.5t81.5 -314.5 q0 -112 -36 -211t-106.5 -177.5t-144.5 -115.5h303v-209h-576z"/>
    <glyph glyph-name="uni03BC" unicode="μ" horiz-adv-x="1108" d="M743 0l-14 162q-35 -65 -96 -111.5t-121 -46.5q-91 0 -137 33v-377h-250v1301h248v-562q0 -111 39 -160t118 -49q50 0 91.5 28.5t70 76.5t35.5 98v568h250v-961h-234z"/>
    <glyph glyph-name="pi" unicode="π" horiz-adv-x="1239" d="M129 0q40 182 67 403t27 373h-194v185h1145v-185h-228v-438q0 -83 17.5 -119.5t70.5 -36.5q42 0 66.5 10.5t46.5 22.5l55 -170q-57 -32 -114 -43.5t-125 -11.5q-131 0 -191.5 72t-60.5 237v477h-256q0 -160 -25.5 -391.5t-58.5 -384.5h-242z"/>
    <glyph glyph-name="Euro" unicode="€" d="M854 725h-391v-141h391v-140h-377q22 -132 81 -199t169 -67q70 0 140 38t112 97l113 -145q-64 -89 -169 -138.5t-227 -49.5q-389 0 -467 464h-139v138h127v141h-127v139h141q38 213 168 336t324 123q118 0 214 -44.5t148 -125.5l-112 -143l-26 27q-36 40 -94 66.5 t-120 26.5q-102 0 -170.5 -72.5t-85.5 -193.5h377v-137z"/>
    <glyph glyph-name="litre" unicode="ℓ" horiz-adv-x="1061" d="M879 109q-68 -68 -142 -103t-147 -35q-127 0 -195.5 81.5t-68.5 238.5v205l-123 -129l-70 92l193 198v453q0 186 73 283.5t199 97.5q67 0 114.5 -30t73 -83t25.5 -114q0 -121 -52 -243t-186 -288l-73 -88v-344q0 -101 37 -145.5t96 -44.5q82 0 182 100zM686 1239 q0 48 -18.5 80.5t-59.5 32.5q-108 0 -108 -222v-313q84 99 135 215t51 207z"/>
    <glyph glyph-name="estimated" unicode="℮" horiz-adv-x="1395" d="M344 621v-428q140 -140 340 -140q146 0 257 68t202 215l76 -45q-110 -169 -237 -242.5t-298 -73.5q-173 0 -311 83t-215.5 232.5t-77.5 330.5q0 184 76 332t215.5 230.5t314.5 82.5q176 0 313 -79.5t215.5 -226t83.5 -339.5h-954zM1028 1049q-66 63 -154.5 102t-187.5 39 q-205 0 -342 -139v-353h684v351z"/>
    <glyph glyph-name="partialdiff" unicode="∂" d="M1040 487q0 -229 -131.5 -368t-347.5 -139q-141 0 -251.5 59t-171 164.5t-60.5 238.5q0 127 56.5 229.5t154.5 159t215 56.5q82 0 158.5 -30t115.5 -79q-68 164 -219.5 289.5t-339.5 175.5l68 150q221 -53 393 -186t266 -323t94 -397zM813 449q0 125 -70 203.5t-184 78.5 q-112 0 -183 -78t-71 -204q0 -125 71.5 -204t182.5 -79q115 0 184.5 79.5t69.5 203.5z"/>
    <glyph glyph-name="product" unicode="∏" d="M625 -379v184h108v1352h-317v-1352h108v-184h-463v184h156v1352h-156v184h1026v-184h-155v-1352h155v-184h-462z"/>
    <glyph glyph-name="summation" unicode="∑" d="M49 -379v158l479 733l-469 676v153h983v-491h-188v301h-524l448 -639l-463 -702h557v354h191v-543h-1014z"/>
    <glyph glyph-name="uni2219" unicode="∙" horiz-adv-x="559" d="M428 539q0 -63 -42.5 -104.5t-104.5 -41.5q-65 0 -107.5 41t-42.5 103t42.5 103.5t105.5 41.5q65 0 107 -40.5t42 -102.5z"/>
    <glyph glyph-name="radical" unicode="√" d="M907 1112l-319 -1112h-209l-164 532h-133v191h274l125 -467l267 1044h333v-188h-174z"/>
    <glyph glyph-name="infinity" unicode="∞" d="M1077 629q0 -119 -78 -196t-198 -77q-66 0 -130 36.5t-112 99.5q-49 -65 -113 -100.5t-129 -35.5q-121 0 -198.5 78t-77.5 195q0 115 77 192.5t199 77.5q66 0 129 -35t113 -98q51 64 113.5 98.5t128.5 34.5q120 0 198 -77t78 -193zM905 629q0 49 -31.5 76.5t-82.5 27.5 q-82 0 -154 -104q36 -52 75 -78.5t76 -26.5q51 0 84 27t33 78zM481 629q-72 104 -151 104q-51 0 -84 -27.5t-33 -76.5q0 -51 32 -78t83 -27q37 0 77 26.5t76 78.5z"/>
    <glyph glyph-name="integral" unicode="∫" d="M868 1155q-13 7 -39 14t-51 7q-59 0 -89 -30.5t-30 -121.5v-1141q0 -139 -71.5 -206.5t-192.5 -67.5q-93 0 -176 29l31 172l9 -3q12 -6 37.5 -12t43.5 -6q37 0 62 11t41 38t16 103l2 1138q0 91 26.5 148t88 93t147.5 36q66 0 111 -11.5t65 -17.5z"/>
    <glyph glyph-name="approxequal" unicode="≈" d="M1026 803q-63 -51 -139.5 -80t-153.5 -29q-44 0 -91 14.5t-93.5 31.5t-91 31.5t-82.5 14.5q-50 0 -109.5 -22t-99.5 -55l-74 149q63 49 140 76t153 27q44 0 91 -14.5t93.5 -32t91 -32t82.5 -14.5q50 0 107.5 23.5t101.5 58.5zM1026 403q-54 -43 -129.5 -73.5 t-163.5 -30.5q-44 0 -91 14.5t-93.5 32.5t-91 32.5t-82.5 14.5q-41 0 -81 -13.5t-76.5 -34.5t-51.5 -36l-74 150q139 108 293 108q44 0 91 -14.5t93.5 -32.5t91 -32.5t82.5 -14.5q51 0 111 23.5t98 54.5z"/>
    <glyph glyph-name="notequal" unicode="≠" d="M362 324h-260v190h320l76 229h-396v189h457l90 278h197l-90 -278h260v-189h-320l-75 -229h395v-190h-457l-90 -277h-197z"/>
    <glyph glyph-name="lessequal" unicode="≤" d="M102 621v188l914 358v-206l-688 -246l688 -244v-207zM102 0v190h914v-190h-914z"/>
    <glyph glyph-name="greaterequal" unicode="≥" d="M102 262v207l689 246l-689 246v206l914 -356v-190zM102 0v190h914v-190h-914z"/>
    <glyph glyph-name="lozenge" unicode="◊" d="M559 -31l-504 684l504 684l504 -684zM559 1044l-276 -391l276 -391l277 391z"/>
    <glyph glyph-name="uni00A0" unicode=" " horiz-adv-x="352"/>
    <glyph glyph-name="uni00AD" unicode="­" horiz-adv-x="645" d="M66 391v189h514v-189h-514z"/>
    <glyph glyph-name="uni02C9" unicode="ˉ" horiz-adv-x="874" d="M135 1120v135h604v-135h-604z"/>
    <glyph glyph-name="percent.oldstyle" unicode="﹪" horiz-adv-x="1681" d="M1593 295q0 -146 -85.5 -230.5t-225.5 -84.5q-141 0 -227 85t-86 228q0 145 87 230t226 85q141 0 226 -84t85 -229zM604 -27l-112 72l585 961l113 -72zM711 686q0 -144 -85.5 -229.5t-226.5 -85.5t-227 85t-86 228q0 145 87 230t226 85q142 0 227 -85.5t85 -227.5z M1417 293q0 81 -37.5 126.5t-97.5 45.5t-98.5 -45t-38.5 -125q0 -82 38.5 -127t98.5 -45q59 0 97 44.5t38 125.5zM535 686q0 81 -38 125.5t-98 44.5t-98.5 -44.5t-38.5 -125.5t38.5 -126.5t98.5 -45.5q63 0 99.5 48.5t36.5 123.5z"/>
    <glyph glyph-name="zero.denominator" horiz-adv-x="850" d="M745 391q0 -184 -88 -295.5t-231 -111.5q-146 0 -234 113.5t-88 293.5q0 182 88.5 295t231.5 113q145 0 233 -112t88 -296zM561 391q0 127 -35.5 192.5t-99.5 65.5q-66 0 -101.5 -65t-35.5 -191q0 -125 35 -191.5t100 -66.5q66 0 101.5 65t35.5 191z"/>
    <glyph glyph-name="one.denominator" horiz-adv-x="850" d="M350 0v584q-29 -20 -72 -35t-75 -21l-39 136q17 0 76.5 24.5t100.5 55.5t56 57h150v-801h-197z"/>
    <glyph glyph-name="two.denominator" horiz-adv-x="850" d="M94 0q14 108 72.5 195.5t183.5 183.5q89 69 109 90.5t30.5 41.5t10.5 42q0 53 -34 81t-91 28q-98 0 -193 -95l-78 125q21 28 66.5 55.5t103 44.5t125.5 17q130 0 207.5 -65.5t77.5 -172.5q0 -52 -17.5 -93.5t-51.5 -79t-121 -99.5q-144 -98 -158 -149h383v-150h-625z M745 297z"/>
    <glyph glyph-name="three.denominator" horiz-adv-x="850" d="M711 223q0 -104 -90.5 -171.5t-221.5 -67.5q-155 0 -284 118l80 117q33 -36 89 -65t105 -29q62 0 102.5 29.5t40.5 83.5q0 50 -33.5 79t-88.5 29h-101v131h90q50 0 82.5 24t32.5 70q0 42 -35 68.5t-92 26.5q-97 0 -176 -70l-66 119q49 45 118.5 69.5t144.5 24.5 q120 0 201 -56.5t81 -150.5q0 -67 -37 -116.5t-96 -63.5q69 -15 111.5 -70t42.5 -129zM745 305zM105 288z"/>
    <glyph glyph-name="four.denominator" horiz-adv-x="850" d="M651 141v-141h-180v141h-385v140l348 501h217v-499h105v-142h-105zM471 629l-225 -346h225v346zM105 480zM745 519z"/>
    <glyph glyph-name="five.denominator" horiz-adv-x="850" d="M719 254q0 -122 -85 -196t-218 -74q-171 0 -293 108l78 127q34 -37 88.5 -64.5t105.5 -27.5q65 0 106.5 31t41.5 96q0 56 -37.5 89.5t-102.5 33.5q-84 0 -122 -41l-121 41l73 405h465v-143h-331l-33 -156q54 27 133 27q69 0 127.5 -32t91.5 -90t33 -134zM105 508z M745 447z"/>
    <glyph glyph-name="six.denominator" horiz-adv-x="850" d="M745 254q0 -120 -84 -195t-219 -75q-149 0 -235 107t-86 302q0 183 97.5 294.5t254.5 111.5q58 0 100.5 -11t71.5 -25.5t45 -28t21 -17.5l-66 -117q-21 21 -70 39t-96 18q-91 0 -135.5 -60.5t-44.5 -174.5q30 30 57.5 44.5t64.5 25t81 10.5q103 0 173 -69.5t70 -178.5z M567 252q0 59 -32.5 94t-94.5 35q-32 0 -58.5 -13.5t-48 -34.5t-30.5 -38q0 -77 35 -124.5t100 -47.5t97 35t32 94z"/>
    <glyph glyph-name="seven.denominator" horiz-adv-x="850" d="M393 0h-192l334 629h-392v153h576v-135zM105 435zM745 390z"/>
    <glyph glyph-name="eight.denominator" horiz-adv-x="850" d="M735 213q0 -106 -81.5 -167.5t-225.5 -61.5q-150 0 -231.5 59t-81.5 162q0 70 41 122t116 74q-73 33 -102 79.5t-29 109.5q0 97 78.5 153t206.5 56t204.5 -57t76.5 -152q0 -62 -37 -107t-101 -61q166 -55 166 -209zM532 584q0 43 -30.5 65.5t-75.5 22.5q-46 0 -77.5 -21 t-31.5 -63q0 -38 24 -60.5t52 -31.5l49 -19q46 19 68 42t22 65zM555 223q0 33 -20 56.5t-70 42.5l-66 22l-28 -10q-76 -30 -76 -111q0 -49 36.5 -76.5t90.5 -27.5q60 0 96.5 26.5t36.5 77.5z"/>
    <glyph glyph-name="nine.denominator" horiz-adv-x="850" d="M727 393q0 -129 -43.5 -221t-121.5 -140t-183 -48q-77 0 -142.5 23.5t-103.5 66.5l70 116q11 -20 63.5 -43.5t104.5 -23.5q86 0 132 61.5t46 175.5q-73 -81 -197 -81q-63 0 -119 31t-90 87t-34 135q0 120 83 193.5t218 73.5q154 0 235.5 -105.5t81.5 -300.5zM547 492 q0 76 -37 126t-100 50q-58 0 -91.5 -33.5t-33.5 -95.5q0 -56 31.5 -90.5t93.5 -34.5q32 0 56 10t40.5 23t26 26t14.5 19z"/>
    <glyph glyph-name="uni2215" unicode="∕" horiz-adv-x="559" d="M-53 -25l-113 70l778 1305l113 -70z"/>
    <glyph glyph-name="uni03A9" unicode="Ω" horiz-adv-x="1430" d="M788 0v199q143 73 223.5 201.5t80.5 291.5q0 205 -98.5 312.5t-284.5 107.5t-285.5 -107t-99.5 -313q0 -161 78.5 -290t224.5 -203v-199h-561v209h288q-129 74 -201.5 206.5t-72.5 295.5q0 175 79.5 314.5t223.5 217.5t326 78t329 -77t228.5 -216.5t81.5 -314.5 q0 -112 -36 -211t-106.5 -177.5t-144.5 -115.5h303v-209h-576z"/>
    <glyph glyph-name="caron.alt" horiz-adv-x="559" d="M430 1354q0 -91 -27 -184.5t-79 -174.5l-174 13q61 155 61 350z"/>
    <glyph glyph-name="numbersign.oldstyle" unicode="﹟" horiz-adv-x="1051" d="M807 600l-55 -219h174v-139h-211l-60 -242h-149l59 242h-211l-57 -242h-150l60 242h-154v137h191l55 221h-174v137h211l59 244h150l-60 -244h211l58 244h149l-59 -242h153v-139h-190zM446 600l-53 -221h211l53 221h-211z"/>
    <glyph glyph-name="longs" unicode="ſ" horiz-adv-x="614" d="M655 1157l-16 5q-52 18 -100 18t-76 -15.5t-40.5 -44.5t-12.5 -104v-1016h-250v778h-127v183h127v94q0 102 40 166t111.5 99.5t169.5 35.5q106 0 205 -37z"/>
    <glyph glyph-name="Bhook" unicode="Ɓ" horiz-adv-x="1468" d="M1403 375q0 -168 -124 -271.5t-384 -103.5h-475v1106h-17q-103 0 -150.5 -40.5t-47.5 -131.5q0 -67 22 -148l-180 -59q-15 27 -31 97.5t-16 138.5q0 105 52.5 181t147 116t216.5 40h452q158 0 251 -30t150.5 -107t57.5 -184q0 -100 -58 -174.5t-165 -104.5v-4 q138 -22 218.5 -108.5t80.5 -212.5zM1139 389q0 111 -82 162q-67 37 -170 37h-211v-395h209q138 0 196 54.5t58 141.5zM1069 938q0 58 -26.5 96.5t-68.5 55t-122 16.5h-176v-340h176q112 0 164.5 49t52.5 123z"/>
    <glyph glyph-name="Oopen" unicode="Ɔ" horiz-adv-x="1221" d="M39 1090q11 22 47 59.5t81 69t100 54.5t114.5 35.5t132.5 12.5q186 0 330 -78t222.5 -224.5t78.5 -344.5q0 -204 -79.5 -363.5t-221.5 -245t-320 -85.5q-163 0 -293 62t-200 163l137 178q58 -73 146.5 -121.5t191.5 -48.5q171 0 274 122t103 320q0 197 -104.5 319 t-276.5 122q-107 0 -193.5 -50t-134.5 -126z"/>
    <glyph glyph-name="Chook" unicode="Ƈ" horiz-adv-x="1221" d="M1047 920q-50 77 -136 126.5t-192 49.5q-111 0 -198 -54.5t-135 -156t-48 -230.5q0 -199 102.5 -320.5t274.5 -121.5q100 0 189.5 47.5t148.5 130.5l133 -174q-71 -107 -198 -172t-292 -65q-182 0 -323.5 82t-219 235t-77.5 354q0 196 82 349.5t227 237t322 83.5 q155 0 282 -66v15q0 139 71 217t197 78q92 0 177 -35l-72 -164q-33 18 -68 18q-112 0 -112 -139v-155z"/>
    <glyph glyph-name="chook" unicode="ƈ" horiz-adv-x="991" d="M918 133q-65 -74 -167 -113.5t-219 -39.5q-136 0 -244 60.5t-168.5 173.5t-60.5 265q0 147 63 261t174.5 176.5t246.5 62.5q102 0 186 -31v15q0 141 71.5 217.5t196.5 76.5q57 0 93 -11t65 -23l-70 -164q-33 18 -71 18q-101 0 -101 -139v-117l-114 -153 q-49 51 -109.5 78.5t-120.5 27.5q-120 0 -191 -77.5t-71 -213.5q0 -137 70.5 -215t193.5 -78q63 0 126.5 28.5t111.5 78.5z"/>
    <glyph glyph-name="Dafrican" unicode="Ɖ" horiz-adv-x="1341" d="M1266 651q0 -289 -175.5 -470t-490.5 -181h-450v580h-107v176h107v544h448q323 0 495.5 -183t172.5 -466zM1001 653q0 133 -45.5 232.5t-137.5 156t-224 56.5h-186v-342h247v-176h-247v-373h186q195 0 301 118.5t106 327.5z"/>
    <glyph glyph-name="Dhook" unicode="Ɗ" horiz-adv-x="1612" d="M1536 651q0 -191 -79.5 -339.5t-225 -230t-361.5 -81.5h-450v1106h-17q-103 0 -150.5 -40.5t-47.5 -131.5q0 -67 22 -148l-180 -59q-15 27 -31 97.5t-16 138.5q0 105 52.5 181t147 116t216.5 40h452q323 0 495.5 -183t172.5 -466zM1272 653q0 133 -46.5 233.5t-135.5 156 t-226 55.5h-186v-891h186q196 0 302 120t106 326z"/>
    <glyph glyph-name="Dtopbar" unicode="Ƌ" horiz-adv-x="1176" d="M770 784v303h-598v213h854v-1300h-453q-262 0 -384.5 103.5t-122.5 291.5q0 135 59 219.5t169.5 127t278.5 42.5h197zM770 592h-186q-136 0 -195 -55t-59 -142q0 -88 56 -145t198 -57h186v399z"/>
    <glyph glyph-name="Ereversed" unicode="Ǝ" horiz-adv-x="1081" d="M78 0v209h596v369h-537v204h537v316h-578v202h836v-1300h-854z"/>
    <glyph glyph-name="Schwa" unicode="Ə" horiz-adv-x="1333" d="M991 733q0 163 -97 263t-255 100q-100 0 -197.5 -47.5t-169.5 -128.5l-135 170q6 12 42.5 45.5t86.5 67t108.5 59t129.5 42.5t155 17q279 0 438.5 -171.5t159.5 -475.5q0 -211 -76 -368.5t-216 -241.5t-322 -84q-280 0 -423.5 168.5t-143.5 494.5v90h915zM647 201 q145 0 241.5 91.5t96.5 231.5h-635q0 -153 79 -238t218 -85z"/>
    <glyph glyph-name="Eopen" unicode="Ɛ" horiz-adv-x="1040" d="M66 371q0 122 63.5 203.5t196.5 111.5q-53 8 -107.5 48.5t-87.5 101t-33 141.5q0 159 126 251.5t337 92.5q266 0 432 -160l-123 -160q-52 52 -140 85.5t-175 33.5q-103 0 -160 -43.5t-57 -124.5q0 -85 55 -128.5t158 -43.5h237v-196h-233q-119 0 -181.5 -53t-62.5 -146 t64 -147t176 -54q103 0 179.5 38.5t152.5 129.5l153 -143q-72 -108 -203.5 -168.5t-293.5 -60.5q-217 0 -345 105.5t-128 285.5z"/>
    <glyph glyph-name="Fhook" unicode="Ƒ" horiz-adv-x="1001" d="M950 1300v-202h-542v-357h497v-204h-497v-555q0 -171 -77.5 -253.5t-221.5 -82.5q-157 0 -226 45l58 184q41 -29 102 -29q55 0 81 32t26 104v1318h800z"/>
    <glyph glyph-name="Ghook" unicode="Ɠ" horiz-adv-x="1362" d="M1073 0l-24 133q-54 -70 -159.5 -111.5t-234.5 -41.5q-164 0 -298 85t-207.5 238.5t-73.5 351.5q0 195 82 347t227.5 235.5t321.5 83.5q159 0 297 -70v19q0 138 70 216.5t198 78.5q91 0 176 -35l-72 -164q-33 18 -67 18q-113 0 -113 -139v-153l-152 -156l-34 40 q-47 53 -125.5 89.5t-169.5 36.5q-109 0 -195 -55t-134 -157.5t-48 -236.5q0 -208 100.5 -328t270.5 -120q97 0 174 32t116 87v186h-270v195h516v-705h-172z"/>
    <glyph glyph-name="Gammaafrican" unicode="Ɣ" horiz-adv-x="1188" d="M764 328v-2q125 -239 125 -383q0 -143 -76.5 -220t-218.5 -77t-214.5 77t-72.5 220t121 374l-418 983h273l319 -776l324 776h252zM594 -174q28 0 51 23.5t23 78.5q0 61 -20.5 127t-55.5 121q-33 -54 -52.5 -121.5t-19.5 -126.5q0 -55 23 -78.5t51 -23.5z"/>
    <glyph glyph-name="hv" unicode="ƕ" horiz-adv-x="1698" d="M129 1341h250v-542q60 91 139 135.5t170 44.5q320 0 320 -365v-202q0 -137 38 -189.5t119 -52.5q82 0 122 55.5t40 188.5v544h250v-624q0 -165 -113.5 -259.5t-298.5 -94.5q-218 0 -311.5 91.5t-93.5 303.5v182q0 111 -40.5 162t-125.5 51q-77 0 -137.5 -60.5 t-77.5 -146.5v-563h-250v1341z"/>
    <glyph glyph-name="Iotaafrican" unicode="Ɩ" horiz-adv-x="737" d="M408 356q0 -78 26 -114.5t88 -36.5q78 0 150 43l59 -195q-112 -67 -287 -67q-294 0 -294 317v997h258v-944z"/>
    <glyph glyph-name="Ibar" unicode="Ɨ" horiz-adv-x="559" d="M0 756h150v544h258v-544h151v-176h-151v-580h-258v580h-150v176z"/>
    <glyph glyph-name="Khook" unicode="Ƙ" horiz-adv-x="1184" d="M985 1313q122 0 225 -76l-98 -166q-35 37 -78 37q-37 0 -60 -16.5t-61 -63.5l-211 -258l482 -770h-299l-346 573l-131 -145v-428h-258v1300h258v-559l344 433q70 87 116.5 113t116.5 26z"/>
    <glyph glyph-name="khook" unicode="ƙ" horiz-adv-x="1038" d="M752 0l-269 403l-104 -102v-301h-250v1030q0 169 73 246.5t230 77.5q111 0 193 -37l-66 -172q-40 22 -78 22q-102 0 -102 -127v-465l346 386h293l-369 -377l389 -584h-286z"/>
    <glyph glyph-name="Nhook" unicode="Ɲ" horiz-adv-x="1374" d="M426 1300l555 -894v894h244v-1300h-248l-584 942v-983q0 -149 -73 -231t-211 -82q-157 0 -226 45l58 184q41 -29 102 -29q55 0 81 32t26 104v1318h276z"/>
    <glyph glyph-name="Ohorn" unicode="Ơ" horiz-adv-x="1489" d="M1350 651q0 -198 -79 -351.5t-224 -236.5t-334 -83q-190 0 -335.5 83.5t-223.5 237t-78 350.5q0 198 78.5 351t224 236t334.5 83q171 0 301.5 -65.5t214.5 -184.5q28 12 39.5 33.5t11.5 58.5v178h209v-176q0 -102 -43 -162.5t-139 -84.5q43 -129 43 -267zM1085 653 q0 202 -100 327.5t-272 125.5t-272.5 -125t-100.5 -328q0 -207 101.5 -330.5t271.5 -123.5q171 0 271.5 124.5t100.5 329.5zM1413 204z"/>
    <glyph glyph-name="ohorn" unicode="ơ" horiz-adv-x="1141" d="M1034 479q0 -229 -133.5 -364t-353.5 -135q-223 0 -355.5 136.5t-132.5 362.5q0 227 132.5 363.5t355.5 136.5q191 0 321 -107q43 21 43 82v187h209v-152q0 -92 -30 -156.5t-111 -99.5q55 -114 55 -254zM778 479q0 143 -62 227.5t-169 84.5q-110 0 -171 -85t-61 -227 q0 -145 62.5 -228t169.5 -83q106 0 168.5 84t62.5 227zM1081 231z"/>
    <glyph glyph-name="Phook" unicode="Ƥ" horiz-adv-x="1397" d="M1329 879q0 -146 -59.5 -239t-172 -138t-251.5 -45h-184v-457h-259v1106h-16q-103 0 -151 -40.5t-48 -131.5q0 -64 23 -148l-180 -59q-18 31 -32.5 101.5t-14.5 134.5q0 105 51.5 181t145.5 116t218 40h447q225 0 354 -106t129 -315zM1071 879q0 60 -17 100t-51.5 69.5 t-76.5 42.5t-121 13h-143v-451h141q101 0 152.5 24t83.5 73t32 129z"/>
    <glyph glyph-name="phook" unicode="ƥ" horiz-adv-x="1155" d="M1094 481q0 -221 -118.5 -361t-305.5 -140q-70 0 -123 20t-91 49.5t-75 85.5v-475h-250v1370q0 169 73 246.5t230 77.5q111 0 193 -37l-66 -172q-40 22 -78 22q-102 0 -102 -127v-219q22 38 66.5 74.5t102 60t132.5 23.5q185 0 298.5 -137.5t113.5 -360.5zM840 481 q0 137 -64 222t-168 85q-103 0 -169 -86t-66 -219q0 -136 63.5 -221.5t165.5 -85.5q106 0 172 85.5t66 219.5z"/>
    <glyph glyph-name="Esh" unicode="Ʃ" horiz-adv-x="1149" d="M367 209h723v-209h-1031v188l420 492l-397 432v188h983v-202h-647l368 -416z"/>
    <glyph glyph-name="Thook" unicode="Ƭ" horiz-adv-x="1130" d="M1114 1098h-371v-1098h-256v1098h-88q-99 0 -145.5 -40.5t-46.5 -123.5q0 -65 20 -135l-180 -60q-27 71 -36 126t-9 110q0 156 107.5 240.5t300.5 84.5h704v-202z"/>
    <glyph glyph-name="thook" unicode="ƭ" horiz-adv-x="698" d="M670 10q-108 -30 -209 -30q-107 0 -168 34t-92 95t-31 188v481h-135v183h133v69q0 169 73 246.5t230 77.5q111 0 193 -37l-66 -172q-40 22 -78 22q-102 0 -102 -127v-79h252v-183h-252v-434q0 -104 32 -137t82 -33q55 0 113 14z"/>
    <glyph glyph-name="Tretroflexhook" unicode="Ʈ" horiz-adv-x="1030" d="M14 1098v202h1000v-202h-371v-1116q0 -73 26 -104.5t81 -31.5q61 0 102 29l57 -184q-87 -45 -231 -45q-291 0 -291 313v1139h-373z"/>
    <glyph glyph-name="Uhorn" unicode="Ư" horiz-adv-x="1481" d="M915 1300h259v-284q137 15 137 139v186h209v-192q0 -136 -91 -215.5t-255 -89.5v-328q0 -151 -30.5 -244t-96 -159.5t-160.5 -99.5t-232 -33q-142 0 -239.5 35.5t-162.5 109t-91.5 162.5t-26.5 227v786h258v-798q0 -96 15.5 -143.5t48.5 -81t81 -52t115 -18.5 q85 0 143 30t88.5 84.5t30.5 180.5v798z"/>
    <glyph glyph-name="uhorn" unicode="ư" horiz-adv-x="1348" d="M754 0l-15 162q-56 -88 -132 -135t-167 -47q-321 0 -321 364v617h250v-566q0 -97 36.5 -151t126.5 -54q76 0 134 59t71 144v568h250v-152q141 16 141 139v193h209v-193q0 -133 -91.5 -213.5t-258.5 -91.5v-643h-233zM1123 92z"/>
    <glyph glyph-name="Upsilonafrican" unicode="Ʊ" horiz-adv-x="1430" d="M1364 1300v-208h-303q70 -35 142 -113.5t108.5 -178.5t36.5 -212q0 -175 -82 -314.5t-228.5 -216.5t-328.5 -77q-181 0 -326 78t-224 217.5t-79 314.5q0 111 34.5 209.5t99.5 174t140 118.5h-288v208h561v-198q-150 -79 -226.5 -207.5t-76.5 -286.5q0 -207 99.5 -313.5 t285.5 -106.5t284.5 107t98.5 313q0 159 -78 287.5t-226 206.5v198h576z"/>
    <glyph glyph-name="Vhook" unicode="Ʋ" horiz-adv-x="1116" d="M737 0h-286l-441 1300h273l323 -1036l168 463q60 162 60 250q0 123 -89 123q-27 0 -81 -15l-43 203q87 23 188 23q270 0 270 -250q0 -51 -8 -101t-19.5 -94t-23.5 -81.5t-20 -63.5z"/>
    <glyph glyph-name="Yhook" unicode="Ƴ" horiz-adv-x="1163" d="M139 1081q-49 0 -88 -39l-98 181q64 50 122 68t128 18q56 0 95 -18t68.5 -54.5t65.5 -118.5l162 -375l289 557h280l-446 -770v-530h-258v530l-228 467q-21 44 -40.5 64t-51.5 20zM1153 560zM10 570z"/>
    <glyph glyph-name="yhook" unicode="ƴ" horiz-adv-x="1104" d="M942 977q117 0 199 -47l-54 -185q-20 10 -52 19.5t-48 9.5q-40 0 -62.5 -19.5t-39.5 -66.5l-283 -780q-53 -146 -119 -205t-176 -59q-131 0 -225 47l53 184q23 -12 54 -20.5t55 -8.5q41 0 62 18.5t40 67.5l33 88l-365 941h269l231 -715l139 481q39 133 106 191.5 t183 58.5z"/>
    <glyph glyph-name="Zbar" unicode="Ƶ" horiz-adv-x="1149" d="M145 760h349l254 338h-664v202h979v-182l-266 -358h223v-180h-361l-274 -371h705v-209h-1031v178l299 402h-213v180z"/>
    <glyph glyph-name="zbar" unicode="ƶ" horiz-adv-x="899" d="M70 586h319l158 190h-492v185h789v-156l-180 -219h176v-172h-318l-180 -221h522v-193h-829v154l213 260h-178v172z"/>
    <glyph glyph-name="Ezh" unicode="Ʒ" horiz-adv-x="1071" d="M1010 406q0 -199 -132 -312.5t-354 -113.5q-165 0 -293.5 59.5t-197.5 167.5l143 172q60 -95 140.5 -138.5t191.5 -43.5q114 0 180 53.5t66 144.5q0 118 -66.5 168.5t-236.5 50.5h-140v183l346 297h-567v206h889v-186l-387 -317q211 -11 314.5 -111t103.5 -280z"/>
    <glyph glyph-name="clickdental" unicode="ǀ" horiz-adv-x="952" d="M381 -344v1685h188v-1685h-188z"/>
    <glyph glyph-name="clicklateral" unicode="ǁ" horiz-adv-x="952" d="M157 -344v1685h188v-1685h-188zM606 -344v1685h188v-1685h-188z"/>
    <glyph glyph-name="clickalveolar" unicode="ǂ" horiz-adv-x="952" d="M135 786h246v555h188v-555h248v-159h-248v-230h248v-159h-248v-582h-188v582h-246v159h246v230h-246v159z"/>
    <glyph glyph-name="clickretroflex" unicode="ǃ" horiz-adv-x="618" d="M408 403h-195l-41 897h274zM459 123q0 -63 -42.5 -103t-107.5 -40q-63 0 -106 40t-43 103q0 62 42 102.5t107 40.5q64 0 107 -40t43 -103z"/>
    <glyph glyph-name="Acaron" unicode="Ǎ" horiz-adv-x="1204" d="M940 0l-94 285h-508l-94 -285h-254l456 1300h308l460 -1300h-274zM592 1061l-193 -574h383zM10 547zM1194 519zM721 1413h-231l-181 266h172l123 -168l123 168h174z"/>
    <glyph glyph-name="acaron" unicode="ǎ" horiz-adv-x="1016" d="M686 0q-20 60 -20 111q-114 -131 -291 -131q-144 0 -230 79t-86 215q0 108 66 181t204 108t330 35v45q0 156 -198 156q-75 0 -154.5 -24.5t-136.5 -61.5l-68 172q68 38 171 66t208 28q139 0 236 -42.5t143.5 -123t46.5 -209.5v-389q0 -131 45 -215h-266zM659 451 q-31 0 -114 -7t-132 -24.5t-75.5 -48.5t-26.5 -78q0 -66 38.5 -102.5t111.5 -36.5q58 0 111.5 32t86.5 88v177zM621 1071h-231l-181 266h172l123 -168l123 168h174z"/>
    <glyph glyph-name="Icaron" unicode="Ǐ" horiz-adv-x="559" d="M150 0v1300h258v-1300h-258zM396 1413h-231l-181 266h172l123 -168l123 168h174z"/>
    <glyph glyph-name="icaron" unicode="ǐ" horiz-adv-x="510" d="M129 0v961h250v-961h-250zM372 1071h-231l-181 266h172l123 -168l123 168h174z"/>
    <glyph glyph-name="Ocaron" unicode="Ǒ" horiz-adv-x="1425" d="M1350 651q0 -198 -79 -351.5t-224 -236.5t-334 -83q-190 0 -335.5 83.5t-223.5 237t-78 350.5q0 198 78.5 351t224 236t334.5 83t334.5 -83t224 -236t78.5 -351zM1085 653q0 202 -100 327.5t-272 125.5t-272.5 -125t-100.5 -328q0 -207 101.5 -330.5t271.5 -123.5 q171 0 271.5 124.5t100.5 329.5zM832 1413h-231l-181 266h172l123 -168l123 168h174z"/>
    <glyph glyph-name="ocaron" unicode="ǒ" horiz-adv-x="1094" d="M1034 479q0 -229 -133.5 -364t-353.5 -135q-223 0 -355.5 136.5t-132.5 362.5q0 227 132.5 363.5t355.5 136.5t355 -135.5t132 -364.5zM778 479q0 143 -62 227.5t-169 84.5q-110 0 -171 -85t-61 -227q0 -145 62.5 -228t169.5 -83q106 0 168.5 84t62.5 227zM662 1071h-231 l-181 266h172l123 -168l123 168h174z"/>
    <glyph glyph-name="Ucaron" unicode="Ǔ" horiz-adv-x="1311" d="M915 1300h259v-784q0 -151 -30.5 -244t-96 -159.5t-160.5 -99.5t-232 -33q-142 0 -239.5 35.5t-162.5 109t-91.5 162.5t-26.5 227v786h258v-798q0 -96 15.5 -143.5t48.5 -81t81 -52t115 -18.5q85 0 143 30t88.5 84.5t30.5 180.5v798zM770 1413h-231l-181 266h172 l123 -168l123 168h174z"/>
    <glyph glyph-name="ucaron" unicode="ǔ" d="M754 0l-15 162q-56 -88 -132 -135t-167 -47q-321 0 -321 364v617h250v-566q0 -97 36.5 -151t126.5 -54q76 0 134 59t71 144v568h250v-961h-233zM672 1071h-231l-181 266h172l123 -168l123 168h174z"/>
    <glyph glyph-name="Udieresismacron" unicode="Ǖ" horiz-adv-x="1311" d="M915 1300h259v-784q0 -151 -30.5 -244t-96 -159.5t-160.5 -99.5t-232 -33q-142 0 -239.5 35.5t-162.5 109t-91.5 162.5t-26.5 227v786h258v-798q0 -96 15.5 -143.5t48.5 -81t81 -52t115 -18.5q85 0 143 30t88.5 84.5t30.5 180.5v798zM389 1688v129h530v-129h-530z M944 1509q0 -49 -30 -78.5t-83 -29.5q-51 0 -82.5 29t-31.5 77q0 50 30.5 78.5t81.5 28.5q53 0 84 -28.5t31 -76.5zM594 1509q0 -49 -32 -78.5t-83 -29.5q-52 0 -83.5 29t-31.5 77q0 50 31.5 78.5t83.5 28.5q51 0 83 -28.5t32 -76.5z"/>
    <glyph glyph-name="udieresismacron" unicode="ǖ" d="M754 0l-15 162q-56 -88 -132 -135t-167 -47q-321 0 -321 364v617h250v-566q0 -97 36.5 -151t126.5 -54q76 0 134 59t71 144v568h250v-961h-233zM291 1346v129h530v-129h-530zM846 1167q0 -49 -30 -78.5t-83 -29.5q-51 0 -82.5 29t-31.5 77q0 50 30.5 78.5t81.5 28.5 q53 0 84 -28.5t31 -76.5zM496 1167q0 -49 -32 -78.5t-83 -29.5q-52 0 -83.5 29t-31.5 77q0 50 31.5 78.5t83.5 28.5q51 0 83 -28.5t32 -76.5z"/>
    <glyph glyph-name="Udieresisacute" unicode="Ǘ" horiz-adv-x="1311" d="M915 1300h259v-784q0 -151 -30.5 -244t-96 -159.5t-160.5 -99.5t-232 -33q-142 0 -239.5 35.5t-162.5 109t-91.5 162.5t-26.5 227v786h258v-798q0 -96 15.5 -143.5t48.5 -81t81 -52t115 -18.5q85 0 143 30t88.5 84.5t30.5 180.5v798zM594 1509q0 -49 -32 -78.5t-83 -29.5 q-52 0 -83.5 29t-31.5 77q0 50 31.5 78.5t83.5 28.5q51 0 83 -28.5t32 -76.5zM944 1509q0 -49 -30 -78.5t-83 -29.5q-51 0 -82.5 29t-31.5 77q0 50 30.5 78.5t81.5 28.5q53 0 84 -28.5t31 -76.5zM721 1647h-152l107 233h252z"/>
    <glyph glyph-name="udieresisacute" unicode="ǘ" d="M754 0l-15 162q-56 -88 -132 -135t-167 -47q-321 0 -321 364v617h250v-566q0 -97 36.5 -151t126.5 -54q76 0 134 59t71 144v568h250v-961h-233zM496 1167q0 -49 -32 -78.5t-83 -29.5q-52 0 -83.5 29t-31.5 77q0 50 31.5 78.5t83.5 28.5q51 0 83 -28.5t32 -76.5zM846 1167 q0 -49 -30 -78.5t-83 -29.5q-51 0 -82.5 29t-31.5 77q0 50 30.5 78.5t81.5 28.5q53 0 84 -28.5t31 -76.5zM623 1305h-152l107 233h252z"/>
    <glyph glyph-name="Udieresiscaron" unicode="Ǚ" horiz-adv-x="1311" d="M915 1300h259v-784q0 -151 -30.5 -244t-96 -159.5t-160.5 -99.5t-232 -33q-142 0 -239.5 35.5t-162.5 109t-91.5 162.5t-26.5 227v786h258v-798q0 -96 15.5 -143.5t48.5 -81t81 -52t115 -18.5q85 0 143 30t88.5 84.5t30.5 180.5v798zM944 1509q0 -49 -30 -78.5t-83 -29.5 q-51 0 -82.5 29t-31.5 77q0 50 30.5 78.5t81.5 28.5q53 0 84 -28.5t31 -76.5zM594 1509q0 -49 -32 -78.5t-83 -29.5q-52 0 -83.5 29t-31.5 77q0 50 31.5 78.5t83.5 28.5q51 0 83 -28.5t32 -76.5zM745 1661h-182l-194 219h161l123 -121l123 121h164z"/>
    <glyph glyph-name="udieresiscaron" unicode="ǚ" d="M754 0l-15 162q-56 -88 -132 -135t-167 -47q-321 0 -321 364v617h250v-566q0 -97 36.5 -151t126.5 -54q76 0 134 59t71 144v568h250v-961h-233zM846 1167q0 -49 -30 -78.5t-83 -29.5q-51 0 -82.5 29t-31.5 77q0 50 30.5 78.5t81.5 28.5q53 0 84 -28.5t31 -76.5zM496 1167 q0 -49 -32 -78.5t-83 -29.5q-52 0 -83.5 29t-31.5 77q0 50 31.5 78.5t83.5 28.5q51 0 83 -28.5t32 -76.5zM647 1319h-182l-194 219h161l123 -121l123 121h164z"/>
    <glyph glyph-name="Udieresisgrave" unicode="Ǜ" horiz-adv-x="1311" d="M915 1300h259v-784q0 -151 -30.5 -244t-96 -159.5t-160.5 -99.5t-232 -33q-142 0 -239.5 35.5t-162.5 109t-91.5 162.5t-26.5 227v786h258v-798q0 -96 15.5 -143.5t48.5 -81t81 -52t115 -18.5q85 0 143 30t88.5 84.5t30.5 180.5v798zM594 1509q0 -49 -32 -78.5t-83 -29.5 q-52 0 -83.5 29t-31.5 77q0 50 31.5 78.5t83.5 28.5q51 0 83 -28.5t32 -76.5zM944 1509q0 -49 -30 -78.5t-83 -29.5q-51 0 -82.5 29t-31.5 77q0 50 30.5 78.5t81.5 28.5q53 0 84 -28.5t31 -76.5zM381 1880h252l106 -233h-151z"/>
    <glyph glyph-name="udieresisgrave" unicode="ǜ" d="M754 0l-15 162q-56 -88 -132 -135t-167 -47q-321 0 -321 364v617h250v-566q0 -97 36.5 -151t126.5 -54q76 0 134 59t71 144v568h250v-961h-233zM496 1167q0 -49 -32 -78.5t-83 -29.5q-52 0 -83.5 29t-31.5 77q0 50 31.5 78.5t83.5 28.5q51 0 83 -28.5t32 -76.5zM846 1167 q0 -49 -30 -78.5t-83 -29.5q-51 0 -82.5 29t-31.5 77q0 50 30.5 78.5t81.5 28.5q53 0 84 -28.5t31 -76.5zM283 1538h252l106 -233h-151z"/>
    <glyph glyph-name="eturn" unicode="ǝ" horiz-adv-x="1024" d="M713 539q-4 116 -73 184t-189 68q-77 0 -158.5 -29t-128.5 -70l-86 152q64 61 172 98t233 37q219 0 350.5 -135.5t131.5 -364.5q0 -151 -60.5 -265t-170 -174t-249.5 -60q-197 0 -314.5 130.5t-117.5 350.5v78h660zM291 375q0 -105 54 -165t151 -60q92 0 151.5 61.5 t69.5 163.5h-426z"/>
    <glyph glyph-name="uni01DE" unicode="Ǟ" horiz-adv-x="1204" d="M940 0l-94 285h-508l-94 -285h-254l456 1300h308l460 -1300h-274zM592 1061l-193 -574h383zM10 547zM1194 519zM295 1479v135h604v-135h-604z"/>
    <glyph glyph-name="uni01DF" unicode="ǟ" horiz-adv-x="1016" d="M686 0q-20 60 -20 111q-114 -131 -291 -131q-144 0 -230 79t-86 215q0 108 66 181t204 108t330 35v45q0 156 -198 156q-75 0 -154.5 -24.5t-136.5 -61.5l-68 172q68 38 171 66t208 28q139 0 236 -42.5t143.5 -123t46.5 -209.5v-389q0 -131 45 -215h-266zM659 451 q-31 0 -114 -7t-132 -24.5t-75.5 -48.5t-26.5 -78q0 -66 38.5 -102.5t111.5 -36.5q58 0 111.5 32t86.5 88v177zM196 1137v135h604v-135h-604z"/>
    <glyph glyph-name="uni01E0" unicode="Ǡ" horiz-adv-x="1204" d="M940 0l-94 285h-508l-94 -285h-254l456 1300h308l460 -1300h-274zM592 1061l-193 -574h383zM10 547zM1194 519zM714 1511q0 -48 -32 -79t-84 -31q-53 0 -85 31t-32 77q0 48 32 78.5t85 30.5q52 0 84 -30t32 -77zM297 1679v135h604v-135h-604z"/>
    <glyph glyph-name="uni01E1" unicode="ǡ" horiz-adv-x="1016" d="M686 0q-20 60 -20 111q-114 -131 -291 -131q-144 0 -230 79t-86 215q0 108 66 181t204 108t330 35v45q0 156 -198 156q-75 0 -154.5 -24.5t-136.5 -61.5l-68 172q68 38 171 66t208 28q139 0 236 -42.5t143.5 -123t46.5 -209.5v-389q0 -131 45 -215h-266zM659 451 q-31 0 -114 -7t-132 -24.5t-75.5 -48.5t-26.5 -78q0 -66 38.5 -102.5t111.5 -36.5q58 0 111.5 32t86.5 88v177zM614 1157q0 -48 -32 -79t-84 -31q-53 0 -85 31t-32 77q0 48 32 78.5t85 30.5q52 0 84 -30t32 -77zM197 1325v135h604v-135h-604z"/>
    <glyph glyph-name="uni01E2" unicode="Ǣ" horiz-adv-x="1726" d="M838 0v332h-455l-180 -332h-285l739 1300h973v-202h-536v-316h495v-204h-495v-369h555v-209h-811zM838 1102h-43l-314 -572h357v572zM678 1479v135h604v-135h-604z"/>
    <glyph glyph-name="uni01E3" unicode="ǣ" horiz-adv-x="1616" d="M901 436v-16q8 -124 77.5 -188t184.5 -64q74 0 151.5 26.5t135.5 71.5l88 -151q-66 -62 -173 -98.5t-235 -36.5q-245 0 -376 170q-77 -92 -168.5 -131t-206.5 -39q-145 0 -232.5 77t-87.5 211q0 156 140.5 238t459.5 82v55q0 156 -198 156q-75 0 -154.5 -24.5 t-136.5 -61.5l-68 172q68 38 171 66t208 28q66 0 115 -8.5t96.5 -29t79 -51.5t37.5 -50q50 54 89.5 79.5t96.5 42.5t133 17q201 0 318 -132.5t117 -344.5v-66h-662zM1325 592q0 98 -54.5 157.5t-150.5 59.5q-91 0 -151 -60t-70 -157h426zM682 281q-29 82 -29 159 q-176 0 -259 -40t-83 -113q0 -64 42 -98.5t114 -34.5q64 0 122.5 35t92.5 92zM512 1137v135h604v-135h-604z"/>
    <glyph glyph-name="uni01E4" unicode="Ǥ" horiz-adv-x="1362" d="M1073 0l-24 133q-54 -70 -159.5 -111.5t-234.5 -41.5q-164 0 -298 85t-207.5 238.5t-73.5 351.5q0 195 82 347t227.5 235.5t321.5 83.5q153 0 273 -55.5t216 -173.5l-152 -156q-79 91 -155.5 128.5t-173.5 37.5q-109 0 -195 -55t-134 -157.5t-48 -236.5 q0 -211 101 -334.5t270 -123.5q95 0 173 29.5t117 78.5v19h-241v135h241v73h-270v175h516v-248h117v-135h-117v-322h-172z"/>
    <glyph glyph-name="uni01E5" unicode="ǥ" horiz-adv-x="1141" d="M967 -82q-107 -274 -463 -274q-107 0 -220.5 31.5t-185.5 78.5l82 176q68 -52 152 -77t162 -25q151 0 219 90h-176v135h229q4 28 4 60v157q-15 -33 -58.5 -68t-104 -58t-136.5 -23q-188 0 -300 116.5t-112 309.5q0 190 118 311t304 121q95 0 172.5 -44t110.5 -116l20 142 h230v-756q0 -87 -13 -152h140v-135h-174zM770 549q0 106 -61 172.5t-162 66.5q-102 0 -167 -66.5t-65 -172.5t62 -172t164 -66t165.5 66t63.5 172z"/>
    <glyph glyph-name="Gcaron" unicode="Ǧ" horiz-adv-x="1362" d="M1073 0l-24 133q-54 -70 -159.5 -111.5t-234.5 -41.5q-164 0 -298 85t-207.5 238.5t-73.5 351.5q0 195 82 347t227.5 235.5t321.5 83.5q54 0 101 -6.5t98.5 -22.5t99.5 -40.5t95 -61.5t95 -98l-152 -156l-34 40q-47 53 -125.5 89.5t-169.5 36.5q-109 0 -195 -55 t-134 -157.5t-48 -236.5q0 -208 100.5 -328t270.5 -120q97 0 174 32t116 87v186h-270v195h516v-705h-172zM813 1413h-231l-181 266h172l123 -168l123 168h174z"/>
    <glyph glyph-name="gcaron" unicode="ǧ" horiz-adv-x="1141" d="M1014 205q0 -204 -52.5 -316t-168.5 -178.5t-289 -66.5q-107 0 -220.5 31.5t-185.5 78.5l82 176q68 -42 155 -67t159 -25q135 0 205.5 64.5t70.5 210.5v75q-16 -35 -59.5 -72.5t-103.5 -62t-136 -24.5q-122 0 -216 59.5t-145 169t-51 248.5q0 136 54 244.5t150.5 168.5 t217.5 60q95 0 172.5 -44t110.5 -116l20 142h230v-756zM770 508q0 125 -60 202.5t-163 77.5t-167.5 -78t-64.5 -202q0 -122 61 -200.5t165 -78.5t166.5 78.5t62.5 200.5zM635 1071h-231l-181 266h172l123 -168l123 168h174z"/>
    <glyph glyph-name="uni01E8" unicode="Ǩ" horiz-adv-x="1184" d="M885 0l-346 573l-131 -145v-428h-258v1300h258v-559l458 559h301l-465 -530l482 -770h-299zM752 1413h-231l-181 266h172l123 -168l123 168h174z"/>
    <glyph glyph-name="uni01E9" unicode="ǩ" horiz-adv-x="1038" d="M752 0l-269 403l-104 -102v-301h-250v1341h250v-766l346 386h293l-369 -377l389 -584h-286zM717 1413h-231l-181 266h172l123 -168l123 168h174z"/>
    <glyph glyph-name="uni01EA" unicode="Ǫ" horiz-adv-x="1425" d="M1350 651q0 -288 -161 -471.5t-435 -197.5q-66 -66 -66 -136q0 -53 30.5 -75.5t72.5 -22.5q43 0 81 14t58 29l45 -82q-42 -42 -105.5 -68t-124.5 -26q-98 0 -156.5 52t-58.5 143q0 98 86 176q-249 30 -394.5 209t-145.5 456q0 198 78.5 351t224 236t334.5 83t334.5 -83 t224 -236t78.5 -351zM1085 653q0 202 -100 327.5t-272 125.5t-272.5 -125t-100.5 -328q0 -207 101.5 -330.5t271.5 -123.5q171 0 271.5 124.5t100.5 329.5z"/>
    <glyph glyph-name="uni01EB" unicode="ǫ" horiz-adv-x="1094" d="M811 -291q-43 -43 -106 -68.5t-123 -25.5q-98 0 -156.5 52t-58.5 143q0 48 22.5 95t65.5 83q-183 26 -289.5 157t-106.5 334q0 227 132.5 363.5t355.5 136.5t355 -135.5t132 -364.5q0 -216 -120 -349.5t-324 -147.5q-66 -66 -66 -136q0 -53 30.5 -75.5t72.5 -22.5 q43 0 81 14t58 29zM778 479q0 143 -62 227.5t-169 84.5q-110 0 -171 -85t-61 -227q0 -145 62.5 -228t169.5 -83q106 0 168.5 84t62.5 227z"/>
    <glyph glyph-name="uni01EC" unicode="Ǭ" horiz-adv-x="1425" d="M1350 651q0 -288 -161 -471.5t-435 -197.5q-66 -66 -66 -136q0 -53 30.5 -75.5t72.5 -22.5q43 0 81 14t58 29l45 -82q-42 -42 -105.5 -68t-124.5 -26q-98 0 -156.5 52t-58.5 143q0 98 86 176q-249 30 -394.5 209t-145.5 456q0 198 78.5 351t224 236t334.5 83t334.5 -83 t224 -236t78.5 -351zM1085 653q0 202 -100 327.5t-272 125.5t-272.5 -125t-100.5 -328q0 -207 101.5 -330.5t271.5 -123.5q171 0 271.5 124.5t100.5 329.5zM411 1479v135h604v-135h-604z"/>
    <glyph glyph-name="uni01ED" unicode="ǭ" horiz-adv-x="1094" d="M811 -291q-43 -43 -106 -68.5t-123 -25.5q-98 0 -156.5 52t-58.5 143q0 48 22.5 95t65.5 83q-183 26 -289.5 157t-106.5 334q0 227 132.5 363.5t355.5 136.5t355 -135.5t132 -364.5q0 -216 -120 -349.5t-324 -147.5q-66 -66 -66 -136q0 -53 30.5 -75.5t72.5 -22.5 q43 0 81 14t58 29zM778 479q0 143 -62 227.5t-169 84.5q-110 0 -171 -85t-61 -227q0 -145 62.5 -228t169.5 -83q106 0 168.5 84t62.5 227zM246 1137v135h604v-135h-604z"/>
    <glyph glyph-name="uni01EE" unicode="Ǯ" horiz-adv-x="1071" d="M1010 406q0 -199 -132 -312.5t-354 -113.5q-165 0 -293.5 59.5t-197.5 167.5l143 172q60 -95 140.5 -138.5t191.5 -43.5q114 0 180 53.5t66 144.5q0 118 -66.5 168.5t-236.5 50.5h-140v183l346 297h-567v206h889v-186l-387 -317q211 -11 314.5 -111t103.5 -280zM647 1413 h-231l-181 266h172l123 -168l123 168h174z"/>
    <glyph glyph-name="uni01EF" unicode="ǯ" horiz-adv-x="883" d="M848 61q0 -196 -129.5 -305.5t-360.5 -109.5q-126 0 -227.5 44t-163.5 124l127 149q56 -71 123.5 -99t149.5 -28q237 0 237 215q0 91 -32 146.5t-94.5 81.5t-184.5 26h-103v152l322 319h-489v185h798v-156l-360 -348q200 -16 293.5 -115t93.5 -281zM544 1071h-231 l-181 266h172l123 -168l123 168h174z"/>
    <glyph glyph-name="uni01F0" unicode="ǰ" horiz-adv-x="514" d="M385 -4q0 -77 -12.5 -142.5t-53.5 -113.5q-42 -48 -102 -72t-129 -24t-110.5 11.5t-61.5 20.5l25 179q12 -5 36.5 -10t47.5 -5q15 0 37 3t40 22q20 20 26.5 60.5t6.5 88.5v947h250v-965zM376 1071h-231l-181 266h172l123 -168l123 168h174z"/>
    <glyph glyph-name="uni01F1" unicode="Ǳ" horiz-adv-x="2443" d="M1266 651q0 -289 -175.5 -470t-490.5 -181h-450v1300h448q323 0 495.5 -183t172.5 -466zM1001 653q0 133 -46 233t-134.5 156t-226.5 56h-186v-891h186q195 0 301 118.5t106 327.5zM1353 0v178l689 920h-664v202h979v-182l-678 -909h705v-209h-1031z"/>
    <glyph glyph-name="uni01F2" unicode="ǲ" horiz-adv-x="2241" d="M1266 651q0 -289 -175.5 -470t-490.5 -181h-450v1300h448q323 0 495.5 -183t172.5 -466zM1001 653q0 133 -46 233t-134.5 156t-226.5 56h-186v-891h186q195 0 301 118.5t106 327.5zM1376 0v154l512 622h-492v185h789v-156l-502 -612h522v-193h-829z"/>
    <glyph glyph-name="uni01F3" unicode="ǳ" horiz-adv-x="2054" d="M799 0l-25 135q-47 -74 -126 -114.5t-173 -40.5q-186 0 -301 138.5t-115 360.5q0 223 117.5 361.5t304.5 138.5q92 0 169.5 -41.5t123.5 -118.5v522h250v-1341h-225zM780 483q0 133 -63 219t-166 86q-104 0 -170 -85.5t-66 -219.5q0 -136 63.5 -221.5t166.5 -85.5 q105 0 170 86t65 221zM1190 0v154l512 622h-492v185h789v-156l-502 -612h522v-193h-829z"/>
    <glyph glyph-name="uni01F4" unicode="Ǵ" horiz-adv-x="1362" d="M1073 0l-24 133q-54 -70 -159.5 -111.5t-234.5 -41.5q-164 0 -298 85t-207.5 238.5t-73.5 351.5q0 195 82 347t227.5 235.5t321.5 83.5q54 0 101 -6.5t98.5 -22.5t99.5 -40.5t95 -61.5t95 -98l-152 -156l-34 40q-47 53 -125.5 89.5t-169.5 36.5q-109 0 -195 -55 t-134 -157.5t-48 -236.5q0 -208 100.5 -328t270.5 -120q97 0 174 32t116 87v186h-270v195h516v-705h-172zM746 1413h-178l139 266h244z"/>
    <glyph glyph-name="uni01F5" unicode="ǵ" horiz-adv-x="1141" d="M1014 205q0 -204 -52.5 -316t-168.5 -178.5t-289 -66.5q-107 0 -220.5 31.5t-185.5 78.5l82 176q68 -42 155 -67t159 -25q135 0 205.5 64.5t70.5 210.5v75q-16 -35 -59.5 -72.5t-103.5 -62t-136 -24.5q-122 0 -216 59.5t-145 169t-51 248.5q0 136 54 244.5t150.5 168.5 t217.5 60q95 0 172.5 -44t110.5 -116l20 142h230v-756zM770 508q0 125 -60 202.5t-163 77.5t-167.5 -78t-64.5 -202q0 -122 61 -200.5t165 -78.5t166.5 78.5t62.5 200.5zM594 1071h-178l139 266h244z"/>
    <glyph glyph-name="uni01F6" unicode="Ƕ" horiz-adv-x="1980" d="M1235 403q0 -97 46.5 -150.5t137.5 -53.5t138 53.5t47 150.5v558h258v-617q0 -175 -113.5 -269.5t-329.5 -94.5q-214 0 -328 94.5t-114 269.5v234h-569v-578h-258v1300h258v-516h569v516h258v-897z"/>
    <glyph glyph-name="uni01F7" unicode="Ƿ" horiz-adv-x="1231" d="M150 -342v1642h258v-81q43 41 123.5 70.5t164.5 29.5q228 0 343.5 -119t115.5 -350q0 -156 -84.5 -306t-257 -289t-405.5 -245v-352h-258zM680 1104q-123 0 -196.5 -88t-75.5 -246v-520q221 118 352 279.5t131 322.5q0 252 -211 252z"/>
    <glyph glyph-name="Aringacute" unicode="Ǻ" horiz-adv-x="1204" d="M862 1178q0 -100 -57 -166l409 -1012h-274l-94 285h-508l-94 -285h-254l397 1001q-68 68 -68 177q0 117 77.5 192.5t195.5 75.5q117 0 193.5 -76t76.5 -192zM592 973l-189 -486h375zM723 1178q0 56 -37 94.5t-94 38.5t-95 -38t-38 -95q0 -58 38 -96t95 -38t94 39t37 95z M664 1511h-179l125 236h244zM208 1300zM10 527zM1194 575z"/>
    <glyph glyph-name="aringacute" unicode="ǻ" horiz-adv-x="1016" d="M682 1206q0 -80 -52.5 -131t-131.5 -51q-81 0 -133 51.5t-52 130.5q0 78 51 130.5t134 52.5q81 0 132.5 -52t51.5 -131zM588 1206q0 38 -26 64t-64 26q-39 0 -64.5 -26t-25.5 -64t25.5 -64t64.5 -26q38 0 64 26t26 64zM686 0q-20 60 -20 111q-114 -131 -291 -131 q-144 0 -230 79t-86 215q0 108 66 181t204 108t330 35v27q0 76 -50.5 115.5t-147.5 39.5q-75 0 -154.5 -24.5t-136.5 -61.5l-68 172q74 42 176.5 68.5t202.5 26.5q139 0 234.5 -42.5t143.5 -122.5t48 -210v-371q0 -131 45 -215h-266zM659 451q-31 0 -114 -7t-132 -24.5 t-75.5 -48.5t-26.5 -78q0 -66 38.5 -102.5t111.5 -36.5q58 0 111.5 32t86.5 88v177zM561 1442h-162l111 219h231z"/>
    <glyph glyph-name="uni022E" unicode="Ȯ" horiz-adv-x="1425" d="M1350 651q0 -198 -79 -351.5t-224 -236.5t-334 -83q-190 0 -335.5 83.5t-223.5 237t-78 350.5q0 198 78.5 351t224 236t334.5 83t334.5 -83t224 -236t78.5 -351zM1085 653q0 202 -100 327.5t-272 125.5t-272.5 -125t-100.5 -328q0 -207 101.5 -330.5t271.5 -123.5 q171 0 271.5 124.5t100.5 329.5zM838 1546q0 -52 -34.5 -88.5t-90.5 -36.5q-53 0 -88 35.5t-35 89.5t34.5 88.5t88.5 34.5q56 0 90.5 -35.5t34.5 -87.5z"/>
    <glyph glyph-name="uni022F" unicode="ȯ" horiz-adv-x="1094" d="M1034 479q0 -229 -133.5 -364t-353.5 -135q-223 0 -355.5 136.5t-132.5 362.5q0 227 132.5 363.5t355.5 136.5t355 -135.5t132 -364.5zM778 479q0 143 -62 227.5t-169 84.5q-110 0 -171 -85t-61 -227q0 -145 62.5 -228t169.5 -83q106 0 168.5 84t62.5 227zM674 1204 q0 -52 -34.5 -88.5t-90.5 -36.5q-53 0 -88 35.5t-35 89.5t34.5 88.5t88.5 34.5q56 0 90.5 -35.5t34.5 -87.5z"/>
    <glyph glyph-name="uni0250" unicode="ɐ" horiz-adv-x="1016" d="M322 961q20 -60 20 -111q114 131 291 131q142 0 228.5 -79t86.5 -216q0 -81 -38 -143.5t-117.5 -103.5t-198 -59t-246.5 -18v-45q0 -155 199 -155q75 0 154.5 24.5t136.5 61.5l67 -172q-68 -38 -171 -66t-208 -28q-141 0 -236.5 43t-142.5 123t-47 208v389q0 130 -45 216 h267zM348 510q34 0 105 5.5t126 20t86 48.5t31 84q0 64 -38 101.5t-111 37.5q-59 0 -112.5 -32t-86.5 -89v-176z"/>
    <glyph glyph-name="ascript" unicode="ɑ" horiz-adv-x="1155" d="M795 0l-21 135q-47 -74 -126 -114.5t-173 -40.5q-186 0 -301 138.5t-115 360.5q0 223 117.5 361.5t304.5 138.5q92 0 169.5 -41.5t123.5 -118.5l19 142h231v-961h-229zM782 483q0 135 -64 220t-167 85q-104 0 -170 -85.5t-66 -219.5q0 -136 63.5 -221.5t166.5 -85.5 q105 0 171 85.5t66 221.5z"/>
    <glyph glyph-name="uni0252" unicode="ɒ" horiz-adv-x="1155" d="M360 961l21 -136q106 156 299 156q186 0 301 -139t115 -361q0 -221 -117 -360t-305 -139q-93 0 -170.5 42t-122.5 117l-19 -141h-231v961h229zM373 477q0 -135 64 -220t167 -85t169.5 85t66.5 220q0 137 -64 222t-166 85q-105 0 -171 -85.5t-66 -221.5z"/>
    <glyph glyph-name="bhook" unicode="ɓ" horiz-adv-x="1155" d="M1094 481q0 -221 -118.5 -361t-305.5 -140q-70 0 -123 20t-91 49.5t-75 85.5l-25 -135h-225v1030q0 169 72 246.5t229 77.5q111 0 193 -37l-66 -172q-40 22 -78 22q-102 0 -102 -127v-221q52 78 132.5 119t170.5 41q185 0 298.5 -137.5t113.5 -360.5zM840 481 q0 137 -64 222t-168 85q-103 0 -169 -86t-66 -219q0 -136 63.5 -221.5t165.5 -85.5q106 0 172 85.5t66 219.5z"/>
    <glyph glyph-name="oopen" unicode="ɔ" horiz-adv-x="938" d="M20 825q53 69 158 111.5t228 42.5q137 0 245 -61.5t168 -175.5t60 -263q0 -148 -63.5 -261.5t-175 -175.5t-245.5 -62q-80 0 -154 21t-135.5 63t-80.5 73l114 154q48 -51 108.5 -79t121.5 -28q120 0 191 77.5t71 213.5q0 138 -70.5 215.5t-193.5 77.5q-64 0 -127 -28 t-111 -78z"/>
    <glyph glyph-name="uni0255" unicode="ɕ" horiz-adv-x="995" d="M786 668q-51 50 -113.5 78t-123.5 28q-105 0 -168.5 -80t-63.5 -213q0 -66 5 -90q69 60 153 92.5t166 32.5q138 0 221.5 -66.5t83.5 -177.5q0 -90 -49 -156t-135.5 -101t-196.5 -35q-137 0 -231 45l-76 -172l-199 71q44 119 105 226q-44 61 -69 147.5t-25 179.5 q0 142 60 257t167.5 180t234.5 65q117 0 219 -42.5t160 -115.5zM618 322q-101 0 -204 -109q24 -14 78 -28.5t96 -14.5q67 0 104 22.5t37 63.5q0 26 -27.5 46t-83.5 20z"/>
    <glyph glyph-name="drthook" unicode="ɖ" horiz-adv-x="1155" d="M780 483q0 133 -63 219t-166 86q-104 0 -170 -85.5t-66 -219.5q0 -136 63.5 -221.5t166.5 -85.5q105 0 170 86t65 221zM776 133q-107 -153 -301 -153q-186 0 -301 138.5t-115 360.5q0 223 117.5 361.5t304.5 138.5q92 0 169.5 -41.5t123.5 -118.5v522h250v-1409 q0 -42 18 -68t56 -26q52 0 88 21l45 -164q-44 -22 -104 -35.5t-119 -13.5q-120 0 -176 67.5t-56 198.5v221z"/>
    <glyph glyph-name="dhook" unicode="ɗ" horiz-adv-x="1155" d="M799 0l-25 135q-51 -74 -128.5 -114.5t-170.5 -40.5q-186 0 -301 138.5t-115 360.5q0 223 117.5 361.5t304.5 138.5q92 0 169.5 -41.5t123.5 -118.5v211q0 169 67 246.5t212 77.5q104 0 178 -37l-55 -172q-37 22 -66 22q-86 0 -86 -127v-1040h-225zM780 483 q0 133 -63 219t-166 86q-104 0 -170 -85.5t-66 -219.5q0 -136 63.5 -221.5t166.5 -85.5q105 0 170 86t65 221z"/>
    <glyph glyph-name="uni0258" unicode="ɘ" horiz-adv-x="1024" d="M53 420v78q0 219 117 350t315 131q218 0 349 -136t131 -364q0 -229 -131.5 -364t-350.5 -135q-127 0 -235 37t-170 98l86 151q45 -39 126.5 -68.5t160.5 -29.5q119 0 189 67t73 185h-660zM717 584q-10 102 -69 163.5t-152 61.5q-98 0 -151.5 -60.5t-53.5 -164.5h426z"/>
    <glyph glyph-name="schwa" unicode="ə" horiz-adv-x="1024" d="M713 539q-4 116 -73 184t-189 68q-77 0 -158.5 -29t-128.5 -70l-86 152q64 61 172 98t233 37q219 0 350.5 -135.5t131.5 -364.5q0 -151 -60.5 -265t-170 -174t-249.5 -60q-197 0 -314.5 130.5t-117.5 350.5v78h660zM291 375q0 -105 54 -165t151 -60q92 0 151.5 61.5 t69.5 163.5h-426z"/>
    <glyph glyph-name="uni025A" unicode="ɚ" horiz-adv-x="1417" d="M963 537l2 -58q0 -151 -60.5 -265t-170 -174t-249.5 -60q-197 0 -314.5 130.5t-117.5 350.5v14l639 166q-28 74 -90.5 112t-150.5 38q-77 0 -158.5 -29t-128.5 -70l-86 152q64 61 172 98t233 37q159 0 275 -74t168 -205l209 56q45 -169 59 -205.5t30 -54t36 -17.5 q42 0 110 49l47 -88q-43 -48 -98 -73t-105 -25q-84 0 -127.5 49.5t-70.5 159.5zM291 362q4 -98 56 -155t149 -57q108 0 166.5 80t58.5 245z"/>
    <glyph glyph-name="eopen" unicode="ɛ" horiz-adv-x="946" d="M561 412q-115 0 -175 -26t-60 -93q0 -123 198 -123q87 0 172 33.5t148 89.5l92 -172q-179 -141 -463 -141q-194 0 -304 77t-110 215q0 87 49 142.5t154 89.5q-74 15 -119 71t-45 132q0 128 112 200t314 72q244 0 377 -117l-86 -162q-35 37 -114.5 64t-163.5 27 q-85 0 -134 -29t-49 -74q0 -57 44.5 -80.5t168.5 -23.5h166v-172h-172z"/>
    <glyph glyph-name="eopenreversed" unicode="ɜ" horiz-adv-x="946" d="M213 412v172h166q125 0 169 24t44 80q0 45 -48.5 74t-133.5 29q-84 0 -164 -27t-115 -64l-86 162q133 117 377 117q205 0 315.5 -70t110.5 -196q0 -77 -46.5 -133t-117.5 -70q105 -34 154 -92.5t49 -145.5q0 -135 -114 -213.5t-312 -78.5q-272 0 -451 141l105 172 q137 -123 307 -123q199 0 199 133q0 60 -60 84.5t-176 24.5h-172z"/>
    <glyph glyph-name="uni025D" unicode="ɝ" horiz-adv-x="1264" d="M213 412v172h166q125 0 169 24t44 80q0 45 -48.5 74t-133.5 29q-84 0 -164 -27t-115 -64l-86 162q133 117 377 117q177 0 286 -54.5t134 -154.5l139 37q49 -177 63 -212t28.5 -50t33.5 -15q45 0 111 50l47 -88q-44 -48 -99 -73.5t-104 -25.5q-84 0 -127.5 49t-71.5 160 l-55 -16q-46 -59 -123 -76q105 -34 154 -92.5t49 -145.5q0 -135 -114 -213.5t-312 -78.5q-272 0 -451 141l105 172q137 -123 307 -123q199 0 199 133q0 60 -60 84.5t-176 24.5h-172z"/>
    <glyph glyph-name="uni025E" unicode="ɞ" horiz-adv-x="1094" d="M563 168q98 0 151.5 36t53.5 99q0 60 -62 84.5t-178 24.5h-49v172h43q126 0 171.5 24.5t45.5 79.5q0 43 -46.5 73t-119.5 30q-138 0 -198 -74.5t-60 -237.5q0 -114 25 -181t75.5 -98.5t147.5 -31.5zM545 -20q-236 0 -361 130t-125 369q0 229 136.5 364.5t369.5 135.5 q205 0 317.5 -70.5t112.5 -195.5q0 -77 -46.5 -133t-117.5 -70q106 -34 154.5 -92.5t48.5 -145.5q0 -140 -127.5 -216t-361.5 -76z"/>
    <glyph glyph-name="uni025F" unicode="ɟ" horiz-adv-x="717" d="M483 414v-418q0 -135 -32 -204t-102 -108.5t-163 -39.5q-101 0 -172 32l25 179q36 -15 84 -15q50 0 73.5 20.5t30 61.5t6.5 92v400h-184v172h184v375h250v-375h185v-172h-185z"/>
    <glyph glyph-name="ghook" unicode="ɠ" horiz-adv-x="1141" d="M1014 205q0 -204 -52.5 -316t-168.5 -178.5t-289 -66.5q-107 0 -220.5 31.5t-185.5 78.5l82 176q68 -42 155 -67t159 -25q135 0 205.5 64.5t70.5 210.5v75q-16 -35 -59.5 -72.5t-103.5 -62t-136 -24.5q-122 0 -216 59.5t-145 169t-51 248.5q0 136 54 244.5t150.5 168.5 t217.5 60q95 0 172.5 -44t110.5 -116v211q0 169 67 246.5t211 77.5q105 0 179 -37l-56 -172q-33 22 -65 22q-86 0 -86 -127v-835zM770 508q0 125 -60 202.5t-163 77.5t-167.5 -78t-64.5 -202q0 -122 61 -200.5t165 -78.5t166.5 78.5t62.5 200.5z"/>
    <glyph glyph-name="uni0261" unicode="ɡ" horiz-adv-x="1141" d="M1014 205q0 -204 -52.5 -316t-168.5 -178.5t-289 -66.5q-107 0 -220.5 31.5t-185.5 78.5l82 176q68 -42 155 -67t159 -25q135 0 205.5 64.5t70.5 210.5v75q-16 -35 -59.5 -72.5t-103.5 -62t-136 -24.5q-122 0 -216 59.5t-145 169t-51 248.5q0 136 54 244.5t150.5 168.5 t217.5 60q95 0 172.5 -44t110.5 -116l20 142h230v-756zM770 508q0 125 -60 202.5t-163 77.5t-167.5 -78t-64.5 -202q0 -122 61 -200.5t165 -78.5t166.5 78.5t62.5 200.5z"/>
    <glyph glyph-name="uni0262" unicode="ɢ" horiz-adv-x="1100" d="M838 0l-29 102q-54 -54 -93 -76.5t-88 -34t-112 -11.5q-208 0 -332.5 133.5t-124.5 365.5q0 145 61 260t173.5 177.5t259.5 62.5q121 0 219.5 -42.5t179.5 -139.5l-155 -146q-48 67 -103 95t-129 28q-114 0 -182 -81.5t-68 -213.5q0 -151 63.5 -231t180.5 -80 q63 0 118 25t87 67v92h-203v183h440v-535h-163z"/>
    <glyph glyph-name="gammalatinsmall" unicode="ɣ" horiz-adv-x="1004" d="M662 242q50 -65 85 -161.5t35 -166.5q0 -270 -280 -270q-142 0 -208.5 66.5t-66.5 203.5q0 74 33 168t82 158l-338 721h268l232 -529l231 529h262zM502 -188q76 0 76 94q0 38 -21 97.5t-57 113.5q-33 -54 -52.5 -112.5t-19.5 -98.5q0 -94 74 -94z"/>
    <glyph glyph-name="uni0264" unicode="ɤ" horiz-adv-x="995" d="M109 776q-38 0 -70 -18l-59 172q79 49 163 49q58 0 99.5 -14t74 -42t76.5 -96l105 -161l104 161q59 91 113.5 121.5t136.5 30.5q85 0 164 -49l-60 -172q-32 18 -69 18q-36 0 -62.5 -19.5t-64.5 -74.5l-125 -182q133 -152 133 -271q0 -118 -71 -183.5t-199 -65.5 q-129 0 -200 66t-71 183q0 119 133 271l-124 182q-43 60 -68 77t-59 17zM498 352q-26 -20 -44 -62.5t-18 -76.5q0 -46 18 -70t44 -24t43.5 24t17.5 70q0 35 -18 77t-43 62z"/>
    <glyph glyph-name="uni0265" unicode="ɥ" horiz-adv-x="1128" d="M369 961v-558q0 -111 40.5 -162t125.5 -51q77 0 137.5 60.5t77.5 146.5v564h249v-1301h-249v502q-59 -90 -139 -135t-171 -45q-319 0 -319 364v615h248z"/>
    <glyph glyph-name="hhook" unicode="ɦ" horiz-adv-x="1128" d="M760 0v557q0 111 -40.5 162t-125.5 51q-77 0 -137.5 -60.5t-77.5 -146.5v-563h-250v1030q0 169 73 246.5t230 77.5q111 0 193 -37l-66 -172q-40 22 -78 22q-102 0 -102 -127v-241q60 91 139 135.5t170 44.5q320 0 320 -365v-614h-248z"/>
    <glyph glyph-name="uni0267" unicode="ɧ" horiz-adv-x="1128" d="M760 557q0 111 -40.5 162t-125.5 51q-77 0 -137.5 -60.5t-77.5 -146.5v-563h-250v1030q0 169 73 246.5t230 77.5q111 0 193 -37l-66 -172q-40 22 -78 22q-102 0 -102 -127v-241q60 91 139 135.5t170 44.5q320 0 320 -365v-655q0 -154 -67 -233.5t-212 -79.5 q-70 0 -137.5 13t-97.5 32l57 176q41 -29 102 -29q54 0 80.5 34t26.5 110v575z"/>
    <glyph glyph-name="ibar" unicode="ɨ" horiz-adv-x="510" d="M0 586h129v375h250v-375h131v-172h-131v-414h-250v414h-129v172zM401 1245q0 -61 -40.5 -102t-104.5 -41q-66 0 -108 40.5t-42 100.5q0 59 40.5 100t107.5 41q63 0 105 -38t42 -101z"/>
    <glyph glyph-name="iotaafrican" unicode="ɩ" horiz-adv-x="594" d="M129 961h250v-685q0 -94 74 -94q52 0 88 21l45 -164q-44 -22 -104 -35.5t-120 -13.5q-233 0 -233 266v705z"/>
    <glyph glyph-name="uni026A" unicode="ɪ" horiz-adv-x="651" d="M598 961v-201h-147v-559h147v-201h-545v201h148v559h-148v201h545z"/>
    <glyph glyph-name="uni026B" unicode="ɫ" horiz-adv-x="510" d="M129 0v608l-12 2q-28 0 -50 -23.5t-30 -74.5l-119 14q0 91 57.5 157.5t137.5 66.5h16v591h250v-694h14q28 0 50 23.5t30 74.5l119 -14q0 -92 -58.5 -157.5t-136.5 -65.5h-18v-508h-250z"/>
    <glyph glyph-name="uni026C" unicode="ɬ" horiz-adv-x="854" d="M406 0v455h-74q-150 0 -228.5 67t-78.5 193q0 115 72 182.5t194 67.5q69 0 115 -29v405h249v-704h170v-182h-170v-455h-249zM221 717q0 -42 33.5 -61t99.5 -19h52v51q0 45 -22.5 77t-72.5 32q-42 0 -66 -21t-24 -59z"/>
    <glyph glyph-name="uni026D" unicode="ɭ" horiz-adv-x="508" d="M129 1341h250v-1409q0 -49 19 -71.5t67 -22.5t96 21l45 -164q-96 -49 -205 -49q-152 0 -212 70.5t-60 238.5v1386z"/>
    <glyph glyph-name="uni026E" unicode="ɮ" horiz-adv-x="1208" d="M930 51q0 91 -32 146.5t-94.5 81.5t-185.5 26h-102v152l322 319h-459v-776h-250v1341h250v-380h768v-156l-361 -348q200 -16 294 -116t94 -280q0 -196 -129.5 -305.5t-360.5 -109.5q-126 0 -227.5 44t-163.5 124l127 149q56 -71 123.5 -99t148.5 -28q238 0 238 215z"/>
    <glyph glyph-name="uni026F" unicode="ɯ" horiz-adv-x="1686" d="M369 961v-574q0 -108 36 -152.5t111 -44.5q49 0 90 30t70 79.5t37 97.5v564h250v-574q0 -107 35.5 -152t109.5 -45q49 0 91 30.5t71.5 79.5t36.5 97v564h249v-961h-233l-16 162q-54 -88 -130 -134t-163 -46q-108 0 -178 50t-97 142q-123 -192 -317 -192 q-146 0 -223.5 90.5t-77.5 257.5v631h248z"/>
    <glyph glyph-name="uni0270" unicode="ɰ" horiz-adv-x="1686" d="M369 961v-574q0 -108 36 -152.5t111 -44.5q49 0 90 30t70 79.5t37 97.5v564h250v-574q0 -107 35.5 -152t109.5 -45q49 0 91 30.5t71.5 79.5t36.5 97v564h249v-1301h-249v502q-54 -88 -130 -134t-163 -46q-108 0 -178 50t-97 142q-123 -192 -317 -192q-146 0 -223.5 90.5 t-77.5 257.5v631h248z"/>
    <glyph glyph-name="mhook" unicode="ɱ" horiz-adv-x="1686" d="M1565 -41q0 -154 -67 -233.5t-212 -79.5q-67 0 -133.5 12t-101.5 33l57 176q41 -29 102 -29q54 0 80.5 34t26.5 110v591q0 108 -36.5 152.5t-111.5 44.5q-49 0 -91 -30.5t-69.5 -79t-35.5 -97.5v-563h-250v573q0 108 -36 152.5t-109 44.5q-49 0 -91.5 -30.5t-71 -78.5 t-36.5 -98v-563h-250v961h233l17 -162q54 88 130 134t163 46q106 0 176 -49t98 -144q129 193 318 193q142 0 221.5 -90t79.5 -258v-672z"/>
    <glyph glyph-name="nhookleft" unicode="ɲ" horiz-adv-x="1128" d="M379 -88q0 -133 -57 -199.5t-177 -66.5q-59 0 -119 13.5t-104 35.5l45 164q36 -21 88 -21q38 0 56 26t18 68v1029h233l17 -162q60 91 139 135.5t170 44.5q320 0 320 -365v-614h-248v557q0 111 -40.5 162t-125.5 51q-77 0 -137.5 -60.5t-77.5 -146.5v-651z"/>
    <glyph glyph-name="uni0273" unicode="ɳ" horiz-adv-x="1128" d="M760 557q0 111 -40.5 162t-125.5 51q-77 0 -137.5 -60.5t-77.5 -146.5v-563h-250v961h233l17 -162q60 91 139 135.5t170 44.5q320 0 320 -365v-682q0 -94 73 -94q54 0 88 21l45 -164q-44 -22 -104 -35.5t-119 -13.5q-119 0 -175 66.5t-56 199.5v645z"/>
    <glyph glyph-name="uni0274" unicode="ɴ" horiz-adv-x="1163" d="M786 0l-421 643v-643h-236v961h268l402 -613v613h235v-961h-248z"/>
    <glyph glyph-name="uni0275" unicode="ɵ" horiz-adv-x="1094" d="M1034 479q0 -229 -133.5 -364t-353.5 -135q-223 0 -355.5 136.5t-132.5 362.5q0 227 132.5 363.5t355.5 136.5t355 -135.5t132 -364.5zM547 150q94 0 154 65t73 184h-457q13 -116 74.5 -182.5t155.5 -66.5zM547 809q-97 0 -156.5 -67t-71.5 -179h455q-15 116 -75 181 t-152 65z"/>
    <glyph glyph-name="OEsmallcap" unicode="ɶ" horiz-adv-x="1620" d="M836 0v88q-65 -57 -131 -82.5t-156 -25.5q-141 0 -253 62t-174.5 176t-62.5 261t62 262t173 177.5t247 62.5q100 0 169.5 -28t125.5 -85v93h704v-179h-461v-196h432v-176h-432v-230h482v-180h-725zM844 479q0 144 -72.5 230t-193.5 86q-124 0 -196.5 -86.5t-72.5 -229.5 q0 -138 71.5 -224.5t197.5 -86.5q123 0 194.5 86.5t71.5 224.5z"/>
    <glyph glyph-name="omegaclosed" unicode="ɷ" horiz-adv-x="1458" d="M729 791q-201 0 -307.5 -95.5t-106.5 -275.5q0 -252 160 -252q60 0 94.5 46.5t34.5 127.5v285h250v-285q0 -82 34 -128t95 -46q160 0 160 252q0 180 -107 275.5t-307 95.5zM729 979q198 0 347.5 -66t236 -197.5t86.5 -283.5q0 -218 -106 -335t-302 -117q-185 0 -262 145 q-77 -145 -262 -145q-197 0 -302.5 117.5t-105.5 334.5q0 153 87 284t236.5 197t346.5 66z"/>
    <glyph glyph-name="uni0278" unicode="ɸ" horiz-adv-x="1321" d="M539 -340v322q-221 13 -350.5 145.5t-129.5 349.5q0 216 131 352.5t349 147.5v364h245v-364q216 -13 347 -146.5t131 -353.5q0 -221 -131 -353t-347 -142v-322h-245zM311 477q0 -151 62.5 -231t169.5 -84v635q-107 -7 -169.5 -88t-62.5 -232zM1010 477q0 152 -61.5 233.5 t-168.5 86.5v-635q105 4 167.5 83.5t62.5 231.5z"/>
    <glyph glyph-name="uni0279" unicode="ɹ" horiz-adv-x="752" d="M47 229q35 -14 84 -14q89 0 155 65.5t87 168.5v512h250v-961h-234l-16 172q-39 -82 -116 -137t-163 -55q-48 0 -78 10z"/>
    <glyph glyph-name="uni027A" unicode="ɺ" horiz-adv-x="752" d="M47 229q35 -14 84 -14q89 0 155 65.5t87 168.5v892h250v-1341h-234l-16 172q-39 -82 -116 -137t-163 -55q-48 0 -78 10z"/>
    <glyph glyph-name="uni027B" unicode="ɻ" horiz-adv-x="752" d="M623 -68q0 -49 19 -71.5t67 -22.5t96 21l45 -164q-96 -49 -205 -49q-152 0 -212 70.5t-60 238.5v217q-39 -82 -116 -137t-163 -55q-48 0 -78 10l31 239q35 -14 84 -14q89 0 155 65.5t87 168.5v512h250v-1029z"/>
    <glyph glyph-name="rlongleg" unicode="ɼ" horiz-adv-x="752" d="M705 731l-23 7q-38 7 -61 7q-90 0 -156 -66.5t-86 -166.5v-852h-250v1301h233l17 -173q41 87 117.5 140t160.5 53q33 0 78 -10z"/>
    <glyph glyph-name="uni027D" unicode="ɽ" horiz-adv-x="752" d="M379 -68q0 -49 19 -71.5t67 -22.5t96 21l45 -164q-96 -49 -205 -49q-152 0 -212 70.5t-60 238.5v1006h233l17 -173q41 87 117.5 140t160.5 53q33 0 78 -10l-30 -240l-23 7q-38 7 -61 7q-90 0 -156 -66.5t-86 -166.5v-580z"/>
    <glyph glyph-name="uni027E" unicode="ɾ" horiz-adv-x="752" d="M705 727q-68 18 -134 18q-103 0 -147.5 -54.5t-44.5 -178.5v-512h-250v575q0 406 436 406q19 0 110 -7l60 -7z"/>
    <glyph glyph-name="rfishhookreversed" unicode="ɿ" horiz-adv-x="752" d="M16 967l61 7q91 7 109 7q437 0 437 -406v-915h-250v852q0 124 -44 178.5t-149 54.5q-65 0 -133 -18z"/>
    <glyph glyph-name="uni0280" unicode="ʀ" horiz-adv-x="1059" d="M756 0l-254 354h-123v-354h-250v961h455q187 0 292 -78t105 -221q0 -228 -227 -293l270 -369h-268zM727 651q0 75 -40 111.5t-130 36.5h-178v-285h168q73 0 108 14t53.5 43t18.5 80z"/>
    <glyph glyph-name="uni0281" unicode="ʁ" horiz-adv-x="1059" d="M1024 961l-270 -369q227 -65 227 -293q0 -142 -105 -220.5t-292 -78.5h-455v961h250v-355h123l254 355h268zM727 309q0 71 -39 104t-141 33h-168v-284h178q91 0 130.5 36t39.5 111z"/>
    <glyph glyph-name="uni0282" unicode="ʂ" horiz-adv-x="891" d="M840 297q0 -134 -103.5 -225.5t-306.5 -91.5q-93 0 -182 36v-84q0 -94 90 -94q52 0 88 21l45 -164q-44 -22 -104 -35.5t-119 -13.5q-103 0 -160 67.5t-57 198.5v231l123 154q47 -51 131.5 -89t154.5 -38q154 0 154 90q0 34 -31.5 57t-122.5 52l-77 24q-154 47 -218.5 114 t-64.5 173q0 135 104.5 218t280.5 83q100 0 199 -35.5t167 -93.5l-96 -158q-58 47 -130 75t-134 28q-149 0 -149 -86q0 -34 26.5 -54.5t122.5 -52.5q151 -45 207 -73t92.5 -63t53 -77.5t16.5 -93.5z"/>
    <glyph glyph-name="uni0283" unicode="ʃ" horiz-adv-x="641" d="M-96 -123q33 -10 100 -10q70 0 101.5 18.5t45 63.5t13.5 137v864q0 214 97 310t306 96q72 0 138 -15l-31 -219q-37 11 -101 11q-92 0 -125.5 -46.5t-33.5 -187.5v-864q0 -212 -97.5 -301.5t-306.5 -89.5q-77 0 -137 14z"/>
    <glyph glyph-name="uni0284" unicode="ʄ" horiz-adv-x="729" d="M229 616v334q0 215 98 310.5t306 95.5q73 0 137 -15l-31 -219q-37 11 -100 11q-92 0 -126 -47.5t-34 -186.5v-283h191v-182h-191v-399q0 -212 -97 -301.5t-306 -89.5q-78 0 -137 14l30 219q33 -10 101 -10q70 0 101.5 18.5t44.5 62t13 138.5v348h-170v182h170z"/>
    <glyph glyph-name="eshsquatreversed" unicode="ʅ" horiz-adv-x="782" d="M848 -342q-60 -14 -137 -14q-208 0 -306 89t-98 302v487q0 139 -33.5 186.5t-126.5 47.5q-69 0 -100 -11l-31 220q59 14 138 14q209 0 306 -96.5t97 -309.5v-487q0 -94 13.5 -138.5t46 -62.5t100.5 -18q67 0 100 10z"/>
    <glyph glyph-name="eshcurl" unicode="ʆ" horiz-adv-x="819" d="M559 154h170v-183h-170q0 -158 -88 -242.5t-248 -84.5q-137 0 -216 67.5t-79 182.5q0 126 79.5 193t228.5 67h73v796q0 215 98 310.5t306 95.5q73 0 137 -15l-31 -219q-37 11 -100 11q-92 0 -126 -47.5t-34 -186.5v-745zM125 -109q0 -37 23 -58t67 -21q45 0 69.5 29.5 t24.5 78.5v51h-51q-65 0 -99 -18.5t-34 -61.5z"/>
    <glyph glyph-name="tturned" unicode="ʇ" horiz-adv-x="698" d="M29 1200q112 31 209 31q106 0 169 -36t92 -97.5t29 -184.5v-481h136v-182h-136l-16 -250h-231v250h-252v182h252v434q0 94 -28.5 132t-86.5 38q-55 0 -113 -14z"/>
    <glyph glyph-name="uni0288" unicode="ʈ" horiz-adv-x="698" d="M670 -324q-108 -30 -209 -30q-107 0 -168 34t-92 95t-31 188v815h-135v183h135l16 249h232v-249h252v-183h-252v-768q0 -104 32 -137t82 -33q59 0 113 15z"/>
    <glyph glyph-name="uni0289" unicode="ʉ" d="M4 586h115v375h250v-375h368v375h250v-375h131v-172h-131v-414h-233l-15 162q-56 -88 -132 -135t-167 -47q-321 0 -321 364v70h-115v172zM532 190q76 0 134 59t71 144v21h-368v-19q0 -97 36.5 -151t126.5 -54z"/>
    <glyph glyph-name="uni028A" unicode="ʊ" horiz-adv-x="1102" d="M551 -20q-220 0 -350.5 114t-130.5 312q0 110 51 199t164 165h-248v191h448v-191q-74 -39 -120 -130t-46 -206q0 -132 59 -202t173 -70t172.5 70.5t58.5 201.5q0 115 -45.5 205t-120.5 131v191h449v-191h-248q112 -75 163.5 -164.5t51.5 -199.5q0 -196 -130 -311 t-351 -115z"/>
    <glyph glyph-name="uni028B" unicode="ʋ" horiz-adv-x="1102" d="M557 -20q-224 0 -331 94t-107 282v605h250v-539q0 -120 41.5 -177t140.5 -57q98 0 140 55.5t42 178.5v201q0 149 -100 149q-35 0 -70 -14l-43 192q90 25 170 25q153 0 223 -79.5t70 -274.5v-265q0 -376 -426 -376z"/>
    <glyph glyph-name="uni028C" unicode="ʌ" horiz-adv-x="1004" d="M997 0h-268l-231 711l-232 -711h-262l365 961h262z"/>
    <glyph glyph-name="uni028D" unicode="ʍ" horiz-adv-x="1507" d="M301 961h252l201 -685l198 685h252l279 -961h-254l-168 700l-184 -700h-244l-187 700l-165 -700h-256z"/>
    <glyph glyph-name="uni028E" unicode="ʎ" horiz-adv-x="1014" d="M721 1352q123 0 225 -47l-53 -185q-62 29 -109 29q-41 0 -62 -18.5t-40 -67.5l-47 -123l364 -940h-268l-231 715l-232 -715h-262l420 1087q56 146 122 205.5t173 59.5z"/>
    <glyph glyph-name="uni028F" unicode="ʏ" horiz-adv-x="989" d="M618 360v-360h-247v360l-365 601h268l222 -406l219 406h268z"/>
    <glyph glyph-name="zretroflexhook" unicode="ʐ" horiz-adv-x="899" d="M864 -68q0 -42 18 -68t56 -26q52 0 88 21l45 -164q-44 -22 -104 -35.5t-119 -13.5q-103 0 -160 67.5t-57 198.5v88h-596v154l512 622h-492v185h789v-156l-502 -612h522v-261z"/>
    <glyph glyph-name="uni0291" unicode="ʑ" horiz-adv-x="1149" d="M469 193q80 151 182.5 229t220.5 78q119 0 187.5 -59.5t68.5 -168.5q0 -135 -96.5 -203.5t-286.5 -68.5h-167q-38 -78 -74 -178l-164 57l49 121h-354v154l512 622h-492v185h789v-156l-502 -612h127zM844 344q-93 0 -178 -151h100q85 0 121.5 21.5t36.5 68.5 q0 23 -18.5 42t-61.5 19z"/>
    <glyph glyph-name="uni0292" unicode="ʒ" horiz-adv-x="883" d="M848 61q0 -196 -129.5 -305.5t-360.5 -109.5q-126 0 -227.5 44t-163.5 124l127 149q56 -71 123.5 -99t149.5 -28q237 0 237 215q0 91 -32 146.5t-94.5 81.5t-184.5 26h-103v152l322 319h-489v185h798v-156l-360 -348q200 -16 293.5 -115t93.5 -281z"/>
    <glyph glyph-name="ezhcurl" unicode="ʓ" horiz-adv-x="883" d="M145 -125q0 -78 170 -78q151 0 220 86q-86 72 -222 72q-88 0 -128 -22.5t-40 -57.5zM848 82q0 -87 -25 -164q40 -24 94 -70t84 -79l-124 -105q-28 28 -144 113q-119 -131 -405 -131q-181 0 -289.5 62t-108.5 169q0 106 99 167.5t274 61.5q93 0 176 -21.5t123 -49.5l1 10 l1 27q0 233 -305 233h-109v152l322 319h-489v185h798v-156l-360 -348q190 -14 288.5 -109.5t98.5 -265.5z"/>
    <glyph glyph-name="uni0294" unicode="ʔ" horiz-adv-x="854" d="M813 948q0 -154 -76.5 -259.5t-253.5 -176.5v-512h-250v610q154 53 217 93.5t92 95.5t29 135q0 103 -55 164t-162 61q-151 0 -260 -127l-90 158q62 78 169.5 121t234.5 43q186 0 295.5 -110t109.5 -296z"/>
    <glyph glyph-name="uni0295" unicode="ʕ" horiz-adv-x="854" d="M41 938q0 185 115.5 300.5t308.5 115.5q256 0 385 -164l-98 -150q-40 47 -73 68.5t-77.5 36t-101.5 14.5q-100 0 -158.5 -59t-58.5 -160q0 -123 71.5 -196.5t257.5 -133.5v-610h-250v512q-173 70 -247 175t-74 251z"/>
    <glyph glyph-name="uni0296" unicode="ʖ" horiz-adv-x="854" d="M813 51q0 -186 -114.5 -295.5t-301.5 -109.5q-125 0 -228 38t-165 113l96 168q107 -125 267 -125q97 0 150.5 61t53.5 165q0 125 -80 203t-258 120v572h250v-461q177 -56 253.5 -166.5t76.5 -282.5z"/>
    <glyph glyph-name="cstretched" unicode="ʗ" horiz-adv-x="940" d="M70 311q0 313 133 490.5t366 177.5q112 0 208 -43.5t147 -114.5l-115 -153q-49 51 -109.5 78.5t-119.5 27.5q-263 0 -263 -463t263 -463q60 0 120.5 28t108.5 79l115 -154q-12 -20 -50 -52.5t-85.5 -56t-103 -36t-116.5 -12.5q-233 0 -366 177t-133 490z"/>
    <glyph glyph-name="uni0298" unicode="ʘ" horiz-adv-x="1425" d="M1350 651q0 -198 -79 -351.5t-224 -236.5t-334 -83q-190 0 -335.5 83.5t-223.5 237t-78 350.5q0 198 78.5 351t224 236t334.5 83t334.5 -83t224 -236t78.5 -351zM1085 653q0 202 -100 327.5t-272 125.5t-272.5 -125t-100.5 -328q0 -207 101.5 -330.5t271.5 -123.5 q171 0 271.5 124.5t100.5 329.5zM860 662q0 -63 -42.5 -104.5t-104.5 -41.5q-65 0 -107.5 41t-42.5 103t42.5 103.5t105.5 41.5q65 0 107 -40.5t42 -102.5z"/>
    <glyph glyph-name="uni0299" unicode="ʙ" horiz-adv-x="1053" d="M985 274q0 -131 -106.5 -202.5t-300.5 -71.5h-449v961h481q174 0 263.5 -62.5t89.5 -175.5q0 -84 -53.5 -139.5t-145.5 -73.5v-6q111 -16 166 -71t55 -159zM715 684q0 115 -156 115h-182v-236h174q164 0 164 121zM733 293q0 56 -41 87.5t-127 31.5h-188v-250h188 q81 0 124.5 34.5t43.5 96.5z"/>
    <glyph glyph-name="eopenclosed" unicode="ʚ" horiz-adv-x="1094" d="M530 168q97 0 147 30.5t75.5 98t25.5 182.5q0 167 -61.5 239.5t-196.5 72.5q-72 0 -119 -30t-47 -73q0 -55 45 -79.5t172 -24.5h43v-172h-49q-115 0 -177 -24.5t-62 -84.5q0 -63 53.5 -99t150.5 -36zM549 -20q-236 0 -363 76t-127 216q0 87 49 145.5t154 92.5 q-72 15 -118 70.5t-46 132.5q0 126 112.5 196t317.5 70q233 0 369.5 -135.5t136.5 -364.5q0 -242 -125 -370.5t-360 -128.5z"/>
    <glyph glyph-name="uni029B" unicode="ʛ" horiz-adv-x="1100" d="M838 0l-29 102q-54 -54 -93 -76.5t-88 -34t-112 -11.5q-208 0 -332.5 133.5t-124.5 365.5q0 145 61 260t173.5 177.5t259.5 62.5q125 0 215 -41v25q0 141 71.5 217.5t196.5 76.5q57 0 93 -11t65 -23l-70 -164q-33 18 -71 18q-101 0 -101 -139v-141l-155 -146 q-48 67 -103 95t-129 28q-114 0 -182 -81.5t-68 -213.5q0 -151 63.5 -231t180.5 -80q63 0 118 25t87 67v92h-203v183h440v-535h-163z"/>
    <glyph glyph-name="uni029C" unicode="ʜ" horiz-adv-x="1171" d="M795 0v403h-416v-403h-250v961h250v-363h416v363h247v-961h-247z"/>
    <glyph glyph-name="uni029D" unicode="ʝ" horiz-adv-x="739" d="M582 1245q0 -60 -41 -101.5t-107 -41.5q-64 0 -105.5 39.5t-41.5 101.5q0 61 40.5 101t104.5 40q63 0 106.5 -38t43.5 -101zM559 154h170v-183h-170q0 -158 -88 -242.5t-248 -84.5q-137 0 -216 67.5t-79 182.5q0 126 79.5 193t228.5 67h73v807h250v-807zM125 -109 q0 -37 23 -58t67 -21q45 0 69.5 29.5t24.5 78.5v51h-51q-65 0 -99 -18.5t-34 -61.5z"/>
    <glyph glyph-name="kturned" unicode="ʞ" horiz-adv-x="1038" d="M287 961l268 -404l104 102v302h250v-1301h-250v725l-346 -385h-293l369 377l-389 584h287z"/>
    <glyph glyph-name="uni029F" unicode="ʟ" horiz-adv-x="864" d="M838 0h-709v961h250v-754h459v-207z"/>
    <glyph glyph-name="qhook" unicode="ʠ" horiz-adv-x="1155" d="M774 -340v475q-51 -74 -128.5 -114.5t-170.5 -40.5q-186 0 -301 138.5t-115 360.5q0 223 117.5 361.5t304.5 138.5q92 0 169.5 -41.5t123.5 -118.5v211q0 169 67 246.5t212 77.5q104 0 178 -37l-55 -172q-37 22 -66 22q-86 0 -86 -127v-1380h-250zM780 483q0 133 -63 219 t-166 86q-104 0 -170 -85.5t-66 -219.5q0 -136 63.5 -221.5t166.5 -85.5q105 0 170 86t65 221z"/>
    <glyph glyph-name="uni02A1" unicode="ʡ" horiz-adv-x="854" d="M483 215v-215h-250v215h-182v172h182v223q154 53 217 93.5t92 95.5t29 135q0 103 -55 164t-162 61q-151 0 -260 -127l-90 158q62 78 169.5 121t234.5 43q186 0 295.5 -110t109.5 -296q0 -154 -76.5 -259.5t-253.5 -176.5v-125h203v-172h-203z"/>
    <glyph glyph-name="uni02A2" unicode="ʢ" horiz-adv-x="854" d="M168 215v172h203v125q-178 71 -254 176.5t-76 259.5q0 186 109.5 296t295.5 110q127 0 234 -42.5t170 -121.5l-90 -158q-109 127 -260 127q-107 0 -162 -61t-55 -164q0 -82 30 -137t94.5 -96t213.5 -91v-223h182v-172h-182v-215h-250v215h-203z"/>
    <glyph glyph-name="dzlig" unicode="ʣ" horiz-adv-x="1878" d="M799 0l-25 135q-47 -74 -126 -114.5t-173 -40.5q-186 0 -301 138.5t-115 360.5q0 223 117.5 361.5t304.5 138.5q92 0 169.5 -41.5t123.5 -118.5v522h250v-380h799v-156l-502 -612h522v-193h-1044zM780 483q0 133 -63 219t-166 86q-104 0 -170 -85.5t-66 -219.5 q0 -136 63.5 -221.5t166.5 -85.5q105 0 170 86t65 221zM1024 776v-610l502 610h-502z"/>
    <glyph glyph-name="uni02A4" unicode="ʤ" horiz-adv-x="1870" d="M780 483q0 133 -63 219t-166 86q-104 0 -170 -85.5t-66 -219.5q0 -136 63.5 -221.5t166.5 -85.5q105 0 170 86t65 221zM1591 51q0 91 -32 146.5t-94.5 81.5t-184.5 26h-102v152l321 319h-475v-776h-225l-25 135q-108 -155 -299 -155q-186 0 -301 138.5t-115 360.5 q0 223 117.5 361.5t304.5 138.5q92 0 169.5 -41.5t123.5 -118.5v522h250v-380h784v-156l-360 -348q200 -16 293.5 -115t93.5 -281q0 -196 -129.5 -305.5t-359.5 -109.5q-125 0 -226.5 43.5t-165.5 124.5l127 149q56 -71 123.5 -99t149.5 -28q237 0 237 215z"/>
    <glyph glyph-name="dzligcurl" unicode="ʥ" horiz-adv-x="2128" d="M1448 193q80 151 182.5 229t220.5 78q119 0 187.5 -59.5t68.5 -168.5q0 -135 -96.5 -203.5t-286.5 -68.5h-168q-40 -84 -73 -178l-164 57l49 121h-569l-25 135q-47 -74 -126 -114.5t-173 -40.5q-186 0 -301 138.5t-115 360.5q0 223 117.5 361.5t304.5 138.5 q92 0 169.5 -41.5t123.5 -118.5v522h250v-380h799v-156l-502 -612h127zM780 483q0 133 -63 219t-166 86q-104 0 -170 -85.5t-66 -219.5q0 -136 63.5 -221.5t166.5 -85.5q105 0 170 86t65 221zM1024 776v-610l502 610h-502zM1823 344q-93 0 -178 -151h100q85 0 121.5 21.5 t36.5 68.5q0 23 -18.5 42t-61.5 19z"/>
    <glyph glyph-name="tslig" unicode="ʦ" horiz-adv-x="1503" d="M461 0q-118 0 -178.5 28t-86.5 91t-26 178v481h-135v183h135l16 249h232v-249h506q76 20 153 20q101 0 201 -36t166 -93l-96 -158q-58 47 -130 75t-135 28q-149 0 -149 -86q0 -34 26.5 -54.5t122.5 -52.5q155 -46 209.5 -73.5t90.5 -62t52.5 -76.5t16.5 -95 q0 -99 -53 -172t-133.5 -99t-223.5 -26h-581zM692 680q0 52 17 98h-291v-434q0 -89 28 -123.5t86 -34.5h519q155 0 155 74q0 34 -32 57.5t-121 51.5q-128 38 -191 67t-98.5 63.5t-53.5 79.5t-18 101z"/>
    <glyph glyph-name="uni02A7" unicode="ʧ" horiz-adv-x="1040" d="M379 -133q33 -10 100 -10q78 0 114.5 31t43.5 112q-92 -20 -176 -20q-107 0 -168 34t-92 95t-31 188v481h-135v183h135l16 249h232v-249h221q0 215 93.5 307t297.5 92q77 0 137 -14l-30 -220q-31 11 -101 11q-92 0 -125.5 -46.5t-33.5 -187.5v-862q0 -150 -39.5 -231 t-126 -120.5t-226.5 -39.5q-77 0 -137 14zM532 174q57 0 107 12v592h-221v-434q0 -104 32 -137t82 -33z"/>
    <glyph glyph-name="tcligcurl" unicode="ʨ" horiz-adv-x="1610" d="M510 -20q-187 0 -263.5 75.5t-76.5 241.5v481h-135v183h135l16 249h232v-249h252v-183h-252v-434q0 -90 32 -130t99 -40q59 0 110.5 23t85.5 51q-24 54 -32 108.5t-8 122.5q0 147 63 261t174.5 176.5t245.5 62.5q94 0 165.5 -24t124 -59t81.5 -75l-115 -153 q-49 51 -109.5 78.5t-120.5 27.5q-120 0 -191 -77.5t-71 -213.5q0 -51 9 -94q88 61 160.5 85t148.5 24q145 0 232 -65.5t87 -176.5q0 -127 -106 -201.5t-275 -74.5q-94 0 -189 28t-155 72q-69 -45 -165 -72.5t-189 -27.5zM1268 309q-56 0 -117 -28t-107 -68q63 -45 166 -45 q79 0 122.5 20.5t43.5 57.5q0 30 -30 46.5t-78 16.5z"/>
    <glyph glyph-name="uni02A9" unicode="ʩ" horiz-adv-x="1655" d="M1286 557q0 111 -40.5 162t-125.5 51q-77 0 -137.5 -60.5t-77.5 -146.5v-563h-250v778h-245v-778h-250v778h-127v183h127v94q0 102 40 166t111.5 99.5t169.5 35.5q106 0 205 -37l-31 -162l-16 5q-52 18 -100 18q-68 0 -99.5 -34t-31.5 -130v-55h481l16 -162 q59 90 138 135t171 45q320 0 320 -365v-655q0 -154 -67 -233.5t-212 -79.5q-67 0 -133.5 12t-101.5 33l57 176q41 -29 103 -29q52 0 79 32.5t27 111.5v575z"/>
    <glyph glyph-name="uni02AA" unicode="ʪ" horiz-adv-x="1274" d="M129 0v1341h250v-1046q73 -56 179.5 -91.5t207.5 -35.5t156 24.5t55 67.5q0 34 -31.5 57t-122.5 52q-173 53 -235 90.5t-93.5 90.5t-31.5 130q0 135 104.5 218t280.5 83q100 0 199 -35.5t167 -93.5l-96 -158q-58 47 -130 75t-134 28q-149 0 -149 -86q0 -34 26.5 -54.5 t122.5 -52.5q179 -57 245 -95.5t95 -88t29 -123.5q0 -158 -112.5 -237.5t-352.5 -79.5q-97 0 -208.5 29t-170.5 67v-76h-250z"/>
    <glyph glyph-name="uni02AB" unicode="ʫ" horiz-adv-x="1235" d="M129 0v1341h250v-380h801v-156l-502 -612h522v-193h-1071zM379 776v-612l504 612h-504z"/>
    <glyph glyph-name="uni02AC" unicode="ʬ" horiz-adv-x="1028" d="M844 0h-238l-92 422l-96 -422h-246l-147 604h194l92 -444l101 444h213l92 -444l94 444h193zM854 696h-248l-92 422l-96 -422h-232l-161 604h194l92 -444l101 444h213l92 -444l94 444h193z"/>
    <glyph glyph-name="uni02AD" unicode="ʭ" horiz-adv-x="1063" d="M705 317h-347v-317h-229v522h805v-522h-229v317zM705 1096h-347v-318h-229v522h805v-522h-229v318z"/>
    <glyph glyph-name="uni02AE" unicode="ʮ" horiz-adv-x="1190" d="M430 403q0 -111 40.5 -162t125.5 -51q77 0 137.5 60.5t77.5 146.5v564h250v-1301h-250v502q-60 -91 -139 -135.5t-170 -44.5q-320 0 -320 364v346q0 94 -73 94q-54 0 -89 -20l-45 164q46 23 111 36t113 13q119 0 175 -66.5t56 -199.5v-310z"/>
    <glyph glyph-name="uni02AF" unicode="ʯ" horiz-adv-x="1190" d="M1061 -68q0 -94 74 -94q52 0 88 21l45 -164q-44 -22 -104 -35.5t-120 -13.5q-233 0 -233 266v250q-60 -91 -139 -135.5t-170 -44.5q-320 0 -320 364v346q0 94 -73 94q-54 0 -89 -20l-45 164q46 23 111 36t113 13q119 0 175 -66.5t56 -199.5v-310q0 -111 40.5 -162 t125.5 -51q77 0 137.5 60.5t77.5 146.5v564h250v-1029z"/>
    <glyph glyph-name="uni02B0" unicode="ʰ" horiz-adv-x="858" d="M547 621v393q0 133 -103 133q-47 0 -86.5 -39.5t-50.5 -91.5v-395h-209v940h209v-334q82 86 205 86q244 0 244 -260v-432h-209z"/>
    <glyph glyph-name="uni02B1" unicode="ʱ" horiz-adv-x="858" d="M547 621v393q0 133 -103 133q-47 0 -86.5 -39.5t-50.5 -91.5v-395h-209v716q0 122 56.5 178t175.5 56q65 0 149 -29l8 -2l-59 -145q-33 24 -63 24q-58 0 -58 -76v-116q82 86 205 86q244 0 244 -260v-432h-209z"/>
    <glyph glyph-name="uni02B2" unicode="ʲ" horiz-adv-x="406" d="M322 1485q0 -49 -36 -80t-87 -31t-86 29.5t-35 79.5q0 45 33 76.5t86 31.5q54 0 89.5 -30.5t35.5 -75.5zM305 631q0 -124 -58.5 -189t-170.5 -65q-82 0 -139 26l20 150q13 -6 38.5 -12t35.5 -6q32 0 47.5 21.5t15.5 86.5v657h211v-669z"/>
    <glyph glyph-name="uni02B3" unicode="ʳ" horiz-adv-x="582" d="M539 1112q-47 18 -76 18q-49 0 -93 -44t-65 -105v-360h-209v679h199l6 -81q38 45 89 70.5t99 25.5q46 0 74 -8z"/>
    <glyph glyph-name="uni02B4" unicode="ʴ" horiz-adv-x="582" d="M39 811q43 -18 74 -18q50 0 94 45t61 104v358h211v-679h-198l-9 81q-34 -43 -84.5 -69.5t-99.5 -26.5q-44 0 -76 8z"/>
    <glyph glyph-name="uni02B5" unicode="ʵ" horiz-adv-x="582" d="M270 696q-35 -39 -84.5 -64.5t-97.5 -25.5q-42 0 -74 8l27 197q47 -18 74 -18q50 0 94 45t61 104v358h209v-714q0 -51 39 -51q38 0 74 22l37 -139q-31 -16 -79.5 -27.5t-96.5 -11.5q-183 0 -183 194v123z"/>
    <glyph glyph-name="uni02B6" unicode="ʶ" horiz-adv-x="807" d="M782 1300l-202 -253q82 -29 119.5 -80.5t37.5 -130.5q0 -102 -80 -158.5t-221 -56.5h-338v679h209v-239l58 -4l184 243h233zM524 844q0 42 -24 62t-88 20h-105v-172h113q54 0 79 22t25 68z"/>
    <glyph glyph-name="uni02B7" unicode="ʷ" horiz-adv-x="1135" d="M897 621h-207l-129 419l-129 -419h-207l-205 679h216l104 -426l119 426h200l121 -423l105 423h217z"/>
    <glyph glyph-name="uni02B8" unicode="ʸ" horiz-adv-x="774" d="M242 377q-105 0 -183 39l45 151q21 -10 49.5 -19t41.5 -9q40 0 57 51l20 57l-264 653h230l151 -448l150 448h223l-295 -735q-40 -103 -91.5 -145.5t-133.5 -42.5z"/>
    <glyph glyph-name="uni02B9" unicode="ʹ" horiz-adv-x="477" d="M272 831h-180l47 469h240z"/>
    <glyph glyph-name="uni02BA" unicode="ʺ" horiz-adv-x="856" d="M272 831h-180l47 469h240zM651 831h-180l47 469h240z"/>
    <glyph glyph-name="uni02BB" unicode="ʻ" horiz-adv-x="549" d="M457 1288q-199 -199 -199 -452l-209 63q0 121 73.5 254.5t180.5 210.5zM133 1356z"/>
    <glyph glyph-name="uni02BC" unicode="ʼ" horiz-adv-x="549" d="M500 1296q0 -121 -73.5 -254.5t-180.5 -210.5l-154 76q199 199 199 453zM100 1356z"/>
    <glyph glyph-name="afii64937" unicode="ʽ" horiz-adv-x="549" d="M258 1360q0 -254 199 -453l-154 -76q-107 78 -180.5 211t-73.5 254zM24 1356z"/>
    <glyph glyph-name="uni02BE" unicode="ʾ" horiz-adv-x="0" d="M-106 1141q37 0 62.5 21.5t25.5 51.5q0 31 -25.5 52.5t-62.5 21.5v115q90 0 151 -54.5t61 -134.5q0 -76 -62 -133t-150 -57v117z"/>
    <glyph glyph-name="uni02BF" unicode="ʿ" horiz-adv-x="0" d="M106 1024q-89 0 -150.5 56.5t-61.5 133.5q0 80 60.5 134.5t151.5 54.5v-115q-37 0 -62.5 -21.5t-25.5 -52.5q0 -30 25.5 -51.5t62.5 -21.5v-117z"/>
    <glyph glyph-name="uni02C0" unicode="ˀ" horiz-adv-x="874" d="M319 729v209q124 14 171 48t47 106q0 46 -36.5 75t-94.5 29q-125 0 -191 -68l-70 125q48 47 125 74t176 27q126 0 204.5 -69t78.5 -191q0 -80 -56 -142.5t-161 -101.5v-121h-193z"/>
    <glyph glyph-name="uni02C1" unicode="ˁ" horiz-adv-x="874" d="M358 729v121q-102 38 -157.5 100.5t-55.5 143.5q0 121 78 190.5t205 69.5q99 0 176 -27t125 -74l-70 -125q-66 68 -190 68q-59 0 -95 -29t-36 -75q0 -74 46 -107t167 -47v-209h-193z"/>
    <glyph glyph-name="uni02C2" unicode="˂" d="M102 532v191l914 369v-207l-688 -256l688 -256v-207z"/>
    <glyph glyph-name="uni02C3" unicode="˃" d="M102 166v207l689 256l-689 254v209l914 -369v-188z"/>
    <glyph glyph-name="uni02C4" unicode="˄" d="M463 1085h190l369 -913h-207l-256 688l-256 -688h-207z"/>
    <glyph glyph-name="uni02C5" unicode="˅" d="M655.057 146.133h-189.977l-368.955 912.889h206.975l255.969 -687.916l255.969 687.916h206.975z"/>
    <glyph glyph-name="uni02C8" unicode="ˈ" horiz-adv-x="0" d="M72 1071h-144v266h144v-266z"/>
    <glyph glyph-name="uni02CA" unicode="ˊ" horiz-adv-x="0" d="M-13 1071h-178l139 266h244z"/>
    <glyph glyph-name="uni02CB" unicode="ˋ" horiz-adv-x="0" d="M16 1071l-205 266h241l140 -266h-176z"/>
    <glyph glyph-name="vlinebelow" horiz-adv-x="821" d="M326 -115h170v-319h-170v319z"/>
    <glyph glyph-name="uni02CD" unicode="ˍ" horiz-adv-x="0" d="M-302 -263v135h604v-135h-604z"/>
    <glyph glyph-name="uni02CE" unicode="ˎ" horiz-adv-x="0" d="M16 -329l-205 266h241l140 -266h-176z"/>
    <glyph glyph-name="uni02CF" unicode="ˏ" horiz-adv-x="0" d="M-13 -329h-178l139 266h244z"/>
    <glyph glyph-name="uni02D0" unicode="ː" horiz-adv-x="0" d="M193 961l-193 -295l-193 295h386zM193 0h-386l193 295z"/>
    <glyph glyph-name="uni02D1" unicode="ˑ" horiz-adv-x="0" d="M172 961l-172 -275l-172 275h344z"/>
    <glyph glyph-name="uni02D2" unicode="˒" horiz-adv-x="0" d="M-106 598q37 0 62.5 21.5t25.5 52.5t-25.5 52t-62.5 21v115q90 0 151 -54.5t61 -133.5q0 -78 -62 -134.5t-150 -56.5v117z"/>
    <glyph glyph-name="uni02D3" unicode="˓" horiz-adv-x="0" d="M106 481q-90 0 -151 54.5t-61 134.5q0 76 62 133t150 57v-117q-37 0 -62.5 -21t-25.5 -52t25.5 -52.5t62.5 -21.5v-115z"/>
    <glyph glyph-name="uni02D4" unicode="˔" horiz-adv-x="0" d="M66 -86v-127h94v-133h-320v133h94v127h132z"/>
    <glyph glyph-name="uni02D5" unicode="˕" horiz-adv-x="0" d="M-66 -346v127h-94v133h320v-133h-94v-127h-132z"/>
    <glyph glyph-name="uni02D6" unicode="˖" horiz-adv-x="0" d="M66 -45v-88h94v-133h-94v-88h-132v88h-94v133h94v88h132z"/>
    <glyph glyph-name="uni02D7" unicode="˗" horiz-adv-x="0" d="M-195 -287v133h390v-133h-390z"/>
    <glyph glyph-name="uni02DE" unicode="˞" horiz-adv-x="0" d="M-43 756q49 -177 63 -212t28.5 -50t33.5 -15q43 0 111 49l47 -88q-44 -48 -99 -73t-104 -25q-84 0 -127.5 49t-71.5 160l-90 -25l-41 164z"/>
    <glyph glyph-name="uni02DF" unicode="˟" horiz-adv-x="0" d="M-102 1247l-123 125l102 103l123 -125l125 125l102 -103l-125 -125l125 -123l-102 -102l-125 123l-123 -123l-102 102z"/>
    <glyph glyph-name="uni02E0" unicode="ˠ" horiz-adv-x="766" d="M510 803q32 -42 58 -109t26 -119q0 -198 -215 -198q-108 0 -160.5 48t-52.5 150q0 46 24 112.5t56 113.5l-246 499h227l154 -333l154 333h219zM379 514q37 0 37 55q0 45 -39 115q-15 -30 -25 -63t-10 -52q0 -55 37 -55z"/>
    <glyph glyph-name="uni02E1" unicode="ˡ" horiz-adv-x="406" d="M94 621v940h211v-940h-211z"/>
    <glyph glyph-name="uni02E2" unicode="ˢ" horiz-adv-x="684" d="M635 836q0 -102 -87 -166t-220 -64q-85 0 -171 38t-134 89l106 123q40 -42 100 -69t105 -27q94 0 94 51q0 23 -43 42t-110 36q-68 17 -117.5 44t-73 68t-23.5 97q0 97 78.5 157t212.5 60q74 0 149 -27.5t132 -73.5l-84 -129q-50 39 -101 59.5t-92 20.5q-90 0 -90 -47 q0 -21 22.5 -34t73.5 -25q160 -43 216.5 -94t56.5 -129z"/>
    <glyph glyph-name="uni02E3" unicode="ˣ" horiz-adv-x="750" d="M508 621l-141 225q-46 -69 -142 -225h-235l252 348l-238 331h236l133 -208l131 208h229l-237 -331l252 -348h-240z"/>
    <glyph glyph-name="uni02E4" unicode="ˤ" horiz-adv-x="657" d="M35 1274q0 135 86.5 216t230.5 81q198 0 295 -121l-92 -133q-72 96 -178 96q-68 0 -103.5 -38.5t-35.5 -98.5q0 -78 49.5 -125.5t185.5 -89.5v-440h-211v352q-86 41 -129.5 81t-70.5 93t-27 127z"/>
    <glyph glyph-name="uni02E5" unicode="˥" horiz-adv-x="819" d="M414 1174h-281v126h420v-1300h-139v1174z"/>
    <glyph glyph-name="uni02E6" unicode="˦" horiz-adv-x="819" d="M414 895h-281v127h281v278h139v-1300h-139v895z"/>
    <glyph glyph-name="uni02E7" unicode="˧" horiz-adv-x="819" d="M414 588h-281v127h281v585h139v-1300h-139v588z"/>
    <glyph glyph-name="uni02E8" unicode="˨" horiz-adv-x="819" d="M414 1300h139v-1300h-139v279h-281v127h281v894z"/>
    <glyph glyph-name="uni02E9" unicode="˩" horiz-adv-x="819" d="M414 1300h139v-1300h-420v127h281v1173z"/>
    <glyph glyph-name="uni02EA" unicode="˪" horiz-adv-x="819" d="M406 127h280v-127h-420v1300h140v-1173z"/>
    <glyph glyph-name="uni02EB" unicode="˫" horiz-adv-x="819" d="M406 713h280v-127h-280v-586h-140v1300h140v-587z"/>
    <glyph glyph-name="uni02EC" unicode="ˬ" horiz-adv-x="0" d="M116 -329h-231l-181 266h172l123 -168l123 168h174z"/>
    <glyph glyph-name="uni02ED" unicode="˭" horiz-adv-x="0" d="M-358 1335v144h716v-144h-716zM-358 1065v143h716v-143h-716z"/>
    <glyph glyph-name="uni02EE" unicode="ˮ" horiz-adv-x="958" d="M909 1296q0 -121 -73.5 -254.5t-180.5 -210.5l-153 76q198 198 198 453zM500 1296q0 -121 -73.5 -254.5t-180.5 -210.5l-154 76q199 199 199 453zM128 1356z"/>
    <glyph glyph-name="uni02EF" unicode="˯" horiz-adv-x="0" d="M0 -252l88 195h127l-143 -299h-144l-143 299h127z"/>
    <glyph glyph-name="uni02F0" unicode="˰" horiz-adv-x="0" d="M0 -162l-88 -194h-127l143 299h144l143 -299h-127z"/>
    <glyph glyph-name="uni02F1" unicode="˱" horiz-adv-x="0" d="M4 -174l146 -55v-127l-300 131v102l300 131v-127z"/>
    <glyph glyph-name="uni02F2" unicode="˲" horiz-adv-x="0" d="M-4 -174l-146 55v127l300 -131v-102l-300 -131v127z"/>
    <glyph glyph-name="uni02F3" unicode="˳" horiz-adv-x="0" d="M174 -195q0 -70 -49.5 -115.5t-124.5 -45.5t-124.5 44t-49.5 115q0 74 49 119t125 45q73 0 123.5 -44.5t50.5 -117.5zM0 -119q-32 0 -56 -21t-24 -55t24 -54.5t56 -20.5q34 0 57 20t23 55q0 34 -23 55t-57 21z"/>
    <glyph glyph-name="uni02F4" unicode="˴" horiz-adv-x="0" d="M16 550l-205 266h241l140 -266h-176z"/>
    <glyph glyph-name="uni02F5" unicode="˵" horiz-adv-x="0" d="M159 550h-178l139 266h244zM-185 550h-178l139 266h242z"/>
    <glyph glyph-name="uni02F6" unicode="˶" horiz-adv-x="0" d="M-363 816h243l140 -266h-178zM-17 816h242l139 -266h-178z"/>
    <glyph glyph-name="uni02F7" unicode="˷" horiz-adv-x="0" d="M327 -91q0 -91 -57.5 -157.5t-137.5 -66.5q-79 0 -139 44q-25 17 -60 38t-61 21q-28 0 -50 -24t-30 -75l-118 15q0 92 58.5 157.5t135.5 65.5q79 0 140 -43q16 -12 54.5 -35.5t65.5 -23.5q28 0 50 23.5t30 74.5z"/>
    <glyph glyph-name="uni02F8" unicode="˸" horiz-adv-x="0" d="M148 500q0 -62 -42 -103.5t-105 -41.5q-64 0 -107 40t-43 103q0 62 42 103.5t106 41.5q65 0 107 -40.5t42 -102.5zM148 1182q0 -62 -42 -103.5t-105 -41.5q-64 0 -107 40t-43 103q0 62 42 103.5t106 41.5q65 0 107 -40.5t42 -102.5z"/>
    <glyph glyph-name="uni02F9" unicode="˹" horiz-adv-x="0" d="M-160 918v382h320v-133h-189v-249h-131z"/>
    <glyph glyph-name="uni02FA" unicode="˺" horiz-adv-x="0" d="M29 918v249h-189v133h320v-382h-131z"/>
    <glyph glyph-name="uni02FB" unicode="˻" horiz-adv-x="0" d="M-29 383v-250h189v-133h-320v383h131z"/>
    <glyph glyph-name="uni02FC" unicode="˼" horiz-adv-x="0" d="M160 383v-383h-320v133h189v250h131z"/>
    <glyph glyph-name="uni02FD" unicode="˽" horiz-adv-x="0" d="M-238 -215h476v129h131v-262h-738v262h131v-129z"/>
    <glyph glyph-name="uni02FE" unicode="˾" horiz-adv-x="0" d="M-238 -215h607v-133h-738v262h131v-129z"/>
    <glyph glyph-name="uni02FF" unicode="˿" horiz-adv-x="0" d="M-137 -197l153 -55v-104l-395 168v98l395 168v-105l-155 -55h518v-115h-516z"/>
    <glyph glyph-name="gravecomb" unicode="̀" horiz-adv-x="0" d="M14 1071l-204 266h241l139 -266h-176z"/>
    <glyph glyph-name="acutecomb" unicode="́" horiz-adv-x="0" d="M-12 1071h-178l139 266h244z"/>
    <glyph glyph-name="circumflexcomb" unicode="̂" horiz-adv-x="0" d="M123 1071l-121 168l-125 -168h-172l180 266h232l180 -266h-174z"/>
    <glyph glyph-name="tildecomb" unicode="̃" horiz-adv-x="0" d="M328 1307q0 -91 -57.5 -157.5t-137.5 -66.5q-79 0 -139 44q-21 14 -54.5 34.5t-49 22.5t-17.5 2q-28 0 -50 -24t-30 -75l-119 15q0 92 58.5 157.5t136.5 65.5q79 0 140 -43q16 -12 54.5 -35.5t65.5 -23.5q28 0 50 23.5t30 74.5z"/>
    <glyph glyph-name="macroncomb" unicode="̄" horiz-adv-x="0" d="M-301 1137v135h604v-135h-604z"/>
    <glyph glyph-name="brevecomb" unicode="̆" horiz-adv-x="0" d="M295 1323q-28 -127 -104.5 -190.5t-188.5 -63.5t-189.5 62.5t-105.5 189.5l129 25q16 -67 59.5 -103.5t104.5 -36.5t104 36.5t60 103.5z"/>
    <glyph glyph-name="dotaccentcomb" unicode="̇" horiz-adv-x="0" d="M123 1204q0 -52 -34.5 -88.5t-90.5 -36.5q-53 0 -88 35.5t-35 89.5t34.5 88.5t88.5 34.5q56 0 90.5 -35.5t34.5 -87.5z"/>
    <glyph glyph-name="dieresiscomb" unicode="̈" horiz-adv-x="0" d="M289 1206q0 -51 -31 -85t-84 -34t-85 34t-32 83q0 51 31 84t84 33t85 -32.5t32 -82.5zM-53 1206q0 -51 -32 -85t-85 -34t-85 34t-32 83q0 51 32 84t85 33t85 -32.5t32 -82.5z"/>
    <glyph glyph-name="hookabovecomb" unicode="̉" horiz-adv-x="0" d="M-90 1032v115q143 25 143 84q0 29 -16 42t-53 13q-38 0 -71 -14.5t-54 -36.5l-45 82q31 29 81 49t113 20q79 0 128.5 -38t49.5 -113q0 -60 -27 -93t-96 -57v-53h-153z"/>
    <glyph glyph-name="ringcomb" unicode="̊" horiz-adv-x="0" d="M184 1233q0 -80 -52.5 -131t-131.5 -51q-80 0 -132 51.5t-52 130.5q0 80 52.5 131t131.5 51q80 0 132 -51.5t52 -130.5zM90 1233q0 38 -26 64t-64 26t-64 -26t-26 -64t26 -64t64 -26t64 26t26 64z"/>
    </font>
</defs>
</svg>
