<?xml version="1.0" standalone="no"?>
<!DOCTYPE svg PUBLIC "-//W3C//DTD SVG 1.1//EN" "http://www.w3.org/Graphics/SVG/1.1/DTD/svg11.dtd" >
<svg xmlns="http://www.w3.org/2000/svg">
<metadata></metadata>
<defs>
<font id="trade_gothic_next_lt_proBdIt" horiz-adv-x="1220" >
<font-face units-per-em="2048" ascent="1475" descent="-573" />
<missing-glyph horiz-adv-x="507" />
<glyph unicode="&#xfb01;" horiz-adv-x="1259" d="M29 0l182 817h-123l57 252h121l21 94q17 78 43.5 135t70.5 103.5t113 70t162 23.5q104 0 217 -22l-55 -240q-52 12 -82 12q-57 0 -83.5 -29.5t-39.5 -91.5l-12 -55h190l-57 -252h-189l-182 -817h-354zM684 0l236 1069h360l-236 -1069h-360zM948 1196l68 299h360l-67 -299 h-361z" />
<glyph unicode="&#xfb02;" horiz-adv-x="1259" d="M29 0l182 817h-123l57 252h121l21 94q17 78 43.5 135t70.5 103.5t113 70t162 23.5q104 0 217 -22l-55 -240q-52 12 -82 12q-57 0 -83.5 -29.5t-39.5 -91.5l-12 -55h190l-57 -252h-189l-182 -817h-354zM684 0l326 1470h360l-326 -1470h-360z" />
<glyph unicode="&#xfb03;" horiz-adv-x="1957" d="M29 0l182 817h-123l57 252h121l21 94q17 78 43.5 135t70.5 103.5t113 70t162 23.5q104 0 217 -22l-55 -240q-52 12 -82 12q-57 0 -83.5 -29.5t-39.5 -91.5l-12 -55h311l20 94q17 78 43.5 135t70.5 103.5t113 70t162 23.5q105 0 218 -22l-56 -240q-52 12 -82 12 q-57 0 -83.5 -29.5t-39.5 -91.5l-12 -55h191l-58 -252h-188l-182 -817h-355l183 817h-312l-182 -817h-354zM1382 0l236 1069h360l-235 -1069h-361zM1647 1196l67 299h361l-68 -299h-360z" />
<glyph unicode="&#xfb04;" horiz-adv-x="1957" d="M29 0l182 817h-123l57 252h121l21 94q17 78 43.5 135t70.5 103.5t113 70t162 23.5q104 0 217 -22l-55 -240q-52 12 -82 12q-57 0 -83.5 -29.5t-39.5 -91.5l-12 -55h311l20 94q17 78 43.5 135t70.5 103.5t113 70t162 23.5q105 0 218 -22l-56 -240q-52 12 -82 12 q-57 0 -83.5 -29.5t-39.5 -91.5l-12 -55h191l-58 -252h-188l-182 -817h-355l183 817h-312l-182 -817h-354zM1382 0l326 1470h360l-325 -1470h-361z" />
<glyph horiz-adv-x="2048" />
<glyph horiz-adv-x="2048" />
<glyph horiz-adv-x="682" />
<glyph unicode="&#xd;" horiz-adv-x="0" />
<glyph unicode=" "  horiz-adv-x="507" />
<glyph unicode="&#x09;" horiz-adv-x="507" />
<glyph unicode="&#xa0;" horiz-adv-x="507" />
<glyph unicode="!" horiz-adv-x="593" d="M-31 0l80 367h373l-80 -367h-373zM141 547l127 923h418l-297 -923h-248z" />
<glyph unicode="&#x22;" horiz-adv-x="1019" d="M188 772l95 698h354l-236 -698h-213zM614 772l95 698h354l-236 -698h-213z" />
<glyph unicode="#" d="M45 395l45 217h248l88 256h-244l47 217h273l135 385h164l-135 -385h202l136 385h163l-135 -385h213l-47 -217h-242l-90 -256h240l-47 -217h-268l-138 -395h-161l137 395h-205l-137 -395h-162l137 395h-217zM500 612h205l88 256h-203z" />
<glyph unicode="$" d="M23 408l329 108q39 -144 148 -194l67 307q-42 21 -71 37t-68.5 41t-66.5 48t-56.5 56t-47 67t-29 77.5t-11.5 91.5q0 180 133 297.5t371 117.5h33l32 150h172l-38 -172q121 -30 200.5 -103.5t122.5 -201.5l-287 -113q-30 77 -102 117l-59 -265q45 -23 69.5 -36t66.5 -39 t66.5 -47t55 -54t47 -66t28 -78t11.5 -95q0 -94 -31.5 -171t-83.5 -127.5t-122.5 -85.5t-145 -50.5t-154.5 -16.5l-55 -254h-172l57 264q-155 26 -256.5 118t-152.5 272zM575 1069q0 -61 66 -111l47 211q-113 -9 -113 -100zM668 303q131 21 131 131q0 56 -78 111z" />
<glyph unicode="%" horiz-adv-x="1591" d="M137 1149q0 146 94.5 246t247.5 100t247.5 -100t94.5 -246q0 -144 -94.5 -244t-247.5 -100t-247.5 100t-94.5 244zM139 -53l1188 1573h176l-1190 -1573h-174zM322 1149q0 -73 41.5 -118.5t115.5 -45.5q73 0 114.5 45.5t41.5 118.5q0 71 -42 118.5t-114 47.5 q-74 0 -115.5 -47.5t-41.5 -118.5zM829 319q0 146 94.5 246.5t247.5 100.5t247.5 -100.5t94.5 -246.5q0 -144 -94.5 -244t-247.5 -100t-247.5 100t-94.5 244zM1014 319q0 -73 41.5 -118t115.5 -45q73 0 114.5 45.5t41.5 117.5q0 71 -42 118.5t-114 47.5q-74 0 -115.5 -47.5 t-41.5 -118.5z" />
<glyph unicode="&#x26;" horiz-adv-x="1353" d="M-20 387q0 80 25 147t71.5 119t98 90.5t120.5 75.5q-74 154 -74 258q0 193 117.5 305.5t329.5 112.5q192 0 295.5 -91.5t103.5 -234.5q0 -46 -11 -87t-28.5 -73.5t-47 -64t-57 -54t-68.5 -48t-72.5 -42t-77.5 -38.5q45 -72 98 -144q36 -51 84 -106q64 118 92 258l287 -72 q-47 -203 -144 -362q71 -33 191 -60l-84 -309q-190 27 -348 123q-178 -115 -410 -115q-143 0 -252 44.5t-174 139t-65 228.5zM338 408q0 -68 41 -112t123 -44q69 0 145 29q-56 62 -106 135q-53 72 -119 178q-84 -81 -84 -186zM567 1094q0 -52 27 -123q67 41 102 81.5 t35 92.5q0 80 -72 80q-49 0 -70.5 -38t-21.5 -93z" />
<glyph unicode="'" horiz-adv-x="593" d="M188 772l95 698h354l-236 -698h-213z" />
<glyph unicode="(" horiz-adv-x="700" d="M133 518q0 270 111 507.5t344 469.5h270q-496 -470 -496 -977q0 -307 170 -633h-241q-158 329 -158 633z" />
<glyph unicode=")" horiz-adv-x="700" d="M-102 -115q495 469 495 977q0 307 -170 633h242q158 -329 158 -633q0 -270 -111 -507.5t-344 -469.5h-270z" />
<glyph unicode="*" horiz-adv-x="864" d="M158 1141l61 184l275 -133l-41 303h194l-41 -303l275 129l61 -184l-301 -52l207 -221l-158 -114l-141 270l-146 -268l-157 114l213 219z" />
<glyph unicode="+" d="M104 457v139h445v420h141v-420h443v-139h-443v-441h-141v441h-445z" />
<glyph unicode="," horiz-adv-x="593" d="M-102 -332l192 332h-121l80 367h373l-76 -344l-246 -355h-202z" />
<glyph unicode="-" horiz-adv-x="681" d="M23 397l65 299h582l-66 -299h-581z" />
<glyph unicode="." horiz-adv-x="593" d="M-31 0l80 367h373l-80 -367h-373z" />
<glyph unicode="/" horiz-adv-x="573" d="M-180 -115l829 1610h158l-830 -1610h-157z" />
<glyph unicode="0" d="M70 506q0 78 10.5 164.5t36 183.5t63 187.5t95.5 173.5t129 145t168.5 98.5t209.5 36.5q207 0 326 -130.5t119 -399.5q0 -78 -11 -164.5t-36 -184t-63 -187.5t-96 -173.5t-129 -145t-168.5 -98.5t-209.5 -37q-207 0 -325.5 130.5t-118.5 400.5zM455 473q0 -119 21.5 -168 t80.5 -49q53 0 100 48.5t80 127.5t57.5 177t36 198t11.5 190q0 118 -21.5 167.5t-81.5 49.5q-66 0 -121.5 -73.5t-90 -187t-53.5 -240t-19 -240.5z" />
<glyph unicode="1" d="M104 0l64 283h227l187 843l-289 -36l61 239l412 141h272l-262 -1187h246l-66 -283h-852z" />
<glyph unicode="2" d="M6 0l43 188q19 83 73 159t124 134t151 113t158 108t139.5 106.5t101 120t38.5 138.5q0 64 -38 101.5t-106 37.5q-143 0 -227 -184l-307 72q75 205 217.5 303t363.5 98q123 0 215.5 -33.5t146 -92.5t79.5 -130.5t26 -155.5q0 -94 -33 -177t-87.5 -145.5t-120.5 -117 t-137 -100t-133 -85.5t-111 -82.5t-68 -82.5h604l-65 -293h-1047z" />
<glyph unicode="3" d="M-31 246l307 184q49 -80 116.5 -122t142.5 -42q97 0 156 46.5t59 129.5q0 199 -304 199h-110l61 266h105q135 0 209.5 41t74.5 123q0 61 -48.5 100t-123.5 39q-68 0 -125 -24t-120 -94l-219 176q127 135 256 181t296 46q214 0 346 -98t132 -258q0 -145 -85.5 -232 t-254.5 -133v-4q131 -32 205.5 -117t74.5 -227q0 -143 -80.5 -247t-209.5 -154t-289 -50q-201 0 -343 63t-229 208z" />
<glyph unicode="4" d="M-12 324l78 325l677 821h467l-190 -860h201l-64 -286h-203l-69 -324h-357l70 324h-610zM385 610h279l114 498h-4z" />
<glyph unicode="5" d="M0 256l317 166q93 -162 226 -162q103 0 162 73.5t59 192.5q0 93 -45 143t-129 50q-96 0 -182 -98l-277 59l197 790h852l-66 -292h-573l-62 -267h4q118 80 269 80q111 0 192 -36t125 -98.5t64 -135t20 -158.5q0 -181 -80.5 -316t-215 -203.5t-302.5 -68.5 q-183 0 -319 60.5t-236 220.5z" />
<glyph unicode="6" d="M80 588q0 220 56 394t156.5 285.5t237 169.5t299.5 58q135 0 249 -31.5t222 -117.5l-202 -244q-131 110 -271 110q-296 0 -348 -383h4q73 69 146 97t166 28q184 0 286.5 -112.5t102.5 -300.5q0 -256 -154.5 -411t-396.5 -155q-121 0 -217.5 36t-158 95.5t-102.5 140.5 t-58 165t-17 176zM461 520q0 -120 44 -191t132 -71q77 0 122.5 64t45.5 172q0 88 -40 134t-116 46q-68 0 -128 -44.5t-60 -109.5z" />
<glyph unicode="7" d="M70 0l757 1167h-661l70 303h1071l-47 -202l-779 -1268h-411z" />
<glyph unicode="8" d="M25 387q0 280 335 399v5q-78 60 -120.5 128t-42.5 158q0 195 149.5 306.5t405.5 111.5q226 0 357.5 -104t131.5 -275q0 -124 -69 -206.5t-203 -139.5v-4q209 -133 209 -322q0 -116 -47 -206.5t-131 -147.5t-195.5 -86t-243.5 -29q-123 0 -225.5 34t-169.5 91.5 t-104 131.5t-37 155zM387 428q0 -74 53 -125t148 -51q98 0 158.5 45.5t60.5 136.5q0 61 -53 108.5t-158 104.5q-209 -74 -209 -219zM555 1094q0 -58 47.5 -103.5t138.5 -95.5q144 68 144 192q0 59 -39 103.5t-123 44.5q-71 0 -119.5 -33.5t-48.5 -107.5z" />
<glyph unicode="9" d="M-10 125l203 244q132 -111 270 -111q296 0 348 383h-4q-73 -69 -145.5 -97t-165.5 -28q-184 0 -287 113t-103 301q0 256 154 410.5t397 154.5q121 0 217.5 -36t158 -95t102.5 -140t58 -165t17 -176q0 -220 -56 -394t-156.5 -285.5t-237 -170t-299.5 -58.5 q-135 0 -248.5 32t-222.5 118zM485 977q0 -88 40 -134t116 -46q68 0 128 44t60 109q0 120 -44 191t-132 71q-77 0 -122.5 -63.5t-45.5 -171.5z" />
<glyph unicode=":" horiz-adv-x="593" d="M-31 0l80 367h373l-80 -367h-373zM104 608l80 367h373l-80 -367h-373z" />
<glyph unicode=";" horiz-adv-x="593" d="M-102 -332l192 332h-121l80 367h373l-76 -344l-246 -355h-202zM104 608l80 367h373l-80 -367h-373z" />
<glyph unicode="&#x3c;" d="M193 438v176l862 371v-160l-697 -299l697 -299v-159z" />
<glyph unicode="=" d="M104 238v139h1029v-139h-1029zM104 672v143h1029v-143h-1029z" />
<glyph unicode="&#x3e;" d="M190 68v159l697 299l-697 299v160l863 -371v-176z" />
<glyph unicode="?" horiz-adv-x="884" d="M92 0l80 367h373l-80 -367h-373zM111 1219q69 145 180.5 210.5t275.5 65.5q182 0 293 -85t111 -251q0 -64 -23.5 -122t-61 -102.5t-82.5 -85.5t-91.5 -77.5t-85.5 -71.5t-65 -74t-30 -79h-270q5 79 32 147.5t63.5 114t79 90t77.5 77t58.5 72t23.5 78.5q0 88 -82 88 q-42 0 -73 -27.5t-62 -86.5z" />
<glyph unicode="@" horiz-adv-x="1529" d="M39 451q0 171 50.5 318t146 258.5t245 175t336.5 63.5q309 0 491.5 -162.5t182.5 -454.5q0 -235 -126 -389t-314 -154q-141 0 -174 113h-5q-107 -113 -251 -113q-66 0 -116 26t-79 70.5t-43 98t-14 115.5q0 70 18.5 143t55 140.5t86 121t117 85.5t142.5 32 q157 0 226 -121l49 86h119l-152 -514q-8 -27 -9.5 -55t14.5 -53t52 -25q109 0 179.5 109.5t70.5 283.5q0 234 -137 354.5t-383 120.5q-130 0 -235 -34t-177 -94.5t-120 -146t-70 -184.5t-22 -214q0 -258 150 -411t417 -153q296 0 491 136l76 -127q-215 -150 -567 -150 q-338 0 -529.5 192t-191.5 513zM532 422q0 -174 125 -174q67 0 123.5 40t90 101t51.5 126.5t18 123.5q0 156 -149 156q-52 0 -96 -24t-73.5 -63t-50 -88.5t-30 -99.5t-9.5 -98z" />
<glyph unicode="A" horiz-adv-x="1339" d="M-121 0l711 1470h540l103 -1470h-399l-9 324h-395l-137 -324h-414zM565 641h252l-12 553h-4z" />
<glyph unicode="B" horiz-adv-x="1372" d="M8 0l324 1470h393q230 0 371.5 -42.5t200.5 -120t59 -197.5q0 -135 -73.5 -218.5t-207.5 -131.5v-4q232 -72 232 -305q0 -102 -35.5 -181t-95 -129t-144 -82.5t-175.5 -45.5t-198 -13h-651zM461 309h182q38 0 69 3.5t65 14t57 29t38 50.5t15 75q0 66 -46 100.5t-132 34.5 h-183zM590 893h106q132 0 189 32.5t57 116.5q0 64 -49 90.5t-152 26.5h-94z" />
<glyph unicode="C" horiz-adv-x="1333" d="M76 575q0 139 28 270t87.5 249.5t145.5 207t211.5 141t274.5 52.5q236 0 374.5 -115.5t172.5 -341.5l-354 -65q-12 102 -65 158.5t-142 56.5q-79 0 -140.5 -49t-99 -135t-56.5 -197t-19 -240q0 -63 7.5 -110t25 -86.5t51 -60.5t81.5 -21q78 0 139.5 43t114.5 157l367 -98 q-48 -100 -109 -175t-122.5 -120.5t-134.5 -73t-138 -37.5t-139 -10q-273 0 -417 163t-144 437z" />
<glyph unicode="D" horiz-adv-x="1447" d="M8 0l326 1470h389q352 0 536.5 -157t184.5 -473q0 -252 -94.5 -441.5t-275 -294t-425.5 -104.5h-641zM483 334h152q91 0 160.5 29.5t112 77.5t69.5 116t37 137t10 148q0 144 -81 219.5t-208 75.5h-76z" />
<glyph unicode="E" horiz-adv-x="1196" d="M8 0l326 1470h973l-72 -317h-571l-52 -248h414l-70 -307h-415l-60 -281h637l-71 -317h-1039z" />
<glyph unicode="F" horiz-adv-x="1177" d="M8 0l326 1470h983l-72 -317h-581l-52 -248h424l-69 -307h-426l-131 -598h-402z" />
<glyph unicode="G" horiz-adv-x="1378" d="M76 575q0 143 26.5 274t85.5 249.5t145 206t214 139t284 51.5q245 0 380 -114.5t169 -342.5l-354 -65q-12 102 -64.5 158.5t-144.5 56.5q-73 0 -131.5 -43t-93.5 -108.5t-58 -151.5t-31.5 -164t-8.5 -154q0 -49 5 -89t18.5 -76.5t34.5 -61.5t55 -40t79 -15q94 0 157.5 55 t76.5 158h-228l58 262h581l-168 -760h-319l26 119h-4q-92 -82 -176 -113t-188 -31q-95 0 -170 34.5t-122 91.5t-78 136t-43.5 162t-12.5 176z" />
<glyph unicode="H" horiz-adv-x="1482" d="M8 0l326 1470h401l-121 -548h412l123 548h401l-325 -1470h-402l129 582h-413l-129 -582h-402z" />
<glyph unicode="I" horiz-adv-x="667" d="M8 0l326 1470h401l-325 -1470h-402z" />
<glyph unicode="J" horiz-adv-x="1073" d="M-86 250l315 182q33 -79 69 -110t79 -31q53 0 81 39t48 129l223 1011h401l-233 -1046q-18 -80 -41.5 -142t-64 -121.5t-94.5 -99t-134.5 -63t-181.5 -23.5q-173 0 -286 63t-181 212z" />
<glyph unicode="K" horiz-adv-x="1370" d="M8 0l326 1470h391l-125 -567h4l531 567h454l-557 -552l297 -918h-436l-182 596l-230 -227l-82 -369h-391z" />
<glyph unicode="L" horiz-adv-x="1122" d="M8 0l326 1470h401l-254 -1153h576l-72 -317h-977z" />
<glyph unicode="M" horiz-adv-x="1796" d="M8 0l326 1470h504l45 -948h4l471 948h506l-326 -1470h-362l206 928h-4l-446 -928h-314l-36 928h-4l-207 -928h-363z" />
<glyph unicode="N" horiz-adv-x="1519" d="M8 0l326 1470h459l237 -804h4l180 804h373l-325 -1470h-392l-286 911h-4l-201 -911h-371z" />
<glyph unicode="O" horiz-adv-x="1433" d="M76 594q0 118 28.5 240t92.5 241.5t154 212t225 150t294 57.5q121 0 217 -33.5t160 -90.5t106 -137.5t60.5 -170t18.5 -191.5q0 -118 -29 -239.5t-92.5 -240.5t-154 -211t-225.5 -149t-294 -57q-121 0 -217 33t-159.5 89.5t-106 136.5t-60.5 169t-18 191zM494 592 q0 -147 40.5 -221t139.5 -74q71 0 130 39.5t97 101.5t64.5 141t37.5 154.5t11 145.5q0 147 -40.5 221t-139.5 74q-71 0 -130 -39.5t-97 -101.5t-64.5 -141t-37.5 -154.5t-11 -145.5z" />
<glyph unicode="P" horiz-adv-x="1386" d="M8 0l326 1470h432q113 0 203.5 -12t174 -43.5t138.5 -82.5t88 -133t33 -191q0 -102 -34.5 -187.5t-93.5 -144t-138.5 -99t-168.5 -59t-184 -18.5h-264l-110 -500h-402zM590 805h172q100 0 160.5 51t60.5 143q0 70 -46.5 112t-137.5 42h-135z" />
<glyph unicode="Q" horiz-adv-x="1433" d="M76 594q0 118 28.5 240t92.5 241.5t154 212t225 150t294 57.5q121 0 217 -33.5t160 -90.5t106 -137.5t60.5 -170t18.5 -191.5q0 -176 -66 -358.5t-192 -314.5q72 -72 172 -72l-64 -285q-240 0 -354 189q-138 -56 -291 -56q-121 0 -217 33t-159.5 89.5t-106 136.5 t-60.5 169t-18 191zM494 592q0 -147 40.5 -221t139.5 -74q61 0 119 33q-49 86 -121 86l61 274q142 0 230 -121q51 149 51 310q0 147 -40.5 221t-139.5 74q-71 0 -130 -39.5t-97 -101.5t-64.5 -141t-37.5 -154.5t-11 -145.5z" />
<glyph unicode="R" horiz-adv-x="1357" d="M8 0l326 1470h450q307 0 459 -100.5t152 -310.5q0 -165 -84 -269.5t-234 -154.5l189 -635h-428l-146 543h-164l-118 -543h-402zM600 854h180q195 0 195 168q0 65 -48 98t-128 33h-135z" />
<glyph unicode="S" horiz-adv-x="1236" d="M-10 397l364 111q38 -115 95.5 -171t150.5 -56q69 0 108.5 33t39.5 94q0 39 -31 75t-80 67t-108.5 64t-119 75.5t-108.5 92t-80 122t-31 157.5q0 193 136.5 313.5t371.5 120.5q443 0 549 -379l-317 -90q-29 82 -88 123t-129 41q-57 0 -87 -26.5t-30 -76.5q0 -41 23 -76 t61 -60.5t86.5 -54.5t99 -55.5t99 -65t86.5 -82t61 -107.5t23 -140q0 -100 -32 -181t-85 -134t-123.5 -89t-145 -51.5t-153.5 -15.5q-477 0 -606 422z" />
<glyph unicode="T" horiz-adv-x="1181" d="M162 1153l69 317h1119l-70 -317h-358l-256 -1153h-402l256 1153h-358z" />
<glyph unicode="U" horiz-adv-x="1454" d="M113 451q0 97 24 208l178 811h402l-187 -839q-20 -95 -20 -152q0 -190 158 -190q119 0 179.5 74t102.5 266l187 841h401l-190 -872q-35 -159 -89.5 -272t-140 -193.5t-206.5 -119t-283 -38.5q-256 0 -386 125.5t-130 350.5z" />
<glyph unicode="V" horiz-adv-x="1251" d="M141 1470h416l29 -1034h2l483 1034h412l-744 -1470h-467z" />
<glyph unicode="W" horiz-adv-x="1783" d="M156 1470h399l-8 -913h4l303 913h418l-27 -913h4l328 913h420l-658 -1470h-385l-4 848h-6l-313 -848h-418z" />
<glyph unicode="X" horiz-adv-x="1257" d="M-117 0l553 739l-315 731h422l159 -395h5l280 395h416l-522 -702l331 -768h-413l-176 434h-5l-309 -434h-426z" />
<glyph unicode="Y" horiz-adv-x="1243" d="M143 1470h406l141 -546h4l369 546h416l-652 -917l-122 -553h-402l123 553z" />
<glyph unicode="Z" horiz-adv-x="1255" d="M-33 0l70 311l715 842h-543l72 317h1026l-66 -290l-754 -863h660l-72 -317h-1108z" />
<glyph unicode="[" horiz-adv-x="700" d="M8 -90l344 1560h486l-33 -139h-260l-281 -1282h260l-32 -139h-484z" />
<glyph unicode="\" horiz-adv-x="616" d="M207 1495h145l115 -1610h-145z" />
<glyph unicode="]" horiz-adv-x="700" d="M-88 -90l33 139h260l280 1282h-260l33 139h483l-344 -1560h-485z" />
<glyph unicode="^" d="M182 668l371 802h176l371 -802h-160l-299 641l-299 -641h-160z" />
<glyph unicode="_" horiz-adv-x="1165" d="M-170 -289l29 127h1196l-29 -127h-1196z" />
<glyph unicode="`" horiz-adv-x="942" d="M219 1470h373l131 -292h-250z" />
<glyph unicode="a" horiz-adv-x="1069" d="M-8 238q0 69 19 126t51 99t83 76t104 57t127.5 42.5t139.5 31.5t152 24q12 30 12 58q0 42 -30 66t-91 24q-124 0 -209 -119l-225 162q92 113 211.5 161t281.5 48q194 0 301 -78t107 -228q0 -57 -14 -114l-101 -445l-12 -229h-358l4 115q-80 -66 -153.5 -98.5 t-162.5 -32.5q-114 0 -175.5 71t-61.5 183zM346 326q0 -37 18.5 -62.5t57.5 -25.5q72 0 149 71l45 195q-270 -32 -270 -178z" />
<glyph unicode="b" horiz-adv-x="1161" d="M-16 0l325 1470h361l-107 -489q56 50 129 77t146 27q286 0 286 -413q0 -184 -62.5 -342.5t-178.5 -256.5t-260 -98q-68 0 -123 19t-88.5 44t-75.5 68l-80 -106h-272zM408 285q60 -49 139 -49q70 0 121.5 55t76.5 143t25 197q0 95 -29.5 141.5t-95.5 46.5q-62 0 -133 -61z " />
<glyph unicode="c" horiz-adv-x="1009" d="M37 469q0 95 23 186t70 170.5t112.5 139.5t157.5 94.5t198 34.5q173 0 277.5 -80.5t138.5 -255.5l-271 -60q-17 67 -56 100t-91 33q-61 0 -106 -37.5t-68.5 -97.5t-34 -121.5t-10.5 -123.5q0 -107 29 -159t100 -52q117 0 190 129l254 -146q-51 -77 -110 -128.5t-122 -76 t-118.5 -34t-122.5 -9.5q-113 0 -199.5 39.5t-138 108.5t-77 156t-25.5 190z" />
<glyph unicode="d" horiz-adv-x="1155" d="M37 389q0 109 23 213t67.5 191t104.5 152.5t139.5 102.5t167.5 37q143 0 258 -112l108 497h361l-326 -1470h-283l-14 115q-158 -140 -319 -140q-78 0 -134.5 31t-89 88t-48 130t-15.5 165zM391 430q0 -188 125 -188q60 0 131 61l103 461q-54 61 -132 61q-71 0 -123.5 -55 t-78 -143.5t-25.5 -196.5z" />
<glyph unicode="e" horiz-adv-x="1060" d="M37 446q0 83 18.5 169t62 173t107 154t163.5 109.5t222 42.5q205 0 308.5 -116.5t103.5 -313.5q0 -96 -23 -197h-626v-43q0 -86 27.5 -132t99.5 -46q64 0 114.5 30.5t92.5 106.5l260 -123q-54 -85 -116.5 -143.5t-129 -88t-128.5 -41.5t-134 -12q-422 0 -422 471z M401 680h287q2 12 2 37q0 125 -115 125q-122 0 -174 -162z" />
<glyph unicode="f" horiz-adv-x="729" d="M29 0l182 817h-123l57 252h121l21 94q17 78 43.5 135t70.5 103.5t113 70t162 23.5q104 0 217 -22l-55 -240q-52 12 -82 12q-57 0 -83.5 -29.5t-39.5 -91.5l-12 -55h190l-57 -252h-189l-182 -817h-354z" />
<glyph unicode="g" horiz-adv-x="1060" d="M-109 -154q0 70 44 123.5t159 87.5v4q-84 40 -84 129q0 149 203 234q-66 44 -98.5 111t-32.5 145q0 125 67.5 220.5t180 144.5t250.5 49q203 0 311 -101q58 52 134.5 82.5t150.5 30.5l-58 -275q-81 0 -137 -10q4 -32 4 -51q0 -125 -67.5 -220.5t-180 -144.5t-250.5 -49 q-72 0 -120 11q-58 -18 -58 -58q0 -16 27.5 -26t72 -13t101.5 -9.5t116.5 -14.5t116.5 -28.5t101.5 -51t72 -83.5t27.5 -124q0 -157 -155.5 -246.5t-421.5 -89.5q-131 0 -235.5 22.5t-172.5 74t-68 126.5zM168 -82q0 -41 59.5 -63.5t143.5 -22.5q96 0 156.5 22t60.5 62 q0 25 -21.5 42t-63.5 26t-82 12.5t-97 5.5q-66 -7 -111 -28.5t-45 -55.5zM381 684q0 -117 123 -117q68 0 113 43t45 113q0 121 -123 121q-67 0 -112.5 -45t-45.5 -115z" />
<glyph unicode="h" horiz-adv-x="1146" d="M-16 0l325 1470h361l-105 -473q149 97 283 97q132 0 199 -66.5t67 -185.5q0 -52 -12 -111l-162 -731h-360l143 641q10 48 10 82q0 96 -88 96q-61 0 -133 -59l-168 -760h-360z" />
<glyph unicode="i" horiz-adv-x="559" d="M-16 0l235 1069h361l-236 -1069h-360zM248 1196l67 299h361l-68 -299h-360z" />
<glyph unicode="j" horiz-adv-x="589" d="M-229 -362l59 268q46 -8 68 -8q63 0 91 43.5t50 140.5l219 987h360l-245 -1108q-19 -85 -48 -143.5t-79 -104.5t-129.5 -68t-190.5 -22q-71 0 -155 15zM287 1196l67 299h361l-68 -299h-360z" />
<glyph unicode="k" horiz-adv-x="1093" d="M-16 0l325 1470h355l-175 -770h5l335 369h383l-358 -342l203 -727h-357l-131 457l-168 -162l-63 -295h-354z" />
<glyph unicode="l" horiz-adv-x="559" d="M-16 0l325 1470h361l-326 -1470h-360z" />
<glyph unicode="m" horiz-adv-x="1718" d="M-16 0l237 1069h322l-23 -98q165 123 309 123q170 0 226 -148q90 70 190 109t191 39q123 0 186.5 -65.5t63.5 -182.5q0 -56 -15 -121l-160 -725h-360l152 672q6 21 6 53q0 94 -74 94q-72 0 -141 -63l-166 -756h-361l144 641q12 49 12 90q0 88 -72 88q-62 0 -139 -59 l-168 -760h-360z" />
<glyph unicode="n" horiz-adv-x="1140" d="M-16 0l237 1069h322l-23 -98q60 39 99.5 61t101.5 42t121 20q132 0 199 -66.5t67 -185.5q0 -52 -12 -111l-162 -731h-361l144 641q12 62 12 88q0 90 -84 90q-61 0 -133 -59l-168 -760h-360z" />
<glyph unicode="o" horiz-adv-x="1079" d="M37 424q0 135 37.5 255t108.5 213t183.5 147.5t251.5 54.5q424 0 424 -449q0 -135 -37.5 -255t-108.5 -213t-183.5 -147.5t-251.5 -54.5q-424 0 -424 449zM389 379q0 -148 94 -148q54 0 96 47t65 120t34.5 148.5t11.5 143.5q0 148 -94 148q-54 0 -96 -47t-65 -120 t-34.5 -148.5t-11.5 -143.5z" />
<glyph unicode="p" horiz-adv-x="1161" d="M-94 -352l315 1421h328l-23 -106q156 131 312 131q78 0 134.5 -31t89 -88t47.5 -130t15 -165q0 -184 -61.5 -342.5t-177.5 -256t-262 -97.5q-143 0 -258 112l-99 -448h-360zM412 305q54 -61 131 -61q71 0 123.5 55t78 143.5t25.5 196.5q0 188 -125 188q-60 0 -131 -61z " />
<glyph unicode="q" horiz-adv-x="1155" d="M37 397q0 184 62.5 342.5t179 256.5t260.5 98q98 0 160 -32.5t126 -98.5l80 106h273l-316 -1421h-360l96 440q-56 -50 -128.5 -77t-145.5 -27q-78 0 -134.5 31t-89 88t-48 129.5t-15.5 164.5zM391 438q0 -95 29.5 -141.5t95.5 -46.5q62 0 133 61l105 473q-61 50 -140 50 q-104 0 -163.5 -114t-59.5 -282z" />
<glyph unicode="r" horiz-adv-x="757" d="M-16 0l237 1069h322l-39 -168q73 99 137 146t150 47q25 0 49 -7l-68 -311q-6 0 -18 1t-15 1q-80 0 -131.5 -28t-118.5 -97l-145 -653h-360z" />
<glyph unicode="s" horiz-adv-x="948" d="M-59 201l260 157q84 -137 227 -137q44 0 73 19t29 59q0 27 -23.5 51t-61.5 44t-83.5 41t-91 49t-83.5 62t-61.5 85.5t-23.5 113.5q0 163 114.5 256t291.5 93q326 0 436 -230l-239 -135q-25 55 -78.5 87t-106.5 32q-37 0 -62.5 -18t-25.5 -54q0 -30 24 -54.5t63 -42.5 t85.5 -37t93 -45t85.5 -59t63 -86t24 -120q0 -89 -35.5 -158.5t-96.5 -112t-138 -64.5t-164 -22q-352 0 -495 226z" />
<glyph unicode="t" horiz-adv-x="776" d="M72 817l57 252h156l80 361h358l-80 -361h199l-56 -252h-198l-96 -434q-7 -35 -7 -53q0 -74 78 -74q43 0 101 12l-60 -266q-90 -18 -223 -18q-140 0 -207.5 52t-67.5 171q0 65 21 153l102 457h-157z" />
<glyph unicode="u" horiz-adv-x="1138" d="M41 227q0 53 12 111l162 731h360l-143 -641q-12 -50 -12 -90q0 -88 78 -88q61 0 133 59l168 760h360l-237 -1069h-322l23 98q-60 -39 -99.5 -61t-101.5 -42t-121 -20q-128 0 -194 67t-66 185z" />
<glyph unicode="v" horiz-adv-x="1003" d="M70 1069h368l33 -653h4l295 653h377l-561 -1069h-383z" />
<glyph unicode="w" horiz-adv-x="1435" d="M72 1069h327l11 -577h4l237 577h320l6 -577h4l242 577h350l-524 -1069h-320l-27 528h-4l-241 -528h-318z" />
<glyph unicode="x" horiz-adv-x="980" d="M-133 0l438 567l-233 502h362l113 -254h6l182 254h359l-408 -502l246 -567h-348l-129 313h-4l-226 -313h-358z" />
<glyph unicode="y" horiz-adv-x="1009" d="M-137 -356l59 254q58 -15 121 -15q77 0 123 28.5t84 98.5l14 27l-192 1032h364l64 -625h4l274 625h361l-512 -1014q-68 -135 -122.5 -214.5t-121.5 -130.5t-142.5 -69t-187.5 -18q-111 0 -190 21z" />
<glyph unicode="z" horiz-adv-x="952" d="M-53 0l51 238l496 571h-402l58 260h821l-53 -240l-494 -565h440l-57 -264h-860z" />
<glyph unicode="{" horiz-adv-x="700" d="M88 662l33 139h69q61 0 96 37.5t54 124.5l41 190q36 168 112.5 242.5t227.5 74.5h119l-33 -139h-51q-61 0 -96 -37.5t-54 -124.5l-41 -190q-24 -109 -69 -167.5t-117 -82.5v-4q45 -27 67 -66.5t22 -82.5t-9 -93l-60 -272q-19 -88 -1.5 -125t77.5 -37h51l-32 -139h-119 q-151 0 -194 74.5t-5 242.5l62 273q20 88 2 125t-78 37h-74z" />
<glyph unicode="|" horiz-adv-x="444" d="M201 -115v1610h149v-1610h-149z" />
<glyph unicode="}" horiz-adv-x="700" d="M-76 -90l33 139h51q61 0 96 37.5t54 124.5l59 272q24 109 69 167.5t117 82.5v4q-45 27 -67 66.5t-21.5 82.5t9.5 93l41 190q19 88 1.5 125t-77.5 37h-51l32 139h119q151 0 194 -74.5t5 -242.5l-43 -190q-20 -88 -2 -125t78 -37h73l-32 -139h-70q-61 0 -96 -37.5 t-54 -124.5l-59 -273q-36 -168 -112.5 -242.5t-227.5 -74.5h-119z" />
<glyph unicode="~" d="M106 365q45 311 293 311q61 0 128.5 -21t115.5 -45.5t102.5 -45.5t92.5 -21q105 0 133 147h159q-45 -311 -294 -311q-61 0 -128 21t-115 45.5t-102 45.5t-92 21q-105 0 -133 -147h-160z" />
<glyph unicode="&#xa1;" horiz-adv-x="593" d="M-96 -377l297 924h248l-127 -924h-418zM168 727l80 367h373l-80 -367h-373z" />
<glyph unicode="&#xa2;" d="M100 469q0 117 35.5 225.5t100.5 195.5t168.5 142t228.5 60l47 208h172l-49 -223q221 -54 274 -319l-270 -60q-16 67 -55.5 100t-92.5 33q-61 0 -106 -37.5t-68.5 -97.5t-34 -121.5t-10.5 -123.5q0 -107 29 -159t100 -52q118 0 191 129l254 -146q-49 -74 -106 -124.5 t-117.5 -75.5t-114 -35.5t-117.5 -12.5l-49 -221h-172l53 242q-147 44 -219 171t-72 302z" />
<glyph unicode="&#xa3;" d="M-43 -25l66 297q123 25 182.5 120.5t79.5 266.5h-183l43 185h150v76q0 53 3 99t15 107t31.5 109.5t56.5 99t86 84t124 55t167 21.5q400 0 508 -354l-319 -88q-25 71 -73 113t-118 42q-73 0 -101 -56.5t-28 -178.5q0 -47 -4 -129h254l-43 -185h-231q-25 -165 -97 -303 q103 -59 209 -59q51 0 86.5 36.5t52.5 104.5l293 -73q-39 -116 -84 -194t-97.5 -120t-106 -59t-121.5 -17q-200 0 -412 162q-154 -118 -389 -162z" />
<glyph unicode="&#xa4;" d="M207 203l137 135q-51 82 -51 186q0 105 51 187l-137 137l100 100l135 -137q82 53 187 53q104 0 186 -53l137 137l101 -100l-140 -139q52 -84 52 -185q0 -100 -52 -184l140 -137l-101 -101l-137 136q-80 -52 -186 -52q-107 0 -187 52l-135 -136zM467 524q0 -74 43 -121 t119 -47q75 0 117 47t42 121q0 72 -42.5 121t-116.5 49q-75 0 -118.5 -49t-43.5 -121z" />
<glyph unicode="&#xa5;" d="M18 281l43 184h338l21 88l-14 49h-318l43 184h219l-198 684h380l138 -563h4l356 563h402l-474 -684h246l-43 -184h-330l-32 -49l-21 -88h357l-43 -184h-355l-61 -281h-379l61 281h-340z" />
<glyph unicode="&#xa6;" horiz-adv-x="444" d="M211 -115v656h149v-656h-149zM211 881v614h149v-614h-149z" />
<glyph unicode="&#xa7;" horiz-adv-x="944" d="M-16 88l241 82q24 -50 65 -77t89 -27q38 0 63 19t25 54q0 34 -39 85t-94 107.5t-110.5 118.5t-94.5 137t-39 144q0 113 65 184t173 82q-60 98 -60 181q0 145 96.5 231t253.5 86q135 0 237.5 -61.5t152.5 -198.5l-242 -82q-21 50 -59.5 77t-83.5 27q-34 0 -56 -19t-22 -54 q0 -34 39 -85t94.5 -107.5t110.5 -118.5t94 -137t39 -144q0 -113 -65.5 -185t-174.5 -81q61 -97 61 -181q0 -145 -99 -231t-261 -86q-294 0 -399 260zM350 758q0 -18 8.5 -37.5t32.5 -49.5t38 -46.5t54.5 -59.5t53.5 -57q28 -14 53 -14q30 0 51 18t21 53q0 12 -4.5 26 t-16.5 32t-22 32t-31.5 38t-33.5 37t-39.5 42t-39.5 41q-22 14 -53 14q-30 0 -51 -17.5t-21 -51.5z" />
<glyph unicode="&#xa8;" horiz-adv-x="942" d="M113 1184l55 254h281l-56 -254h-280zM489 1184l56 254h284l-55 -254h-285z" />
<glyph unicode="&#xa9;" horiz-adv-x="1572" d="M84 735q0 159 51.5 297.5t144.5 241.5t233.5 162t309.5 59t309 -59t233.5 -162t144.5 -241.5t51 -297.5q0 -125 -32 -239t-95.5 -208.5t-151.5 -164.5t-206 -109t-253 -39q-169 0 -309.5 60t-233.5 164t-144.5 242t-51.5 294zM236 735q0 -177 67.5 -315t202 -219.5 t317.5 -81.5q182 0 316.5 81.5t202 220t67.5 314.5q0 129 -39.5 241t-113 196t-185 132t-248.5 48q-182 0 -317 -83.5t-202.5 -222t-67.5 -311.5zM453 752q0 205 102 317.5t279 112.5q144 0 227.5 -64.5t109.5 -199.5l-208 -39q-28 125 -134 125q-70 0 -109.5 -64.5 t-39.5 -187.5q0 -269 145 -269q107 0 142 133l215 -51q-24 -81 -61.5 -135t-87.5 -81t-100.5 -37.5t-115.5 -10.5q-171 0 -267.5 118t-96.5 333z" />
<glyph unicode="&#xaa;" horiz-adv-x="688" d="M10 518l31 131h639l-31 -131h-639zM86 930q0 37 8 68t20 55t34.5 45t43 35.5t55 28t61 22t70.5 18t73 14.5t79 13q9 21 9 37q0 55 -78 55q-83 0 -133 -76l-160 113q59 71 141 102t201 31q131 0 207 -54t76 -157q0 -31 -9 -72l-63 -276l-8 -154h-252l4 78 q-111 -86 -217 -86q-75 0 -118.5 44.5t-43.5 115.5zM350 999q0 -25 13.5 -40t37.5 -15q41 0 68 31l29 127q-81 -11 -114.5 -37t-33.5 -66z" />
<glyph unicode="&#xab;" horiz-adv-x="1140" d="M53 551l299 354h324l-311 -354l151 -367h-295zM545 551l299 354h323l-311 -354l152 -367h-295z" />
<glyph unicode="&#xac;" d="M100 590v139h1033v-579h-142v440h-891z" />
<glyph unicode="&#xad;" horiz-adv-x="681" d="M23 397l65 299h582l-66 -299h-581z" />
<glyph unicode="&#xae;" horiz-adv-x="1015" d="M125 1001q0 139 57 250.5t167.5 177.5t256.5 66t256 -66t166.5 -177.5t56.5 -250.5q0 -136 -56.5 -247t-167 -178.5t-255.5 -67.5t-256 67t-168 178.5t-57 247.5zM229 1001q0 -174 100 -284.5t277 -110.5q175 0 275 110.5t100 284.5q0 171 -100.5 283.5t-274.5 112.5 q-176 0 -276.5 -112.5t-100.5 -283.5zM397 733v557h213q226 0 226 -168q0 -93 -84 -143l110 -246h-160l-81 203h-76v-203h-148zM545 1051h63q78 0 78 59q0 61 -72 61h-69v-120z" />
<glyph unicode="&#xaf;" horiz-adv-x="942" d="M88 1219l43 190h723l-43 -190h-723z" />
<glyph unicode="&#xb0;" horiz-adv-x="770" d="M168 1149q0 146 94.5 246t247.5 100t247.5 -100t94.5 -246q0 -144 -94.5 -244t-247.5 -100t-247.5 100t-94.5 244zM352 1149q0 -73 42 -118.5t116 -45.5q73 0 114.5 45.5t41.5 118.5q0 71 -42 118.5t-114 47.5q-74 0 -116 -47.5t-42 -118.5z" />
<glyph unicode="&#xb1;" d="M117 0v139h1028v-139h-1028zM117 567v140h444v309h141v-309h443v-140h-443v-329h-141v329h-444z" />
<glyph unicode="&#xb2;" horiz-adv-x="835" d="M125 840l35 147q17 74 74.5 139t125.5 111t134.5 89.5t110.5 93.5t44 104q0 32 -18.5 50.5t-52.5 18.5q-39 0 -67 -22.5t-54 -77.5l-238 55q42 130 144 196t247 66q151 0 234.5 -73.5t83.5 -198.5q0 -56 -20 -106t-53 -87t-73.5 -69.5t-83 -60t-79 -51.5t-65 -49.5 t-38.5 -49.5h367l-52 -225h-706z" />
<glyph unicode="&#xb3;" horiz-adv-x="835" d="M100 997l232 138q66 -97 160 -97q58 0 92 28t34 73q0 57 -50.5 79.5t-139.5 22.5h-70l41 195h70q85 0 130.5 23t45.5 65q0 32 -28 53.5t-78 21.5q-46 0 -83 -15.5t-77 -55.5l-162 135q80 88 175.5 117.5t217.5 29.5q143 0 234.5 -64t91.5 -171q0 -182 -221 -234v-4 q186 -43 186 -219q0 -74 -35 -132t-93.5 -92.5t-129 -52.5t-147.5 -18q-288 0 -396 174z" />
<glyph unicode="&#xb4;" horiz-adv-x="942" d="M172 1178l225 292h373l-352 -292h-246z" />
<glyph unicode="&#xb5;" horiz-adv-x="1175" d="M-94 -352l313 1421h361l-144 -641q-12 -50 -12 -90q0 -88 78 -88q61 0 133 59l168 760h360l-162 -725q-18 -80 41 -80q22 0 54 8l-60 -268q-90 -20 -180 -20q-183 0 -217 135q-72 -65 -150.5 -103.5t-134.5 -38.5q-9 0 -24 5l-74 -334h-350z" />
<glyph unicode="&#xb6;" horiz-adv-x="1060" d="M125 1075q0 104 32 181.5t92 123.5t139.5 68t180.5 22h490v-139h-113v-1446h-143v1446h-137v-1446h-148v783q-83 0 -153 24.5t-124.5 72.5t-85 127.5t-30.5 182.5z" />
<glyph unicode="&#xb7;" horiz-adv-x="593" d="M76 362l80 367h372l-79 -367h-373z" />
<glyph unicode="&#xb8;" horiz-adv-x="942" d="M229 -375l25 129q57 -14 123 -14q135 0 135 49q0 39 -66 39q-38 0 -75 -12l-21 59l64 180l112 -30l-34 -99q35 6 71 6q70 0 110 -33t40 -92q0 -57 -30.5 -97.5t-83.5 -61t-108.5 -29t-121.5 -8.5q-72 0 -140 14z" />
<glyph unicode="&#xb9;" horiz-adv-x="835" d="M182 840l51 223h150l104 471l-198 -21l47 185l299 98h207l-162 -733h164l-51 -223h-611z" />
<glyph unicode="&#xba;" horiz-adv-x="737" d="M25 518l30 131h656l-31 -131h-655zM141 1055q0 119 43 216t135 158.5t220 61.5q150 0 220 -79t70 -214q0 -88 -25 -166t-73 -138.5t-125 -96t-174 -35.5q-151 0 -221 79t-70 214zM395 1030q0 -88 58 -88q43 0 73 51t41 112t11 120q0 88 -58 88q-43 0 -73 -51t-41 -112 t-11 -120z" />
<glyph unicode="&#xbb;" horiz-adv-x="1140" d="M-27 184l312 355l-152 366h295l168 -366l-299 -355h-324zM465 184l311 355l-151 366h295l167 -366l-299 -355h-323z" />
<glyph unicode="&#xbc;" horiz-adv-x="1943" d="M111 514l51 223h149l105 471l-199 -20l47 184l299 98h207l-162 -733h164l-51 -223h-610zM348 -53l1188 1573h176l-1190 -1573h-174zM1055 205l61 244l412 507h360l-119 -540h134l-48 -211h-135l-41 -205h-272l43 205h-395zM1352 416h147l62 254h-5z" />
<glyph unicode="&#xbd;" horiz-adv-x="2015" d="M111 514l51 223h149l105 471l-199 -20l47 184l299 98h207l-162 -733h164l-51 -223h-610zM348 -53l1188 1573h176l-1190 -1573h-174zM1130 0l35 147q17 74 74.5 139t126 111t134.5 89.5t110.5 93.5t44.5 104q0 32 -19 51t-53 19q-39 0 -67 -22.5t-54 -78.5l-237 56 q42 130 144 196t247 66q151 0 234 -74t83 -199q0 -65 -27 -122t-68.5 -96t-92 -76t-95 -63.5t-81 -57.5t-47.5 -58h366l-51 -225h-707z" />
<glyph unicode="&#xbe;" horiz-adv-x="1943" d="M29 672l231 137q66 -96 160 -96q58 0 92.5 27.5t34.5 72.5q0 57 -51 79.5t-140 22.5h-69l41 195h69q85 0 130.5 23t45.5 65q0 32 -28 54t-78 22q-46 0 -83 -16t-77 -56l-162 135q80 88 176 118t218 30q143 0 234 -64.5t91 -171.5q0 -181 -221 -233v-4q186 -43 186 -219 q0 -74 -35 -132t-93.5 -92.5t-129 -52.5t-147.5 -18q-287 0 -395 174zM348 -53l1188 1573h176l-1190 -1573h-174zM1055 205l61 244l412 507h360l-119 -540h134l-48 -211h-135l-41 -205h-272l43 205h-395zM1352 416h147l62 254h-5z" />
<glyph unicode="&#xbf;" horiz-adv-x="884" d="M-80 -66q0 64 23 122t60.5 102.5t83 85.5t91.5 78t85 71.5t65 74t30 79.5h271q-5 -79 -32 -147.5t-63.5 -114.5t-79 -90t-77.5 -77t-58.5 -72.5t-23.5 -78.5q0 -88 82 -88q42 0 73 28t62 87l268 -119q-69 -145 -180.5 -210.5t-275.5 -65.5q-182 0 -293 84.5t-111 250.5z M346 727l80 367h373l-80 -367h-373z" />
<glyph unicode="&#xc0;" horiz-adv-x="1339" d="M-121 0l711 1470h540l103 -1470h-399l-9 324h-395l-137 -324h-414zM496 1866h376l132 -293h-254zM565 641h252l-12 553h-4z" />
<glyph unicode="&#xc1;" horiz-adv-x="1339" d="M-121 0l711 1470h540l103 -1470h-399l-9 324h-395l-137 -324h-414zM565 641h252l-12 553h-4zM739 1573l226 293h372l-352 -293h-246z" />
<glyph unicode="&#xc2;" horiz-adv-x="1339" d="M-121 0l711 1470h540l103 -1470h-399l-9 324h-395l-137 -324h-414zM516 1573l234 293h391l104 -293h-225l-94 158l-162 -158h-248zM565 641h252l-12 553h-4z" />
<glyph unicode="&#xc3;" horiz-adv-x="1339" d="M-121 0l711 1470h540l103 -1470h-399l-9 324h-395l-137 -324h-414zM483 1573q24 143 89.5 203.5t172.5 60.5q67 0 153.5 -30.5t133.5 -30.5q33 0 53 21.5t23 51.5h195q-24 -143 -90 -203.5t-173 -60.5q-67 0 -153 31t-133 31q-33 0 -52 -21.5t-24 -52.5h-195zM565 641 h252l-12 553h-4z" />
<glyph unicode="&#xc4;" horiz-adv-x="1339" d="M-121 0l711 1470h540l103 -1470h-399l-9 324h-395l-137 -324h-414zM555 1579l55 254h281l-55 -254h-281zM565 641h252l-12 553h-4zM932 1579l55 254h285l-55 -254h-285z" />
<glyph unicode="&#xc5;" horiz-adv-x="1339" d="M-121 0l711 1470h540l103 -1470h-399l-9 324h-395l-137 -324h-414zM565 641h252l-12 553h-4zM651 1778q0 99 64.5 165t169.5 66t169 -66t64 -165q0 -94 -66.5 -161t-166.5 -67t-167 67t-67 161zM782 1778q0 -46 28.5 -77.5t74.5 -31.5q48 0 76 31.5t28 77.5 q0 47 -28 78.5t-76 31.5q-46 0 -74.5 -31.5t-28.5 -78.5z" />
<glyph unicode="&#xc6;" horiz-adv-x="1921" d="M-131 0l932 1470h1231l-72 -317h-545l-51 -248h387l-70 -307h-389l-59 -281h610l-71 -317h-1012l71 326h-344l-190 -326h-428zM674 641h227l121 539h-31z" />
<glyph unicode="&#xc7;" horiz-adv-x="1333" d="M76 575q0 139 28 270t87.5 249.5t145.5 207t211.5 141t274.5 52.5q236 0 374.5 -115.5t172.5 -341.5l-354 -65q-12 102 -65 158.5t-142 56.5q-79 0 -140.5 -49t-99 -135t-56.5 -197t-19 -240q0 -63 7.5 -110t25 -86.5t51 -60.5t81.5 -21q78 0 139.5 43t114.5 157l367 -98 q-58 -119 -131 -202.5t-155 -128t-160 -64t-168 -21.5l-17 -49q35 6 72 6q70 0 109.5 -33t39.5 -92q0 -57 -30.5 -97.5t-83.5 -61t-108.5 -29t-121.5 -8.5q-71 0 -139 14l25 129q57 -14 123 -14q135 0 135 49q0 39 -66 39q-38 0 -76 -12l-20 59l37 107q-229 27 -349 185 t-120 408z" />
<glyph unicode="&#xc8;" horiz-adv-x="1196" d="M8 0l326 1470h973l-72 -317h-571l-52 -248h414l-70 -307h-415l-60 -281h637l-71 -317h-1039zM444 1866h377l131 -293h-254z" />
<glyph unicode="&#xc9;" horiz-adv-x="1196" d="M8 0l326 1470h973l-72 -317h-571l-52 -248h414l-70 -307h-415l-60 -281h637l-71 -317h-1039zM666 1573l225 293h373l-353 -293h-245z" />
<glyph unicode="&#xca;" horiz-adv-x="1196" d="M8 0l326 1470h973l-72 -317h-571l-52 -248h414l-70 -307h-415l-60 -281h637l-71 -317h-1039zM469 1573l233 293h392l104 -293h-225l-94 158l-162 -158h-248z" />
<glyph unicode="&#xcb;" horiz-adv-x="1196" d="M8 0l326 1470h973l-72 -317h-571l-52 -248h414l-70 -307h-415l-60 -281h637l-71 -317h-1039zM500 1579l55 254h281l-56 -254h-280zM877 1579l55 254h285l-56 -254h-284z" />
<glyph unicode="&#xcc;" horiz-adv-x="667" d="M8 0l326 1470h401l-325 -1470h-402zM176 1866h377l131 -293h-254z" />
<glyph unicode="&#xcd;" horiz-adv-x="667" d="M8 0l326 1470h401l-325 -1470h-402zM424 1573l225 293h373l-352 -293h-246z" />
<glyph unicode="&#xce;" horiz-adv-x="667" d="M8 0l326 1470h401l-325 -1470h-402zM199 1573l233 293h391l105 -293h-226l-94 158l-162 -158h-247z" />
<glyph unicode="&#xcf;" horiz-adv-x="667" d="M8 0l326 1470h401l-325 -1470h-402zM229 1579l56 254h280l-55 -254h-281zM606 1579l56 254h284l-55 -254h-285z" />
<glyph unicode="&#xd0;" horiz-adv-x="1447" d="M8 0l144 653h-115l43 199h117l137 618h389q352 0 536.5 -157t184.5 -473q0 -252 -94.5 -441.5t-275 -294t-425.5 -104.5h-641zM483 334h152q91 0 160.5 29.5t112 77.5t69.5 116t37 137t10 148q0 144 -81 219.5t-208 75.5h-76l-63 -285h221l-43 -199h-221z" />
<glyph unicode="&#xd1;" horiz-adv-x="1519" d="M8 0l326 1470h459l237 -804h4l180 804h373l-325 -1470h-392l-286 911h-4l-201 -911h-371zM590 1573q24 143 89.5 203.5t172.5 60.5q67 0 153.5 -30.5t133.5 -30.5q33 0 52.5 21.5t22.5 51.5h195q-24 -143 -89.5 -203.5t-172.5 -60.5q-67 0 -153.5 31t-133.5 31 q-33 0 -52 -21.5t-24 -52.5h-194z" />
<glyph unicode="&#xd2;" horiz-adv-x="1433" d="M76 594q0 118 28.5 240t92.5 241.5t154 212t225 150t294 57.5q121 0 217 -33.5t160 -90.5t106 -137.5t60.5 -170t18.5 -191.5q0 -118 -29 -239.5t-92.5 -240.5t-154 -211t-225.5 -149t-294 -57q-121 0 -217 33t-159.5 89.5t-106 136.5t-60.5 169t-18 191zM494 592 q0 -147 40.5 -221t139.5 -74q71 0 130 39.5t97 101.5t64.5 141t37.5 154.5t11 145.5q0 147 -40.5 221t-139.5 74q-71 0 -130 -39.5t-97 -101.5t-64.5 -141t-37.5 -154.5t-11 -145.5zM516 1866h377l131 -293h-254z" />
<glyph unicode="&#xd3;" horiz-adv-x="1433" d="M76 594q0 118 28.5 240t92.5 241.5t154 212t225 150t294 57.5q121 0 217 -33.5t160 -90.5t106 -137.5t60.5 -170t18.5 -191.5q0 -118 -29 -239.5t-92.5 -240.5t-154 -211t-225.5 -149t-294 -57q-121 0 -217 33t-159.5 89.5t-106 136.5t-60.5 169t-18 191zM494 592 q0 -147 40.5 -221t139.5 -74q71 0 130 39.5t97 101.5t64.5 141t37.5 154.5t11 145.5q0 147 -40.5 221t-139.5 74q-71 0 -130 -39.5t-97 -101.5t-64.5 -141t-37.5 -154.5t-11 -145.5zM764 1573l225 293h373l-352 -293h-246z" />
<glyph unicode="&#xd4;" horiz-adv-x="1433" d="M76 594q0 118 28.5 240t92.5 241.5t154 212t225 150t294 57.5q121 0 217 -33.5t160 -90.5t106 -137.5t60.5 -170t18.5 -191.5q0 -118 -29 -239.5t-92.5 -240.5t-154 -211t-225.5 -149t-294 -57q-121 0 -217 33t-159.5 89.5t-106 136.5t-60.5 169t-18 191zM494 592 q0 -147 40.5 -221t139.5 -74q71 0 130 39.5t97 101.5t64.5 141t37.5 154.5t11 145.5q0 147 -40.5 221t-139.5 74q-71 0 -130 -39.5t-97 -101.5t-64.5 -141t-37.5 -154.5t-11 -145.5zM524 1573l234 293h391l104 -293h-225l-94 158l-162 -158h-248z" />
<glyph unicode="&#xd5;" horiz-adv-x="1433" d="M76 594q0 118 28.5 240t92.5 241.5t154 212t225 150t294 57.5q121 0 217 -33.5t160 -90.5t106 -137.5t60.5 -170t18.5 -191.5q0 -118 -29 -239.5t-92.5 -240.5t-154 -211t-225.5 -149t-294 -57q-121 0 -217 33t-159.5 89.5t-106 136.5t-60.5 169t-18 191zM494 592 q0 -147 40.5 -221t139.5 -74q71 0 130 39.5t97 101.5t64.5 141t37.5 154.5t11 145.5q0 147 -40.5 221t-139.5 74q-71 0 -130 -39.5t-97 -101.5t-64.5 -141t-37.5 -154.5t-11 -145.5zM512 1573q24 143 89.5 203.5t172.5 60.5q67 0 153.5 -30.5t133.5 -30.5q33 0 53 21.5 t23 51.5h194q-24 -143 -89.5 -203.5t-172.5 -60.5q-67 0 -153.5 31t-133.5 31q-33 0 -51.5 -21.5t-23.5 -52.5h-195z" />
<glyph unicode="&#xd6;" horiz-adv-x="1433" d="M76 594q0 118 28.5 240t92.5 241.5t154 212t225 150t294 57.5q121 0 217 -33.5t160 -90.5t106 -137.5t60.5 -170t18.5 -191.5q0 -118 -29 -239.5t-92.5 -240.5t-154 -211t-225.5 -149t-294 -57q-121 0 -217 33t-159.5 89.5t-106 136.5t-60.5 169t-18 191zM494 592 q0 -147 40.5 -221t139.5 -74q71 0 130 39.5t97 101.5t64.5 141t37.5 154.5t11 145.5q0 147 -40.5 221t-139.5 74q-71 0 -130 -39.5t-97 -101.5t-64.5 -141t-37.5 -154.5t-11 -145.5zM578 1579l55 254h280l-55 -254h-280zM954 1579l56 254h284l-55 -254h-285z" />
<glyph unicode="&#xd7;" d="M195 203l323 321l-323 324l100 100l321 -323l324 323l100 -100l-323 -324l323 -321l-100 -101l-324 324l-321 -324z" />
<glyph unicode="&#xd8;" horiz-adv-x="1433" d="M-2 -143l209 295q-131 164 -131 442q0 118 28.5 240t92.5 241.5t154 212t225 150t294 57.5q142 0 256 -49l119 168h262l-211 -297q136 -163 136 -445q0 -118 -29 -239.5t-92.5 -240.5t-154 -211t-225.5 -149t-294 -57q-144 0 -260 50l-119 -168h-260zM483 541l437 614 q-36 19 -86 19q-90 0 -161 -59t-110.5 -150.5t-59.5 -187.5t-20 -185v-51zM584 315q37 -18 90 -18q73 0 133.5 39.5t99.5 101.5t66.5 141t39 154.5t11.5 145.5q0 35 -2 53z" />
<glyph unicode="&#xd9;" horiz-adv-x="1454" d="M113 451q0 97 24 208l178 811h402l-187 -839q-20 -95 -20 -152q0 -190 158 -190q119 0 179.5 74t102.5 266l187 841h401l-190 -872q-35 -159 -89.5 -272t-140 -193.5t-206.5 -119t-283 -38.5q-256 0 -386 125.5t-130 350.5zM573 1866h377l131 -293h-254z" />
<glyph unicode="&#xda;" horiz-adv-x="1454" d="M113 451q0 97 24 208l178 811h402l-187 -839q-20 -95 -20 -152q0 -190 158 -190q119 0 179.5 74t102.5 266l187 841h401l-190 -872q-35 -159 -89.5 -272t-140 -193.5t-206.5 -119t-283 -38.5q-256 0 -386 125.5t-130 350.5zM819 1573l225 293h373l-352 -293h-246z" />
<glyph unicode="&#xdb;" horiz-adv-x="1454" d="M113 451q0 97 24 208l178 811h402l-187 -839q-20 -95 -20 -152q0 -190 158 -190q119 0 179.5 74t102.5 266l187 841h401l-190 -872q-35 -159 -89.5 -272t-140 -193.5t-206.5 -119t-283 -38.5q-256 0 -386 125.5t-130 350.5zM575 1573l234 293h391l105 -293h-226l-94 158 l-162 -158h-248z" />
<glyph unicode="&#xdc;" horiz-adv-x="1454" d="M113 451q0 97 24 208l178 811h402l-187 -839q-20 -95 -20 -152q0 -190 158 -190q119 0 179.5 74t102.5 266l187 841h401l-190 -872q-35 -159 -89.5 -272t-140 -193.5t-206.5 -119t-283 -38.5q-256 0 -386 125.5t-130 350.5zM610 1579l56 254h280l-55 -254h-281zM987 1579 l55 254h285l-55 -254h-285z" />
<glyph unicode="&#xdd;" horiz-adv-x="1243" d="M143 1470h406l141 -546h4l369 546h416l-652 -917l-122 -553h-402l123 553zM666 1573l225 293h373l-353 -293h-245z" />
<glyph unicode="&#xde;" horiz-adv-x="1386" d="M8 0l326 1470h401l-35 -159h31q93 0 170.5 -8.5t151.5 -28.5t129.5 -55.5t98.5 -86t65 -123t22 -163.5q0 -102 -34.5 -187.5t-93.5 -144t-138.5 -99t-168 -59t-183.5 -18.5h-265l-75 -338h-402zM555 643h172q100 0 160.5 51.5t60.5 143.5q0 70 -46.5 111.5t-137.5 41.5 h-135z" />
<glyph unicode="&#xdf;" horiz-adv-x="1206" d="M-16 0l235 1071q47 216 180.5 320t364.5 104q202 0 316 -97.5t114 -246.5q0 -118 -71 -207t-201 -135v-4q109 -48 162 -136t53 -227q0 -200 -136 -329t-364 -129q-110 0 -176 12l57 266q47 -8 88 -8q87 0 134.5 62.5t47.5 162.5q0 97 -49 148t-131 51l58 246 q83 9 129.5 61t46.5 127q0 125 -107 125q-59 0 -96.5 -37.5t-50.5 -97.5l-244 -1102h-360z" />
<glyph unicode="&#xe0;" horiz-adv-x="1069" d="M-8 238q0 69 19 126t51 99t83 76t104 57t127.5 42.5t139.5 31.5t152 24q12 30 12 58q0 42 -30 66t-91 24q-124 0 -209 -119l-225 162q92 113 211.5 161t281.5 48q194 0 301 -78t107 -228q0 -57 -14 -114l-101 -445l-12 -229h-358l4 115q-80 -66 -153.5 -98.5 t-162.5 -32.5q-114 0 -175.5 71t-61.5 183zM274 1470h373l131 -292h-250zM346 326q0 -37 18.5 -62.5t57.5 -25.5q72 0 149 71l45 195q-270 -32 -270 -178z" />
<glyph unicode="&#xe1;" horiz-adv-x="1069" d="M-8 238q0 69 19 126t51 99t83 76t104 57t127.5 42.5t139.5 31.5t152 24q12 30 12 58q0 42 -30 66t-91 24q-124 0 -209 -119l-225 162q92 113 211.5 161t281.5 48q194 0 301 -78t107 -228q0 -57 -14 -114l-101 -445l-12 -229h-358l4 115q-80 -66 -153.5 -98.5 t-162.5 -32.5q-114 0 -175.5 71t-61.5 183zM346 326q0 -37 18.5 -62.5t57.5 -25.5q72 0 149 71l45 195q-270 -32 -270 -178zM500 1178l225 292h373l-353 -292h-245z" />
<glyph unicode="&#xe2;" horiz-adv-x="1069" d="M-8 238q0 69 19 126t51 99t83 76t104 57t127.5 42.5t139.5 31.5t152 24q12 30 12 58q0 42 -30 66t-91 24q-124 0 -209 -119l-225 162q92 113 211.5 161t281.5 48q194 0 301 -78t107 -228q0 -57 -14 -114l-101 -445l-12 -229h-358l4 115q-80 -66 -153.5 -98.5 t-162.5 -32.5q-114 0 -175.5 71t-61.5 183zM295 1178l233 292h392l104 -292h-225l-94 157l-162 -157h-248zM346 326q0 -37 18.5 -62.5t57.5 -25.5q72 0 149 71l45 195q-270 -32 -270 -178z" />
<glyph unicode="&#xe3;" horiz-adv-x="1069" d="M-8 238q0 69 19 126t51 99t83 76t104 57t127.5 42.5t139.5 31.5t152 24q12 30 12 58q0 42 -30 66t-91 24q-124 0 -209 -119l-225 162q92 113 211.5 161t281.5 48q194 0 301 -78t107 -228q0 -57 -14 -114l-101 -445l-12 -229h-358l4 115q-80 -66 -153.5 -98.5 t-162.5 -32.5q-114 0 -175.5 71t-61.5 183zM276 1178q24 143 90 203.5t173 60.5q67 0 153 -31t133 -31q33 0 53 22t23 52h195q-24 -143 -89.5 -203.5t-172.5 -60.5q-67 0 -153.5 30.5t-133.5 30.5q-33 0 -52 -21t-24 -52h-195zM346 326q0 -37 18.5 -62.5t57.5 -25.5 q72 0 149 71l45 195q-270 -32 -270 -178z" />
<glyph unicode="&#xe4;" horiz-adv-x="1069" d="M-8 238q0 69 19 126t51 99t83 76t104 57t127.5 42.5t139.5 31.5t152 24q12 30 12 58q0 42 -30 66t-91 24q-124 0 -209 -119l-225 162q92 113 211.5 161t281.5 48q194 0 301 -78t107 -228q0 -57 -14 -114l-101 -445l-12 -229h-358l4 115q-80 -66 -153.5 -98.5 t-162.5 -32.5q-114 0 -175.5 71t-61.5 183zM330 1184l55 254h281l-56 -254h-280zM346 326q0 -37 18.5 -62.5t57.5 -25.5q72 0 149 71l45 195q-270 -32 -270 -178zM707 1184l55 254h285l-56 -254h-284z" />
<glyph unicode="&#xe5;" horiz-adv-x="1069" d="M-8 238q0 69 19 126t51 99t83 76t104 57t127.5 42.5t139.5 31.5t152 24q12 30 12 58q0 42 -30 66t-91 24q-124 0 -209 -119l-225 162q92 113 211.5 161t281.5 48q194 0 301 -78t107 -228q0 -57 -14 -114l-101 -445l-12 -229h-358l4 115q-80 -66 -153.5 -98.5 t-162.5 -32.5q-114 0 -175.5 71t-61.5 183zM346 326q0 -37 18.5 -62.5t57.5 -25.5q72 0 149 71l45 195q-270 -32 -270 -178zM432 1382q0 99 64.5 165.5t169.5 66.5t169 -66.5t64 -165.5q0 -94 -66.5 -160.5t-166.5 -66.5t-167 66.5t-67 160.5zM563 1382q0 -46 28.5 -77 t74.5 -31q48 0 76 31t28 77q0 47 -28 79t-76 32q-46 0 -74.5 -32t-28.5 -79z" />
<glyph unicode="&#xe6;" horiz-adv-x="1632" d="M-8 238q0 69 19 126t50 99t81.5 76t103 57t126 42.5t138.5 31.5t152 24q12 30 12 58q0 41 -30 65.5t-89 24.5q-65 0 -113 -29t-92 -90l-225 162q170 209 461 209q192 0 286 -90q134 90 314 90q204 0 306.5 -115t102.5 -311q0 -96 -24 -201h-619v-43q0 -87 26 -132.5 t97 -45.5q64 0 112.5 30.5t90.5 106.5l260 -123q-54 -85 -116 -143.5t-127.5 -88t-127 -41.5t-133.5 -12q-272 0 -366 195q-113 -91 -211.5 -138.5t-216.5 -47.5q-121 0 -184.5 70.5t-63.5 183.5zM346 326q0 -88 72 -88q70 0 147 71l45 195q-52 -6 -92.5 -16t-82.5 -29.5 t-65.5 -53t-23.5 -79.5zM981 680h279q2 14 2 41q0 121 -111 121q-121 0 -170 -162z" />
<glyph unicode="&#xe7;" horiz-adv-x="1009" d="M37 469q0 95 23 186t70 170.5t112.5 139.5t157.5 94.5t198 34.5q173 0 277.5 -80.5t138.5 -255.5l-271 -60q-17 67 -56 100t-91 33q-61 0 -106 -37.5t-68.5 -97.5t-34 -121.5t-10.5 -123.5q0 -107 29 -159t100 -52q117 0 190 129l254 -146q-50 -76 -108 -127t-120.5 -76 t-117.5 -34.5t-121 -10.5l-16 -49q35 6 72 6q70 0 109.5 -33t39.5 -92q0 -57 -30.5 -97.5t-83.5 -61t-108.5 -29t-121.5 -8.5q-71 0 -139 14l24 129q57 -14 123 -14q135 0 135 49q0 39 -65 39q-38 0 -76 -12l-20 59l39 113q-165 34 -246.5 165t-81.5 316z" />
<glyph unicode="&#xe8;" horiz-adv-x="1060" d="M37 446q0 83 18.5 169t62 173t107 154t163.5 109.5t222 42.5q205 0 308.5 -116.5t103.5 -313.5q0 -96 -23 -197h-626v-43q0 -86 27.5 -132t99.5 -46q64 0 114.5 30.5t92.5 106.5l260 -123q-54 -85 -116.5 -143.5t-129 -88t-128.5 -41.5t-134 -12q-422 0 -422 471z M258 1470h373l131 -292h-250zM401 680h287q2 12 2 37q0 125 -115 125q-122 0 -174 -162z" />
<glyph unicode="&#xe9;" horiz-adv-x="1060" d="M37 446q0 83 18.5 169t62 173t107 154t163.5 109.5t222 42.5q205 0 308.5 -116.5t103.5 -313.5q0 -96 -23 -197h-626v-43q0 -86 27.5 -132t99.5 -46q64 0 114.5 30.5t92.5 106.5l260 -123q-54 -85 -116.5 -143.5t-129 -88t-128.5 -41.5t-134 -12q-422 0 -422 471z M401 680h287q2 12 2 37q0 125 -115 125q-122 0 -174 -162zM498 1178l225 292h373l-353 -292h-245z" />
<glyph unicode="&#xea;" horiz-adv-x="1060" d="M37 446q0 83 18.5 169t62 173t107 154t163.5 109.5t222 42.5q205 0 308.5 -116.5t103.5 -313.5q0 -96 -23 -197h-626v-43q0 -86 27.5 -132t99.5 -46q64 0 114.5 30.5t92.5 106.5l260 -123q-54 -85 -116.5 -143.5t-129 -88t-128.5 -41.5t-134 -12q-422 0 -422 471z M264 1178l234 292h391l104 -292h-225l-94 157l-162 -157h-248zM401 680h287q2 12 2 37q0 125 -115 125q-122 0 -174 -162z" />
<glyph unicode="&#xeb;" horiz-adv-x="1060" d="M37 446q0 83 18.5 169t62 173t107 154t163.5 109.5t222 42.5q205 0 308.5 -116.5t103.5 -313.5q0 -96 -23 -197h-626v-43q0 -86 27.5 -132t99.5 -46q64 0 114.5 30.5t92.5 106.5l260 -123q-54 -85 -116.5 -143.5t-129 -88t-128.5 -41.5t-134 -12q-422 0 -422 471z M301 1184l55 254h281l-55 -254h-281zM401 680h287q2 12 2 37q0 125 -115 125q-122 0 -174 -162zM678 1184l55 254h285l-55 -254h-285z" />
<glyph unicode="&#xec;" horiz-adv-x="559" d="M-16 0l235 1069h361l-236 -1069h-360zM39 1470h373l131 -292h-250z" />
<glyph unicode="&#xed;" horiz-adv-x="559" d="M-16 0l235 1069h361l-236 -1069h-360zM293 1178l225 292h373l-352 -292h-246z" />
<glyph unicode="&#xee;" horiz-adv-x="559" d="M-16 0l235 1069h361l-236 -1069h-360zM63 1178l234 292h391l105 -292h-226l-94 157l-162 -157h-248z" />
<glyph unicode="&#xef;" horiz-adv-x="559" d="M-16 0l235 1069h361l-236 -1069h-360zM92 1184l55 254h281l-55 -254h-281zM469 1184l55 254h285l-55 -254h-285z" />
<glyph unicode="&#xf0;" horiz-adv-x="1103" d="M37 434q0 109 30 211t85.5 184.5t145.5 132.5t200 50q113 0 204 -51l5 2q-17 71 -58 161l-198 -80l-60 156l182 72l-51 82l252 170q44 -58 90 -135l201 81l59 -155l-178 -72q129 -263 129 -506q0 -115 -21 -222t-68.5 -206.5t-117.5 -172.5t-176 -117t-235 -44 q-205 0 -312.5 125.5t-107.5 333.5zM389 403q0 -82 27.5 -127t81.5 -45t96 40t67.5 110.5t40 153.5t19.5 180q-63 63 -129 63q-55 0 -95.5 -32t-63.5 -87t-33.5 -119t-10.5 -137z" />
<glyph unicode="&#xf1;" horiz-adv-x="1140" d="M-16 0l237 1069h322l-23 -98q60 39 99.5 61t101.5 42t121 20q132 0 199 -66.5t67 -185.5q0 -52 -12 -111l-162 -731h-361l144 641q12 62 12 88q0 90 -84 90q-61 0 -133 -59l-168 -760h-360zM313 1178q24 143 89.5 203.5t172.5 60.5q67 0 153.5 -31t133.5 -31q33 0 53 22 t23 52h195q-24 -143 -90 -203.5t-173 -60.5q-67 0 -153 30.5t-133 30.5q-33 0 -52 -21t-24 -52h-195z" />
<glyph unicode="&#xf2;" horiz-adv-x="1079" d="M37 424q0 135 37.5 255t108.5 213t183.5 147.5t251.5 54.5q424 0 424 -449q0 -135 -37.5 -255t-108.5 -213t-183.5 -147.5t-251.5 -54.5q-424 0 -424 449zM268 1470h373l131 -292h-250zM389 379q0 -148 94 -148q54 0 96 47t65 120t34.5 148.5t11.5 143.5q0 148 -94 148 q-54 0 -96 -47t-65 -120t-34.5 -148.5t-11.5 -143.5z" />
<glyph unicode="&#xf3;" horiz-adv-x="1079" d="M37 424q0 135 37.5 255t108.5 213t183.5 147.5t251.5 54.5q424 0 424 -449q0 -135 -37.5 -255t-108.5 -213t-183.5 -147.5t-251.5 -54.5q-424 0 -424 449zM389 379q0 -148 94 -148q54 0 96 47t65 120t34.5 148.5t11.5 143.5q0 148 -94 148q-54 0 -96 -47t-65 -120 t-34.5 -148.5t-11.5 -143.5zM516 1178l225 292h373l-352 -292h-246z" />
<glyph unicode="&#xf4;" horiz-adv-x="1079" d="M37 424q0 135 37.5 255t108.5 213t183.5 147.5t251.5 54.5q424 0 424 -449q0 -135 -37.5 -255t-108.5 -213t-183.5 -147.5t-251.5 -54.5q-424 0 -424 449zM281 1178l233 292h391l105 -292h-226l-94 157l-162 -157h-247zM389 379q0 -148 94 -148q54 0 96 47t65 120 t34.5 148.5t11.5 143.5q0 148 -94 148q-54 0 -96 -47t-65 -120t-34.5 -148.5t-11.5 -143.5z" />
<glyph unicode="&#xf5;" horiz-adv-x="1079" d="M37 424q0 135 37.5 255t108.5 213t183.5 147.5t251.5 54.5q424 0 424 -449q0 -135 -37.5 -255t-108.5 -213t-183.5 -147.5t-251.5 -54.5q-424 0 -424 449zM250 1178q24 143 89.5 203.5t172.5 60.5q67 0 153.5 -31t133.5 -31q33 0 52.5 21.5t22.5 52.5h195 q-24 -143 -89.5 -203.5t-172.5 -60.5q-67 0 -153.5 30.5t-133.5 30.5q-33 0 -52 -21t-24 -52h-194zM389 379q0 -148 94 -148q54 0 96 47t65 120t34.5 148.5t11.5 143.5q0 148 -94 148q-54 0 -96 -47t-65 -120t-34.5 -148.5t-11.5 -143.5z" />
<glyph unicode="&#xf6;" horiz-adv-x="1079" d="M37 424q0 135 37.5 255t108.5 213t183.5 147.5t251.5 54.5q424 0 424 -449q0 -135 -37.5 -255t-108.5 -213t-183.5 -147.5t-251.5 -54.5q-424 0 -424 449zM311 1184l56 254h280l-55 -254h-281zM389 379q0 -148 94 -148q54 0 96 47t65 120t34.5 148.5t11.5 143.5 q0 148 -94 148q-54 0 -96 -47t-65 -120t-34.5 -148.5t-11.5 -143.5zM688 1184l55 254h285l-55 -254h-285z" />
<glyph unicode="&#xf7;" d="M104 457v139h1029v-139h-1029zM504 68v215h227v-215h-227zM504 770v215h227v-215h-227z" />
<glyph unicode="&#xf8;" horiz-adv-x="1079" d="M-37 -143l166 243q-92 108 -92 324q0 135 37.5 255t108.5 213t183.5 147.5t251.5 54.5q86 0 173 -25l98 143h225l-168 -243q96 -110 96 -324q0 -135 -37.5 -255t-108.5 -213t-183.5 -147.5t-251.5 -54.5q-89 0 -176 25l-99 -143h-223zM367 449l266 389q-15 6 -35 6 q-45 0 -82.5 -25t-63 -65t-44 -93.5t-28 -105.5t-13.5 -106zM440 229q12 -4 41 -4q56 0 100 38t70.5 100t41.5 128.5t20 135.5z" />
<glyph unicode="&#xf9;" horiz-adv-x="1138" d="M41 227q0 53 12 111l162 731h360l-143 -641q-12 -50 -12 -90q0 -88 78 -88q61 0 133 59l168 760h360l-237 -1069h-322l23 98q-60 -39 -99.5 -61t-101.5 -42t-121 -20q-128 0 -194 67t-66 185zM324 1470h372l131 -292h-249z" />
<glyph unicode="&#xfa;" horiz-adv-x="1138" d="M41 227q0 53 12 111l162 731h360l-143 -641q-12 -50 -12 -90q0 -88 78 -88q61 0 133 59l168 760h360l-237 -1069h-322l23 98q-60 -39 -99.5 -61t-101.5 -42t-121 -20q-128 0 -194 67t-66 185zM571 1178l226 292h372l-352 -292h-246z" />
<glyph unicode="&#xfb;" horiz-adv-x="1138" d="M41 227q0 53 12 111l162 731h360l-143 -641q-12 -50 -12 -90q0 -88 78 -88q61 0 133 59l168 760h360l-237 -1069h-322l23 98q-60 -39 -99.5 -61t-101.5 -42t-121 -20q-128 0 -194 67t-66 185zM342 1178l233 292h392l104 -292h-225l-94 157l-162 -157h-248z" />
<glyph unicode="&#xfc;" horiz-adv-x="1138" d="M41 227q0 53 12 111l162 731h360l-143 -641q-12 -50 -12 -90q0 -88 78 -88q61 0 133 59l168 760h360l-237 -1069h-322l23 98q-60 -39 -99.5 -61t-101.5 -42t-121 -20q-128 0 -194 67t-66 185zM371 1184l55 254h281l-56 -254h-280zM748 1184l55 254h284l-55 -254h-284z " />
<glyph unicode="&#xfd;" horiz-adv-x="1009" d="M-137 -356l59 254q58 -15 121 -15q77 0 123 28.5t84 98.5l14 27l-192 1032h364l64 -625h4l274 625h361l-512 -1014q-68 -135 -122.5 -214.5t-121.5 -130.5t-142.5 -69t-187.5 -18q-111 0 -190 21zM498 1178l225 292h373l-353 -292h-245z" />
<glyph unicode="&#xfe;" horiz-adv-x="1161" d="M-94 -352l405 1822h361l-105 -477q73 51 132.5 76t138.5 25q78 0 134.5 -31t89 -88t47.5 -130t15 -165q0 -184 -61.5 -342.5t-177.5 -256t-262 -97.5q-143 0 -258 112l-99 -448h-360zM412 305q54 -61 131 -61q71 0 123.5 55t78 143.5t25.5 196.5q0 188 -125 188 q-60 0 -131 -61z" />
<glyph unicode="&#xff;" horiz-adv-x="1009" d="M-137 -356l59 254q58 -15 121 -15q77 0 123 28.5t84 98.5l14 27l-192 1032h364l64 -625h4l274 625h361l-512 -1014q-68 -135 -122.5 -214.5t-121.5 -130.5t-142.5 -69t-187.5 -18q-111 0 -190 21zM297 1184l55 254h281l-55 -254h-281zM674 1184l55 254h285l-56 -254h-284 z" />
<glyph unicode="&#x152;" horiz-adv-x="2007" d="M76 592q0 189 58.5 351.5t167 283t273 189.5t365.5 69q146 0 238 -15h946l-72 -317h-545l-51 -248h387l-69 -307h-390l-59 -281h610l-71 -317h-981q-126 -14 -219 -14q-294 0 -441 161t-147 445zM492 592q0 -139 64 -219t192 -80q166 0 196 127l141 624q10 43 -0.5 73 t-37 44t-56 19.5t-67.5 5.5q-110 0 -194.5 -47t-135.5 -130t-76.5 -188t-25.5 -229z" />
<glyph unicode="&#x153;" horiz-adv-x="1687" d="M37 424q0 108 22 206.5t68.5 183t112.5 147t160 98t206 35.5q189 0 297 -117h4q142 117 334 117q204 0 307 -115.5t103 -310.5q0 -92 -25 -201h-618v-43q0 -178 122 -178q64 0 112.5 30.5t90.5 106.5l260 -123q-54 -85 -116 -143.5t-128 -88t-127 -41.5t-132 -12 q-197 0 -299 119h-5q-138 -119 -344 -119q-114 0 -195 33.5t-125.5 96t-64.5 140.5t-20 179zM389 379q0 -68 18 -108t72 -40t95.5 47t63.5 120.5t33 148t11 143.5q0 148 -90 148q-54 0 -95.5 -47t-63.5 -120.5t-33 -148t-11 -143.5zM1038 680h277q2 14 2 41q0 121 -111 121 q-119 0 -168 -162z" />
<glyph unicode="&#x178;" horiz-adv-x="1243" d="M143 1470h406l141 -546h4l369 546h416l-652 -917l-122 -553h-402l123 553zM489 1579l56 254h280l-55 -254h-281zM866 1579l56 254h284l-55 -254h-285z" />
<glyph unicode="&#x2c6;" horiz-adv-x="942" d="M106 1178l234 292h391l105 -292h-226l-94 157l-162 -157h-248z" />
<glyph unicode="&#x2dc;" horiz-adv-x="942" d="M61 1178q24 143 90 203.5t173 60.5q67 0 153 -31t133 -31q33 0 53 22t23 52h195q-24 -143 -90 -203.5t-173 -60.5q-67 0 -153 30.5t-133 30.5q-33 0 -52 -21t-24 -52h-195z" />
<glyph unicode="&#x2000;" horiz-adv-x="1004" />
<glyph unicode="&#x2001;" horiz-adv-x="2009" />
<glyph unicode="&#x2002;" horiz-adv-x="1004" />
<glyph unicode="&#x2003;" horiz-adv-x="2009" />
<glyph unicode="&#x2004;" horiz-adv-x="669" />
<glyph unicode="&#x2005;" horiz-adv-x="502" />
<glyph unicode="&#x2006;" horiz-adv-x="334" />
<glyph unicode="&#x2007;" horiz-adv-x="334" />
<glyph unicode="&#x2008;" horiz-adv-x="251" />
<glyph unicode="&#x2009;" horiz-adv-x="401" />
<glyph unicode="&#x200a;" horiz-adv-x="111" />
<glyph unicode="&#x2010;" horiz-adv-x="681" d="M23 397l65 299h582l-66 -299h-581z" />
<glyph unicode="&#x2011;" horiz-adv-x="681" d="M23 397l65 299h582l-66 -299h-581z" />
<glyph unicode="&#x2012;" horiz-adv-x="681" d="M23 397l65 299h582l-66 -299h-581z" />
<glyph unicode="&#x2013;" horiz-adv-x="1363" d="M37 483l29 127h1280l-29 -127h-1280z" />
<glyph unicode="&#x2014;" horiz-adv-x="2043" d="M8 483l29 127h2015l-29 -127h-2015z" />
<glyph unicode="&#x2018;" horiz-adv-x="593" d="M147 772l76 344l246 354h203l-193 -331h121l-80 -367h-373z" />
<glyph unicode="&#x2019;" horiz-adv-x="593" d="M150 772l192 332h-121l80 366h373l-76 -344l-246 -354h-202z" />
<glyph unicode="&#x201a;" horiz-adv-x="593" d="M-80 -332l193 332h-121l80 367h372l-75 -344l-246 -355h-203z" />
<glyph unicode="&#x201c;" horiz-adv-x="1062" d="M147 772l76 344l246 354h203l-193 -331h121l-80 -367h-373zM618 772l76 344l246 354h203l-193 -331h121l-80 -367h-373z" />
<glyph unicode="&#x201d;" horiz-adv-x="1062" d="M150 772l192 332h-121l80 366h373l-76 -344l-246 -354h-202zM621 772l192 332h-121l80 366h373l-76 -344l-246 -354h-202z" />
<glyph unicode="&#x201e;" horiz-adv-x="1062" d="M-80 -332l193 332h-121l80 367h372l-75 -344l-246 -355h-203zM391 -332l193 332h-121l80 367h372l-75 -344l-246 -355h-203z" />
<glyph unicode="&#x2022;" horiz-adv-x="1024" d="M190 735q0 152 107.5 260.5t259.5 108.5t260.5 -108.5t108.5 -260.5t-108 -259t-261 -107q-152 0 -259.5 107t-107.5 259z" />
<glyph unicode="&#x2026;" horiz-adv-x="2174" d="M-31 0l80 367h373l-80 -367h-373zM760 0l80 367h372l-79 -367h-373zM1550 0l80 367h373l-80 -367h-373z" />
<glyph unicode="&#x202f;" horiz-adv-x="401" />
<glyph unicode="&#x2039;" horiz-adv-x="649" d="M53 551l299 354h324l-311 -354l151 -367h-295z" />
<glyph unicode="&#x203a;" horiz-adv-x="649" d="M-27 184l312 355l-152 366h295l168 -366l-299 -355h-324z" />
<glyph unicode="&#x205f;" horiz-adv-x="502" />
<glyph unicode="&#x20ac;" d="M37 512l43 184h145q2 46 17 121h-138l43 184h140q35 107 86 193.5t122 155.5t168.5 107t213.5 38q188 0 294 -84t156 -248l-303 -84q-24 66 -60 97.5t-94 31.5q-133 0 -204 -207h391l-43 -184h-391q-9 -57 -15 -121h381l-43 -184h-346v-35q0 -109 29.5 -159t97.5 -50 q115 0 205 152l276 -119q-189 -326 -530 -326q-119 0 -208.5 38t-145 109t-82.5 167t-27 217v6h-178z" />
<glyph unicode="&#x2122;" horiz-adv-x="1544" d="M141 1296v174h580v-174h-184v-561h-211v561h-185zM799 735v735h276l123 -442h4l131 442h271v-735h-197v434h-4l-117 -434h-170l-117 434h-4v-434h-196z" />
<glyph unicode="&#x25fc;" horiz-adv-x="1064" d="M0 0v1065h1065v-1065h-1065z" />
</font>
</defs>
</svg>
