<?xml version="1.0" standalone="no"?>
<!DOCTYPE svg PUBLIC "-//W3C//DTD SVG 1.1//EN" "http://www.w3.org/Graphics/SVG/1.1/DTD/svg11.dtd" >
<svg xmlns="http://www.w3.org/2000/svg">
<metadata></metadata>
<defs>
<font id="trade_gothic_next_lt_proLtIt" horiz-adv-x="1163" >
<font-face units-per-em="2048" ascent="1475" descent="-573" />
<missing-glyph horiz-adv-x="450" />
<glyph unicode="&#xfb01;" horiz-adv-x="1087" d="M106 0l213 958h-182l23 101h182l27 125q35 161 106.5 236t204.5 75q47 0 92 -10l-22 -107q-35 13 -78 13q-73 0 -113 -43t-63 -146l-33 -143h215l-21 -101h-217l-213 -958h-121zM682 0l238 1059h118l-235 -1059h-121zM938 1290l41 180h154l-41 -180h-154z" />
<glyph unicode="&#xfb02;" horiz-adv-x="1087" d="M106 0l213 958h-182l23 101h182l27 125q35 161 106.5 236t204.5 75q47 0 92 -10l-22 -107q-35 13 -78 13q-73 0 -113 -43t-63 -146l-33 -143h215l-21 -101h-217l-213 -958h-121zM682 0l328 1470h120l-327 -1470h-121z" />
<glyph unicode="&#xfb03;" horiz-adv-x="1642" d="M106 0l213 958h-182l23 101h182l27 125q35 161 106.5 236t204.5 75q47 0 92 -10l-22 -107q-35 13 -78 13q-73 0 -113 -43t-63 -146l-33 -143h434l27 125q35 161 106.5 236t204.5 75q47 0 92 -10l-22 -107q-35 13 -78 13q-73 0 -113 -43t-63 -146l-33 -143h215l-21 -101 h-217l-213 -958h-120l212 958h-434l-213 -958h-121zM1237 0l238 1059h118l-235 -1059h-121zM1493 1290l41 180h154l-41 -180h-154z" />
<glyph unicode="&#xfb04;" horiz-adv-x="1642" d="M106 0l213 958h-182l23 101h182l27 125q35 161 106.5 236t204.5 75q47 0 92 -10l-22 -107q-35 13 -78 13q-73 0 -113 -43t-63 -146l-33 -143h434l27 125q35 161 106.5 236t204.5 75q47 0 92 -10l-22 -107q-35 13 -78 13q-73 0 -113 -43t-63 -146l-33 -143h215l-21 -101 h-217l-213 -958h-120l212 958h-434l-213 -958h-121zM1237 0l328 1470h121l-328 -1470h-121z" />
<glyph horiz-adv-x="2048" />
<glyph horiz-adv-x="2048" />
<glyph horiz-adv-x="682" />
<glyph unicode="&#xd;" horiz-adv-x="0" />
<glyph unicode=" "  horiz-adv-x="450" />
<glyph unicode="&#x09;" horiz-adv-x="450" />
<glyph unicode="&#xa0;" horiz-adv-x="450" />
<glyph unicode="!" horiz-adv-x="569" d="M72 0l41 190h176l-41 -190h-176zM193 453l188 1017h186l-266 -1017h-108z" />
<glyph unicode="&#x22;" horiz-adv-x="935" d="M334 973l82 497h153l-147 -497h-88zM700 973l82 497h154l-148 -497h-88z" />
<glyph unicode="#" d="M84 442l25 123h231l121 350h-277l27 123h293l151 432h115l-152 -432h228l151 432h115l-151 -432h202l-26 -123h-219l-123 -350h266l-27 -123h-282l-154 -442h-113l154 442h-229l-154 -442h-113l154 442h-213zM453 565h229l121 350h-228z" />
<glyph unicode="$" d="M66 346l116 51q50 -122 113 -186t149 -86l134 600q-55 30 -91 52t-80 58.5t-69.5 73.5t-43.5 90t-18 115q0 161 112.5 254.5t281.5 93.5q25 0 71 -4l35 154h96l-36 -168q201 -51 288 -262l-114 -49q-64 162 -199 204l-117 -538q49 -27 79 -46t71.5 -49t67 -59t50.5 -67.5 t36.5 -84.5t11.5 -100q0 -176 -121.5 -280.5t-323.5 -104.5h-45l-55 -254h-103l60 266q-126 24 -213 102t-143 224zM401 1118q0 -90 52 -149.5t153 -120.5l113 506q-36 4 -60 4q-108 0 -183 -63t-75 -177zM543 113h30q140 0 226 72t86 204q0 96 -56.5 161.5t-160.5 125.5z " />
<glyph unicode="%" horiz-adv-x="1529" d="M162 -53l1159 1573h127l-1159 -1573h-127zM164 1157q0 144 93 241t241 97t240.5 -97t92.5 -241q0 -141 -92.5 -238.5t-240.5 -97.5t-241 97.5t-93 238.5zM274 1157q0 -103 60 -169t164 -66t163.5 66t59.5 169q0 102 -59.5 170t-163.5 68t-164 -68t-60 -170zM782 311 q0 144 93 241t241 97t241 -97t93 -241q0 -141 -93 -238.5t-241 -97.5t-241 97.5t-93 238.5zM893 311q0 -103 59.5 -169t163.5 -66t163.5 66t59.5 169q0 102 -59.5 170t-163.5 68t-163.5 -68t-59.5 -170z" />
<glyph unicode="&#x26;" horiz-adv-x="1359" d="M70 373q0 72 21 135t52 108t82.5 89t95 71.5t107.5 63.5q-86 188 -86 342q0 151 79 232t220 81q134 0 209.5 -75.5t75.5 -200.5q0 -60 -20 -114t-48.5 -93t-78 -80t-90 -67.5t-103.5 -63.5q67 -122 162 -258q96 -140 184 -228q101 147 153 379l125 -32 q-62 -259 -188 -429q132 -111 254 -139l-33 -125q-162 39 -311 166q-177 -160 -428 -160q-195 0 -314.5 108.5t-119.5 289.5zM197 365q0 -128 86 -206.5t225 -78.5q197 0 340 137q-110 115 -203 256q-102 147 -166 266q-65 -40 -109.5 -74t-87 -80t-64 -101t-21.5 -119z M469 1182q0 -134 68 -281q61 36 101.5 64.5t81 68.5t60 87.5t19.5 103.5q0 71 -41 116t-117 45q-81 0 -126.5 -52t-45.5 -152z" />
<glyph unicode="'" horiz-adv-x="569" d="M334 973l82 497h153l-147 -497h-88z" />
<glyph unicode="(" horiz-adv-x="655" d="M143 518q0 269 112.5 506.5t346.5 470.5h162q-494 -468 -494 -977q0 -311 168 -633h-137q-158 329 -158 633z" />
<glyph unicode=")" horiz-adv-x="655" d="M-43 -115q248 235 371 475.5t123 499.5q0 313 -168 635h137q158 -329 158 -635q0 -268 -112 -505t-347 -470h-162z" />
<glyph unicode="*" horiz-adv-x="802" d="M203 1214l35 105l258 -100l-17 276h111l-17 -276l258 100l33 -105l-268 -67l176 -213l-90 -64l-147 234l-152 -238l-88 66l176 213z" />
<glyph unicode="+" d="M100 477v98h449v426h104v-426h447v-98h-447v-446h-104v446h-449z" />
<glyph unicode="," horiz-adv-x="569" d="M-53 -307l182 307h-78l41 190h176l-43 -200l-194 -297h-84z" />
<glyph unicode="-" horiz-adv-x="661" d="M76 467l26 117h504l-26 -117h-504z" />
<glyph unicode="." horiz-adv-x="569" d="M51 0l41 190h176l-41 -190h-176z" />
<glyph unicode="/" horiz-adv-x="557" d="M-168 -115l854 1610h117l-854 -1610h-117z" />
<glyph unicode="0" d="M123 492q0 115 21 244t69.5 265.5t118 245t176.5 178.5t235 70q189 0 285 -132.5t96 -383.5q0 -80 -10.5 -169.5t-34 -187.5t-57.5 -190t-85 -175.5t-112.5 -146t-144.5 -99t-176 -36.5q-188 0 -284.5 133t-96.5 384zM250 492q0 -204 67 -308t195 -104q81 0 153 45 t123.5 120t92.5 168.5t65.5 195.5t37.5 196t13 174q0 407 -262 407q-81 0 -153 -44.5t-123.5 -119t-92.5 -167.5t-65.5 -194t-37.5 -195t-13 -174z" />
<glyph unicode="1" d="M172 0l25 104h252l270 1217l-291 -47l21 86l352 110h82l-303 -1366h256l-23 -104h-641z" />
<glyph unicode="2" d="M41 0l12 68q15 83 56 156.5t97.5 129.5t126 107t142 95.5t144.5 89t135 92.5t111.5 100.5t77 120t28.5 143.5q0 131 -80.5 207.5t-218.5 76.5q-256 0 -361 -313l-112 29q67 206 183 299.5t296 93.5q197 0 308.5 -105.5t111.5 -287.5q0 -83 -27 -156.5t-73.5 -130.5 t-107 -109t-129.5 -96.5t-139.5 -87t-138.5 -88t-125 -92.5t-100.5 -106t-62.5 -123h790l-22 -113h-922z" />
<glyph unicode="3" d="M37 270l113 70q69 -128 164.5 -192t230.5 -64q170 0 267 85.5t97 240.5q0 150 -114 238.5t-306 88.5h-96l25 113h90q75 0 137 7t124 26t104.5 49.5t69 82.5t26.5 120q0 118 -86 182.5t-213 64.5q-115 0 -197 -45.5t-149 -138.5l-103 74q162 223 463 223q187 0 299.5 -99 t112.5 -261q0 -134 -83.5 -225t-244.5 -126v-4q268 -92 268 -368q0 -196 -129 -316.5t-366 -120.5q-183 0 -306 72.5t-198 222.5z" />
<glyph unicode="4" d="M41 371l18 108l850 991h181l-220 -987h232l-23 -112h-233l-84 -371h-131l86 371h-676zM209 483h528l195 854h-4z" />
<glyph unicode="5" d="M66 268l100 66q68 -132 153 -191t201 -59q175 0 287.5 121.5t112.5 318.5q0 350 -312 350q-200 0 -321 -169l-94 18l172 747h702l-23 -112h-591l-109 -465h4q120 88 281 88q213 0 315.5 -121.5t102.5 -335.5q0 -240 -145 -394.5t-390 -154.5q-301 0 -446 293z" />
<glyph unicode="6" d="M137 565q0 89 11 179.5t35.5 182.5t60.5 174.5t89 155t118 125t151 83t184 30.5q250 0 392 -154l-95 -88q-115 129 -303 129q-81 0 -150.5 -26.5t-120 -74.5t-90.5 -107t-68 -133.5t-46 -143t-31 -145.5h5q156 168 376 168q107 0 190.5 -35t134.5 -96.5t77 -139 t26 -168.5q0 -223 -127 -364.5t-340 -141.5q-103 0 -186 33.5t-137 89.5t-89.5 133t-51 160t-15.5 174zM262 504q0 -116 40 -210.5t123.5 -154t195.5 -59.5q83 0 148.5 31.5t105.5 86t60.5 125.5t20.5 154q0 154 -83 245t-232 91q-92 0 -178 -37.5t-143.5 -110t-57.5 -161.5 z" />
<glyph unicode="7" d="M176 0l825 1352h-757l24 118h906l-19 -86l-831 -1384h-148z" />
<glyph unicode="8" d="M76 373q0 307 403 413v5q-53 30 -90.5 59t-71 68.5t-50.5 91t-17 114.5q0 162 128.5 266.5t321.5 104.5q195 0 311.5 -100.5t116.5 -264.5q0 -55 -13.5 -102.5t-39 -83.5t-56 -65t-71.5 -52t-78.5 -38.5t-83.5 -30.5v-4q146 -72 212.5 -161.5t66.5 -211.5 q0 -184 -140.5 -295t-371.5 -111q-217 0 -347 108.5t-130 289.5zM203 375q0 -135 99 -215t257 -80q167 0 273 81t106 218q0 45 -11.5 84t-36 70.5t-50 55.5t-67.5 49t-73 40.5t-81 39.5q-10 5 -15 7q-54 -13 -90.5 -23.5t-82.5 -27.5t-76 -34.5t-61.5 -43.5t-49.5 -57 t-29.5 -72.5t-11.5 -91.5zM369 1126q0 -48 16 -89.5t39.5 -70.5t64.5 -58t75.5 -47.5t88.5 -43.5q194 49 274.5 123.5t80.5 187.5q0 125 -83.5 196t-230.5 71q-139 0 -232 -74.5t-93 -194.5z" />
<glyph unicode="9" d="M70 129l94 88q115 -129 303 -129q97 0 177 39.5t133 100.5t94 147.5t63.5 168t38.5 175.5h-4q-156 -168 -377 -168q-107 0 -190.5 35t-134.5 96t-77 138.5t-26 168.5q0 223 127 364.5t340 141.5q103 0 186 -33.5t137 -89.5t89.5 -133t51 -160t15.5 -174q0 -89 -11 -179.5 t-35.5 -182.5t-60.5 -174.5t-89 -155t-118 -125t-151 -83t-184 -30.5q-249 0 -391 154zM291 993q0 -154 83 -245t232 -91q91 0 177.5 38t144 110.5t57.5 161.5q0 116 -40 210.5t-123 154t-195 59.5q-110 0 -187.5 -55t-113 -143t-35.5 -200z" />
<glyph unicode=":" horiz-adv-x="569" d="M51 0l41 190h176l-41 -190h-176zM188 621l41 190h177l-41 -190h-177z" />
<glyph unicode=";" horiz-adv-x="569" d="M-53 -307l182 307h-78l41 190h176l-43 -200l-194 -297h-84zM188 621l41 190h177l-41 -190h-177z" />
<glyph unicode="&#x3c;" d="M164 465v123l837 368v-120l-729 -310l729 -309v-121z" />
<glyph unicode="=" d="M100 285v98h1000v-98h-1000zM100 670v98h1000v-98h-1000z" />
<glyph unicode="&#x3e;" d="M199 96v121l729 309l-729 310v120l837 -368v-123z" />
<glyph unicode="?" horiz-adv-x="806" d="M158 0l41 190h176l-41 -190h-176zM203 1294q63 101 143 151t197 50q149 0 233 -80.5t84 -218.5q0 -69 -23.5 -128t-62 -103t-85.5 -85t-95.5 -83.5t-90.5 -89t-72.5 -111.5t-39.5 -141h-115q5 86 33.5 158.5t69 123t88.5 95.5t95 84t85 78.5t62 89.5t24 108 q0 96 -51.5 145t-146.5 49q-78 0 -132 -33.5t-104 -115.5z" />
<glyph unicode="@" horiz-adv-x="1581" d="M100 451q0 171 49 318t141.5 258.5t237.5 175t326 63.5q303 0 476 -158t173 -451q0 -233 -121 -383.5t-297 -150.5q-63 0 -105 22.5t-62 87.5h-5q-101 -110 -235 -110q-123 0 -186.5 83t-63.5 210q0 69 18.5 141t55 136.5t85 115.5t113 81t134.5 30q164 0 223 -121l41 86 h102l-156 -529q-6 -20 -8.5 -40.5t0.5 -42.5t19 -36t45 -14q86 0 153.5 60t103.5 158.5t36 215.5q0 251 -145 380.5t-394 129.5q-130 0 -237 -36t-181.5 -100t-125.5 -154t-75 -196.5t-24 -229.5q0 -272 166 -439.5t436 -167.5q309 0 487 142l64 -90q-114 -84 -248.5 -117 t-302.5 -33q-217 0 -379 88t-248 247.5t-86 369.5zM549 416q0 -92 37.5 -141.5t103.5 -49.5q72 0 134 43.5t100 109t59 137.5t21 134q0 77 -42 123.5t-124 46.5q-70 0 -127 -39t-91 -100.5t-52.5 -130t-18.5 -133.5z" />
<glyph unicode="A" horiz-adv-x="1210" d="M-20 0l735 1470h196l127 -1470h-129l-41 485h-512l-237 -485h-139zM410 592h450l-65 776h-4z" />
<glyph unicode="B" horiz-adv-x="1329" d="M92 0l328 1470h205q122 0 211.5 -8.5t169 -31t128.5 -60.5t77 -99t28 -145q0 -122 -62.5 -212t-220.5 -146v-4q112 -37 170 -119t58 -201t-45.5 -207t-125.5 -138.5t-178.5 -74.5t-216.5 -24h-526zM242 111h329q238 0 359 81t121 257q0 53 -15.5 95t-38.5 69.5t-63 47 t-76 29.5t-92 15.5t-95 6.5t-100 1h-194zM399 819h131q88 0 138.5 2t129 10t124 27.5t93 51.5t69.5 86t22 126q0 130 -106.5 184t-335.5 54h-144z" />
<glyph unicode="C" horiz-adv-x="1263" d="M129 567q0 129 25 258.5t78 250.5t128.5 214t184.5 149t237 56q196 0 315 -109t150 -323l-129 -21q-24 166 -115.5 250t-226.5 84q-129 0 -230.5 -73t-161.5 -192t-91 -258.5t-31 -285.5q0 -231 91.5 -352t252.5 -121q279 0 404 295l125 -63q-78 -168 -217 -259.5 t-318 -91.5q-229 0 -350 156.5t-121 435.5z" />
<glyph unicode="D" horiz-adv-x="1388" d="M92 0l328 1470h184q260 0 422 -70t233.5 -203t71.5 -339q0 -190 -62.5 -352t-170.5 -272t-255.5 -172t-314.5 -62h-436zM258 115h236q155 0 285.5 51.5t223 146.5t144 235t51.5 310q0 261 -136.5 379.5t-420.5 118.5h-109z" />
<glyph unicode="E" horiz-adv-x="1116" d="M92 0l328 1470h758l-25 -114h-621l-118 -533h489l-24 -114h-490l-133 -594h733l-26 -115h-871z" />
<glyph unicode="F" horiz-adv-x="1064" d="M92 0l328 1470h764l-25 -114h-627l-118 -533h495l-24 -114h-496l-160 -709h-137z" />
<glyph unicode="G" horiz-adv-x="1341" d="M129 569q0 119 25.5 244.5t81.5 248t134.5 218.5t194 155.5t250.5 59.5q391 0 453 -432l-129 -21q-24 167 -110.5 250.5t-219.5 83.5q-110 0 -203 -51.5t-155 -134t-105 -189.5t-62.5 -216.5t-19.5 -215.5q0 -135 38 -241.5t119.5 -172t196.5 -65.5q178 0 300 132 t147 349h-383l25 115h518l-152 -686h-117l33 147h-4q-80 -91 -171.5 -131.5t-207.5 -40.5q-152 0 -261 78t-162.5 211t-53.5 305z" />
<glyph unicode="H" horiz-adv-x="1449" d="M102 0l328 1470h139l-145 -647h745l144 647h139l-326 -1470h-139l158 709h-746l-157 -709h-140z" />
<glyph unicode="I" horiz-adv-x="567" d="M102 0l328 1470h139l-327 -1470h-140z" />
<glyph unicode="J" horiz-adv-x="880" d="M-25 174l117 62q23 -69 68 -105.5t104 -36.5q48 0 83 18t57 41t43 80.5t31.5 99.5t31.5 136l223 1001h139l-235 -1054q-55 -247 -134.5 -344t-238.5 -97q-224 0 -289 199z" />
<glyph unicode="K" horiz-adv-x="1212" d="M92 0l326 1470h139l-168 -755h4l785 755h174l-611 -579l363 -891h-143l-326 788l-293 -276l-113 -512h-137z" />
<glyph unicode="L" horiz-adv-x="1030" d="M92 0l326 1470h139l-303 -1355h719l-27 -115h-854z" />
<glyph unicode="M" horiz-adv-x="1695" d="M92 0l328 1470h223l115 -1257h4l692 1257h234l-326 -1470h-127l305 1368h-4l-760 -1368h-114l-138 1368h-4l-303 -1368h-125z" />
<glyph unicode="N" horiz-adv-x="1476" d="M102 0l328 1470h209l428 -1243h4l279 1243h129l-326 -1470h-131l-479 1384h-4l-308 -1384h-129z" />
<glyph unicode="O" horiz-adv-x="1386" d="M129 526q0 108 19 218.5t56.5 220t98 204.5t137.5 168.5t182.5 115.5t225.5 42q126 0 220.5 -43t150.5 -119.5t83 -174t27 -214.5q0 -108 -19 -218.5t-56.5 -220t-98 -204.5t-137.5 -168.5t-182.5 -115.5t-225.5 -42q-126 0 -220.5 43t-150.5 119.5t-83 174t-27 214.5z M262 526q0 -210 91.5 -323t264.5 -113q115 0 212 53t163.5 139.5t113 199t68 229.5t21.5 233q0 210 -91.5 323t-264.5 113q-115 0 -212 -53t-163.5 -139.5t-113 -199t-68 -229.5t-21.5 -233z" />
<glyph unicode="P" horiz-adv-x="1267" d="M92 0l328 1470h313q531 0 531 -380q0 -214 -141 -325.5t-386 -111.5h-360l-146 -653h-139zM401 768h306q211 0 317 77t106 245q0 71 -28.5 123.5t-79.5 83t-113.5 45t-136.5 14.5h-237z" />
<glyph unicode="Q" horiz-adv-x="1382" d="M129 526q0 108 19 218.5t56.5 220t98 204.5t137.5 168.5t182.5 115.5t225.5 42q126 0 220.5 -43t150.5 -119.5t83 -174t27 -214.5q0 -227 -81 -452.5t-234 -362.5q49 -68 106 -105.5t133 -37.5l-26 -123q-103 0 -178 50.5t-142 139.5q-134 -78 -297 -78q-126 0 -220.5 43 t-150.5 119.5t-83 174t-27 214.5zM262 526q0 -210 91.5 -323t264.5 -113q117 0 224 60q-69 103 -101 133q-44 43 -90 43l31 123q25 0 48.5 -7.5t42 -16t40 -29t34 -33.5t34.5 -43.5t31 -44t32 -48.5q122 122 187 319.5t65 397.5q0 210 -91.5 323t-264.5 113q-115 0 -212 -53 t-163.5 -139.5t-113 -199t-68 -229.5t-21.5 -233z" />
<glyph unicode="R" horiz-adv-x="1290" d="M92 0l328 1470h274q136 0 234 -17.5t172.5 -59t111.5 -114.5t37 -179q0 -178 -107.5 -282t-299.5 -136l239 -682h-145l-231 670h-324l-150 -670h-139zM406 782h227q54 0 97 2.5t95 10.5t91.5 21.5t78.5 37.5t64.5 56.5t41 81t15.5 108.5q0 63 -21 109.5t-54.5 74.5 t-85.5 44.5t-105 22t-121 5.5h-194z" />
<glyph unicode="S" horiz-adv-x="1120" d="M47 358l121 52q65 -171 156 -245.5t215 -74.5q131 0 214 74.5t83 206.5q0 72 -33 131.5t-85 103t-115.5 84t-127 84t-115.5 92t-85 118.5t-33 155q0 107 54.5 189.5t143.5 124.5t195 42q172 0 275.5 -83t166.5 -249l-116 -43q-56 139 -131 199.5t-205 60.5 q-107 0 -179.5 -63t-72.5 -178q0 -53 20.5 -99.5t55.5 -82t80 -68t95 -63.5t100 -63.5t95 -71.5t80 -84t55.5 -105.5t20.5 -130.5q0 -176 -122.5 -286t-322.5 -110q-180 0 -296 93t-187 290z" />
<glyph unicode="T" horiz-adv-x="1064" d="M240 1356l24 114h950l-24 -114h-393l-301 -1356h-140l301 1356h-417z" />
<glyph unicode="U" horiz-adv-x="1462" d="M195 430q0 102 26 229l180 811h140l-189 -839q-26 -123 -26 -209q0 -328 333 -328q74 0 134 15t103.5 38t80 66t60 83.5t46 106.5t36 119t32.5 137l178 811h139l-188 -839q-21 -94 -40.5 -163t-47.5 -141.5t-60.5 -122.5t-78 -96t-101.5 -73.5t-129.5 -43.5t-163.5 -16 q-126 0 -218.5 35t-145 99t-76.5 143t-24 178z" />
<glyph unicode="V" horiz-adv-x="1179" d="M252 1470h131l127 -1255h4l666 1255h145l-782 -1470h-142z" />
<glyph unicode="W" horiz-adv-x="1630" d="M227 1470h131l64 -1232h4l514 1232h135l45 -1232h4l525 1232h143l-659 -1470h-134l-41 1221h-4l-508 -1221h-131z" />
<glyph unicode="X" horiz-adv-x="1196" d="M4 0l569 770l-266 700h137l220 -575h4l424 575h153l-528 -710l293 -760h-142l-241 635h-4l-469 -635h-150z" />
<glyph unicode="Y" horiz-adv-x="1024" d="M199 1470h143l219 -696h4l482 696h159l-594 -831l-143 -639h-139l141 639z" />
<glyph unicode="Z" horiz-adv-x="1112" d="M12 0l25 115l921 1241h-700l25 114h858l-21 -100l-911 -1255h737l-26 -115h-908z" />
<glyph unicode="[" horiz-adv-x="655" d="M29 -90l346 1560h364l-20 -94h-238l-303 -1372h242l-21 -94h-370z" />
<glyph unicode="\" horiz-adv-x="557" d="M207 1495h110l140 -1610h-111z" />
<glyph unicode="]" horiz-adv-x="655" d="M-23 -90l21 94h238l303 1372h-242l20 94h371l-346 -1560h-365z" />
<glyph unicode="^" d="M190 725l367 745h135l367 -745h-127l-307 641l-308 -641h-127z" />
<glyph unicode="_" horiz-adv-x="1122" d="M-123 -246l21 90h1122l-21 -90h-1122z" />
<glyph unicode="`" horiz-adv-x="819" d="M250 1470h158l159 -286h-100z" />
<glyph unicode="a" horiz-adv-x="1044" d="M49 256q0 176 182 280.5t560 145.5q14 49 14 102q0 90 -52 145.5t-161 55.5q-94 0 -167 -34.5t-151 -116.5l-77 65q90 95 186 139.5t215 44.5q161 0 242.5 -78t81.5 -225q0 -52 -17 -139l-102 -498l-10 -143h-119l10 135q-172 -160 -354 -160q-140 0 -210.5 75t-70.5 206 zM168 256q0 -83 44.5 -132.5t129.5 -49.5q187 0 358 192l68 316q-317 -39 -458.5 -113t-141.5 -213z" />
<glyph unicode="b" horiz-adv-x="1122" d="M59 0l332 1470h121l-129 -563q160 176 336 176q165 0 250.5 -111t85.5 -306q0 -188 -61 -342.5t-177 -247t-266 -92.5q-118 0 -207 50.5t-133 135.5l-61 -170h-91zM252 303q96 -219 311 -219q110 0 195.5 77t131.5 209t46 296q0 152 -58.5 234.5t-177.5 82.5 q-169 0 -348 -219z" />
<glyph unicode="c" horiz-adv-x="991" d="M66 418q0 187 66 338.5t185.5 239t268.5 87.5q155 0 247 -87t113 -244l-110 -21q-39 248 -256 248q-83 0 -151 -35.5t-112.5 -92.5t-75.5 -132t-44 -150.5t-13 -150.5q0 -152 71.5 -245t195.5 -93q192 0 319 199l100 -60q-156 -244 -430 -244q-179 0 -276.5 120 t-97.5 323z" />
<glyph unicode="d" horiz-adv-x="1103" d="M66 393q0 188 61 342.5t176.5 247t265.5 92.5q108 0 197.5 -51t130.5 -147l135 593h117l-328 -1470h-84l13 160q-76 -92 -169 -138.5t-180 -46.5q-165 0 -250 111t-85 307zM184 393q0 -152 58.5 -234.5t177.5 -82.5q174 0 348 219l94 418q-32 128 -110.5 195t-194.5 67 q-110 0 -195.5 -77t-131.5 -209t-46 -296z" />
<glyph unicode="e" horiz-adv-x="1021" d="M66 418q0 137 38.5 259.5t106 212t165 141.5t210.5 52q185 0 275.5 -111t90.5 -296q0 -80 -14 -154h-748q-6 -53 -6 -102q0 -344 252 -344q106 0 192.5 49t159.5 158l91 -64q-160 -244 -451 -244q-178 0 -270 114.5t-92 328.5zM207 621h622q5 34 5 75q0 142 -69.5 214.5 t-186.5 72.5q-144 0 -239 -100t-132 -262z" />
<glyph unicode="f" horiz-adv-x="620" d="M106 0l213 958h-182l23 101h182l27 125q35 161 106.5 236t204.5 75q47 0 92 -10l-22 -107q-35 13 -78 13q-73 0 -113 -43t-63 -146l-33 -143h215l-21 -101h-217l-213 -958h-121z" />
<glyph unicode="g" horiz-adv-x="1056" d="M-33 -109q0 74 51 141.5t166 102.5v4q-44 15 -70 45.5t-26 67.5q0 65 39.5 110.5t124.5 81.5q-92 89 -92 242q0 172 122.5 284.5t301.5 112.5q157 0 250 -77q96 96 247 96l-24 -111q-43 0 -90.5 -13t-77.5 -36q51 -79 51 -188q0 -176 -117.5 -287t-306.5 -111 q-115 0 -192 39q-117 -38 -117 -104q0 -34 37 -54t96 -29t130.5 -16.5t143 -23t130.5 -42t96 -80t37 -130.5q0 -139 -123.5 -216t-345.5 -77q-205 0 -323 71t-118 197zM86 -92q0 -91 91 -139t241 -48q155 0 247.5 47t92.5 138q0 33 -15 60t-36 45.5t-60 33t-68.5 22.5 t-81.5 15t-79.5 9.5t-81.5 6.5q-115 -21 -182.5 -69.5t-67.5 -120.5zM279 682q0 -112 62 -172.5t185 -60.5q133 0 214 82t81 219q0 113 -63 177t-185 64q-130 0 -212 -86t-82 -223z" />
<glyph unicode="h" horiz-adv-x="1138" d="M61 0l328 1470h121l-127 -561q104 92 187 133t178 41q138 0 202 -76.5t64 -203.5q0 -63 -15 -131l-143 -672h-125l146 694q12 62 12 111q0 180 -162 180q-169 0 -373 -213l-172 -772h-121z" />
<glyph unicode="i" horiz-adv-x="466" d="M61 0l238 1059h119l-236 -1059h-121zM317 1290l41 180h154l-41 -180h-154z" />
<glyph unicode="j" horiz-adv-x="458" d="M-233 -358l28 100q44 -14 82 -14q77 0 114 66t77 241l231 1024h119l-228 -1018q-38 -171 -79 -260.5t-93.5 -123.5t-136.5 -34q-59 0 -114 19zM317 1290l41 180h154l-41 -180h-154z" />
<glyph unicode="k" horiz-adv-x="1001" d="M61 0l328 1470h121l-203 -915h4l568 504h157l-452 -395l307 -664h-129l-273 584l-219 -193l-88 -391h-121z" />
<glyph unicode="l" horiz-adv-x="466" d="M61 0l328 1470h121l-328 -1470h-121z" />
<glyph unicode="m" horiz-adv-x="1722" d="M61 0l236 1059h100l-26 -160q103 94 190.5 139t175.5 45q213 0 238 -202q110 110 193.5 156t191.5 46q127 0 187.5 -75t60.5 -199q0 -63 -15 -131l-145 -678h-123l148 694q12 52 12 111q0 180 -154 180q-46 0 -87 -13.5t-87.5 -48t-81.5 -66.5t-98 -95l-162 -762h-121 l146 694q14 63 14 125q0 166 -139 166q-154 0 -361 -213l-172 -772h-121z" />
<glyph unicode="n" horiz-adv-x="1122" d="M61 0l236 1059h100l-26 -160q105 96 192 140t182 44q137 0 201 -76.5t64 -201.5q0 -57 -17 -133l-143 -672h-123l147 694q13 67 13 111q0 180 -162 180q-167 0 -371 -213l-172 -772h-121z" />
<glyph unicode="o" horiz-adv-x="1030" d="M66 391q0 96 19.5 191.5t62.5 186t103.5 160.5t149 112t193.5 42q178 0 274.5 -107.5t96.5 -307.5q0 -96 -20 -191.5t-62.5 -186.5t-103.5 -160.5t-149.5 -112t-193.5 -42.5q-177 0 -273.5 108.5t-96.5 307.5zM184 391q0 -143 65.5 -229t192.5 -86q84 0 153.5 37 t115 96.5t77 138t45 159t13.5 161.5q0 143 -65 229t-193 86q-84 0 -153.5 -37t-115 -96.5t-77 -138t-45 -159t-13.5 -161.5z" />
<glyph unicode="p" horiz-adv-x="1120" d="M-16 -352l315 1411h100l-28 -160q76 92 168.5 138t179.5 46q165 0 250.5 -111t85.5 -306q0 -188 -61.5 -342.5t-178 -247t-266.5 -92.5q-107 0 -196 51t-130 147l-119 -534h-120zM262 346q29 -128 106 -195t193 -67q110 0 196 77t132.5 209.5t46.5 295.5 q0 152 -58.5 234.5t-177.5 82.5q-169 0 -348 -219z" />
<glyph unicode="q" horiz-adv-x="1105" d="M66 401q0 188 61 342.5t176.5 247t265.5 92.5q118 0 207 -50.5t133 -135.5l60 162h90l-320 -1411h-121l119 512q-160 -176 -336 -176q-165 0 -250 111t-85 306zM184 401q0 -152 58.5 -234.5t177.5 -82.5q169 0 348 219l100 461q-96 219 -311 219q-110 0 -195.5 -77 t-131.5 -209t-46 -296z" />
<glyph unicode="r" horiz-adv-x="708" d="M61 0l236 1059h102l-37 -211q92 128 171 181.5t182 53.5q18 0 47 -4l-25 -118q-33 4 -51 4q-56 0 -104 -21.5t-93.5 -70t-78 -95t-82.5 -127.5l-146 -651h-121z" />
<glyph unicode="s" horiz-adv-x="931" d="M37 217l102 64q56 -106 128.5 -154.5t168.5 -48.5q100 0 161.5 49.5t61.5 140.5q0 52 -26.5 94t-68.5 70t-93.5 54t-102.5 54.5t-93 63t-68.5 88t-26.5 121.5q0 123 87.5 196.5t224.5 73.5q42 0 85 -9t93.5 -30.5t97.5 -65.5t80 -106l-94 -61q-102 170 -271 170 q-88 0 -137 -42t-49 -120q0 -50 26.5 -89t68.5 -66.5t93 -53t102.5 -55t93.5 -65t68.5 -91t26.5 -125.5q0 -140 -93 -219.5t-255 -79.5q-129 0 -230.5 64t-160.5 178z" />
<glyph unicode="t" horiz-adv-x="636" d="M111 958l22 101h186l74 346h123l-76 -346h246l-20 -101h-248l-156 -708q-8 -33 -8 -64q0 -100 104 -100q57 0 129 16l-24 -106q-55 -12 -123 -12q-207 0 -207 184q0 44 12 100l152 690h-186z" />
<glyph unicode="u" horiz-adv-x="1122" d="M119 252q0 60 16 135l144 672h120l-145 -694q-12 -61 -12 -115q0 -176 159 -176q52 0 105 18.5t101 52.5t85 66.5t78 75.5l172 772h121l-236 -1059h-100l27 160q-106 -96 -192 -140.5t-181 -44.5q-136 0 -199 76.5t-63 200.5z" />
<glyph unicode="v" horiz-adv-x="921" d="M129 1059h117l106 -897h4l475 897h127l-573 -1059h-115z" />
<glyph unicode="w" horiz-adv-x="1392" d="M131 1059h117l86 -881h4l367 881h116l60 -881h4l411 881h123l-501 -1059h-125l-58 887h-4l-366 -887h-121z" />
<glyph unicode="x" horiz-adv-x="905" d="M-59 0l444 571l-235 488h124l191 -400h4l307 400h137l-395 -510l268 -549h-124l-222 463h-4l-356 -463h-139z" />
<glyph unicode="y" horiz-adv-x="919" d="M-98 -367l24 107q44 -12 92 -12q86 0 140.5 54.5t113.5 184.5l21 45l-162 1047h121l131 -879h4l451 879h125l-547 -1075q-81 -159 -113 -206q-74 -108 -175 -139q-52 -16 -118 -16q-50 0 -108 10z" />
<glyph unicode="z" horiz-adv-x="921" d="M6 0l14 84l699 874h-543l21 101h686l-15 -78l-702 -881h608l-20 -100h-748z" />
<glyph unicode="{" horiz-adv-x="655" d="M115 684l20 94h64q66 0 102.5 37t56.5 125l60 270q30 136 93 198t181 62h86l-20 -94h-49q-66 0 -103 -37t-57 -125l-60 -270q-21 -96 -61.5 -147t-105.5 -72v-4q108 -47 73 -203l-78 -352q-20 -87 2 -124.5t89 -37.5h51l-21 -94h-92q-115 0 -149.5 66.5t-6.5 193.5 l78 352q20 87 -1.5 124.5t-88.5 37.5h-63z" />
<glyph unicode="|" horiz-adv-x="571" d="M317 -115v1610h105v-1610h-105z" />
<glyph unicode="}" horiz-adv-x="655" d="M-41 -90l21 94h49q66 0 102.5 37t56.5 125l78 352q21 95 62 146.5t106 72.5v4q-109 47 -74 203l60 270q20 87 -1.5 124.5t-88.5 37.5h-51l20 94h92q115 0 149.5 -66.5t6.5 -193.5l-60 -270q-20 -87 2 -124.5t89 -37.5h63l-20 -94h-64q-66 0 -103 -37t-57 -125l-78 -352 q-30 -136 -93 -198t-181 -62h-86z" />
<glyph unicode="~" d="M121 373q18 137 86 214t184 77q51 0 111.5 -23.5t107.5 -51.5t106 -51.5t107 -23.5q120 0 140 164h104q-18 -137 -86 -214t-184 -77q-51 0 -111.5 23.5t-107.5 51.5t-106 51.5t-107 23.5q-120 0 -140 -164h-104z" />
<glyph unicode="&#xa1;" horiz-adv-x="569" d="M27 -387l266 1018h108l-188 -1018h-186zM305 893l41 190h176l-41 -190h-176z" />
<glyph unicode="&#xa2;" d="M125 418q0 186 66 338t185 239t267 88l49 217h96l-49 -227q113 -25 181.5 -108t85.5 -213l-111 -21q-39 248 -256 248q-83 0 -151 -35.5t-112.5 -92.5t-75 -132t-43.5 -150.5t-13 -150.5q0 -152 71 -245t195 -93q192 0 319 199l101 -60q-156 -244 -432 -244l-47 -221 h-103l51 234q-133 30 -203.5 144t-70.5 286z" />
<glyph unicode="&#xa3;" d="M-18 -27l32 146q112 47 173.5 111t93 169t41.5 283h-195l20 96h179q0 26 1 86t1 94q0 156 46 275t145 190.5t241 71.5q325 0 420 -324l-113 -43q-44 141 -123 202t-194 61q-146 0 -223.5 -113.5t-77.5 -319.5q0 -98 -3 -180h295l-20 -96h-279q-9 -158 -33.5 -265 t-72.5 -184q212 -145 356 -145q92 0 147.5 60.5t102.5 211.5l121 -32q-58 -196 -151.5 -274.5t-229.5 -78.5q-96 0 -189 37.5t-235 126.5q-102 -94 -276 -166z" />
<glyph unicode="&#xa4;" d="M197 190l133 134q-62 91 -62 202q0 116 62 203l-133 135l69 70l133 -133q86 63 203 63q114 0 203 -63l135 133l70 -70l-136 -137q62 -87 62 -201q0 -113 -62 -200l136 -136l-70 -69l-135 133q-83 -64 -203 -64t-203 64l-133 -133zM379 526q0 -103 59.5 -169t163.5 -66 t163.5 66t59.5 169q0 102 -59.5 170t-163.5 68t-163.5 -68t-59.5 -170z" />
<glyph unicode="&#xa5;" d="M113 367l20 96h361l38 174h-360l21 96h309l-242 737h131l219 -718h4l496 718h150l-527 -737h311l-20 -96h-358l-41 -174h360l-20 -96h-361l-82 -367h-131l80 367h-358z" />
<glyph unicode="&#xa6;" horiz-adv-x="571" d="M303 -115v656h105v-656h-105zM303 881v614h105v-614h-105z" />
<glyph unicode="&#xa7;" horiz-adv-x="868" d="M23 51l114 41q30 -74 83.5 -114.5t115.5 -40.5q74 0 117 41.5t43 109.5q0 62 -37 132.5t-89 135.5t-104.5 131.5t-89.5 141.5t-37 143q0 109 63 173t179 75q-68 113 -68 215q0 115 74.5 187.5t202.5 72.5q104 0 181 -59t114 -164l-115 -41q-28 75 -77 115t-111 40 q-69 0 -109.5 -41.5t-40.5 -109.5q0 -62 36.5 -132.5t89 -135.5t105 -131.5t89 -141.5t36.5 -143q0 -109 -63 -174t-178 -74q67 -120 67 -215q0 -115 -76 -187.5t-210 -72.5q-105 0 -186.5 59.5t-118.5 163.5zM254 780q0 -30 9.5 -61.5t36.5 -74t42.5 -64.5t60 -79t56.5 -73 q36 -22 78 -22q56 0 96.5 36t40.5 101q0 30 -10 61.5t-35.5 71t-43 64.5t-58.5 77t-56 72q-33 26 -84 26q-55 0 -94 -35.5t-39 -99.5z" />
<glyph unicode="&#xa8;" horiz-adv-x="819" d="M152 1210l41 181h153l-41 -181h-153zM473 1210l41 181h154l-41 -181h-154z" />
<glyph unicode="&#xa9;" horiz-adv-x="1644" d="M137 735q0 159 51.5 297.5t145 241.5t234 162t309.5 59t309 -59t233 -162t144 -241.5t51 -297.5q0 -156 -51 -294t-144 -242t-233 -164t-309 -60t-309.5 60t-234 164t-145 242t-51.5 294zM248 735q0 -189 73 -337t217 -235t339 -87q118 0 218.5 32.5t175 91.5t127 141 t79 182t26.5 212q0 137 -42.5 257t-120.5 210t-197.5 141.5t-265.5 51.5t-266 -51.5t-198.5 -141.5t-121.5 -210t-43 -257zM541 743q0 206 89 322.5t244 116.5q119 0 192 -62t108 -196l-95 -21q-28 102 -78 144.5t-127 42.5q-105 0 -168 -90.5t-63 -256.5q0 -180 56.5 -265 t172.5 -85q85 0 139 45.5t81 149.5l96 -19q-35 -138 -113.5 -203t-202.5 -65q-167 0 -249 116t-82 326z" />
<glyph unicode="&#xaa;" horiz-adv-x="690" d="M59 514l21 90h530l-20 -90h-531zM121 942q0 120 118.5 187t356.5 94q10 33 10 61q0 53 -32 86t-97 33q-58 0 -102 -22t-90 -72l-70 51q116 125 272 125q108 0 164 -50.5t56 -146.5q0 -30 -11 -90l-65 -317l-8 -103h-103l4 86q-109 -100 -223 -100q-89 0 -134.5 48 t-45.5 130zM227 952q0 -48 25.5 -78t75.5 -30q110 0 209 112l43 191q-184 -23 -268.5 -66.5t-84.5 -128.5z" />
<glyph unicode="&#xab;" horiz-adv-x="1046" d="M119 524l287 314h133l-289 -314l199 -317h-125zM502 524l286 314h134l-289 -314l198 -317h-124z" />
<glyph unicode="&#xac;" d="M100 621v98h1000v-545h-105v447h-895z" />
<glyph unicode="&#xad;" horiz-adv-x="661" d="M76 467l26 117h504l-26 -117h-504z" />
<glyph unicode="&#xae;" horiz-adv-x="1075" d="M158 1001q0 139 57 250.5t167.5 177.5t256.5 66t256 -66t166.5 -177.5t56.5 -250.5q0 -136 -56.5 -247t-167 -178.5t-255.5 -67.5t-256 67t-168 178.5t-57 247.5zM248 1001q0 -180 104.5 -294.5t286.5 -114.5q181 0 285 114.5t104 294.5q0 177 -104.5 293.5t-284.5 116.5 q-181 0 -286 -117t-105 -293zM461 733v557h176q219 0 219 -162q0 -108 -111 -149l132 -246h-99l-119 225h-114v-225h-84zM545 1030h96q131 0 131 98q0 52 -34.5 71.5t-94.5 19.5h-98v-189z" />
<glyph unicode="&#xaf;" horiz-adv-x="819" d="M109 1257l22 101h580l-23 -101h-579z" />
<glyph unicode="&#xb0;" horiz-adv-x="782" d="M201 1157q0 144 93 241t241 97t240.5 -97t92.5 -241q0 -141 -92.5 -238.5t-240.5 -97.5t-241 97.5t-93 238.5zM311 1157q0 -103 60 -169t164 -66t163.5 66t59.5 169q0 102 -59.5 170t-163.5 68t-164 -68t-60 -170z" />
<glyph unicode="&#xb1;" d="M96 0v98h1000v-98h-1000zM96 569v99h449v333h104v-333h447v-99h-447v-354h-104v354h-449z" />
<glyph unicode="&#xb2;" horiz-adv-x="761" d="M176 840l12 57q15 67 55 124.5t92 99t111.5 79.5t116 74.5t103 75.5t74.5 90.5t28 111.5q0 77 -46.5 122.5t-129.5 45.5q-154 0 -217 -188l-99 22q45 134 124 195t200 61q134 0 206.5 -69.5t72.5 -186.5q0 -68 -27 -126t-71.5 -100.5t-98.5 -80.5t-112 -73t-108.5 -69.5 t-90 -78.5t-54.5 -92h494l-23 -94h-612z" />
<glyph unicode="&#xb3;" horiz-adv-x="761" d="M168 1014l94 57q87 -156 242 -156q102 0 161.5 51t59.5 144t-69.5 145t-190.5 52h-64l21 92h59q279 0 279 170q0 72 -51 110.5t-127 38.5q-71 0 -121 -27t-92 -85l-82 61q114 143 311 143q124 0 200 -64.5t76 -168.5q0 -88 -54.5 -146t-160.5 -83v-2q177 -61 177 -236 q0 -129 -88.5 -208t-243.5 -79q-122 0 -203.5 46.5t-132.5 144.5z" />
<glyph unicode="&#xb4;" horiz-adv-x="819" d="M209 1184l227 286h174l-293 -286h-108z" />
<glyph unicode="&#xb5;" horiz-adv-x="1146" d="M-16 -352l309 1411h121l-146 -694q-14 -75 -14 -117q0 -174 158 -174q69 0 141.5 35.5t121 76.5t105.5 101l172 772h121l-194 -881q-9 -40 3.5 -63t45.5 -23q23 0 59 8l-24 -106q-52 -10 -93 -10q-114 0 -114 110q0 33 8 66q-106 -96 -192 -140.5t-181 -44.5 q-135 0 -198 82l-93 -409h-116z" />
<glyph unicode="&#xb6;" horiz-adv-x="1048" d="M131 1085q0 198 118.5 291.5t325.5 93.5h433v-90h-113v-1495h-104v1495h-162v-1495h-105v803q-83 0 -153 23.5t-124.5 71t-85 124.5t-30.5 178z" />
<glyph unicode="&#xb7;" horiz-adv-x="569" d="M186 430l41 191h176l-41 -191h-176z" />
<glyph unicode="&#xb8;" horiz-adv-x="819" d="M236 -344l18 80q49 -12 111 -12q32 0 59 5t48.5 20.5t21.5 39.5q0 51 -76 51q-33 0 -60 -10l-14 43l62 162l71 -27l-43 -102q16 4 35 4q61 0 97 -28t36 -87q0 -53 -37.5 -88t-90.5 -49t-118 -14q-76 0 -120 12z" />
<glyph unicode="&#xb9;" horiz-adv-x="761" d="M252 840l18 88h162l166 747l-188 -28l18 73l236 76h75l-192 -868h166l-21 -88h-440z" />
<glyph unicode="&#xba;" horiz-adv-x="675" d="M63 514l21 90h534l-20 -90h-535zM127 1036q0 64 13 126.5t41 121t68 103t98.5 71.5t127.5 27q122 0 185 -72.5t63 -202.5q0 -81 -21.5 -158.5t-63 -143.5t-110.5 -106t-155 -40q-119 0 -182.5 72t-63.5 202zM231 1030q0 -82 37.5 -133t110.5 -51q62 0 110 34.5t75 90.5 t40.5 118t13.5 125q0 85 -36.5 136t-110.5 51q-62 0 -110.5 -35t-75.5 -91t-40.5 -118.5t-13.5 -126.5z" />
<glyph unicode="&#xbb;" horiz-adv-x="1046" d="M115 207l288 313l-198 318h125l205 -318l-287 -313h-133zM498 207l288 313l-198 318h125l205 -318l-287 -313h-133z" />
<glyph unicode="&#xbc;" horiz-adv-x="1746" d="M174 514l19 88h161l166 748l-188 -29l18 74l236 75h76l-193 -868h166l-21 -88h-440zM315 -53l1160 1573h127l-1160 -1573h-127zM983 236l18 96l533 624h152l-140 -628h148l-21 -92h-149l-51 -236h-113l53 236h-430zM1118 328h316l116 510h-4z" />
<glyph unicode="&#xbd;" horiz-adv-x="1818" d="M174 514l19 88h161l166 748l-188 -29l18 74l236 75h76l-193 -868h166l-21 -88h-440zM315 -53l1160 1573h127l-1160 -1573h-127zM1059 0l12 57q15 67 55 124.5t92 99t111.5 80t116 75t103 75.5t74.5 90.5t28 111.5q0 77 -46.5 122.5t-129.5 45.5q-155 0 -218 -189l-98 23 q45 134 124 195t200 61q133 0 205.5 -69.5t72.5 -186.5q0 -68 -27 -126t-71 -101t-98.5 -81t-112 -73t-108 -69.5t-90 -78.5t-54.5 -92h494l-23 -94h-612z" />
<glyph unicode="&#xbe;" horiz-adv-x="1746" d="M90 688l94 57q44 -78 102 -116.5t140 -38.5q103 0 162 50.5t59 143.5t-69.5 145t-190.5 52h-63l20 92h59q279 0 279 170q0 72 -51 111t-127 39q-71 0 -121 -27.5t-92 -85.5l-82 61q115 144 311 144q124 0 200.5 -65t76.5 -169q0 -88 -54.5 -146t-160.5 -83v-2 q176 -61 176 -236q0 -129 -88.5 -207.5t-243.5 -78.5q-122 0 -203.5 46t-132.5 144zM315 -53l1160 1573h127l-1160 -1573h-127zM983 236l18 96l533 624h152l-140 -628h148l-21 -92h-149l-51 -236h-113l53 236h-430zM1118 328h316l116 510h-4z" />
<glyph unicode="&#xbf;" horiz-adv-x="806" d="M-8 -113q0 69 23.5 128t62 103t85.5 85t95.5 84t90.5 89.5t72.5 111.5t39.5 141h114q-5 -86 -33.5 -158.5t-69 -123t-88 -95.5t-94.5 -84.5t-85.5 -79t-62 -89.5t-23.5 -108q0 -96 51.5 -145t146.5 -49q78 0 132 33.5t104 115.5l96 -57q-63 -101 -143 -151t-197 -50 q-149 0 -233 80.5t-84 218.5zM477 893l41 190h176l-41 -190h-176z" />
<glyph unicode="&#xc0;" horiz-adv-x="1210" d="M-20 0l735 1470h196l127 -1470h-129l-41 485h-512l-237 -485h-139zM410 592h450l-65 776h-4zM553 1866h158l159 -287h-100z" />
<glyph unicode="&#xc1;" horiz-adv-x="1210" d="M-20 0l735 1470h196l127 -1470h-129l-41 485h-512l-237 -485h-139zM410 592h450l-65 776h-4zM764 1579l227 287h174l-293 -287h-108z" />
<glyph unicode="&#xc2;" horiz-adv-x="1210" d="M-20 0l735 1470h196l127 -1470h-129l-41 485h-512l-237 -485h-139zM410 592h450l-65 776h-4zM528 1579l260 287h175l151 -287h-106l-142 211l-219 -211h-119z" />
<glyph unicode="&#xc3;" horiz-adv-x="1210" d="M-20 0l735 1470h196l127 -1470h-129l-41 485h-512l-237 -485h-139zM410 592h450l-65 776h-4zM520 1602q12 94 58.5 146t126.5 52q53 0 149 -45t145 -45q67 0 80 100h84q-12 -94 -58.5 -146t-125.5 -52q-53 0 -149 45t-146 45q-67 0 -80 -100h-84z" />
<glyph unicode="&#xc4;" horiz-adv-x="1210" d="M-20 0l735 1470h196l127 -1470h-129l-41 485h-512l-237 -485h-139zM410 592h450l-65 776h-4zM600 1606l41 180h154l-41 -180h-154zM922 1606l41 180h153l-41 -180h-153z" />
<glyph unicode="&#xc5;" horiz-adv-x="1210" d="M-20 0l735 1470h196l127 -1470h-129l-41 485h-512l-237 -485h-139zM410 592h450l-65 776h-4zM627 1776q0 87 58.5 145.5t145.5 58.5t146 -59t59 -145q0 -87 -59 -146t-146 -59t-145.5 59t-58.5 146zM696 1776q0 -57 38 -96.5t97 -39.5t97.5 39.5t38.5 96.5 q0 56 -38.5 95.5t-97.5 39.5t-97 -39t-38 -96z" />
<glyph unicode="&#xc6;" horiz-adv-x="1787" d="M-70 0l1082 1470h837l-24 -114h-572l-118 -533h440l-25 -114h-440l-133 -594h684l-27 -115h-821l109 485h-488l-354 -485h-150zM512 592h432l176 778h-41z" />
<glyph unicode="&#xc7;" horiz-adv-x="1263" d="M129 567q0 129 25 258.5t78 250.5t128.5 214t184.5 149t237 56q196 0 315 -109t150 -323l-129 -21q-24 166 -115.5 250t-226.5 84q-129 0 -230.5 -73t-161.5 -192t-91 -258.5t-31 -285.5q0 -231 91.5 -352t252.5 -121q279 0 404 295l125 -63q-78 -168 -217 -259.5 t-318 -91.5h-4l-29 -69q16 4 35 4q61 0 97 -28t36 -87q0 -53 -37.5 -88t-90.5 -49t-118 -14q-77 0 -120 12l18 80q49 -12 111 -12q32 0 59 5t48.5 20.5t21.5 39.5q0 51 -76 51q-32 0 -59 -10l-15 43l41 109q-190 27 -289.5 179.5t-99.5 405.5z" />
<glyph unicode="&#xc8;" horiz-adv-x="1116" d="M92 0l328 1470h758l-25 -114h-621l-118 -533h489l-24 -114h-490l-133 -594h733l-26 -115h-871zM543 1866h157l160 -287h-100z" />
<glyph unicode="&#xc9;" horiz-adv-x="1116" d="M92 0l328 1470h758l-25 -114h-621l-118 -533h489l-24 -114h-490l-133 -594h733l-26 -115h-871zM725 1579l227 287h174l-292 -287h-109z" />
<glyph unicode="&#xca;" horiz-adv-x="1116" d="M92 0l328 1470h758l-25 -114h-621l-118 -533h489l-24 -114h-490l-133 -594h733l-26 -115h-871zM504 1579l260 287h174l152 -287h-107l-141 211l-219 -211h-119z" />
<glyph unicode="&#xcb;" horiz-adv-x="1116" d="M92 0l328 1470h758l-25 -114h-621l-118 -533h489l-24 -114h-490l-133 -594h733l-26 -115h-871zM557 1606l41 180h154l-41 -180h-154zM879 1606l41 180h153l-41 -180h-153z" />
<glyph unicode="&#xcc;" horiz-adv-x="567" d="M102 0l328 1470h139l-327 -1470h-140zM246 1866h157l160 -287h-100z" />
<glyph unicode="&#xcd;" horiz-adv-x="567" d="M102 0l328 1470h139l-327 -1470h-140zM463 1579l227 287h174l-293 -287h-108z" />
<glyph unicode="&#xce;" horiz-adv-x="567" d="M102 0l328 1470h139l-327 -1470h-140zM217 1579l260 287h174l152 -287h-107l-141 211l-219 -211h-119z" />
<glyph unicode="&#xcf;" horiz-adv-x="567" d="M102 0l328 1470h139l-327 -1470h-140zM287 1606l41 180h153l-41 -180h-153zM608 1606l41 180h154l-41 -180h-154z" />
<glyph unicode="&#xd0;" horiz-adv-x="1388" d="M92 0l160 715h-148l23 102h147l146 653h184q260 0 422 -70t233.5 -203t71.5 -339q0 -190 -62.5 -352t-170.5 -272t-255.5 -172t-314.5 -62h-436zM258 115h236q155 0 285.5 51.5t223 146.5t144 235t51.5 310q0 261 -136.5 379.5t-420.5 118.5h-109l-118 -539h338l-23 -102 h-338z" />
<glyph unicode="&#xd1;" horiz-adv-x="1476" d="M102 0l328 1470h209l428 -1243h4l279 1243h129l-326 -1470h-131l-479 1384h-4l-308 -1384h-129zM653 1602q12 94 58.5 146t126.5 52q52 0 149 -45t146 -45q66 0 79 100h84q-12 -94 -58.5 -146t-125.5 -52q-52 0 -149 45t-146 45q-67 0 -80 -100h-84z" />
<glyph unicode="&#xd2;" horiz-adv-x="1386" d="M129 526q0 108 19 218.5t56.5 220t98 204.5t137.5 168.5t182.5 115.5t225.5 42q126 0 220.5 -43t150.5 -119.5t83 -174t27 -214.5q0 -108 -19 -218.5t-56.5 -220t-98 -204.5t-137.5 -168.5t-182.5 -115.5t-225.5 -42q-126 0 -220.5 43t-150.5 119.5t-83 174t-27 214.5z M262 526q0 -210 91.5 -323t264.5 -113q115 0 212 53t163.5 139.5t113 199t68 229.5t21.5 233q0 210 -91.5 323t-264.5 113q-115 0 -212 -53t-163.5 -139.5t-113 -199t-68 -229.5t-21.5 -233zM602 1866h158l160 -287h-101z" />
<glyph unicode="&#xd3;" horiz-adv-x="1386" d="M129 526q0 108 19 218.5t56.5 220t98 204.5t137.5 168.5t182.5 115.5t225.5 42q126 0 220.5 -43t150.5 -119.5t83 -174t27 -214.5q0 -108 -19 -218.5t-56.5 -220t-98 -204.5t-137.5 -168.5t-182.5 -115.5t-225.5 -42q-126 0 -220.5 43t-150.5 119.5t-83 174t-27 214.5z M262 526q0 -210 91.5 -323t264.5 -113q115 0 212 53t163.5 139.5t113 199t68 229.5t21.5 233q0 210 -91.5 323t-264.5 113q-115 0 -212 -53t-163.5 -139.5t-113 -199t-68 -229.5t-21.5 -233zM817 1579l227 287h175l-293 -287h-109z" />
<glyph unicode="&#xd4;" horiz-adv-x="1386" d="M129 526q0 108 19 218.5t56.5 220t98 204.5t137.5 168.5t182.5 115.5t225.5 42q126 0 220.5 -43t150.5 -119.5t83 -174t27 -214.5q0 -108 -19 -218.5t-56.5 -220t-98 -204.5t-137.5 -168.5t-182.5 -115.5t-225.5 -42q-126 0 -220.5 43t-150.5 119.5t-83 174t-27 214.5z M262 526q0 -210 91.5 -323t264.5 -113q115 0 212 53t163.5 139.5t113 199t68 229.5t21.5 233q0 210 -91.5 323t-264.5 113q-115 0 -212 -53t-163.5 -139.5t-113 -199t-68 -229.5t-21.5 -233zM586 1579l260 287h174l151 -287h-106l-141 211l-219 -211h-119z" />
<glyph unicode="&#xd5;" horiz-adv-x="1386" d="M129 526q0 108 19 218.5t56.5 220t98 204.5t137.5 168.5t182.5 115.5t225.5 42q126 0 220.5 -43t150.5 -119.5t83 -174t27 -214.5q0 -108 -19 -218.5t-56.5 -220t-98 -204.5t-137.5 -168.5t-182.5 -115.5t-225.5 -42q-126 0 -220.5 43t-150.5 119.5t-83 174t-27 214.5z M262 526q0 -210 91.5 -323t264.5 -113q115 0 212 53t163.5 139.5t113 199t68 229.5t21.5 233q0 210 -91.5 323t-264.5 113q-115 0 -212 -53t-163.5 -139.5t-113 -199t-68 -229.5t-21.5 -233zM582 1602q12 94 58.5 146t125.5 52q52 0 149 -45t146 -45q67 0 80 100h84 q-12 -94 -58.5 -146t-126.5 -52q-52 0 -149 45t-146 45q-66 0 -79 -100h-84z" />
<glyph unicode="&#xd6;" horiz-adv-x="1386" d="M129 526q0 108 19 218.5t56.5 220t98 204.5t137.5 168.5t182.5 115.5t225.5 42q126 0 220.5 -43t150.5 -119.5t83 -174t27 -214.5q0 -108 -19 -218.5t-56.5 -220t-98 -204.5t-137.5 -168.5t-182.5 -115.5t-225.5 -42q-126 0 -220.5 43t-150.5 119.5t-83 174t-27 214.5z M262 526q0 -210 91.5 -323t264.5 -113q115 0 212 53t163.5 139.5t113 199t68 229.5t21.5 233q0 210 -91.5 323t-264.5 113q-115 0 -212 -53t-163.5 -139.5t-113 -199t-68 -229.5t-21.5 -233zM645 1606l41 180h154l-41 -180h-154zM967 1606l41 180h153l-41 -180h-153z" />
<glyph unicode="&#xd7;" d="M195 190l335 336l-335 338l69 70l336 -336l338 336l70 -70l-336 -338l336 -336l-70 -69l-338 336l-336 -336z" />
<glyph unicode="&#xd8;" horiz-adv-x="1386" d="M66 -143l180 272q-117 143 -117 397q0 108 19 218.5t56.5 220t98 204.5t137.5 168.5t182.5 115.5t225.5 42q148 0 254 -61l119 180h131l-162 -248q139 -148 139 -422q0 -108 -19 -218.5t-56.5 -220t-98 -204.5t-137.5 -168.5t-182.5 -115.5t-225.5 -42q-169 0 -284 78 l-129 -196h-131zM262 526q0 -172 62 -278l710 1081q-82 51 -194 51q-115 0 -212 -53t-163.5 -139.5t-113 -199t-68 -229.5t-21.5 -233zM395 160q89 -70 223 -70q115 0 212 53t163.5 139.5t113 199t68 229.5t21.5 233q0 195 -82 309z" />
<glyph unicode="&#xd9;" horiz-adv-x="1462" d="M195 430q0 102 26 229l180 811h140l-189 -839q-26 -123 -26 -209q0 -328 333 -328q74 0 134 15t103.5 38t80 66t60 83.5t46 106.5t36 119t32.5 137l178 811h139l-188 -839q-21 -94 -40.5 -163t-47.5 -141.5t-60.5 -122.5t-78 -96t-101.5 -73.5t-129.5 -43.5t-163.5 -16 q-126 0 -218.5 35t-145 99t-76.5 143t-24 178zM672 1866h157l160 -287h-100z" />
<glyph unicode="&#xda;" horiz-adv-x="1462" d="M195 430q0 102 26 229l180 811h140l-189 -839q-26 -123 -26 -209q0 -328 333 -328q74 0 134 15t103.5 38t80 66t60 83.5t46 106.5t36 119t32.5 137l178 811h139l-188 -839q-21 -94 -40.5 -163t-47.5 -141.5t-60.5 -122.5t-78 -96t-101.5 -73.5t-129.5 -43.5t-163.5 -16 q-126 0 -218.5 35t-145 99t-76.5 143t-24 178zM864 1579l228 287h174l-293 -287h-109z" />
<glyph unicode="&#xdb;" horiz-adv-x="1462" d="M195 430q0 102 26 229l180 811h140l-189 -839q-26 -123 -26 -209q0 -328 333 -328q74 0 134 15t103.5 38t80 66t60 83.5t46 106.5t36 119t32.5 137l178 811h139l-188 -839q-21 -94 -40.5 -163t-47.5 -141.5t-60.5 -122.5t-78 -96t-101.5 -73.5t-129.5 -43.5t-163.5 -16 q-126 0 -218.5 35t-145 99t-76.5 143t-24 178zM647 1579l260 287h174l152 -287h-107l-141 211l-219 -211h-119z" />
<glyph unicode="&#xdc;" horiz-adv-x="1462" d="M195 430q0 102 26 229l180 811h140l-189 -839q-26 -123 -26 -209q0 -328 333 -328q74 0 134 15t103.5 38t80 66t60 83.5t46 106.5t36 119t32.5 137l178 811h139l-188 -839q-21 -94 -40.5 -163t-47.5 -141.5t-60.5 -122.5t-78 -96t-101.5 -73.5t-129.5 -43.5t-163.5 -16 q-126 0 -218.5 35t-145 99t-76.5 143t-24 178zM705 1606l40 180h154l-41 -180h-153zM1026 1606l41 180h154l-41 -180h-154z" />
<glyph unicode="&#xdd;" horiz-adv-x="1024" d="M199 1470h143l219 -696h4l482 696h159l-594 -831l-143 -639h-139l141 639zM639 1579l227 287h174l-292 -287h-109z" />
<glyph unicode="&#xde;" horiz-adv-x="1267" d="M92 0l328 1470h137l-51 -241h174q530 0 530 -381q0 -214 -140.5 -325t-385.5 -111h-360l-93 -412h-139zM348 526h305q211 0 317.5 77t106.5 245q0 71 -28.5 123.5t-79.5 83t-113.5 45t-136.5 14.5h-240z" />
<glyph unicode="&#xdf;" horiz-adv-x="1132" d="M61 0l240 1075q49 219 154 319.5t280 100.5q150 0 239 -87t89 -234q0 -136 -75 -235.5t-218 -152.5v-4q100 -39 161.5 -124t61.5 -224q0 -198 -120.5 -324t-340.5 -126q-90 0 -151 12l22 104q67 -12 140 -12q160 0 245.5 91.5t85.5 252.5q0 142 -88.5 221t-240.5 82 l24 109q109 5 192 40.5t134 109.5t51 180q0 97 -57.5 157t-167.5 60q-120 0 -190.5 -72.5t-102.5 -216.5l-246 -1102h-121z" />
<glyph unicode="&#xe0;" horiz-adv-x="1044" d="M49 256q0 176 182 280.5t560 145.5q14 49 14 102q0 90 -52 145.5t-161 55.5q-94 0 -167 -34.5t-151 -116.5l-77 65q90 95 186 139.5t215 44.5q161 0 242.5 -78t81.5 -225q0 -52 -17 -139l-102 -498l-10 -143h-119l10 135q-172 -160 -354 -160q-140 0 -210.5 75t-70.5 206 zM168 256q0 -83 44.5 -132.5t129.5 -49.5q187 0 358 192l68 316q-317 -39 -458.5 -113t-141.5 -213zM360 1470h158l160 -286h-100z" />
<glyph unicode="&#xe1;" horiz-adv-x="1044" d="M49 256q0 176 182 280.5t560 145.5q14 49 14 102q0 90 -52 145.5t-161 55.5q-94 0 -167 -34.5t-151 -116.5l-77 65q90 95 186 139.5t215 44.5q161 0 242.5 -78t81.5 -225q0 -52 -17 -139l-102 -498l-10 -143h-119l10 135q-172 -160 -354 -160q-140 0 -210.5 75t-70.5 206 zM168 256q0 -83 44.5 -132.5t129.5 -49.5q187 0 358 192l68 316q-317 -39 -458.5 -113t-141.5 -213zM563 1184l228 286h174l-293 -286h-109z" />
<glyph unicode="&#xe2;" horiz-adv-x="1044" d="M49 256q0 176 182 280.5t560 145.5q14 49 14 102q0 90 -52 145.5t-161 55.5q-94 0 -167 -34.5t-151 -116.5l-77 65q90 95 186 139.5t215 44.5q161 0 242.5 -78t81.5 -225q0 -52 -17 -139l-102 -498l-10 -143h-119l10 135q-172 -160 -354 -160q-140 0 -210.5 75t-70.5 206 zM168 256q0 -83 44.5 -132.5t129.5 -49.5q187 0 358 192l68 316q-317 -39 -458.5 -113t-141.5 -213zM332 1184l260 286h174l152 -286h-107l-141 211l-219 -211h-119z" />
<glyph unicode="&#xe3;" horiz-adv-x="1044" d="M49 256q0 176 182 280.5t560 145.5q14 49 14 102q0 90 -52 145.5t-161 55.5q-94 0 -167 -34.5t-151 -116.5l-77 65q90 95 186 139.5t215 44.5q161 0 242.5 -78t81.5 -225q0 -52 -17 -139l-102 -498l-10 -143h-119l10 135q-172 -160 -354 -160q-140 0 -210.5 75t-70.5 206 zM168 256q0 -83 44.5 -132.5t129.5 -49.5q187 0 358 192l68 316q-317 -39 -458.5 -113t-141.5 -213zM317 1206q12 94 58.5 146.5t126.5 52.5q52 0 149 -45t146 -45q67 0 80 100h84q-12 -94 -58.5 -146t-126.5 -52q-52 0 -148.5 45t-146.5 45q-33 0 -53.5 -27t-26.5 -74h-84z " />
<glyph unicode="&#xe4;" horiz-adv-x="1044" d="M49 256q0 176 182 280.5t560 145.5q14 49 14 102q0 90 -52 145.5t-161 55.5q-94 0 -167 -34.5t-151 -116.5l-77 65q90 95 186 139.5t215 44.5q161 0 242.5 -78t81.5 -225q0 -52 -17 -139l-102 -498l-10 -143h-119l10 135q-172 -160 -354 -160q-140 0 -210.5 75t-70.5 206 zM168 256q0 -83 44.5 -132.5t129.5 -49.5q187 0 358 192l68 316q-317 -39 -458.5 -113t-141.5 -213zM401 1210l41 181h154l-41 -181h-154zM723 1210l41 181h154l-41 -181h-154z" />
<glyph unicode="&#xe5;" horiz-adv-x="1044" d="M49 256q0 176 182 280.5t560 145.5q14 49 14 102q0 90 -52 145.5t-161 55.5q-94 0 -167 -34.5t-151 -116.5l-77 65q90 95 186 139.5t215 44.5q161 0 242.5 -78t81.5 -225q0 -52 -17 -139l-102 -498l-10 -143h-119l10 135q-172 -160 -354 -160q-140 0 -210.5 75t-70.5 206 zM168 256q0 -83 44.5 -132.5t129.5 -49.5q187 0 358 192l68 316q-317 -39 -458.5 -113t-141.5 -213zM453 1380q0 87 58.5 146t145.5 59t146 -59t59 -146q0 -86 -59 -145t-146 -59t-145.5 58.5t-58.5 145.5zM522 1380q0 -57 38 -96t97 -39t97.5 39.5t38.5 95.5 q0 57 -38.5 96.5t-97.5 39.5t-97 -39.5t-38 -96.5z" />
<glyph unicode="&#xe6;" horiz-adv-x="1634" d="M49 256q0 179 172 283t545 143q16 62 16 115q0 86 -48 137t-152 51q-94 0 -162 -33.5t-146 -117.5l-77 65q89 99 179.5 141.5t211.5 42.5q233 0 291 -165q139 165 340 165q174 0 260 -110t86 -293q0 -76 -15 -158h-706q-6 -53 -6 -102q0 -166 54 -255t177 -89 q99 0 179 48.5t153 158.5l90 -64q-160 -244 -430 -244q-234 0 -309 207q-102 -99 -204 -153t-231 -54q-130 0 -199 76t-69 205zM168 256q0 -81 44 -131.5t118 -50.5q94 0 173.5 36t170.5 126l69 346q-312 -39 -443.5 -112t-131.5 -214zM858 621h584q6 43 6 84q0 138 -64 208 t-174 70q-135 0 -225.5 -100.5t-126.5 -261.5z" />
<glyph unicode="&#xe7;" horiz-adv-x="991" d="M66 418q0 187 66 338.5t185.5 239t268.5 87.5q155 0 247 -87t113 -244l-110 -21q-39 248 -256 248q-83 0 -151 -35.5t-112.5 -92.5t-75.5 -132t-44 -150.5t-13 -150.5q0 -152 71.5 -245t195.5 -93q192 0 319 199l100 -60q-153 -241 -421 -244l-29 -69q16 4 35 4 q61 0 97 -28t36 -87q0 -53 -37.5 -88t-90.5 -49t-118 -14q-78 0 -121 12l19 80q49 -12 110 -12q32 0 59 5t48.5 20.5t21.5 39.5q0 51 -76 51q-32 0 -59 -10l-14 43l41 109q-147 23 -226 139t-79 297z" />
<glyph unicode="&#xe8;" horiz-adv-x="1021" d="M66 418q0 137 38.5 259.5t106 212t165 141.5t210.5 52q185 0 275.5 -111t90.5 -296q0 -80 -14 -154h-748q-6 -53 -6 -102q0 -344 252 -344q106 0 192.5 49t159.5 158l91 -64q-160 -244 -451 -244q-178 0 -270 114.5t-92 328.5zM207 621h622q5 34 5 75q0 142 -69.5 214.5 t-186.5 72.5q-144 0 -239 -100t-132 -262zM352 1470h158l160 -286h-101z" />
<glyph unicode="&#xe9;" horiz-adv-x="1021" d="M66 418q0 137 38.5 259.5t106 212t165 141.5t210.5 52q185 0 275.5 -111t90.5 -296q0 -80 -14 -154h-748q-6 -53 -6 -102q0 -344 252 -344q106 0 192.5 49t159.5 158l91 -64q-160 -244 -451 -244q-178 0 -270 114.5t-92 328.5zM207 621h622q5 34 5 75q0 142 -69.5 214.5 t-186.5 72.5q-144 0 -239 -100t-132 -262zM551 1184l227 286h174l-293 -286h-108z" />
<glyph unicode="&#xea;" horiz-adv-x="1021" d="M66 418q0 137 38.5 259.5t106 212t165 141.5t210.5 52q185 0 275.5 -111t90.5 -296q0 -80 -14 -154h-748q-6 -53 -6 -102q0 -344 252 -344q106 0 192.5 49t159.5 158l91 -64q-160 -244 -451 -244q-178 0 -270 114.5t-92 328.5zM207 621h622q5 34 5 75q0 142 -69.5 214.5 t-186.5 72.5q-144 0 -239 -100t-132 -262zM328 1184l260 286h174l151 -286h-106l-141 211l-220 -211h-118z" />
<glyph unicode="&#xeb;" horiz-adv-x="1021" d="M66 418q0 137 38.5 259.5t106 212t165 141.5t210.5 52q185 0 275.5 -111t90.5 -296q0 -80 -14 -154h-748q-6 -53 -6 -102q0 -344 252 -344q106 0 192.5 49t159.5 158l91 -64q-160 -244 -451 -244q-178 0 -270 114.5t-92 328.5zM207 621h622q5 34 5 75q0 142 -69.5 214.5 t-186.5 72.5q-144 0 -239 -100t-132 -262zM371 1210l41 181h153l-41 -181h-153zM692 1210l41 181h154l-41 -181h-154z" />
<glyph unicode="&#xec;" horiz-adv-x="466" d="M61 0l238 1059h119l-236 -1059h-121zM115 1470h157l160 -286h-100z" />
<glyph unicode="&#xed;" horiz-adv-x="466" d="M61 0l238 1059h119l-236 -1059h-121zM326 1184l227 286h174l-293 -286h-108z" />
<glyph unicode="&#xee;" horiz-adv-x="466" d="M61 0l238 1059h119l-236 -1059h-121zM78 1184l260 286h174l152 -286h-107l-141 211l-219 -211h-119z" />
<glyph unicode="&#xef;" horiz-adv-x="466" d="M61 0l238 1059h119l-236 -1059h-121zM145 1210l41 181h154l-41 -181h-154zM467 1210l41 181h154l-41 -181h-154z" />
<glyph unicode="&#xf0;" horiz-adv-x="1073" d="M78 403q0 98 17.5 188.5t57 173t96 144t140.5 97.5t186 36q169 0 297 -116l5 4q-38 173 -121 309l-260 -113l-37 88l241 105q-26 36 -79 104l90 72q55 -67 100 -129l205 88l37 -88l-189 -82q140 -233 140 -504q0 -92 -13 -183t-39 -183t-71.5 -170t-105.5 -139 t-145 -95.5t-186 -34.5q-170 0 -268 113.5t-98 314.5zM197 406q0 -149 64 -239.5t194 -90.5q90 0 164 42.5t122.5 111.5t82 160t49 184t16.5 188q-58 86 -142 133t-178 47q-81 0 -145.5 -32.5t-106 -85t-69.5 -123.5t-39.5 -144.5t-11.5 -150.5z" />
<glyph unicode="&#xf1;" horiz-adv-x="1122" d="M61 0l236 1059h100l-26 -160q105 96 192 140t182 44q137 0 201 -76.5t64 -201.5q0 -57 -17 -133l-143 -672h-123l147 694q13 67 13 111q0 180 -162 180q-167 0 -371 -213l-172 -772h-121zM371 1206q12 94 58.5 146.5t125.5 52.5q53 0 149 -45t146 -45q67 0 80 100h84 q-12 -94 -58.5 -146t-126.5 -52q-53 0 -149 45t-145 45q-33 0 -53.5 -27t-26.5 -74h-84z" />
<glyph unicode="&#xf2;" horiz-adv-x="1030" d="M66 391q0 96 19.5 191.5t62.5 186t103.5 160.5t149 112t193.5 42q178 0 274.5 -107.5t96.5 -307.5q0 -96 -20 -191.5t-62.5 -186.5t-103.5 -160.5t-149.5 -112t-193.5 -42.5q-177 0 -273.5 108.5t-96.5 307.5zM184 391q0 -143 65.5 -229t192.5 -86q84 0 153.5 37 t115 96.5t77 138t45 159t13.5 161.5q0 143 -65 229t-193 86q-84 0 -153.5 -37t-115 -96.5t-77 -138t-45 -159t-13.5 -161.5zM356 1470h158l160 -286h-101z" />
<glyph unicode="&#xf3;" horiz-adv-x="1030" d="M66 391q0 96 19.5 191.5t62.5 186t103.5 160.5t149 112t193.5 42q178 0 274.5 -107.5t96.5 -307.5q0 -96 -20 -191.5t-62.5 -186.5t-103.5 -160.5t-149.5 -112t-193.5 -42.5q-177 0 -273.5 108.5t-96.5 307.5zM184 391q0 -143 65.5 -229t192.5 -86q84 0 153.5 37 t115 96.5t77 138t45 159t13.5 161.5q0 143 -65 229t-193 86q-84 0 -153.5 -37t-115 -96.5t-77 -138t-45 -159t-13.5 -161.5zM553 1184l227 286h174l-292 -286h-109z" />
<glyph unicode="&#xf4;" horiz-adv-x="1030" d="M66 391q0 96 19.5 191.5t62.5 186t103.5 160.5t149 112t193.5 42q178 0 274.5 -107.5t96.5 -307.5q0 -96 -20 -191.5t-62.5 -186.5t-103.5 -160.5t-149.5 -112t-193.5 -42.5q-177 0 -273.5 108.5t-96.5 307.5zM184 391q0 -143 65.5 -229t192.5 -86q84 0 153.5 37 t115 96.5t77 138t45 159t13.5 161.5q0 143 -65 229t-193 86q-84 0 -153.5 -37t-115 -96.5t-77 -138t-45 -159t-13.5 -161.5zM330 1184l260 286h174l151 -286h-106l-141 211l-219 -211h-119z" />
<glyph unicode="&#xf5;" horiz-adv-x="1030" d="M66 391q0 96 19.5 191.5t62.5 186t103.5 160.5t149 112t193.5 42q178 0 274.5 -107.5t96.5 -307.5q0 -96 -20 -191.5t-62.5 -186.5t-103.5 -160.5t-149.5 -112t-193.5 -42.5q-177 0 -273.5 108.5t-96.5 307.5zM184 391q0 -143 65.5 -229t192.5 -86q84 0 153.5 37 t115 96.5t77 138t45 159t13.5 161.5q0 143 -65 229t-193 86q-84 0 -153.5 -37t-115 -96.5t-77 -138t-45 -159t-13.5 -161.5zM322 1206q12 94 58.5 146.5t125.5 52.5q52 0 149 -45t146 -45q67 0 80 100h84q-12 -94 -58.5 -146t-126.5 -52q-52 0 -149 45t-146 45 q-66 0 -79 -101h-84z" />
<glyph unicode="&#xf6;" horiz-adv-x="1030" d="M66 391q0 96 19.5 191.5t62.5 186t103.5 160.5t149 112t193.5 42q178 0 274.5 -107.5t96.5 -307.5q0 -96 -20 -191.5t-62.5 -186.5t-103.5 -160.5t-149.5 -112t-193.5 -42.5q-177 0 -273.5 108.5t-96.5 307.5zM184 391q0 -143 65.5 -229t192.5 -86q84 0 153.5 37 t115 96.5t77 138t45 159t13.5 161.5q0 143 -65 229t-193 86q-84 0 -153.5 -37t-115 -96.5t-77 -138t-45 -159t-13.5 -161.5zM391 1210l41 181h154l-41 -181h-154zM713 1210l41 181h153l-41 -181h-153z" />
<glyph unicode="&#xf7;" d="M100 477v98h1000v-98h-1000zM518 92v170h162v-170h-162zM518 793v170h162v-170h-162z" />
<glyph unicode="&#xf8;" horiz-adv-x="1030" d="M66 391q0 96 19.5 191.5t62.5 186t103.5 160.5t149 112t193.5 42q75 0 139 -22l78 141h117l-103 -188q140 -106 140 -346q0 -96 -20 -191.5t-62.5 -186.5t-103.5 -160.5t-149.5 -112t-193.5 -42.5q-86 0 -162 29l-79 -147h-117l108 200q-120 105 -120 334zM184 391 q0 -139 62 -225l436 801q-43 16 -94 16q-84 0 -153.5 -37t-115 -96.5t-77 -138t-45 -159t-13.5 -161.5zM328 98q52 -22 114 -22q84 0 153.5 37t115 96.5t77 138t45 159t13.5 161.5q0 160 -78 241z" />
<glyph unicode="&#xf9;" horiz-adv-x="1122" d="M119 252q0 60 16 135l144 672h120l-145 -694q-12 -61 -12 -115q0 -176 159 -176q52 0 105 18.5t101 52.5t85 66.5t78 75.5l172 772h121l-236 -1059h-100l27 160q-106 -96 -192 -140.5t-181 -44.5q-136 0 -199 76.5t-63 200.5zM416 1470h157l160 -286h-100z" />
<glyph unicode="&#xfa;" horiz-adv-x="1122" d="M119 252q0 60 16 135l144 672h120l-145 -694q-12 -61 -12 -115q0 -176 159 -176q52 0 105 18.5t101 52.5t85 66.5t78 75.5l172 772h121l-236 -1059h-100l27 160q-106 -96 -192 -140.5t-181 -44.5q-136 0 -199 76.5t-63 200.5zM623 1184l227 286h174l-293 -286h-108z" />
<glyph unicode="&#xfb;" horiz-adv-x="1122" d="M119 252q0 60 16 135l144 672h120l-145 -694q-12 -61 -12 -115q0 -176 159 -176q52 0 105 18.5t101 52.5t85 66.5t78 75.5l172 772h121l-236 -1059h-100l27 160q-106 -96 -192 -140.5t-181 -44.5q-136 0 -199 76.5t-63 200.5zM399 1184l260 286h175l151 -286h-106 l-142 211l-219 -211h-119z" />
<glyph unicode="&#xfc;" horiz-adv-x="1122" d="M119 252q0 60 16 135l144 672h120l-145 -694q-12 -61 -12 -115q0 -176 159 -176q52 0 105 18.5t101 52.5t85 66.5t78 75.5l172 772h121l-236 -1059h-100l27 160q-106 -96 -192 -140.5t-181 -44.5q-136 0 -199 76.5t-63 200.5zM453 1210l41 181h153l-41 -181h-153z M774 1210l41 181h154l-41 -181h-154z" />
<glyph unicode="&#xfd;" horiz-adv-x="919" d="M-98 -367l24 107q44 -12 92 -12q86 0 140.5 54.5t113.5 184.5l21 45l-162 1047h121l131 -879h4l451 879h125l-547 -1075q-81 -159 -113 -206q-74 -108 -175 -139q-52 -16 -118 -16q-50 0 -108 10zM489 1184l228 286h174l-293 -286h-109z" />
<glyph unicode="&#xfe;" horiz-adv-x="1120" d="M-16 -352l405 1822h121l-123 -552q70 80 158.5 122.5t173.5 42.5q165 0 250.5 -111t85.5 -306q0 -188 -61.5 -342.5t-178 -247t-266.5 -92.5q-107 0 -196 51t-130 147l-119 -534h-120zM262 346q29 -128 106 -195t193 -67q110 0 196 77t132.5 209.5t46.5 295.5 q0 152 -58.5 234.5t-177.5 82.5q-169 0 -348 -219z" />
<glyph unicode="&#xff;" horiz-adv-x="919" d="M-98 -367l24 107q44 -12 92 -12q86 0 140.5 54.5t113.5 184.5l21 45l-162 1047h121l131 -879h4l451 879h125l-547 -1075q-81 -159 -113 -206q-74 -108 -175 -139q-52 -16 -118 -16q-50 0 -108 10zM336 1210l41 181h153l-41 -181h-153zM657 1210l41 181h154l-41 -181h-154 z" />
<glyph unicode="&#x152;" horiz-adv-x="1931" d="M129 571q0 144 31.5 277.5t97.5 249.5t160.5 202t227.5 135.5t290 49.5q150 0 324 -15h733l-27 -114h-592l-119 -533h461l-24 -114h-461l-133 -594h704l-26 -115h-826q-146 -14 -258 -14q-563 0 -563 585zM262 571q0 -226 115 -348.5t321 -122.5q133 0 203.5 40.5 t93.5 140.5l201 888q14 62 -2.5 103.5t-59.5 62t-91 28t-113 7.5q-160 0 -289 -65.5t-210.5 -177t-125 -254t-43.5 -302.5z" />
<glyph unicode="&#x153;" horiz-adv-x="1716" d="M66 391q0 95 20 191.5t62.5 186.5t101.5 160t145 112t185 42q125 0 208.5 -60.5t120.5 -176.5h4q153 237 387 237q174 0 260.5 -110t86.5 -293q0 -76 -15 -158h-706q-6 -53 -6 -102q0 -166 54 -255t177 -89q99 0 179 48.5t153 158.5l90 -64q-160 -244 -430 -244 q-252 0 -320 252h-4q-69 -116 -169 -184t-228 -68q-168 0 -262 108.5t-94 307.5zM184 391q0 -143 61.5 -229t182.5 -86q83 0 150.5 38.5t111 99.5t73 140.5t42 158t12.5 155.5q0 144 -61 229.5t-183 85.5q-80 0 -146 -37t-110.5 -96.5t-75 -138t-44 -159t-13.5 -161.5z M940 621h584q6 43 6 84q0 138 -64 208t-174 70q-135 0 -225.5 -100.5t-126.5 -261.5z" />
<glyph unicode="&#x178;" horiz-adv-x="1024" d="M199 1470h143l219 -696h4l482 696h159l-594 -831l-143 -639h-139l141 639zM475 1606l41 180h154l-41 -180h-154zM797 1606l41 180h153l-41 -180h-153z" />
<glyph unicode="&#x2c6;" horiz-adv-x="819" d="M117 1184l260 286h174l151 -286h-106l-141 211l-219 -211h-119z" />
<glyph unicode="&#x2dc;" horiz-adv-x="819" d="M88 1206q12 94 58.5 146.5t125.5 52.5q52 0 149 -45t146 -45q67 0 80 100h84q-12 -94 -58.5 -146t-125.5 -52q-53 0 -149 45t-146 45q-33 0 -53.5 -27t-26.5 -74h-84z" />
<glyph unicode="&#x2000;" horiz-adv-x="990" />
<glyph unicode="&#x2001;" horiz-adv-x="1980" />
<glyph unicode="&#x2002;" horiz-adv-x="990" />
<glyph unicode="&#x2003;" horiz-adv-x="1980" />
<glyph unicode="&#x2004;" horiz-adv-x="660" />
<glyph unicode="&#x2005;" horiz-adv-x="495" />
<glyph unicode="&#x2006;" horiz-adv-x="330" />
<glyph unicode="&#x2007;" horiz-adv-x="330" />
<glyph unicode="&#x2008;" horiz-adv-x="247" />
<glyph unicode="&#x2009;" horiz-adv-x="396" />
<glyph unicode="&#x200a;" horiz-adv-x="110" />
<glyph unicode="&#x2010;" horiz-adv-x="661" d="M76 467l26 117h504l-26 -117h-504z" />
<glyph unicode="&#x2011;" horiz-adv-x="661" d="M76 467l26 117h504l-26 -117h-504z" />
<glyph unicode="&#x2012;" horiz-adv-x="661" d="M76 467l26 117h504l-26 -117h-504z" />
<glyph unicode="&#x2013;" horiz-adv-x="1327" d="M78 481l20 90h1170l-21 -90h-1169z" />
<glyph unicode="&#x2014;" horiz-adv-x="1945" d="M8 481l21 90h1925l-21 -90h-1925z" />
<glyph unicode="&#x2018;" horiz-adv-x="569" d="M279 973l43 201l194 296h84l-182 -307h78l-41 -190h-176z" />
<glyph unicode="&#x2019;" horiz-adv-x="569" d="M252 973l182 307h-78l41 190h176l-43 -200l-194 -297h-84z" />
<glyph unicode="&#x201a;" horiz-adv-x="569" d="M-18 -307l182 307h-78l41 190h176l-43 -200l-194 -297h-84z" />
<glyph unicode="&#x201c;" horiz-adv-x="931" d="M279 973l43 201l194 296h84l-182 -307h78l-41 -190h-176zM641 973l43 201l195 296h84l-183 -307h78l-41 -190h-176z" />
<glyph unicode="&#x201d;" horiz-adv-x="931" d="M252 973l182 307h-78l41 190h176l-43 -200l-194 -297h-84zM614 973l183 307h-78l41 190h176l-43 -200l-195 -297h-84z" />
<glyph unicode="&#x201e;" horiz-adv-x="931" d="M-18 -307l182 307h-78l41 190h176l-43 -200l-194 -297h-84zM344 -307l182 307h-77l40 190h177l-43 -200l-195 -297h-84z" />
<glyph unicode="&#x2022;" horiz-adv-x="1024" d="M195 735q0 153 107 261t259 108t260.5 -108.5t108.5 -260.5t-108 -259t-261 -107q-152 0 -259 107t-107 259z" />
<glyph unicode="&#x2026;" horiz-adv-x="2117" d="M51 0l41 190h176l-41 -190h-176zM825 0l41 190h176l-41 -190h-176zM1599 0l41 190h177l-41 -190h-177z" />
<glyph unicode="&#x202f;" horiz-adv-x="396" />
<glyph unicode="&#x2039;" horiz-adv-x="663" d="M119 524l287 314h133l-289 -314l199 -317h-125z" />
<glyph unicode="&#x203a;" horiz-adv-x="663" d="M115 207l288 313l-198 318h125l205 -318l-287 -313h-133z" />
<glyph unicode="&#x205f;" horiz-adv-x="495" />
<glyph unicode="&#x20ac;" d="M76 573l20 97h137q10 102 23 174h-121l21 96h120q30 121 77.5 219.5t114 175t157 118.5t198.5 42q305 0 398 -293l-123 -41q-76 225 -285 225q-78 0 -145 -34t-116.5 -96t-85.5 -140.5t-60 -175.5h524l-21 -96h-526q-12 -67 -23 -174h510l-20 -97h-496v-75 q0 -93 15 -166.5t46.5 -130t84.5 -87t125 -30.5q112 0 192 57.5t148 169.5l112 -63q-91 -150 -206 -211.5t-255 -61.5q-389 0 -389 523v75h-151z" />
<glyph unicode="&#x2122;" horiz-adv-x="1480" d="M178 1389v81h504v-81h-207v-654h-92v654h-205zM793 735v735h157l183 -618h4l176 618h155v-735h-94v660h-4l-184 -660h-101l-198 660h-4v-660h-90z" />
<glyph unicode="&#x25fc;" horiz-adv-x="1054" d="M0 0v1055h1055v-1055h-1055z" />
</font>
</defs>
</svg>
