<svg version="1" xmlns="http://www.w3.org/2000/svg" width="693.333" height="693.333" viewBox="0 0 520.000000 520.000000"><path d="M0 260v260h520V0H0v260zm290.9-141.9c25.9 2 40 7.7 54.1 21.9 9.5 9.5 15 18 18.3 28.5 1.8 5.9 2.2 9.2 2.2 21-.1 12.5-.4 14.8-2.7 21.3-1.5 4.1-4.2 9.9-6 13-4.6 7.8-17 20-24.3 23.9-5 2.7-5.7 3.3-4 3.9 15.2 5.3 28.9 14.1 36.1 23.2 6.2 7.8 12.1 20.2 14 29.2 1.2 5.4 1.5 11 1.1 20-.4 10.7-.9 13.9-3.7 22.2-8.2 24.6-24.9 42.4-47 50.3-15.6 5.5-19.4 5.7-107.7 6.2l-81.3.5V117h68.8c39.7 0 74.4.5 82.1 1.1z"/><path d="M198.2 197.7l.3 32.8 28 .3c35.4.3 54.9-.8 62.7-3.8 7.5-2.8 14.9-9.5 17.9-16.2 2-4.4 2.4-6.9 2.3-14.3 0-11-2.3-16.4-9.4-22.8-8.9-8-9.6-8.1-58.8-8.5l-43.2-.3.2 32.8zm.5 81c-.4.3-.7 17.7-.7 38.6v37.9l44.8-.5c34.7-.3 45.9-.8 50.2-1.9 15.6-4.1 24.8-14.1 26.9-29 2.3-16.9-4.9-32.2-18.6-39.2-5.8-2.9-16-4.6-33.6-5.6-19.7-1.1-68-1.3-69-.3z"/></svg>