<svg version="1" xmlns="http://www.w3.org/2000/svg" width="693.333" height="693.333" viewBox="0 0 520.000000 520.000000"><path d="M0 260v260h520V0H0v260zm294.5-141.9c19.5 2 31.6 6.2 44 15.4 11.8 8.8 22.8 25 26 38.6 1.9 8.3 1.9 25.8 0 33.4-2.9 11.5-9 22.1-17.9 31-4.5 4.5-10.6 9.6-13.6 11.3-4.6 2.6-5.2 3.2-3.5 3.8 29.7 10.5 47.5 31.7 50.4 60.1 3.5 33.7-14 67.4-42.4 81.4-10.8 5.3-21.3 7.8-38 8.9-7.7.5-46.7 1-86.7 1H140V117h71.8c44.8 0 76 .4 82.7 1.1z"/><path d="M198 197.5V230h38.9c21.9 0 41.1-.4 44.1-1 12.1-2.3 21.2-8.6 25.7-17.8 2.3-4.8 2.7-6.8 2.7-14.1-.1-17.9-9.1-28.1-27.4-31-3.7-.6-22.9-1.1-45.2-1.1H198v32.5zm.2 119.2l.3 37.8 43.5-.1c47.2-.1 52.6-.6 61.5-5.9 5.8-3.4 11.9-10.3 14.1-16.1 2.7-6.9 2.7-22.9 0-29.9-2.4-6.2-9.6-14-15.9-17.2-10.1-5.1-14.9-5.5-61-6l-42.7-.5.2 37.9z"/></svg>