<?xml version="1.0" encoding="utf-8"?> <!-- Generator: IcoMoon.io --> <!DOCTYPE svg PUBLIC "-//W3C//DTD SVG 1.1//EN" "http://www.w3.org/Graphics/SVG/1.1/DTD/svg11.dtd"> <svg width="32" height="32" viewBox="0 0 32 32" xmlns="http://www.w3.org/2000/svg" xmlns:xlink="http://www.w3.org/1999/xlink" fill="#ffffff"><g><path d="M 24,0L 6,0 C 4.9,0, 4,0.9, 4,2l0,28 c0,1.1, 0.9,2, 2,2l 18,0 c 1.1,0, 2-0.9, 2-2L 26,2 C 26,0.9, 25.1,0, 24,0z M 15,30.556c-0.859,0-1.556-0.697-1.556-1.556s 0.697-1.556, 1.556-1.556s 1.556,0.697, 1.556,1.556 S 15.859,30.556, 15,30.556z M 24,26L 6,26 L 6,4 l 18,0 L 24,26 z"></path></g></svg>